<?xml version="1.0" encoding="UTF-8"?>
<svg width="521.31" height="598.94" version="1.1" viewBox="0 0 137.93 158.47" xmlns="http://www.w3.org/2000/svg">
 <style>.themed {
      fill: #000000;
      stroke: #000000;
    }
    @media (prefers-color-scheme: dark) {
      .themed {
        fill: #ffffff;
        stroke: #ffffff;
      }
    }</style>
 <g stroke="#6e738d" stroke-linecap="square" style="paint-order:fill markers stroke">
  <g fill="#eed49f">
   <path d="m45.352 40.555-5.6051-1.3871-1.6029-5.5532 4.0064-4.159 5.6107 1.3885 1.6043 5.5476z" style="paint-order:fill markers stroke"/>
   <path d="m54.959 37.781-5.6051-1.3871-1.6029-5.5532 4.0064-4.159 5.6107 1.3885 1.6043 5.5476z" style="paint-order:fill markers stroke"/>
   <path d="m62.169 44.716-5.6051-1.3871-1.6029-5.5532 4.0064-4.159 5.6107 1.3885 1.6043 5.5476z" style="paint-order:fill markers stroke"/>
   <path d="m71.779 41.94-5.6051-1.3871-1.6029-5.5532 4.0064-4.159 5.6107 1.3885 1.6043 5.5476z" style="paint-order:fill markers stroke"/>
   <path d="m81.379 39.168-5.6051-1.3871-1.6029-5.5532 4.0064-4.159 5.6107 1.3885 1.6043 5.5476z" style="paint-order:fill markers stroke"/>
   <path d="m88.589 46.103-5.6051-1.3871-1.6029-5.5532 4.0064-4.159 5.6107 1.3885 1.6043 5.5476z" style="paint-order:fill markers stroke"/>
   <path d="m98.201 43.33-5.6051-1.3871-1.6029-5.5532 4.0064-4.159 5.6107 1.3885 1.6043 5.5476z" style="paint-order:fill markers stroke"/>
  </g>
  <g fill="#a6da95">
   <path d="m47.754 30.847-5.6051-1.3871-1.6029-5.5532 4.0064-4.159 5.6107 1.3885 1.6043 5.5476z" style="paint-order:fill markers stroke"/>
   <path d="m64.569 35.008-5.6051-1.3871-1.6029-5.5532 4.0064-4.159 5.6107 1.3885 1.6043 5.5476z" style="paint-order:fill markers stroke"/>
   <path d="m74.179 32.235-5.6051-1.3871-1.6029-5.5532 4.0064-4.159 5.6107 1.3885 1.6043 5.5476z" style="paint-order:fill markers stroke"/>
   <path d="m90.989 36.395-5.6051-1.3871-1.6029-5.5532 4.0064-4.159 5.6107 1.3885 1.6043 5.5476z" style="paint-order:fill markers stroke"/>
   <path d="m38.147 33.621-5.6051-1.3871-1.6029-5.5532 4.0064-4.159 5.6107 1.3885 1.6043 5.5476z" style="paint-order:fill markers stroke"/>
  </g>
  <g fill="#8aadf4">
   <path d="m50.156 21.142-5.6051-1.3871-1.6029-5.5532 4.0064-4.159 5.6107 1.3885 1.6043 5.5476z" style="paint-order:fill markers stroke"/>
   <path d="m66.969 25.3-5.6051-1.3871-1.6029-5.5532 4.0064-4.159 5.6107 1.3885 1.6043 5.5476z" style="paint-order:fill markers stroke"/>
   <path d="m83.788 29.462-5.6051-1.3871-1.6029-5.5532 4.0064-4.159 5.6107 1.3885 1.6043 5.5476z" style="paint-order:fill markers stroke"/>
   <path d="m57.364 28.074-5.6051-1.3871-1.6029-5.5532 4.0064-4.159 5.6107 1.3885 1.6043 5.5476z" style="paint-order:fill markers stroke"/>
   <path d="m76.579 22.527-5.6051-1.3871-1.6029-5.5532 4.0064-4.159 5.6107 1.3885 1.6043 5.5476z" style="paint-order:fill markers stroke"/>
   <path d="m93.388 26.69-5.6051-1.3871-1.6029-5.5532 4.0064-4.159 5.6107 1.3885 1.6043 5.5476z" style="paint-order:fill markers stroke"/>
   <path d="m40.55 23.913-5.6051-1.3871-1.6029-5.5532 4.0064-4.159 5.6107 1.3885 1.6043 5.5476z" style="paint-order:fill markers stroke"/>
  </g>
  <g fill="#f5a97f">
   <path d="m42.95 50.263-5.6051-1.3871-1.6029-5.5532 4.0064-4.159 5.6107 1.3885 1.6043 5.5476z" style="paint-order:fill markers stroke"/>
   <path d="m52.559 47.489-5.6051-1.3871-1.6029-5.5532 4.0064-4.159 5.6107 1.3885 1.6043 5.5476z" style="paint-order:fill markers stroke"/>
   <path d="m69.369 51.65-5.6051-1.3871-1.6029-5.5532 4.0064-4.159 5.6107 1.3885 1.6043 5.5476z" style="paint-order:fill markers stroke"/>
   <path d="m78.979 48.877-5.6051-1.3871-1.6029-5.5532 4.0064-4.159 5.6107 1.3885 1.6043 5.5476z" style="paint-order:fill markers stroke"/>
   <path d="m95.789 53.037-5.6051-1.3871-1.6029-5.5532 4.0064-4.159 5.6107 1.3885 1.6043 5.5476z" style="paint-order:fill markers stroke"/>
  </g>
 </g>
 <g fill="#ed8796" stroke="#6e738d" stroke-linecap="square">
  <path d="m50.157 57.197-5.6051-1.3871-1.6029-5.5532 4.0064-4.159 5.6107 1.3885 1.6043 5.5476z" style="paint-order:fill markers stroke"/>
  <path d="m59.765 54.421-5.6051-1.3871-1.6029-5.5532 4.0064-4.159 5.6107 1.3885 1.6043 5.5476z" style="paint-order:fill markers stroke"/>
  <path d="m66.967 61.357-5.6051-1.3871-1.6029-5.5532 4.0064-4.159 5.6107 1.3885 1.6043 5.5476z" style="paint-order:fill markers stroke"/>
  <path d="m76.579 58.585-5.6051-1.3871-1.6029-5.5532 4.0064-4.159 5.6107 1.3885 1.6043 5.5476z" style="paint-order:fill markers stroke"/>
  <path d="m86.189 55.811-5.6051-1.3871-1.6029-5.5532 4.0064-4.159 5.6107 1.3885 1.6043 5.5476z" style="paint-order:fill markers stroke"/>
  <path d="m93.389 62.745-5.6051-1.3871-1.6029-5.5532 4.0064-4.159 5.6107 1.3885 1.6043 5.5476z" style="paint-order:fill markers stroke"/>
  <path d="m103 59.972-5.6051-1.3871-1.6029-5.5532 4.0064-4.159 5.6107 1.3885 1.6043 5.5476z" style="paint-order:fill markers stroke"/>
 </g>
 <g fill="#fff" stroke="#333" stroke-linecap="square" stroke-width=".5" paint-order="markers stroke fill">
  <path d="m18.66 98.11-2.1 2.18-2.93-.73-2.1 2.18.85 2.9-2.1 2.18.84 2.9 2.93.73.84 2.9-2.1 2.18.84 2.9 2.93.73.84 2.9 2.94.73 2.1-2.18 2.92.73.84 2.9 2.94.73 2.1-2.18 2.93.73 2.1-2.18 2.92.72.84 2.9 2.93.73 2.1-2.17 2.93.72 2.1-2.17-.84-2.9-2.93-.73-.84-2.9 2.1-2.18-.84-2.9-2.94-.73-.83-2.9 2.1-2.19-.85-2.9-2.93-.72-2.1 2.17-2.93-.72-.84-2.9-2.93-.73-2.1 2.18-2.93-.73-2.1 2.18-2.93-.73-.84-2.9zm15.09 14.52 2.93.72h0z"/>
  <path d="m51.35 98.11-2.1 2.18-2.93-.73-2.1 2.18.84 2.9-2.1 2.18.84 2.9 2.94.73.84 2.9-2.1 2.18.84 2.9 2.93.73.84 2.9 2.93.73 2.1-2.18 2.93.73.84 2.9 2.93.73 2.1-2.18 2.93.73 2.1-2.18 2.93.72.84 2.9 2.93.73 2.1-2.17 2.93.72 2.1-2.17-.84-2.9-2.94-.73-.83-2.9 2.1-2.18-.84-2.9-2.94-.73-.84-2.9 2.1-2.19-.84-2.9-2.93-.72-2.1 2.17-2.93-.72-.84-2.9-2.93-.73-2.1 2.18-2.93-.73-2.1 2.18-2.93-.73-.84-2.9zm15.08 14.52 2.94.72h0zm-44 7.98-2.1 2.18-2.93-.73-2.1 2.18.85 2.9-2.1 2.18.84 2.9 2.93.73.84 2.9-2.1 2.18.84 2.9 2.94.73.83 2.9 2.94.73 2.1-2.18 2.93.73.83 2.9 2.94.73 2.1-2.18 2.93.73 2.1-2.18 2.92.72.84 2.9 2.94.73 2.1-2.17 2.92.72 2.1-2.18-.84-2.9-2.93-.72-.84-2.9 2.1-2.19-.84-2.9-2.94-.72-.83-2.9 2.1-2.19-.85-2.9-2.93-.72-2.1 2.17-2.93-.72-.84-2.9-2.93-.73-2.1 2.18-2.93-.73-2.1 2.18-2.93-.73-.84-2.9zm15.09 14.52 2.93.72h0z"/>
  <path d="m55.12 120.61-2.1 2.18-2.93-.73-2.1 2.18.84 2.9-2.1 2.18.84 2.9 2.94.73.84 2.9-2.1 2.18.84 2.9 2.93.73.84 2.9 2.93.73 2.1-2.18 2.93.73.84 2.9 2.93.73 2.1-2.18 2.93.73 2.1-2.18 2.93.72.84 2.9 2.93.73 2.1-2.17 2.93.72 2.1-2.18-.84-2.9-2.93-.72-.84-2.9 2.1-2.19-.84-2.9-2.94-.72-.84-2.9 2.1-2.19-.84-2.9-2.93-.72-2.1 2.17-2.93-.72-.84-2.9-2.93-.73-2.1 2.18-2.93-.73-2.1 2.18-2.93-.73-.84-2.9zm15.08 14.52 2.94.72h0zM84.04 98.1l-2.1 2.18-2.93-.73-2.1 2.18.84 2.9-2.1 2.18.84 2.9 2.94.73.84 2.9-2.1 2.18.84 2.9 2.93.73.84 2.9 2.93.73 2.1-2.18 2.93.73.84 2.9 2.93.73 2.1-2.18 2.93.73 2.1-2.18 2.93.72.84 2.9 2.93.73 2.1-2.17 2.93.72 2.1-2.17-.84-2.9-2.94-.73-.83-2.9 2.1-2.19-.85-2.9-2.93-.72-.84-2.9 2.1-2.19-.84-2.9-2.93-.72-2.1 2.17-2.93-.72-.84-2.9-2.93-.73-2.1 2.18-2.93-.73-2.1 2.18-2.93-.73-.84-2.9zm15.08 14.52 2.94.72h0z"/>
  <path d="m87.8 120.61-2.09 2.18-2.93-.73-2.1 2.18.84 2.9-2.1 2.18.84 2.9 2.94.73.84 2.9-2.1 2.18.84 2.9 2.93.73.84 2.9 2.93.73 2.1-2.18 2.93.73.84 2.9 2.93.73 2.1-2.18 2.93.73 2.1-2.18 2.93.72.84 2.9 2.93.73 2.1-2.17 2.93.72 2.1-2.18-.84-2.9-2.94-.72-.83-2.9 2.1-2.19-.85-2.9-2.93-.72-.84-2.9 2.1-2.19-.84-2.9-2.93-.72-2.1 2.17-2.93-.72-.84-2.9-2.93-.73-2.1 2.18-2.93-.73-2.1 2.18-2.93-.73-.84-2.9zm15.1 14.52 2.93.72h0z"/>
 </g>
 <text class="themed" transform="translate(-66.04 -64.44)" x="184.78" y="188.41" font-family="'IBM Plex Sans'" font-size="11.45" font-weight="600" letter-spacing="-.14" stroke-linecap="square" stroke-width=".09" style="line-height:1.2" paint-order="markers stroke fill" xml:space="preserve">
    <tspan x="184.78" y="188.41">...</tspan>
  </text>
 <path class="themed" d="M73.75 81.9H71V70.2h-4.08v11.7h-2.74l4.78 8.28z" paint-order="markers stroke fill"/>
</svg>
