<?xml version="1.0" encoding="UTF-8"?>
<svg width="475.87" height="595.96" version="1.1" viewBox="0 0 125.91 157.68" xmlns="http://www.w3.org/2000/svg">
 <style>.themed {
      fill: #000000;
      stroke: #000000;
    }
    @media (prefers-color-scheme: dark) {
      .themed {
        fill: #ffffff;
        stroke: #ffffff;
      }
    }</style>
 <path d="m59.85 64.037v11.17h-3.5137c2.2034 3.8196 4.4089 7.638 6.6133 11.457 2.2088-3.8187 4.4176-7.6375 6.625-11.457h-3.5273v-11.699c-2.0658 0-4.1315 1e-6 -6.1973 0v0.5293z" fill="#cad3f5"/>
 <path d="m40.221 2.8685c-1.2624 1.3137-2.529 2.6234-3.793 3.9355-1.8671-0.46247-3.7347-0.92305-5.6016-1.3867-1.7576 1.829-3.5181 3.6551-5.2773 5.4824 0.5375 1.8496 1.0699 3.7006 1.6055 5.5508-1.336 1.3854-2.6718 2.7709-4.0078 4.1562 0.70662 2.4369 1.4097 4.8748 2.1133 7.3125 1.8675 0.46418 3.7357 0.92556 5.6035 1.3887 0.36523 1.2617 0.73047 2.5234 1.0957 3.7852-1.3366 1.3854-2.6732 2.7708-4.0098 4.1562 0.70658 2.4362 1.4097 4.8735 2.1133 7.3105 1.8688 0.46473 3.7383 0.92688 5.6074 1.3906 0.53304 1.8484 1.0674 3.6963 1.5996 5.5449 2.4613 0.61203 4.9235 1.22 7.3848 1.832 1.3353-1.3893 2.6748-2.7744 4.0117-4.1621 1.2702 0.3138 2.5404 0.6276 3.8105 0.94141 0.53368 1.8497 1.0688 3.6989 1.6016 5.5488 2.4619 0.61208 4.9248 1.22 7.3867 1.832 1.3341-1.3885 2.6722-2.7731 4.0078-4.1602 1.8678 0.4631 3.736 0.92451 5.6035 1.3887 1.3347-1.3892 2.6735-2.7744 4.0098-4.1621 1.2708 0.31445 2.5417 0.62891 3.8125 0.94336 0.53366 1.8484 1.0689 3.6963 1.6016 5.5449 2.4619 0.61254 4.9248 1.2214 7.3867 1.834 1.3346-1.3886 2.6735-2.7731 4.0098-4.1602 1.8671 0.46247 3.7347 0.92305 5.6016 1.3867 1.76-1.831 3.5234-3.6589 5.2851-5.4883-0.70642-2.4343-1.4099-4.8695-2.1133-7.3047-1.8701-0.46483-3.7409-0.92687-5.6113-1.3906-0.36393-1.2604-0.72786-2.5208-1.0918-3.7812 1.3392-1.3887 2.6783-2.7774 4.0176-4.166-0.70689-2.4344-1.4113-4.8694-2.1152-7.3047-1.8701-0.46483-3.7409-0.92687-5.6113-1.3906-0.36458-1.2624-0.72917-2.5247-1.0938-3.7871 1.336-1.3854 2.6718-2.7709 4.0078-4.1562-0.70686-2.437-1.4123-4.8744-2.1152-7.3125-2.4646-0.60696-4.9287-1.2161-7.3926-1.8262-1.3329 1.3877-2.6696 2.7719-4.0039 4.1582-1.2702-0.3138-2.5404-0.6276-3.8105-0.94141-0.53367-1.849-1.0689-3.6976-1.6016-5.5469-2.4639-0.61269-4.9287-1.2213-7.3926-1.834-1.3335 1.3884-2.6709 2.7732-4.0059 4.1602-1.8678-0.46248-3.736-0.923-5.6035-1.3867-1.3337 1.3889-2.6708 2.7745-4.0059 4.1621-1.2715-0.3151-2.543-0.63021-3.8145-0.94531-0.53364-1.8471-1.0691-3.6936-1.6016-5.541-2.4632-0.61264-4.9274-1.2213-7.3906-1.834-0.07096 0.074219-0.14193 0.14844-0.21289 0.22266z" fill="#cad3f5" style="paint-order:fill markers stroke"/>
 <g stroke="#6e738d" stroke-linecap="square">
  <g transform="translate(-6.0117 -5.6334)" fill="#eed49f" style="paint-order:fill markers stroke">
   <path d="m45.352 40.555-5.6051-1.3871-1.6029-5.5532 4.0064-4.159 5.6107 1.3885 1.6043 5.5476z" style="paint-order:fill markers stroke"/>
   <path d="m54.959 37.781-5.6051-1.3871-1.6029-5.5532 4.0064-4.159 5.6107 1.3885 1.6043 5.5476z" style="paint-order:fill markers stroke"/>
   <path d="m62.169 44.716-5.6051-1.3871-1.6029-5.5532 4.0064-4.159 5.6107 1.3885 1.6043 5.5476z" style="paint-order:fill markers stroke"/>
   <path d="m71.779 41.94-5.6051-1.3871-1.6029-5.5532 4.0064-4.159 5.6107 1.3885 1.6043 5.5476z" style="paint-order:fill markers stroke"/>
   <path d="m81.379 39.168-5.6051-1.3871-1.6029-5.5532 4.0064-4.159 5.6107 1.3885 1.6043 5.5476z" style="paint-order:fill markers stroke"/>
   <path d="m88.589 46.103-5.6051-1.3871-1.6029-5.5532 4.0064-4.159 5.6107 1.3885 1.6043 5.5476z" style="paint-order:fill markers stroke"/>
   <path d="m98.201 43.33-5.6051-1.3871-1.6029-5.5532 4.0064-4.159 5.6107 1.3885 1.6043 5.5476z" style="paint-order:fill markers stroke"/>
  </g>
  <g transform="translate(-6.0117 -5.6334)" fill="#a6da95" style="paint-order:fill markers stroke">
   <path d="m47.754 30.847-5.6051-1.3871-1.6029-5.5532 4.0064-4.159 5.6107 1.3885 1.6043 5.5476z" style="paint-order:fill markers stroke"/>
   <path d="m64.569 35.008-5.6051-1.3871-1.6029-5.5532 4.0064-4.159 5.6107 1.3885 1.6043 5.5476z" style="paint-order:fill markers stroke"/>
   <path d="m74.179 32.235-5.6051-1.3871-1.6029-5.5532 4.0064-4.159 5.6107 1.3885 1.6043 5.5476z" style="paint-order:fill markers stroke"/>
   <path d="m90.989 36.395-5.6051-1.3871-1.6029-5.5532 4.0064-4.159 5.6107 1.3885 1.6043 5.5476z" style="paint-order:fill markers stroke"/>
   <path d="m38.147 33.621-5.6051-1.3871-1.6029-5.5532 4.0064-4.159 5.6107 1.3885 1.6043 5.5476z" style="paint-order:fill markers stroke"/>
  </g>
  <g transform="translate(-6.0117 -5.6334)" fill="#8aadf4" style="paint-order:fill markers stroke">
   <path d="m50.156 21.142-5.6051-1.3871-1.6029-5.5532 4.0064-4.159 5.6107 1.3885 1.6043 5.5476z" style="paint-order:fill markers stroke"/>
   <path d="m66.969 25.3-5.6051-1.3871-1.6029-5.5532 4.0064-4.159 5.6107 1.3885 1.6043 5.5476z" style="paint-order:fill markers stroke"/>
   <path d="m83.788 29.462-5.6051-1.3871-1.6029-5.5532 4.0064-4.159 5.6107 1.3885 1.6043 5.5476z" style="paint-order:fill markers stroke"/>
   <path d="m57.364 28.074-5.6051-1.3871-1.6029-5.5532 4.0064-4.159 5.6107 1.3885 1.6043 5.5476z" style="paint-order:fill markers stroke"/>
   <path d="m76.579 22.527-5.6051-1.3871-1.6029-5.5532 4.0064-4.159 5.6107 1.3885 1.6043 5.5476z" style="paint-order:fill markers stroke"/>
   <path d="m93.388 26.69-5.6051-1.3871-1.6029-5.5532 4.0064-4.159 5.6107 1.3885 1.6043 5.5476z" style="paint-order:fill markers stroke"/>
   <path d="m40.55 23.913-5.6051-1.3871-1.6029-5.5532 4.0064-4.159 5.6107 1.3885 1.6043 5.5476z" style="paint-order:fill markers stroke"/>
  </g>
  <g transform="translate(-6.0117 -5.6334)" fill="#f5a97f" style="paint-order:fill markers stroke">
   <path d="m42.95 50.263-5.6051-1.3871-1.6029-5.5532 4.0064-4.159 5.6107 1.3885 1.6043 5.5476z" style="paint-order:fill markers stroke"/>
   <path d="m52.559 47.489-5.6051-1.3871-1.6029-5.5532 4.0064-4.159 5.6107 1.3885 1.6043 5.5476z" style="paint-order:fill markers stroke"/>
   <path d="m69.369 51.65-5.6051-1.3871-1.6029-5.5532 4.0064-4.159 5.6107 1.3885 1.6043 5.5476z" style="paint-order:fill markers stroke"/>
   <path d="m78.979 48.877-5.6051-1.3871-1.6029-5.5532 4.0064-4.159 5.6107 1.3885 1.6043 5.5476z" style="paint-order:fill markers stroke"/>
   <path d="m95.789 53.037-5.6051-1.3871-1.6029-5.5532 4.0064-4.159 5.6107 1.3885 1.6043 5.5476z" style="paint-order:fill markers stroke"/>
  </g>
  <g transform="translate(-6.0117 -5.6334)" fill="#ed8796">
   <path d="m50.157 57.197-5.6051-1.3871-1.6029-5.5532 4.0064-4.159 5.6107 1.3885 1.6043 5.5476z" style="paint-order:fill markers stroke"/>
   <path d="m59.765 54.421-5.6051-1.3871-1.6029-5.5532 4.0064-4.159 5.6107 1.3885 1.6043 5.5476z" style="paint-order:fill markers stroke"/>
   <path d="m66.967 61.357-5.6051-1.3871-1.6029-5.5532 4.0064-4.159 5.6107 1.3885 1.6043 5.5476z" style="paint-order:fill markers stroke"/>
   <path d="m76.579 58.585-5.6051-1.3871-1.6029-5.5532 4.0064-4.159 5.6107 1.3885 1.6043 5.5476z" style="paint-order:fill markers stroke"/>
   <path d="m86.189 55.811-5.6051-1.3871-1.6029-5.5532 4.0064-4.159 5.6107 1.3885 1.6043 5.5476z" style="paint-order:fill markers stroke"/>
   <path d="m93.389 62.745-5.6051-1.3871-1.6029-5.5532 4.0064-4.159 5.6107 1.3885 1.6043 5.5476z" style="paint-order:fill markers stroke"/>
   <path d="m103 59.972-5.6051-1.3871-1.6029-5.5532 4.0064-4.159 5.6107 1.3885 1.6043 5.5476z" style="paint-order:fill markers stroke"/>
  </g>
 </g>
 <path d="m77.044 91.511c-0.62928 0.65264-1.2578 1.306-1.8867 1.959-0.97788-0.24343-1.9556-0.48737-2.9336-0.73047-0.7012 0.73234-1.4051 1.462-2.1074 2.1934-0.97269-0.23946-1.9451-0.47995-2.918-0.71875-0.70168 0.72217-1.4009 1.4468-2.1016 2.1699-0.58333-0.14323-1.1667-0.28646-1.75-0.42969-0.27847-0.96555-0.55844-1.9307-0.83594-2.8965-1.3708-0.34363-2.7423-0.68448-4.1133-1.0273-0.7002 0.72624-1.3997 1.4532-2.0996 2.1797-0.97788-0.24343-1.9556-0.48737-2.9336-0.73047-0.69735 0.72838-1.3973 1.4542-2.0957 2.1816-0.58333-0.14518-1.1667-0.29036-1.75-0.43554-0.27908-0.96621-0.56002-1.9319-0.83789-2.8984-1.3708-0.34363-2.7423-0.68448-4.1133-1.0273-0.7002 0.72624-1.3997 1.4532-2.0996 2.1797-0.97782-0.24299-1.956-0.48466-2.9336-0.72852-0.69842 0.72926-1.4 1.4555-2.0996 2.1836-0.97594-0.24013-1.9517-0.48116-2.9277-0.7207-0.70126 0.72196-1.3995 1.4468-2.0996 2.1699-0.58333-0.14323-1.1667-0.28646-1.75-0.42969-0.27847-0.96555-0.55844-1.9307-0.83594-2.8965-1.3708-0.34363-2.7423-0.68448-4.1133-1.0273-0.7002 0.72624-1.3997 1.4532-2.0996 2.1797-0.97655-0.24355-1.9532-0.48657-2.9297-0.73047-0.70085 0.7269-1.401 1.4545-2.1016 2.1816-0.58268-0.14453-1.1654-0.28906-1.748-0.43359-0.2791-0.96686-0.5599-1.9332-0.83789-2.9004-1.3708-0.34363-2.7423-0.68448-4.1133-1.0273-0.7002 0.72624-1.3997 1.4532-2.0996 2.1797-0.97649-0.24312-1.9536-0.48387-2.9297-0.72852-0.98447 1.0207-1.9687 2.0418-2.9531 3.0625 0.28254 0.96718 0.56791 1.9335 0.85156 2.9004-0.70054 0.72654-1.4009 1.4532-2.1016 2.1797 0.39497 1.3569 0.78772 2.7145 1.1797 4.0723 0.97761 0.24386 1.9558 0.48552 2.9336 0.72851 0.1122 0.59177 0.48008 1.2468 0.43059 1.7986-0.67805 0.7032-1.356 1.4065-2.0341 2.1096 0.39439 1.3573 0.78851 2.7146 1.1816 4.0723 0.97684 0.24501 1.9545 0.48675 2.9316 0.73047 0.1124 0.59246 0.47976 1.2481 0.43059 1.8005-0.6774 0.70255-1.3547 1.4052-2.0322 2.1077 0.28229 0.96706 0.56655 1.9336 0.84961 2.9004-0.69992 0.72651-1.3994 1.4534-2.0996 2.1797 0.39497 1.3569 0.78772 2.7145 1.1797 4.0723 0.97698 0.24375 1.9545 0.48553 2.9316 0.72851 0.1124 0.59246 0.47976 1.2481 0.43059 1.8005-0.6774 0.70255-1.3547 1.4052-2.0322 2.1077 0.39497 1.3569 0.78772 2.7145 1.1797 4.0723 0.97959 0.24441 1.9597 0.48684 2.9395 0.73047 0.27674 0.96679 0.55311 1.9337 0.83008 2.9004 1.3754 0.34295 2.7516 0.68244 4.127 1.0254 0.69756-0.72815 1.3987-1.4529 2.0977-2.1797 0.56891 0.19967 1.3203 0.2103 1.7736 0.52973 0.26756 0.93474 0.53477 1.8696 0.80257 2.8042 1.3755 0.34325 2.7515 0.6841 4.127 1.0273 0.69735-0.72838 1.3973-1.4542 2.0957-2.1816 0.97655 0.24356 1.9532 0.48658 2.9297 0.73047 0.70149-0.72755 1.4023-1.4558 2.1035-2.1836 0.56512 0.19969 1.3144 0.20813 1.7641 0.52771 0.26922 0.93352 0.53994 1.8666 0.80819 2.8004 1.3747 0.34158 2.7497 0.68222 4.125 1.0215 0.70126-0.72196 1.3995-1.4468 2.0996-2.1699 0.97468 0.23994 1.9488 0.48235 2.9238 0.7207 0.69884-0.725 1.3971-1.4506 2.0957-2.1758 0.97649 0.24312 1.9536 0.48387 2.9297 0.72851 0.70063-0.72645 1.401-1.4531 2.1016-2.1797 0.58268 0.14453 1.1654 0.28906 1.748 0.43359 0.2791 0.96685 0.5599 1.9332 0.83789 2.9004 1.3721 0.34358 2.7447 0.6853 4.1172 1.0273 0.69735-0.72838 1.3973-1.4542 2.0957-2.1816 0.97655 0.24356 1.9532 0.48658 2.9297 0.73047 0.70192-0.72777 1.4036-1.4557 2.1055-2.1836 0.56902 0.19904 1.3201 0.20884 1.7738 0.52771 0.26922 0.93352 0.53993 1.8666 0.80819 2.8004 1.3709 0.34257 2.7426 0.68207 4.1133 1.0254 0.69956-0.72491 1.3998-1.4492 2.0996-2.1738 0.97792 0.24002 1.9554 0.48184 2.9336 0.7207 0.69927-0.72522 1.3984-1.4505 2.0977-2.1758 0.97783 0.24299 1.956 0.48466 2.9336 0.72851 0.69756-0.72815 1.3987-1.4529 2.0977-2.1797 0.56908 0.19962 1.32 0.2104 1.7739 0.52966 0.26984 0.93483 0.54138 1.8692 0.81011 2.8043 1.3708 0.34363 2.7423 0.68448 4.1133 1.0273 0.70085-0.72689 1.401-1.4545 2.1016-2.1816 0.97654 0.24356 1.9532 0.48658 2.9297 0.73047 0.70149-0.72755 1.4023-1.4558 2.1035-2.1836 0.56902 0.19904 1.3201 0.20884 1.7738 0.52771 0.26922 0.93352 0.53994 1.8666 0.80819 2.8004 1.3709 0.34257 2.7426 0.68207 4.1133 1.0254 0.69999-0.72512 1.4011-1.4491 2.1016-2.1738 0.97791 0.24002 1.9554 0.48184 2.9336 0.7207 0.98265-1.0193 1.9646-2.0393 2.9473-3.0586-0.39491-1.3582-0.78865-2.7168-1.1797-4.0762-0.98095-0.23827-1.9609-0.48077-2.9414-0.7207-0.11009-0.59109-0.47592-1.2456-0.42487-1.7967 0.67859-0.70722 1.3584-1.4132 2.0362-2.1212-0.3983-1.3575-0.79702-2.7148-1.1953-4.0723-0.97661-0.2394-1.9531-0.4792-2.9297-0.71875-0.11208-0.59114-0.48026-1.2454-0.4307-1.7967 0.67883-0.70569 1.3567-1.4123 2.0362-2.1174-0.28189-0.96856-0.5624-1.9375-0.84375-2.9062 0.70131-0.72316 1.4014-1.4475 2.1035-2.1699-0.39433-1.3586-0.78944-2.717-1.1816-4.0762-0.97959-0.2444-1.9597-0.48684-2.9394-0.73047-0.11048-0.59248-0.4753-1.2481-0.42487-1.8006 0.67859-0.70721 1.3584-1.4132 2.0362-2.1212-0.3983-1.3575-0.79702-2.7148-1.1953-4.0723-0.9766-0.2394-1.9531-0.47919-2.9297-0.71875-0.11129-0.59049-0.479-1.2441-0.42886-1.7948 0.67737-0.70714 1.3555-1.4135 2.0324-2.1212-0.3948-1.3576-0.78875-2.7155-1.1797-4.0742-1.3714-0.33526-2.742-0.67375-4.1133-1.0098-0.70125 0.72196-1.3995 1.4468-2.0996 2.1699-0.58334-0.14388-1.1667-0.28776-1.75-0.43164-0.27846-0.9649-0.55856-1.9293-0.83594-2.8945-1.3714-0.34372-2.7436-0.68439-4.1152-1.0273-0.7002 0.72624-1.3997 1.4532-2.0996 2.1797-0.97655-0.24355-1.9532-0.48657-2.9297-0.73047-0.70063 0.72646-1.401 1.4531-2.1016 2.1797-0.56904-0.19904-1.3201-0.20884-1.7739-0.5277-0.26984-0.93484-0.54138-1.8692-0.81012-2.8043-1.3714-0.34372-2.7436-0.68439-4.1152-1.0273-0.07096 0.07357-0.14193 0.14714-0.21289 0.2207z" fill="#cad3f5" style="paint-order:markers stroke fill"/>
 <g stroke-linecap="square">
  <g transform="translate(-6.4461 -5.6334)" fill="#fff" stroke="#6e738d" paint-order="markers stroke fill">
   <path d="m18.66 98.11-2.1 2.18-2.93-0.73-2.1 2.18 0.85 2.9-2.1 2.18 0.84 2.9 2.93 0.73 0.84 2.9-2.1 2.18 0.84 2.9 2.93 0.73 0.84 2.9 2.94 0.73 2.1-2.18 2.92 0.73 0.84 2.9 2.94 0.73 2.1-2.18 2.93 0.73 2.1-2.18 2.92 0.72 0.84 2.9 2.93 0.73 2.1-2.17 2.93 0.72 2.1-2.17-0.84-2.9-2.93-0.73-0.84-2.9 2.1-2.18-0.84-2.9-2.94-0.73-0.83-2.9 2.1-2.19-0.85-2.9-2.93-0.72-2.1 2.17-2.93-0.72-0.84-2.9-2.93-0.73-2.1 2.18-2.93-0.73-2.1 2.18-2.93-0.73-0.84-2.9zm15.09 14.52 2.93 0.72z"/>
   <path d="m51.35 98.11-2.1 2.18-2.93-0.73-2.1 2.18 0.84 2.9-2.1 2.18 0.84 2.9 2.94 0.73 0.84 2.9-2.1 2.18 0.84 2.9 2.93 0.73 0.84 2.9 2.93 0.73 2.1-2.18 2.93 0.73 0.84 2.9 2.93 0.73 2.1-2.18 2.93 0.73 2.1-2.18 2.93 0.72 0.84 2.9 2.93 0.73 2.1-2.17 2.93 0.72 2.1-2.17-0.84-2.9-2.94-0.73-0.83-2.9 2.1-2.18-0.84-2.9-2.94-0.73-0.84-2.9 2.1-2.19-0.84-2.9-2.93-0.72-2.1 2.17-2.93-0.72-0.84-2.9-2.93-0.73-2.1 2.18-2.93-0.73-2.1 2.18-2.93-0.73-0.84-2.9zm15.08 14.52 2.94 0.72zm-44 7.98-2.1 2.18-2.93-0.73-2.1 2.18 0.85 2.9-2.1 2.18 0.84 2.9 2.93 0.73 0.84 2.9-2.1 2.18 0.84 2.9 2.94 0.73 0.83 2.9 2.94 0.73 2.1-2.18 2.93 0.73 0.83 2.9 2.94 0.73 2.1-2.18 2.93 0.73 2.1-2.18 2.92 0.72 0.84 2.9 2.94 0.73 2.1-2.17 2.92 0.72 2.1-2.18-0.84-2.9-2.93-0.72-0.84-2.9 2.1-2.19-0.84-2.9-2.94-0.72-0.83-2.9 2.1-2.19-0.85-2.9-2.93-0.72-2.1 2.17-2.93-0.72-0.84-2.9-2.93-0.73-2.1 2.18-2.93-0.73-2.1 2.18-2.93-0.73-0.84-2.9zm15.09 14.52 2.93 0.72z"/>
   <path d="m55.12 120.61-2.1 2.18-2.93-0.73-2.1 2.18 0.84 2.9-2.1 2.18 0.84 2.9 2.94 0.73 0.84 2.9-2.1 2.18 0.84 2.9 2.93 0.73 0.84 2.9 2.93 0.73 2.1-2.18 2.93 0.73 0.84 2.9 2.93 0.73 2.1-2.18 2.93 0.73 2.1-2.18 2.93 0.72 0.84 2.9 2.93 0.73 2.1-2.17 2.93 0.72 2.1-2.18-0.84-2.9-2.93-0.72-0.84-2.9 2.1-2.19-0.84-2.9-2.94-0.72-0.84-2.9 2.1-2.19-0.84-2.9-2.93-0.72-2.1 2.17-2.93-0.72-0.84-2.9-2.93-0.73-2.1 2.18-2.93-0.73-2.1 2.18-2.93-0.73-0.84-2.9zm15.08 14.52 2.94 0.72zm13.84-37.03-2.1 2.18-2.93-0.73-2.1 2.18 0.84 2.9-2.1 2.18 0.84 2.9 2.94 0.73 0.84 2.9-2.1 2.18 0.84 2.9 2.93 0.73 0.84 2.9 2.93 0.73 2.1-2.18 2.93 0.73 0.84 2.9 2.93 0.73 2.1-2.18 2.93 0.73 2.1-2.18 2.93 0.72 0.84 2.9 2.93 0.73 2.1-2.17 2.93 0.72 2.1-2.17-0.84-2.9-2.94-0.73-0.83-2.9 2.1-2.19-0.85-2.9-2.93-0.72-0.84-2.9 2.1-2.19-0.84-2.9-2.93-0.72-2.1 2.17-2.93-0.72-0.84-2.9-2.93-0.73-2.1 2.18-2.93-0.73-2.1 2.18-2.93-0.73-0.84-2.9zm15.08 14.52 2.94 0.72z"/>
   <path d="m87.8 120.61-2.09 2.18-2.93-0.73-2.1 2.18 0.84 2.9-2.1 2.18 0.84 2.9 2.94 0.73 0.84 2.9-2.1 2.18 0.84 2.9 2.93 0.73 0.84 2.9 2.93 0.73 2.1-2.18 2.93 0.73 0.84 2.9 2.93 0.73 2.1-2.18 2.93 0.73 2.1-2.18 2.93 0.72 0.84 2.9 2.93 0.73 2.1-2.17 2.93 0.72 2.1-2.18-0.84-2.9-2.94-0.72-0.83-2.9 2.1-2.19-0.85-2.9-2.93-0.72-0.84-2.9 2.1-2.19-0.84-2.9-2.93-0.72-2.1 2.17-2.93-0.72-0.84-2.9-2.93-0.73-2.1 2.18-2.93-0.73-2.1 2.18-2.93-0.73-0.84-2.9zm15.1 14.52 2.93 0.72z"/>
  </g>
  <path class="themed" d="m115.73 118.46q-0.458 0-0.687-0.24045t-0.229-0.5954v-0.2061q0-0.3664 0.229-0.60685t0.687-0.24045q0.4809 0 0.69845 0.24045t0.21755 0.60685v0.2061q0 0.35495-0.21755 0.5954t-0.69845 0.24045zm3.2835 0q-0.458 0-0.687-0.24045t-0.229-0.5954v-0.2061q0-0.3664 0.229-0.60685t0.687-0.24045q0.4809 0 0.69845 0.24045t0.21755 0.60685v0.2061q0 0.35495-0.21755 0.5954t-0.69845 0.24045zm3.2836 0q-0.458 0-0.687-0.24045t-0.229-0.5954v-0.2061q0-0.3664 0.229-0.60685t0.687-0.24045q0.4809 0 0.69845 0.24045t0.21755 0.60685v0.2061q0 0.35495-0.21755 0.5954t-0.69845 0.24045z" stroke="#000" stroke-width=".09" style="paint-order:markers stroke fill" aria-label="     ...  "/>
  <path class="themed" d="m57.369 147.51q0-0.458 0.24045-0.687t0.5954-0.229h0.2061q0.3664 0 0.60685 0.229t0.24045 0.687q0 0.4809-0.24045 0.69845t-0.60685 0.21755h-0.2061q-0.35495 0-0.5954-0.21755t-0.24045-0.69845zm0 3.2836q0-0.458 0.24045-0.687t0.5954-0.229h0.2061q0.3664 0 0.60685 0.229t0.24045 0.687q0 0.4809-0.24045 0.69845t-0.60685 0.21755h-0.2061q-0.35495 0-0.5954-0.21755t-0.24045-0.69845zm0 3.2835q0-0.458 0.24045-0.687t0.5954-0.229h0.2061q0.3664 0 0.60685 0.229t0.24045 0.687q0 0.4809-0.24045 0.69845t-0.60685 0.21755h-0.2061q-0.35495 0-0.5954-0.21755t-0.24045-0.69845z" stroke="#000" stroke-width=".09" style="paint-order:markers stroke fill" aria-label="     ...  "/>
 </g>
 <path d="m67.738 76.267h-2.75v-11.7h-4.08v11.7h-2.74l4.78 8.28z" fill="#6e738d" paint-order="markers stroke fill"/>
</svg>
