<?xml version="1.0" encoding="UTF-8"?>
<svg width="331.96" height="331.96" version="1.1" viewBox="0 0 87.801 87.809" xmlns="http://www.w3.org/2000/svg">
 <style>.themed {
      fill: #000000;
      stroke-width: 0;
    }
    @media (prefers-color-scheme: dark) {
      .themed {
        fill: #ffffff;
        stroke-width: 0;
      }
    }
    @keyframes colorCycle {
      0%   { fill: #ed8796; }
      5%   { fill: #ed8796; }
      16%  { fill: #f5a97f; }
      21%  { fill: #f5a97f; }
      33%  { fill: #eed49f; }
      38%  { fill: #eed49f; }
      49%  { fill: #a6da95; }
      54%  { fill: #a6da95; }
      66%  { fill: #8aadf4; }
      71%  { fill: #8aadf4; }
      82%  { fill: #c6a0f6; }
      87%  { fill: #c6a0f6; }
      100% { fill: #ed8796; }
    }
    .row {
      animation: colorCycle 10s linear infinite;
    }
    .row-first { animation-delay: -6.6s; }
    .row-second { animation-delay: -4.9s; }
    .row-third { animation-delay: -3.3s; }
    .row-fourth { animation-delay: -1.6s; }
    .row-fifth { animation-delay: 0s; }</style>
 <path d="m21.05 15.405-3.8 4-5.6-1.4-5.7 5.9 1.6 5.5-4 4.2 2.3 7.9 5.6 1.4 1 3.2-4.2 4.1 2.3 8 5.6 1.3 1.6 5.6 8 2 4-4.2 3.2 0.8 1.6 5.5 8 2 4-4.1 5.6 1.3 4-4.1 3.2 0.8 1.6 5.5 8 2 4-4.2 5.6 1.4 5.7-5.9-2.3-7.9-5.6-1.4-0.9-3.2 4-4.1-2.3-8-5.6-1.3-0.9-3.2 4-4.2-2.1-7.9-8-2-4 4.2-3.2-0.8-1.6-5.5-8-2-4 4.1-5.6-1.3-4 4.1-3.2-0.8-1.7-5.5-8-2z" fill="#cad3f5" style="paint-order:markers stroke fill"/>
 <path d="m21.05 15.405-3.8 4-5.6-1.4-5.7 5.9 1.6 5.5-4 4.2 2.3 7.9 5.6 1.4 1 3.2-4.2 4.1 2.3 8 5.6 1.3 1.6 5.6 8 2 4-4.2 3.2 0.8 1.6 5.5 8 2 4-4.1 5.6 1.3 4-4.1 3.2 0.8 1.6 5.5 8 2 4-4.2 5.6 1.4 5.7-5.9-2.3-7.9-5.6-1.4-0.9-3.2 4-4.1-2.3-8-5.6-1.3-0.9-3.2 4-4.2-2.1-7.9-8-2-4 4.2-3.2-0.8-1.6-5.5-8-2-4 4.1-5.6-1.3-4 4.1-3.2-0.8-1.7-5.5-8-2z" fill="#cad3f5" style="paint-order:markers stroke fill"/>
 <g stroke="#5b6078" stroke-linecap="square">
  <g stroke-width="2">
   <g class="row row-first" transform="translate(.0105 15.205)" fill="#8aadf4">
    <path d="m25.14 13.5-5.6-1.5-1.6-5.6 4-4.1 5.6 1.4 1.6 5.6zm16.8 4.1-5.6-1.4-1.6-5.5 4-4.2 5.6 1.5 1.6 5.5zm16.8 4.2-5.6-1.4-1.6-5.6 4-4.1 5.6 1.4 1.6 5.5z" style="paint-order:markers stroke fill"/>
    <path d="m32.34 20.4-5.6-1.4-1.6-5.6 4-4.1 5.6 1.4 1.6 5.5zm19.2-5.6-5.6-1.4-1.6-5.4 4-4.2 5.6 1.4 1.6 5.6zm16.8 4.2-5.6-1.4-1.6-5.5 4-4.2 5.6 1.4 1.6 5.5zm-52.8-2.8-5.6-1.4-1.6-5.5 4-4.2 5.6 1.4 1.6 5.6z" style="paint-order:markers stroke fill"/>
   </g>
   <g class="row row-second" transform="translate(.0105 15.205)" fill="#a6da95">
    <path d="m22.74 23.2-5.6-1.4-1.6-5.6 4-4.1 5.6 1.3 1.6 5.6zm16.8 4.1-5.6-1.3-1.6-5.5 4-4.2 5.6 1.4 1.6 5.6zm9.6-2.8-5.6-1.3-1.6-5.6 4-4.2 5.6 1.4 1.6 5.6zm16.8 4.2-5.6-1.4-1.6-5.5 4-4.2 5.6 1.4 1.6 5.5z" style="paint-order:markers stroke fill"/>
    <path d="m13.14 26-5.6-1.6-1.6-5.4 4-4.2 5.6 1.4 1.6 5.6z" style="paint-order:markers stroke fill"/>
   </g>
   <g class="row row-third" transform="translate(.0105 15.205)" fill="#eed49f">
    <path d="m20.34 32.9-5.6-1.4-1.6-5.6 4-4.1 5.6 1.4 1.6 5.5z" style="paint-order:markers stroke fill"/>
    <path d="m29.94 30-5.6-1.3-1.6-5.6 4-4.1 5.6 1.4 1.6 5.5zm7.2 7-5.6-1.4-1.6-5.5 4-4.2 5.6 1.4 1.6 5.6z" style="paint-order:markers stroke fill"/>
    <path d="m46.74 34.2-5.6-1.2-1.6-5.7 4-4.2 5.6 1.4 1.6 5.6zm9.6-2.7-5.6-1.5-1.6-5.6 4-4.1 5.6 1.4 1.6 5.5zm7.2 6.9-5.6-1.4-1.6-5.5 4-4.2 5.6 1.4 1.6 5.5z" style="paint-order:markers stroke fill"/>
    <path d="m73.14 35.6-5.6-1.3-1.6-5.6 4-4.2 5.6 1.5 1.7 5.6z" style="paint-order:markers stroke fill"/>
   </g>
  </g>
  <g class="row row-fourth" transform="translate(.0105 15.205)" fill="#f5a97f">
   <path d="m17.94 42.6-5.6-1.4-1.6-5.6 4-4.1 5.6 1.4 1.6 5.5z" stroke-width="2.03" style="paint-order:markers stroke fill"/>
   <path d="m27.54 39.8-5.6-1.4-1.6-5.5 4-4.2 5.6 1.4 1.6 5.5z" stroke-width="2.03" style="paint-order:markers stroke fill"/>
   <g stroke-width="2" style="paint-order:markers stroke fill">
    <path d="m44.34 44-5.6-1.4-1.6-5.6 4-4.1 5.6 1.3 1.6 5.6z"/>
    <path d="m53.94 41.2-5.6-1.4-1.6-5.6 4-4.1 5.6 1.4 1.6 5.5zm16.8 4.1-5.6-1.3-1.6-5.6 4-4.2 5.6 1.4 1.6 5.6z"/>
   </g>
  </g>
  <g class="row row-fifth" transform="translate(.0105 15.205)" fill="#ed8796">
   <path d="m77.94 52.3-5.6-1.4-1.6-5.6 4-4.1 5.6 1.4 1.6 5.5zm-52.8-2.8-5.6-1.4-1.6-5.5 4-4.2 5.6 1.4 1.6 5.5z" stroke-width="2.03" style="paint-order:markers stroke fill"/>
   <g stroke-width="2">
    <path d="m41.94 53.7-5.6-1.4-1.6-5.6 4-4.1 5.6 1.4 1.6 5.5z" style="paint-order:markers stroke fill"/>
    <path d="m34.74 46.7-5.6-1.4-1.6-5.5 4-4.2 5.6 1.4 1.6 5.6zm26.4 1.4-5.6-1.4-1.6-5.5 4-4.2 5.6 1.4 1.6 5.6z" style="paint-order:markers stroke fill"/>
    <path d="m51.54 50.9-5.6-1.4-1.6-5.5 4-4.2 5.6 1.4 1.6 5.5zm16.8 4.1-5.6-1.3-1.6-5.6 4-4.1 5.6 1.3 1.6 5.6z" style="paint-order:markers stroke fill"/>
   </g>
  </g>
 </g>
 <g transform="translate(.0105 15.205)" fill-rule="evenodd" stroke-linecap="square" stroke-width=".6">
  <path d="m42.64 11.1q-1.6 0-3 1c-2-0.5-4.2-0.7-5.9 0.4-0.4 0.1-0.7 0.8-1 0.6a5 5 0 0 0-4.9-0.6c-1.7 0.3-3.7 0.5-4.8 2-1.4 1.9-1 4.3-1.4 6.4q-0.3 4 0.1 8c0.5 2 2.3 3.9 4.5 4q2.6 0.3 4.8-1.2-0.4 1.6 0 3.2a7.5 7.5 0 0 0 2.5 9.8 7 7 0 0 0 7.9-0.5q2.2 0.2 4-0.8c1.9 2.3 5.2 3.5 8 2.4 2-1 3-3.5 3.2-5.8 1.6-2 1.4-5 0.1-7.1q-0.3-0.7 0.5-0.5c2.6-0.1 5-1.5 6.9-3.2a9 9 0 0 0 2.1-7.4 10 10 0 0 0-7.5-7.7q-2.8-0.3-5.3 0.7a8 8 0 0 0-5.8-1.3 6 6 0 0 0-5-2.4" fill="#a5adcb" style="paint-order:markers stroke fill"/>
  <path d="m42.74 12.2q-1.5 0-3 1c-1.5-0.3-3.1-0.8-4.6-0.2q-1.4 0.6-2.2 1.6a4 4 0 0 0-4.4-1.1c-1.6 0.3-3.5 0.2-4.5 1.6-1 1-1 2.5-1.2 3.9q-0.4 4-0.3 8.1c0 2 1 4 3 4.6a6 6 0 0 0 5.6-1.3l1.9 0.1c-1 1-1.5 2.6-1 4q0.3 0.5 0 1c-1.8 3.1-0.4 7.6 3 8.8 2 0.7 4.4 0.2 6-1.2q2.2 0.4 4-0.7c0.3 0 0.6-0.8 0.8-0.3 1.1 1.9 3.3 3 5.5 3q2.3 0 3.4-2.1 1-1.6 0.8-3.3c1.7-1.7 1.5-4.5 0.3-6.5q-0.3-1.2-1-2.2 3.6 1 6.7-1.2c1.3-0.7 2.6-1.8 3-3.3 1.2-2.3 1-5.2-0.4-7.4a8 8 0 0 0-6-4 8 8 0 0 0-4.8 1c-1.6-1.5-4-2-6.1-1.4a5 5 0 0 0-4.5-2.5" fill="#cad3f5" style="paint-order:markers stroke fill"/>
  <path d="m42.14 13.2q-1.2 0.4-2.3 1.1-1.3-0.3-2.7-0.6a4 4 0 0 0-4 2.4c-0.2 0.7-0.4 0-0.6-0.3-0.7-1-2-2-3.4-1.4l-2.9 0.5c-1.4 0.2-2.2 1.6-2.2 3q-0.2 1.5-0.3 3.2-0.2 2-0.1 3.7c0 1.7-0.3 3.6 0.8 5 1 1.3 3 1.3 4.5 0.8q1.1-0.5 1.8-1.4 1.2 0.3 2.4 0.3 1 0 1.7-0.6 0.2 0.7 0.7 1.2-0.9 0.4-1.7 1-1.4 1.3-0.7 3c-0.1 0.6 0.4 1.2 0 1.6-1.7 2.4-0.8 6.2 1.9 7.5 1.5 0.8 3.5 0.4 4.9-0.5l0.8-0.7a7 7 0 0 0 3.2 0q0.9-0.6 1.4-1.3 0.6-0.2 1 0a6 6 0 0 0 3 3c1.2 0.4 2.7 0.8 3.7-0.2a6 6 0 0 0 1.5-3c0.2-0.5-0.3-1 0.2-1.3 1.4-1.5 1.2-4 0-5.5a4 4 0 0 0-1-2.5q-0.8-0.7-1.8-1.2 0.4-0.8 1-1.3a6 6 0 0 0 4.5 1.6q2.5-0.3 4.6-2 1.2-0.8 1.6-2.2 0.9-1.8 0.6-3.8a9 9 0 0 0-2.9-4.9 6 6 0 0 0-3.7-1.3q-2.5-0.2-4.4 1.3a5.5 5.5 0 0 0-6.5-1.4c-0.6-1.7-2.4-3-4.2-2.8zm-1.8 17a5 5 0 0 0 4 0.7l-0.9 0.9c-0.5-0.2-1.1 0-1.5-0.3a4 4 0 0 0-2-1.3z" fill="#cad3f5" style="paint-order:markers stroke fill"/>
  <path d="m42.04 13.8q-1.2 0.3-2 1.1c-0.8-0.5-1.8-0.3-2.6-0.6-1.5-0.3-3 0.5-3.7 1.8q-0.3 0.8-1 1.4c-0.4-1.2-1.3-2.7-2.7-2.8l-2.6 0.6c-0.8 0-1.8 0-2.4 0.9-0.7 0.8-0.4 2-0.7 3q0 1.4-0.2 2.8v2.4q-0.2 2.1 0.2 4.2 0.6 1.6 2.2 1.8 2.4 0.2 4-1.6c0-0.3 0.6 0.2 0.9 0 1 0.1 2.2 0.4 3-0.4 0.4-0.1 0.7-1 0.7-0.2 0.2 1 1 2 2.1 2q1.5 0 3-0.6 1.6 1.1 3.4 1 1.2-0.2 1.9-1l0.9 0.5q-1.4 0.6-2.3 1.6c-0.2 0.3-0.2 0.8-0.7 0.6q-0.8-0.3-1.8-0.2c-0.6-1.2-2-1.6-3.2-1.5-0.7-0.3-1.4 0-2 0-0.7-0.3-1.3 0.2-1.7 0.6-1 0.4-1.7 1.7-1.1 2.7q0 0.8 0.2 1.5a5 5 0 0 0-0.8 4.8 4 4 0 0 0 3 2.8q1.6 0.4 3.2-0.5 0.8-0.3 1.3-1.1c1 0.5 2 0.2 3 0.1a2 2 0 0 0 1.4-1.4q0.8 0.2 1.7 0c0.2 1.4 1.4 2.4 2.6 3.1a8 8 0 0 0 2.5 0.4c1.2-0.2 1.8-1.4 2.1-2.5q0.4-1 0-2c1.5-0.8 1.6-2.8 1.1-4.2-0.2-0.6-0.8-1-0.7-1.6-0.3-1.7-1.8-2.7-3.3-3.1-0.7-0.2 0.7 0 0.6-0.7q0.7-0.8 1.3-1.6c1 1 2.4 2 3.9 2q2.5-0.1 4.4-1.7 1.5-0.7 2-2.1c0.7-1 0.6-2.3 0.7-3.5a8 8 0 0 0-2.7-4.7q-1.4-1.2-3.3-1.3-2.4-0.3-4.3 1.2c-0.3 0.5-0.5 0-0.8-0.3a5 5 0 0 0-3.9-1.5q-1.3 0-2.4 0.7c-0.4-1.7-2-3.1-3.7-3zm7.5 16.7c-0.2 0.3-0.3 0.7-0.6 0.2-0.7-0.4-0.3-0.3 0.2-0.3 0.1 0 0.6-0.2 0.4 0" fill="#6e738d" style="paint-order:markers stroke fill"/>
  <path d="m39.84 25.8v1.6l-0.1 0.2-0.2 0.2h-0.6l-0.2 0.2h-0.3l-0.6 0.2h-0.6l-0.1-0.3v-0.2l-0.1-0.6v-0.5l-0.1-0.3v-0.9l-0.1-0.5v-0.5l-0.1-0.2-0.1-0.3v-0.7l-0.1-0.6v-0.8h-0.3l-0.2-0.2h-0.1l-0.4 0.4-0.2 0.4-0.1 0.3-0.1 0.2-0.3 0.4-0.2 0.4v0.2l-0.1 0.4-0.2 0.4-0.1 0.4-0.4 0.8-0.3 0.4-0.2 0.5-0.1 0.2h-0.7l-0.5-0.1h-0.5q-0.2 0-0.2-0.2l-0.3-0.8q-0.2-0.3-0.2-0.7l-0.3-0.2-0.1-0.2-0.1-0.6-0.1-0.5-0.2-0.2-0.1-0.2v-0.3l-0.1-0.3-0.3-0.5-0.2 0.1v0.2l-0.1 0.2-0.1 0.1-0.1 1.2-0.2 1.2v1.8l-0.2 0.8-0.2 0.2h-0.3l-0.6 0.4h-1l-0.1-0.2v-0.2q0-0.4-0.2-0.7l-0.1-0.5v-0.8l0.1-0.5v-2.4l0.1-0.1v-0.5l-0.1-0.3v-0.2l0.1-0.4v-0.5q0.1 0 0-0.1v-1.1l0.2-0.3-0.1-0.4v-0.1l0.1-0.2v-0.1l0.1-0.3v-0.9l0.1-0.2 0.3-0.1h0.7l0.2-0.1h0.6l0.1-0.1 0.2-0.1h0.4l0.3-0.1h0.4l0.2-0.1h0.1l0.6 1q0.3 0.4 0.4 1l0.1 0.4 0.3 0.4q0 0.2 0.3 0.4v0.7l0.3 0.3 0.1 0.3 0.2 0.3h0.2l0.1-0.4 0.3-0.6q0.1-0.2 0.3-0.2t0.2-0.3l0.2-0.5 0.4-0.4 0.2-0.4 0.3-0.5 0.3-0.3q0.3-0.2 0.4-0.5v-0.2l0.4-0.5 0.3-0.4 0.5-0.1h0.6l0.4 0.1q0.3 0 0.5 0.2h0.3q0.2-0.1 0.4 0 0.2 0 0.3 0.2l0.2 0.4v0.6l0.2 0.2v2.4l0.1 0.2v1.4l-0.1 0.3v1.2l0.1 0.5v0.6l0.1 0.8 0.1 0.2zm4.7-8.2v0.6l-0.2 0.4-0.6 0.6-0.4 0.2h-1.1l-0.1-0.1h-0.1l-0.2-0.1h-0.3l-0.4-0.2-0.1-0.4v-2.1l0.1-0.1 0.3-0.1q0.1-0.2 0.3-0.2l0.6-0.4h0.8q0.3 0 0.4 0.3l0.2 0.1h0.1l0.3 0.5v0.3l0.1 0.2 0.1 0.3zm-0.2 4.5v1.1l-0.1 0.2v1.4l-0.1 0.3v1.9l-0.3 0.7v0.3l0.1 0.3v0.1l-0.2 0.2h-1.3l-0.2-0.1h-0.3l-0.4-0.5-0.1-0.1h-0.2v-0.9q0.1-0.2 0-0.4v-4.6l0.1-0.2v-0.3l0.3-0.1h0.6l0.3-0.1h0.2l0.1 0.1h0.5l0.2 0.2 0.2 0.1h0.2l0.2-0.1h0.2zm7.6-2q0 0.3-0.2 0.5l-0.2 0.1v0.1l-0.2 0.2v0.1q-0.2 0.2-0.4 0h-0.2l-0.4-0.2-0.1-0.2-0.6-0.2h-0.6l-0.3 0.4-0.1 0.4v0.3l0.1 0.2 0.3 0.3h0.3l0.2 0.2q0.2 0 0.3 0.2l0.3 0.2 0.3 0.1 0.2 0.2h0.2l0.2 0.2 0.1 0.3 0.2 0.2 0.1 0.5v0.5l0.1 0.3v1.1l-0.2 0.3q0 0.3-0.2 0.5l-0.1 0.2-1 1h-0.2l-0.3 0.1h-0.3l-0.2 0.2h-1.5l-0.3-0.2h-0.3l-0.8-0.8v-0.8l0.2-0.6 0.3-0.5h0.2l0.2 0.1 0.2 0.2h0.3l0.3 0.2h0.3q0.2 0.1 0.4 0l0.4-0.4v-0.6l-0.1-0.2-0.3-0.2-0.1-0.2-0.2-0.2-0.4-0.1-0.2-0.1-0.2-0.2h-0.1l-0.2-0.1h-0.2q0-0.2-0.3-0.3l-0.1-0.2q0-0.2-0.2-0.3l-0.1-0.2-0.2-0.2-0.1-0.5-0.1-0.4v-1l0.5-1 0.5-0.6 0.6-0.5h0.2l0.2-0.1 0.3-0.2h0.7q0.3-0.2 0.6-0.1l0.5 0.1h0.2l0.3 0.3q0.2 0 0.3 0.2l0.3 0.1 0.2 0.1 0.6 0.8v0.2zm9.9 2.6v0.6q-0.1 0.1 0 0.2v0.1l-0.2 0.4v0.3l-0.1 0.3v0.3h-0.1l-0.2 0.2v0.3l-0.2 0.3v0.2h-0.2l-0.2 0.3h-0.1l-0.2 0.2h-0.1q-0.4 0-0.4 0.3l-0.8 0.6-1.2 0.4-0.4 0.1h-1.5l-0.3-0.3-0.3-0.1q-0.2 0-0.3-0.2l-0.1-0.2-0.1-0.1h-0.1l-0.2-0.2-0.5-0.4q-0.3-0.3-0.4-0.7l-0.3-0.6-0.1-0.1v-2l0.1-0.2v-0.3l0.2-0.2v-0.2l0.1-0.3v-0.1l0.2-0.3v-0.3l0.1-0.2 0.1-0.1 0.2-0.4 0.4-0.4v-0.1q0.1-0.1 0-0.2v-0.2h0.1l0.2-0.2 0.4-0.2 0.3-0.2 0.8-0.2h2.1l0.1 0.2h0.2v0.1l0.2 0.1q0.3 0 0.5 0.2l0.5 0.3v0.4h0.4v0.2l0.4 0.4v0.2h0.2v0.2h0.1l0.1 0.2 0.2 0.6 0.1 0.1 0.1 0.2v0.3zm-2.8 0.7v-0.4l-0.1-0.2v-0.2l-0.2-0.4-0.3-0.4h-0.1q-0.4 0-0.7-0.3h-0.8q-0.3 0-0.4 0.3l-0.2 0.4v0.2l-0.2 0.1-0.2 0.4-0.2 0.8v0.2l0.2 0.2v0.5l0.1 0.1 0.4 0.2h0.3l0.3 0.1h1q0-0.2 0.2-0.3l0.3-0.2 0.4-0.5q0.2-0.2 0.2-0.5" fill="#cad3f5" style="paint-order:markers stroke fill" aria-label="Miso"/>
  <path d="m44.54 36.7v0.3l-0.1 0.2v0.6h-0.2q0 0.1-0.2 0h-0.1q0 0.1-0.1 0h-0.8v1.8h-1.7v-0.1l-0.1-0.1v-1.4l-0.2-0.2h-0.3l-0.3 0.1h-0.2l-0.2 0.1q-0.2 0-0.3 0.2l-0.1 0.2v0.6l-0.2 0.4-0.3 0.3-0.3 0.6-0.2 0.1-0.2 0.2h-0.1l-0.2 0.2h-0.2l-0.2 0.1h-0.6l-0.3 0.1h-0.5l-0.2-0.1-0.2-0.2q-0.2 0-0.2-0.2h-0.2l-0.1-0.1-0.1-0.2-0.2-0.2v-0.2l-0.2-0.1v-0.6l-0.2-0.3v-1l0.2-0.4q0.2-0.7 0.7-1l0.6-0.2q0.2-0.2 0.5-0.2h0.4l0.4-0.1 0.3-0.1h0.1v-0.8l-0.1-0.1h-0.5l-0.4-0.2h-0.4l-0.4-0.1h-0.4v-0.4l-0.2-0.2v-1l0.1-0.1h0.2q0.3 0.1 0.4-0.2h0.5l0.3-0.3h1l0.3 0.1h1l0.4 0.2 0.1 0.2 0.1 0.1v0.2l0.1 0.2v0.1l-0.1 0.2v0.2l0.1 0.2v1.1l-0.2 0.3v0.1h0.5l0.2 0.1h0.4l0.2-0.1v-0.1h0.2v-1.4h0.6q0-0.1 0 0h1.3v0.1h0.2v0.3l-0.1 0.1v0.9l0.2 0.2h0.7q0.3 0.1 0.3 0.4v0.5m-6.6 1.7-0.1-0.5-0.2-0.2h-0.1l-0.2 0.1h-0.2q-0.3 0-0.5 0.3v0.2l-0.1 0.1v0.3l0.2 0.3h0.1l0.2 0.1h0.5l0.4-0.4zm10.6-4.6-0.2 0.2-0.1 0.2-0.3 0.2-0.4 0.4h-0.3l-1.1-1.1-0.4-0.2v-0.4h0.3l0.3-0.3 0.1-0.2 0.3-0.3h0.2l0.3-0.2h0.3v0.2l0.2 0.2h0.1l0.1 0.2h0.1q0 0.2 0.2 0.3l0.2 0.3v0.5m4.7 3.3v0.3l-0.2 0.1h-1.2l-0.1 0.1h-0.3l-0.3 0.2-0.2 0.3v0.7l0.1 0.3v0.2q0.2 0 0.3 0.2 0.2 0 0.3 0.2l0.4 0.2 0.2 0.3v0.1l-0.1 0.1-0.2 0.4v0.4l-0.2 0.2v0.2h-0.1l-0.2 0.2-0.2-0.1h-0.6l-0.2-0.2h-0.5l-0.2-0.2h-0.1v-0.2l-0.8-0.8v-0.2h-0.2v-0.7l0.1-0.2 0.2-0.2v-0.9q-0.1-0.1-0.2 0h-0.5l-0.3 0.1h-0.1l-0.1-0.2h-0.5l-0.1 0.1h-0.5l-0.3 0.1h-0.2v0.1h-0.6v-0.2l-0.2-0.3v-0.3l0.1-0.2v-0.6l0.1-0.3h0.1q0.1 0 0 0 0.2 0 0.2-0.2l0.2-0.1h0.7l0.3-0.2h0.5l0.2-0.1 0.1-0.2h0.4l0.1-0.1 0.2-0.1h0.2l0.2-0.1h0.2q0.2 0 0.3-0.2h0.2v-0.2l0.1-0.3v-0.5l0.1-0.1v-0.2l0.1-0.3 0.4-0.6 0.1-0.2 0.2-0.2 0.2-0.3 0.2 0.1h0.1l0.2 0.1 0.1 0.2h0.2l0.3 0.3 0.1 0.2 0.2 0.2 0.1 0.2v0.2l-0.1 0.3-0.2 0.3v0.3l-0.2 0.3 0.1 0.2h0.4l0.3-0.1 0.2 0.2 0.2 0.3h0.1v0.3l0.2 0.7z" fill="#a5adcb" style="paint-order:markers stroke fill" aria-label="みそ"/>
 </g>
</svg>
