<?xml version="1.0" encoding="UTF-8"?>
<svg width="331.92" height="245.39" version="1.1" viewBox="0 0 87.79 64.91" xmlns="http://www.w3.org/2000/svg">
 <style>.themed {
      fill: #000000;
      stroke-width: 0;
    }
    @media (prefers-color-scheme: dark) {
      .themed {
        fill: #ffffff;
        stroke-width: 0;
      }
    }</style>
 <path d="m21.04 0.2-3.8 4-5.6-1.4-5.7 5.9 1.6 5.5-4 4.2 2.3 7.9 5.6 1.4 1 3.2-4.2 4.1 2.3 8 5.6 1.3 1.6 5.6 8 2 4-4.2 3.2 0.8 1.6 5.5 8 2 4-4.1 5.6 1.3 4-4.1 3.2 0.8 1.6 5.5 8 2 4-4.2 5.6 1.4 5.7-5.9-2.3-7.9-5.6-1.4-0.9-3.2 4-4.1-2.3-8-5.6-1.3-0.9-3.2 4-4.2-2.1-7.9-8-2-4 4.2-3.2-0.8-1.6-5.5-8-2-4 4.1-5.6-1.3-4 4.1-3.2-0.8-1.7-5.5-8-2z" fill="#a5adcb" style="paint-order:markers stroke fill"/>
 <g fill="#8aadf4" stroke="#5b6078" stroke-linecap="square" stroke-width="2">
  <path d="m25.14 13.5-5.6-1.5-1.6-5.6 4-4.1 5.6 1.4 1.6 5.6zm16.8 4.1-5.6-1.4-1.6-5.5 4-4.2 5.6 1.5 1.6 5.5zm16.8 4.2-5.6-1.4-1.6-5.6 4-4.1 5.6 1.4 1.6 5.5z" style="paint-order:markers stroke fill"/>
  <path d="m32.34 20.4-5.6-1.4-1.6-5.6 4-4.1 5.6 1.4 1.6 5.5zm19.2-5.6-5.6-1.4-1.6-5.4 4-4.2 5.6 1.4 1.6 5.6zm16.8 4.2-5.6-1.4-1.6-5.5 4-4.2 5.6 1.4 1.6 5.5zm-52.8-2.8-5.6-1.4-1.6-5.5 4-4.2 5.6 1.4 1.6 5.6z" style="paint-order:markers stroke fill"/>
 </g>
 <g fill="#a6da95" stroke="#5b6078" stroke-linecap="square" stroke-width="2">
  <path d="m22.74 23.2-5.6-1.4-1.6-5.6 4-4.1 5.6 1.3 1.6 5.6zm16.8 4.1-5.6-1.3-1.6-5.5 4-4.2 5.6 1.4 1.6 5.6zm9.6-2.8-5.6-1.3-1.6-5.6 4-4.2 5.6 1.4 1.6 5.6zm16.8 4.2-5.6-1.4-1.6-5.5 4-4.2 5.6 1.4 1.6 5.5z" style="paint-order:markers stroke fill"/>
  <path d="m13.14 26-5.6-1.6-1.6-5.4 4-4.2 5.6 1.4 1.6 5.6z" style="paint-order:markers stroke fill"/>
 </g>
 <g fill="#eed49f" stroke="#5b6078" stroke-linecap="square" stroke-width="2">
  <path d="m20.34 32.9-5.6-1.4-1.6-5.6 4-4.1 5.6 1.4 1.6 5.5z" style="paint-order:markers stroke fill"/>
  <path d="m29.94 30-5.6-1.3-1.6-5.6 4-4.1 5.6 1.4 1.6 5.5zm7.2 7-5.6-1.4-1.6-5.5 4-4.2 5.6 1.4 1.6 5.6z" style="paint-order:markers stroke fill"/>
  <path d="m46.74 34.2-5.6-1.2-1.6-5.7 4-4.2 5.6 1.4 1.6 5.6zm9.6-2.7-5.6-1.5-1.6-5.6 4-4.1 5.6 1.4 1.6 5.5zm7.2 6.9-5.6-1.4-1.6-5.5 4-4.2 5.6 1.4 1.6 5.5z" style="paint-order:markers stroke fill"/>
  <path d="m73.14 35.6-5.6-1.3-1.6-5.6 4-4.2 5.6 1.5 1.7 5.6z" style="paint-order:markers stroke fill"/>
 </g>
 <g fill="#f5a97f" stroke="#5b6078" stroke-linecap="square">
  <path d="m17.94 42.6-5.6-1.4-1.6-5.6 4-4.1 5.6 1.4 1.6 5.5z" stroke-width="2.03" style="paint-order:markers stroke fill"/>
  <path d="m27.54 39.8-5.6-1.4-1.6-5.5 4-4.2 5.6 1.4 1.6 5.5z" stroke-width="2.03" style="paint-order:markers stroke fill"/>
  <g stroke-width="2" style="paint-order:markers stroke fill">
   <path d="m44.34 44-5.6-1.4-1.6-5.6 4-4.1 5.6 1.3 1.6 5.6z"/>
   <path d="m53.94 41.2-5.6-1.4-1.6-5.6 4-4.1 5.6 1.4 1.6 5.5zm16.8 4.1-5.6-1.3-1.6-5.6 4-4.2 5.6 1.4 1.6 5.6z"/>
  </g>
 </g>
 <g stroke-linecap="square">
  <g fill="#ed8796" stroke="#5b6078">
   <path d="m77.94 52.3-5.6-1.4-1.6-5.6 4-4.1 5.6 1.4 1.6 5.5zm-52.8-2.8-5.6-1.4-1.6-5.5 4-4.2 5.6 1.4 1.6 5.5z" stroke-width="2.03" style="paint-order:markers stroke fill"/>
   <g stroke-width="2">
    <path d="m41.94 53.7-5.6-1.4-1.6-5.6 4-4.1 5.6 1.4 1.6 5.5z" style="paint-order:markers stroke fill"/>
    <path d="m34.74 46.7-5.6-1.4-1.6-5.5 4-4.2 5.6 1.4 1.6 5.6zm26.4 1.4-5.6-1.4-1.6-5.5 4-4.2 5.6 1.4 1.6 5.6z" style="paint-order:markers stroke fill"/>
    <path d="m51.54 50.9-5.6-1.4-1.6-5.5 4-4.2 5.6 1.4 1.6 5.5zm16.8 4.1-5.6-1.3-1.6-5.6 4-4.1 5.6 1.3 1.6 5.6z" style="paint-order:markers stroke fill"/>
   </g>
  </g>
  <g fill-rule="evenodd" stroke-width=".6">
   <path d="m42.64 11.1q-1.6 0-3 1c-2-0.5-4.2-0.7-5.9 0.4-0.4 0.1-0.7 0.8-1 0.6a5 5 0 0 0-4.9-0.6c-1.7 0.3-3.7 0.5-4.8 2-1.4 1.9-1 4.3-1.4 6.4q-0.3 4 0.1 8c0.5 2 2.3 3.9 4.5 4q2.6 0.3 4.8-1.2-0.4 1.6 0 3.2a7.5 7.5 0 0 0 2.5 9.8 7 7 0 0 0 7.9-0.5q2.2 0.2 4-0.8c1.9 2.3 5.2 3.5 8 2.4 2-1 3-3.5 3.2-5.8 1.6-2 1.4-5 0.1-7.1q-0.3-0.7 0.5-0.5c2.6-0.1 5-1.5 6.9-3.2a9 9 0 0 0 2.1-7.4 10 10 0 0 0-7.5-7.7q-2.8-0.3-5.3 0.7a8 8 0 0 0-5.8-1.3 6 6 0 0 0-5-2.4" fill="#a5adcb" style="paint-order:markers stroke fill"/>
   <path d="m42.74 12.2q-1.5 0-3 1c-1.5-0.3-3.1-0.8-4.6-0.2q-1.4 0.6-2.2 1.6a4 4 0 0 0-4.4-1.1c-1.6 0.3-3.5 0.2-4.5 1.6-1 1-1 2.5-1.2 3.9q-0.4 4-0.3 8.1c0 2 1 4 3 4.6a6 6 0 0 0 5.6-1.3l1.9 0.1c-1 1-1.5 2.6-1 4q0.3 0.5 0 1c-1.8 3.1-0.4 7.6 3 8.8 2 0.7 4.4 0.2 6-1.2q2.2 0.4 4-0.7c0.3 0 0.6-0.8 0.8-0.3 1.1 1.9 3.3 3 5.5 3q2.3 0 3.4-2.1 1-1.6 0.8-3.3c1.7-1.7 1.5-4.5 0.3-6.5q-0.3-1.2-1-2.2 3.6 1 6.7-1.2c1.3-0.7 2.6-1.8 3-3.3 1.2-2.3 1-5.2-0.4-7.4a8 8 0 0 0-6-4 8 8 0 0 0-4.8 1c-1.6-1.5-4-2-6.1-1.4a5 5 0 0 0-4.5-2.5" fill="#cad3f5" style="paint-order:markers stroke fill"/>
   <path d="m42.14 13.2q-1.2 0.4-2.3 1.1-1.3-0.3-2.7-0.6a4 4 0 0 0-4 2.4c-0.2 0.7-0.4 0-0.6-0.3-0.7-1-2-2-3.4-1.4l-2.9 0.5c-1.4 0.2-2.2 1.6-2.2 3q-0.2 1.5-0.3 3.2-0.2 2-0.1 3.7c0 1.7-0.3 3.6 0.8 5 1 1.3 3 1.3 4.5 0.8q1.1-0.5 1.8-1.4 1.2 0.3 2.4 0.3 1 0 1.7-0.6 0.2 0.7 0.7 1.2-0.9 0.4-1.7 1-1.4 1.3-0.7 3c-0.1 0.6 0.4 1.2 0 1.6-1.7 2.4-0.8 6.2 1.9 7.5 1.5 0.8 3.5 0.4 4.9-0.5l0.8-0.7a7 7 0 0 0 3.2 0q0.9-0.6 1.4-1.3 0.6-0.2 1 0a6 6 0 0 0 3 3c1.2 0.4 2.7 0.8 3.7-0.2a6 6 0 0 0 1.5-3c0.2-0.5-0.3-1 0.2-1.3 1.4-1.5 1.2-4 0-5.5a4 4 0 0 0-1-2.5q-0.8-0.7-1.8-1.2 0.4-0.8 1-1.3a6 6 0 0 0 4.5 1.6q2.5-0.3 4.6-2 1.2-0.8 1.6-2.2 0.9-1.8 0.6-3.8a9 9 0 0 0-2.9-4.9 6 6 0 0 0-3.7-1.3q-2.5-0.2-4.4 1.3a5.5 5.5 0 0 0-6.5-1.4c-0.6-1.7-2.4-3-4.2-2.8zm-1.8 17a5 5 0 0 0 4 0.7l-0.9 0.9c-0.5-0.2-1.1 0-1.5-0.3a4 4 0 0 0-2-1.3z" fill="#cad3f5" style="paint-order:markers stroke fill"/>
  </g>
 </g>
 <g fill-rule="evenodd">
  <g stroke-linecap="square" stroke-width=".6">
   <path d="m42.04 13.8q-1.2 0.3-2 1.1c-0.8-0.5-1.8-0.3-2.6-0.6-1.5-0.3-3 0.5-3.7 1.8q-0.3 0.8-1 1.4c-0.4-1.2-1.3-2.7-2.7-2.8l-2.6 0.6c-0.8 0-1.8 0-2.4 0.9-0.7 0.8-0.4 2-0.7 3q0 1.4-0.2 2.8v2.4q-0.2 2.1 0.2 4.2 0.6 1.6 2.2 1.8 2.4 0.2 4-1.6c0-0.3 0.6 0.2 0.9 0 1 0.1 2.2 0.4 3-0.4 0.4-0.1 0.7-1 0.7-0.2 0.2 1 1 2 2.1 2q1.5 0 3-0.6 1.6 1.1 3.4 1 1.2-0.2 1.9-1l0.9 0.5q-1.4 0.6-2.3 1.6c-0.2 0.3-0.2 0.8-0.7 0.6q-0.8-0.3-1.8-0.2c-0.6-1.2-2-1.6-3.2-1.5-0.7-0.3-1.4 0-2 0-0.7-0.3-1.3 0.2-1.7 0.6-1 0.4-1.7 1.7-1.1 2.7q0 0.8 0.2 1.5a5 5 0 0 0-0.8 4.8 4 4 0 0 0 3 2.8q1.6 0.4 3.2-0.5 0.8-0.3 1.3-1.1c1 0.5 2 0.2 3 0.1a2 2 0 0 0 1.4-1.4q0.8 0.2 1.7 0c0.2 1.4 1.4 2.4 2.6 3.1a8 8 0 0 0 2.5 0.4c1.2-0.2 1.8-1.4 2.1-2.5q0.4-1 0-2c1.5-0.8 1.6-2.8 1.1-4.2-0.2-0.6-0.8-1-0.7-1.6-0.3-1.7-1.8-2.7-3.3-3.1-0.7-0.2 0.7 0 0.6-0.7q0.7-0.8 1.3-1.6c1 1 2.4 2 3.9 2q2.5-0.1 4.4-1.7 1.5-0.7 2-2.1c0.7-1 0.6-2.3 0.7-3.5a8 8 0 0 0-2.7-4.7q-1.4-1.2-3.3-1.3-2.4-0.3-4.3 1.2c-0.3 0.5-0.5 0-0.8-0.3a5 5 0 0 0-3.9-1.5q-1.3 0-2.4 0.7c-0.4-1.7-2-3.1-3.7-3zm7.5 16.7c-0.2 0.3-0.3 0.7-0.6 0.2-0.7-0.4-0.3-0.3 0.2-0.3 0.1 0 0.6-0.2 0.4 0" fill="#6e738d" style="paint-order:markers stroke fill"/>
   <path d="m39.84 25.8v1.6l-0.1 0.2-0.2 0.2h-0.6l-0.2 0.2h-0.3l-0.6 0.2h-0.6l-0.1-0.3v-0.2l-0.1-0.6v-0.5l-0.1-0.3v-0.9l-0.1-0.5v-0.5l-0.1-0.2-0.1-0.3v-0.7l-0.1-0.6v-0.8h-0.3l-0.2-0.2h-0.1l-0.4 0.4-0.2 0.4-0.1 0.3-0.1 0.2-0.3 0.4-0.2 0.4v0.2l-0.1 0.4-0.2 0.4-0.1 0.4-0.4 0.8-0.3 0.4-0.2 0.5-0.1 0.2h-0.7l-0.5-0.1h-0.5q-0.2 0-0.2-0.2l-0.3-0.8q-0.2-0.3-0.2-0.7l-0.3-0.2-0.1-0.2-0.1-0.6-0.1-0.5-0.2-0.2-0.1-0.2v-0.3l-0.1-0.3-0.3-0.5-0.2 0.1v0.2l-0.1 0.2-0.1 0.1-0.1 1.2-0.2 1.2v1.8l-0.2 0.8-0.2 0.2h-0.3l-0.6 0.4h-1l-0.1-0.2v-0.2q0-0.4-0.2-0.7l-0.1-0.5v-0.8l0.1-0.5v-2.4l0.1-0.1v-0.5l-0.1-0.3v-0.2l0.1-0.4v-0.5q0.1 0 0-0.1v-1.1l0.2-0.3-0.1-0.4v-0.1l0.1-0.2v-0.1l0.1-0.3v-0.9l0.1-0.2 0.3-0.1h0.7l0.2-0.1h0.6l0.1-0.1 0.2-0.1h0.4l0.3-0.1h0.4l0.2-0.1h0.1l0.6 1q0.3 0.4 0.4 1l0.1 0.4 0.3 0.4q0 0.2 0.3 0.4v0.7l0.3 0.3 0.1 0.3 0.2 0.3h0.2l0.1-0.4 0.3-0.6q0.1-0.2 0.3-0.2t0.2-0.3l0.2-0.5 0.4-0.4 0.2-0.4 0.3-0.5 0.3-0.3q0.3-0.2 0.4-0.5v-0.2l0.4-0.5 0.3-0.4 0.5-0.1h0.6l0.4 0.1q0.3 0 0.5 0.2h0.3q0.2-0.1 0.4 0 0.2 0 0.3 0.2l0.2 0.4v0.6l0.2 0.2v2.4l0.1 0.2v1.4l-0.1 0.3v1.2l0.1 0.5v0.6l0.1 0.8 0.1 0.2zm4.7-8.2v0.6l-0.2 0.4-0.6 0.6-0.4 0.2h-1.1l-0.1-0.1h-0.1l-0.2-0.1h-0.3l-0.4-0.2-0.1-0.4v-2.1l0.1-0.1 0.3-0.1q0.1-0.2 0.3-0.2l0.6-0.4h0.8q0.3 0 0.4 0.3l0.2 0.1h0.1l0.3 0.5v0.3l0.1 0.2 0.1 0.3zm-0.2 4.5v1.1l-0.1 0.2v1.4l-0.1 0.3v1.9l-0.3 0.7v0.3l0.1 0.3v0.1l-0.2 0.2h-1.3l-0.2-0.1h-0.3l-0.4-0.5-0.1-0.1h-0.2v-0.9q0.1-0.2 0-0.4v-4.6l0.1-0.2v-0.3l0.3-0.1h0.6l0.3-0.1h0.2l0.1 0.1h0.5l0.2 0.2 0.2 0.1h0.2l0.2-0.1h0.2zm7.6-2q0 0.3-0.2 0.5l-0.2 0.1v0.1l-0.2 0.2v0.1q-0.2 0.2-0.4 0h-0.2l-0.4-0.2-0.1-0.2-0.6-0.2h-0.6l-0.3 0.4-0.1 0.4v0.3l0.1 0.2 0.3 0.3h0.3l0.2 0.2q0.2 0 0.3 0.2l0.3 0.2 0.3 0.1 0.2 0.2h0.2l0.2 0.2 0.1 0.3 0.2 0.2 0.1 0.5v0.5l0.1 0.3v1.1l-0.2 0.3q0 0.3-0.2 0.5l-0.1 0.2-1 1h-0.2l-0.3 0.1h-0.3l-0.2 0.2h-1.5l-0.3-0.2h-0.3l-0.8-0.8v-0.8l0.2-0.6 0.3-0.5h0.2l0.2 0.1 0.2 0.2h0.3l0.3 0.2h0.3q0.2 0.1 0.4 0l0.4-0.4v-0.6l-0.1-0.2-0.3-0.2-0.1-0.2-0.2-0.2-0.4-0.1-0.2-0.1-0.2-0.2h-0.1l-0.2-0.1h-0.2q0-0.2-0.3-0.3l-0.1-0.2q0-0.2-0.2-0.3l-0.1-0.2-0.2-0.2-0.1-0.5-0.1-0.4v-1l0.5-1 0.5-0.6 0.6-0.5h0.2l0.2-0.1 0.3-0.2h0.7q0.3-0.2 0.6-0.1l0.5 0.1h0.2l0.3 0.3q0.2 0 0.3 0.2l0.3 0.1 0.2 0.1 0.6 0.8v0.2zm9.9 2.6v0.6q-0.1 0.1 0 0.2v0.1l-0.2 0.4v0.3l-0.1 0.3v0.3h-0.1l-0.2 0.2v0.3l-0.2 0.3v0.2h-0.2l-0.2 0.3h-0.1l-0.2 0.2h-0.1q-0.4 0-0.4 0.3l-0.8 0.6-1.2 0.4-0.4 0.1h-1.5l-0.3-0.3-0.3-0.1q-0.2 0-0.3-0.2l-0.1-0.2-0.1-0.1h-0.1l-0.2-0.2-0.5-0.4q-0.3-0.3-0.4-0.7l-0.3-0.6-0.1-0.1v-2l0.1-0.2v-0.3l0.2-0.2v-0.2l0.1-0.3v-0.1l0.2-0.3v-0.3l0.1-0.2 0.1-0.1 0.2-0.4 0.4-0.4v-0.1q0.1-0.1 0-0.2v-0.2h0.1l0.2-0.2 0.4-0.2 0.3-0.2 0.8-0.2h2.1l0.1 0.2h0.2v0.1l0.2 0.1q0.3 0 0.5 0.2l0.5 0.3v0.4h0.4v0.2l0.4 0.4v0.2h0.2v0.2h0.1l0.1 0.2 0.2 0.6 0.1 0.1 0.1 0.2v0.3zm-2.8 0.7v-0.4l-0.1-0.2v-0.2l-0.2-0.4-0.3-0.4h-0.1q-0.4 0-0.7-0.3h-0.8q-0.3 0-0.4 0.3l-0.2 0.4v0.2l-0.2 0.1-0.2 0.4-0.2 0.8v0.2l0.2 0.2v0.5l0.1 0.1 0.4 0.2h0.3l0.3 0.1h1q0-0.2 0.2-0.3l0.3-0.2 0.4-0.5q0.2-0.2 0.2-0.5" fill="#cad3f5" style="paint-order:markers stroke fill" aria-label="Miso"/>
   <path d="m44.54 36.7v0.3l-0.1 0.2v0.6h-0.2q0 0.1-0.2 0h-0.1q0 0.1-0.1 0h-0.8v1.8h-1.7v-0.1l-0.1-0.1v-1.4l-0.2-0.2h-0.3l-0.3 0.1h-0.2l-0.2 0.1q-0.2 0-0.3 0.2l-0.1 0.2v0.6l-0.2 0.4-0.3 0.3-0.3 0.6-0.2 0.1-0.2 0.2h-0.1l-0.2 0.2h-0.2l-0.2 0.1h-0.6l-0.3 0.1h-0.5l-0.2-0.1-0.2-0.2q-0.2 0-0.2-0.2h-0.2l-0.1-0.1-0.1-0.2-0.2-0.2v-0.2l-0.2-0.1v-0.6l-0.2-0.3v-1l0.2-0.4q0.2-0.7 0.7-1l0.6-0.2q0.2-0.2 0.5-0.2h0.4l0.4-0.1 0.3-0.1h0.1v-0.8l-0.1-0.1h-0.5l-0.4-0.2h-0.4l-0.4-0.1h-0.4v-0.4l-0.2-0.2v-1l0.1-0.1h0.2q0.3 0.1 0.4-0.2h0.5l0.3-0.3h1l0.3 0.1h1l0.4 0.2 0.1 0.2 0.1 0.1v0.2l0.1 0.2v0.1l-0.1 0.2v0.2l0.1 0.2v1.1l-0.2 0.3v0.1h0.5l0.2 0.1h0.4l0.2-0.1v-0.1h0.2v-1.4h0.6q0-0.1 0 0h1.3v0.1h0.2v0.3l-0.1 0.1v0.9l0.2 0.2h0.7q0.3 0.1 0.3 0.4v0.5m-6.6 1.7-0.1-0.5-0.2-0.2h-0.1l-0.2 0.1h-0.2q-0.3 0-0.5 0.3v0.2l-0.1 0.1v0.3l0.2 0.3h0.1l0.2 0.1h0.5l0.4-0.4zm10.6-4.6-0.2 0.2-0.1 0.2-0.3 0.2-0.4 0.4h-0.3l-1.1-1.1-0.4-0.2v-0.4h0.3l0.3-0.3 0.1-0.2 0.3-0.3h0.2l0.3-0.2h0.3v0.2l0.2 0.2h0.1l0.1 0.2h0.1q0 0.2 0.2 0.3l0.2 0.3v0.5m4.7 3.3v0.3l-0.2 0.1h-1.2l-0.1 0.1h-0.3l-0.3 0.2-0.2 0.3v0.7l0.1 0.3v0.2q0.2 0 0.3 0.2 0.2 0 0.3 0.2l0.4 0.2 0.2 0.3v0.1l-0.1 0.1-0.2 0.4v0.4l-0.2 0.2v0.2h-0.1l-0.2 0.2-0.2-0.1h-0.6l-0.2-0.2h-0.5l-0.2-0.2h-0.1v-0.2l-0.8-0.8v-0.2h-0.2v-0.7l0.1-0.2 0.2-0.2v-0.9q-0.1-0.1-0.2 0h-0.5l-0.3 0.1h-0.1l-0.1-0.2h-0.5l-0.1 0.1h-0.5l-0.3 0.1h-0.2v0.1h-0.6v-0.2l-0.2-0.3v-0.3l0.1-0.2v-0.6l0.1-0.3h0.1q0.1 0 0 0 0.2 0 0.2-0.2l0.2-0.1h0.7l0.3-0.2h0.5l0.2-0.1 0.1-0.2h0.4l0.1-0.1 0.2-0.1h0.2l0.2-0.1h0.2q0.2 0 0.3-0.2h0.2v-0.2l0.1-0.3v-0.5l0.1-0.1v-0.2l0.1-0.3 0.4-0.6 0.1-0.2 0.2-0.2 0.2-0.3 0.2 0.1h0.1l0.2 0.1 0.1 0.2h0.2l0.3 0.3 0.1 0.2 0.2 0.2 0.1 0.2v0.2l-0.1 0.3-0.2 0.3v0.3l-0.2 0.3 0.1 0.2h0.4l0.3-0.1 0.2 0.2 0.2 0.3h0.1v0.3l0.2 0.7z" fill="#a5adcb" style="paint-order:markers stroke fill" aria-label="みそ"/>
  </g>
  <path class="themed" d="m4.2 62.94-.01.11v.11l-.01.1q0 .05-.02.09t-.02.07v.2l-.02.1q0 .06-.02.1l-.02.06-.02.05-.05.04q-.03.04-.08.02l-.07-.01q-.02-.01-.05.01l-.11-.05h-.16l-.03.02h-.05q-.07-.07-.07-.15t-.02-.13l-.04-.14v-.1l.01-.12v-.06q0-.04.03-.07l.02-.17v-.05q0-.06-.03-.12l-.04-.12-.03-.04q-.02-.03-.05-.03l-.05-.04-.06-.02-.07.02h-.04L3 62.6h-.02v.01l-.1.1q-.03 0-.05.03l-.05.03-.05.03-.06.02-.01.04-.01.03-.02.03-.02.04q-.03.08-.03.16v.04l-.02.06-.02.04-.01.22v.2q0 .05-.02.07l-.02.08-.02.08-.13-.02h-.36l-.08-.01q-.07 0-.1-.05l-.05-.15-.02-.17v-.05l.02-.04.01-.09.01-.08v-.44q0-.04-.02-.06v-.18l-.04-.04q0-.02-.03-.04h-.05l-.04-.02q-.03 0-.06-.03l-.07-.03-.05-.02-.05-.02-.1.05-.05.01h-.04l-.07.07-.07.07-.02.05-.03.06-.06.18q-.02.09-.02.2v.2l-.01.22-.03.2-.03.08-.02.1-.07.07-.1.05h-.1L.4 64l-.05.01-.05.01H.25L.16 64l-.06-.08-.06-.1v-.03l.02-.03v-.16l-.03-.15-.04-.13q0-.06.02-.09t.03-.08q.02-.04.02-.1l.01-.12v-.12l.01-.1v-.06q-.02-.13 0-.25l.02-.05.01-.04.05-.05q.04 0 .06-.03.03-.06.01-.12L.21 62l.03-.06.02-.07.09-.11.08-.1v-.05q0-.03.03-.04l.03-.01.02-.01.22-.07.2-.07q.12-.05.23-.05h.06q.08-.04.16-.04l.17-.01h.08l.06.02q.04 0 .07.03l.1.05q.04.02.1.02l.04.03.04.02.05.06.05.06.01.06q.02.02.02.06l.05.05q.03.02.07.02l.06-.06.06-.06h.06l.15-.1.03-.05.02-.05h.06l.06-.02.08-.03.08-.05h.13l.05.01.06.01q.08.03.16.03l.16.01q.01.02.05.02l.14.13v.01l.01.01q.06.17.2.24v.06q.05.04.1.04.07.01.06.07 0 .08.02.15l.05.14.04.16v.26l.02.04q.02.08 0 .18m3.11-.54q.02.07 0 .14l-.02.06v.1q-.03.05-.03.1l.01.11-.06.09v.08l-.03.03-.05.04-.04.1-.03.09v.06l-.06.04q-.03.01-.07.06l-.05.03-.05.03h-.06q-.1 0-.1.1l-.13.1-.13.1q-.1.07-.28.1l-.1.03-.1.04-.04-.01h-.03l-.16-.01h-.05l-.04.01-.09-.01-.1-.02-.1-.05-.1-.06-.06-.04-.05-.06q0-.02-.02-.02 0-.02-.02-.03l-.04-.02q-.02 0-.04-.03-.1-.07-.18-.15t-.11-.2l-.07-.14-.04-.05-.02-.05.02-.05-.03-.03-.01-.05v-.27q.01-.03 0-.07l.01-.08.02-.08.02-.08.03-.07q0-.04.02-.07l.03-.07q0-.04.03-.08v-.06l.05-.1q.02-.04 0-.08l.05-.05.03-.05.02-.05.04-.06q.02-.05.06-.09L5 61.5l.03-.03q.02-.04.01-.07v-.05l.02-.03.03-.02.04-.02.1-.06q.06-.04.11-.05.06-.04.12-.05l.12-.04h.25q.07.03.14.03h.21l.07-.01.05.04.05.04q.02 0 .03.02l.05.02q.09 0 .15.05l.14.1v.08q0 .03.05.05l.04.01.05.01.03.06.04.06.05.05.04.06.02.03.02.03.04.04q.02.02.02.05l.04.09q.03.04.04.09l.02.04.03.04.02.12zm-.88.22q.01-.04 0-.07-.03-.04-.02-.08l-.02-.03v-.11l-.08-.13-.08-.11q0-.02-.02-.02l-.02-.02q-.1 0-.23-.06-.08-.04-.18 0h-.02l-.02.02H5.7q-.1-.02-.13.08l-.03.05-.02.06-.03.05-.03.05-.04.07-.05.07q0 .07-.03.13l-.02.12.03.07.03.06q.04.08.04.15V63l.02.02.1.03.1.03.1.02.08-.01h.12l.1-.02.09-.07.1-.06q.04-.1.1-.16.07-.07.1-.16m3.83-1.31q-.03.11-.03.23l-.02.23v.45l-.02.2-.01.19-.01.05v.06q0 .1-.03.17l-.01.16-.01.1-.03.1v.09q0 .05-.03.1l-.02.09-.03.08-.05.08-.04.08q-.06.03-.1.08l-.12.1-.11.11q-.08.07-.15.07H9.4q-.12.02-.2.08l-.01.01-.02.02q-.08.01-.17-.01l-.15-.07h-.21q-.17-.05-.32-.15l-.05-.03-.05-.01-.08-.02-.07-.02q-.04-.02-.05-.05l-.04-.07-.06-.1-.05-.13-.06-.1-.06-.1v-.02.02l-.03-.01-.01-.01-.04-.04-.02-.06q.02-.04.02-.1l-.01-.14q-.03-.1-.03-.19l.02-.2.02-.07q.05-.11.05-.2.06-.08.1-.18l.09-.19.05-.02q.02-.02.05-.02l.02-.03q0-.02.02-.03.02-.02.05-.02.02-.02.05-.02l.02-.04.03-.04.02-.02q.15-.05.3-.07h.05l.06-.02q.08-.03.16-.02H9l.05.02.05.01h.03q.07-.01.1.02l.02.02h.1q.06-.01.07-.05v-.04l-.02-.02v-.63q.02-.03 0-.05l-.02-.1.02-.1.03-.14v-.18l.02-.12q0-.07.02-.12t.07-.05l.08-.05h.18q.1.01.18-.01l.08.03h.08q.06.06.06.14v.14q0 .03.02.05l.02.05-.02.04v.1l.02.07v.51zm-.91 1.58-.03-.1q0-.05-.02-.08l-.05-.09q-.03-.03-.04-.08-.07-.03-.1-.06l-.06-.02-.06-.01-.05-.02-.04-.02-.09.04-.07.04q-.1.04-.14.16v.05l-.01.06-.03.03-.02.05v.12q0 .08.04.15t.12.12q.02 0 .03.03l.04.02q.04.04.08.04l.2-.02q.09-.01.17-.05l.06-.06.03-.05.03-.05v-.2m3.85-1.09q.02.04.01.08l-.01.07q-.02.04-.02.1v.43l-.02.1-.06.2-.05.23v.03l-.02.05-.11.26-.06.07-.06.07-.05.03-.05.02q-.02 0-.02.03l.02.03q0 .02.02.03-.05.08-.16.15l-.06.01-.07.02q-.06.03-.14.1l-.02.03-.02.04q-.05.02-.1.01h-.08l-.04.01-.03.02-.03.02-.02.02q-.08.03-.15.02h-.16l-.06-.02-.07-.03v-.02l.02-.03q-.02-.05-.06-.05l-.09-.03h-.08q-.04 0-.04-.06-.02-.06-.05-.06h-.02q-.05.02-.09 0-.04-.01-.07-.04t-.04-.07l-.02-.09q-.02-.03-.06-.05l-.07-.05-.08-.17-.07-.17-.02-.07.01-.07-.02-.03-.01-.03q-.04-.12-.06-.25 0-.12.03-.25l-.02-.04q0-.02-.02-.03-.01-.03 0-.07l.02-.05v-.15q.02-.03.01-.06V62l.03-.15.01-.14q0-.14.04-.27l.03-.09.05-.07.04-.02.03-.02h.08l.1-.02.07.01h.09l.08.02h.1l.01.04.01.02v.21l.03.04-.02.05q0 .04-.02.07l.02.2.01.22.02.14.02.13.01.09.03.09.02.08.03.1q.03.1.09.18l.06.05h.02l.03.01q.05 0 .07-.02t.06-.03q.07-.04.13-.05h.11l.1-.06q.03-.05.04-.11.01-.07.06-.1l.05-.11.06-.08.02-.16.03-.15v-.43l.01-.1v-.1q.02-.1.1-.14l.04-.02.04-.02h.05l.07-.01.06.01.07.03h.07l.08-.02.04.01.04.02.02.02v.02l.02.07v.22zm2.02 1.8q0 .06-.05.1t-.03.11l.01.1v.1l-.01.03-.02.02-.03.02h-.24q-.08-.02-.17-.02l-.16-.02h-.19l-.12-.06-.13-.07q-.04-.07-.1-.1-.07-.06-.12-.13l-.03-.06-.03-.06q-.07-.1-.09-.2 0-.05-.03-.08-.05-.1-.02-.17v-.05l-.03-.05-.03-.04v-.06l-.04-.07.02-.13.02-.14-.04-.06q0-.03.02-.04l.03-.05.03-.13.02-.14v-.54q.04-.14.03-.28l.02-.26v-.04q-.02-.07 0-.14l.04-.12v-.04q0-.02-.02-.03l.04-.07.05-.05.01-.05.02-.06.05-.04q.05-.02.12 0h.03l.05.03.08.05h.1l.13.04h.16q.04 0 .07.03.02.03 0 .06l-.01.19-.01.19-.03.18-.03.17-.02.28-.02.26v.06l-.04.12-.03.13q-.02.05 0 .11.02.07.01.15l-.01.16v.03l.02.06.03.06v.05l-.02.03.01.07.01.07.05.06q.03.03.04.07v.03q0 .02.03.03 0 .03.03.05l.06.03.08.02.08.03h.04l.04-.01.03.01.04.01.02.02v.02q.02.05.08.1l.05.06q.03.02.05.06m3.36.2q.02.04 0 .08l-.02.08-.02.02-.03.01-.05.01-.04.01q-.1.02-.11.1 0 .02-.03.04h-.06l-.07.05-.1.01-.07.05h-.02l-.02.01q-.03.01-.06-.01t-.03-.05v-.04h-.06q-.03.01-.05-.02v-.1l-.04-.02-.03-.02-.06-.1-.06-.1-.04-.02-.03.02-.02.03-.02.03-.02.03q0 .02-.02.03l-.16.07-.16.04q-.04.04-.09.06l-.08.05q-.04 0-.07.02l-.07.02q-.04-.02-.08-.01l-.08.02-.12-.03-.13-.02h-.07l-.04-.02-.04-.02h-.06l-.05.03-.07-.02h-.08l-.05-.06-.03-.07-.02-.01-.02-.02-.06-.15q-.08-.2-.12-.42l-.02-.02-.03-.04-.02-.1-.01-.12v-.07q0-.07-.02-.12l.05-.15q.04-.07.02-.15l.03-.05.04-.04q.05-.06.08-.14.02-.07.06-.12l.1-.08.14-.07.13-.06h.07q.11-.02.2-.01h.14l.13-.03.07.02.08-.01h.03l.06.04h.06q.07.02.08-.02l-.01-.13-.04-.1-.03-.08v-.08l-.02-.04q0-.03-.03-.05-.08-.03-.2-.04h-.03l-.12.02q-.07 0-.13.02l-.1.02-.1.03q-.04.03-.1-.02l-.01-.12.01-.12-.03-.1q-.02-.06-.02-.14v-.05l-.02-.02-.02-.02q-.02-.02 0-.04v-.02l.1-.02.1-.01.07-.07.03-.01.2.02q.07 0 .21-.05.07 0 .13.02h.14l.04.04.05.03.06-.02.06-.02.08.05h.05q.02-.03.05-.03.05 0 .09.06.03.04.08.07l.07.07.07.07.03.03q.02.02.01.04l.06.04.04.04.07.04q.03.01.05.04l.03.07.04.06.04.13q.02.06 0 .13v.06l.02.07.02.07v.1l.03.06q0 .04-.03.07l-.03.01-.04.02q-.07.04-.01.11l.01.03q.02 0 .03.03v.05l.01.06q-.02.12-.1.23l.07.16.07.17.05.04.04.03.01.03v.02l.02.12.04.12.05.1.07.1.05.08zm-1.37-.84q-.04-.1-.1-.13-.07-.03-.09-.08 0-.03-.02-.03l-.04-.01h-.2l-.06-.02q-.06 0-.1.03l-.05.04q-.02 0-.04.03l-.08.15.03.07q.02.03 0 .08l.03.12.05.1q0 .02.02.02l.13.01h.17q.07-.05.17-.08.04 0 .07-.05l.05-.12q.02-.07.06-.13m-1.33 1.02V64m5.25-2.51q.01.1-.03.14l-.05.08v.1l-.03.03-.02.04-.05.06-.04.06-.02.06-.02.06-.01.02v.01h-.03v.01h-.04q-.14-.05-.27 0h-.12l-.03.01-.13.09-.1.1-.06.16q-.03.07-.03.17v.02l-.02.03-.02.04-.01.04-.04.07-.03.08q.02.04 0 .08l-.02.08q.02.05 0 .1l-.01.1q-.02.05-.02.12v.59l-.04.05q-.04.07-.1.1-.07.03-.14.02l-.11-.01-.1-.02-.06-.01-.07-.02h-.05l-.03.02q-.08-.03-.15-.1v-.09l.01-.08v-.05q0-.03-.02-.05l-.01-.1v-.08l-.04-.22.02-.03.01-.04.01-.04v-.03l.01-.02v-.03l-.02-.04v-.21l.02-.05q.01-.03 0-.07 0-.03-.03-.06l-.01-.01-.01-.02-.02-.07v-.07l-.03-.08v-.23l.02-.15-.01-.03v-.03l-.01-.14.02-.13.01-.06v-.16q.01-.06.04-.11l-.02-.07.02-.06.01-.07.02-.06.02-.05q.03-.04.06-.03.07.02.13 0 .07-.02.13 0l.04-.02.04-.01q.1-.04.17 0 .05.08.05.11l.01.19q.02.07.07.13l.04.02q.03 0 .04-.02l.05-.03.04-.04.06-.06.07-.07.13-.06.15-.06h.17l.02-.01q.08.03.13.01.1-.03.2.03l.1.05q.06.02.11.06l.05.05zm2.84.97q0 .08-.05.13-.03.07-.06.1-.1.05-.17.12t-.19.08h-.04q-.03 0-.05.02l-.14-.02-.16-.01q-.06 0-.1-.04t-.05-.07l-.03-.07-.03-.07-.04-.12-.04-.12v-.26l.04-.05.04-.06.02-.05.02-.06.08-.07.06-.08q.1-.07.22-.08h.24l.07.06.08.05.05.07.06.06q.05.05.07.1l.05.11.05.13zm2.78-1.68q.02.05.01.1l-.02.09-.02.07-.03.06-.06.07-.05.07q-.02 0-.03.02l-.03.03-.14.06-.15.02h-.12l-.07-.02-.05-.02-.03-.03h-.13l-.06-.04-.07-.03-.03-.11.01-.11-.01-.12q-.02-.02 0-.04.02-.04 0-.08-.02-.05 0-.1v-.03q-.02-.04 0-.07l.03-.06v-.08l.02-.03q.05 0 .08-.04.04-.04.09-.06l.09-.06.1-.05h.1l.07.01h.09q.1 0 .14.08.01.03.04.04l.06.01q.06.06.08.15l.03.07.02.08.02.08zm-.04 1.44-.01.1v.27l-.05.06q.03.03.04.07v.27q0 .04-.03.1l-.03.1v.31l-.01.25q-.02.11-.08.22l.02.1.02.1-.01.03q-.03.05-.08.08h-.03l-.15.01h-.15l-.06-.04-.06-.03h-.06l-.06-.01-.1-.12-.05-.02-.05-.02q-.04-.03-.03-.1l.03-.12q.02-.08 0-.15l-.03-.1v-.79q.04-.05.04-.09v-.52l.01-.06v-.08l.09-.04.08-.01h.05l.06-.01.1-.02q.04 0 .05.02l.05.03.1-.02q.04-.01.07 0 .03.02.05.07l.02.02.05.03q.04 0 .07-.02l.06-.03q.04 0 .05.03.02.05.02.13m2.35-.63q-.01.08-.07.14l-.04.06-.04.03-.04.05-.02.05q-.04.06-.11.01-.04-.02-.05-.05h-.08l-.02-.01q-.03-.01-.04-.04t-.04-.05l-.2-.06q-.08-.02-.18.01l-.09.12-.04.12.01.09.03.08q.04.05.09.07h.05l.05.01.04.04.04.03q.04.02.08.07l.09.05.09.05.09.04q.03 0 .06.03l.06.06.04.07.06.08.03.15q.02.07.02.15v.11l.02.1v.16l-.04.08-.03.1q-.02.09-.07.17l-.05.06-.06.06-.04.03q-.02.01-.02.04-.06.03-.1.08l-.07.11-.09.01-.1.03-.07.02-.07.03H28q-.06-.03-.13-.03-.06 0-.13.03-.06.01-.09-.01-.04-.04-.09-.06l-.09-.01q-.06-.07-.13-.12-.07-.06-.12-.13l-.01-.04v-.21q.02-.1.07-.17l.1-.17.06.02.07.01.07.05.1.04q.05.03.08.02h.04l.05.02q.07.03.14-.02l.06-.04q.03-.02.05-.06v-.21l-.01-.04-.02-.04-.08-.07-.04-.06q-.01-.04-.05-.06l-.15-.04-.06-.05-.05-.04-.02-.02-.03-.01-.05-.02-.06-.01q-.03-.04-.1-.06l-.05-.09q0-.04-.04-.08l-.05-.07q-.02-.04-.06-.07l-.03-.14-.03-.15q-.04-.09-.01-.18l.02-.12.05-.12.1-.2q.05-.1.15-.19l.21-.17.06-.02.05-.02.12-.04q.03-.02.08-.02l.14-.01h.01q.1-.03.17-.02.1.01.17.04h.07l.1.08.09.08.07.04.07.03q.06.05.1.11l.1.12.02.09zm3.1.83q.01.07-.01.14l-.02.06v.1q-.03.05-.03.1l.02.11-.07.09v.08l-.03.03-.05.04q0 .04-.03.1l-.04.09v.06q-.02.03-.06.04t-.06.06l-.05.03-.06.03h-.05q-.1 0-.1.1l-.14.1-.13.1q-.1.07-.27.1l-.1.03-.11.04-.04-.01h-.03l-.15-.01h-.05l-.05.01-.09-.01-.09-.02-.1-.05-.1-.06q-.04-.01-.07-.04t-.05-.06q0-.02-.02-.02 0-.02-.02-.03l-.03-.02q-.02 0-.04-.03-.1-.07-.18-.15t-.12-.2l-.07-.14-.03-.05-.03-.05.02-.05-.02-.03-.02-.05v-.09q.02-.04.01-.08v-.25l.03-.09.01-.07.03-.07.02-.07.03-.07.04-.08v-.06l.04-.1v-.08l.05-.05.03-.05.03-.05.03-.06q.02-.05.06-.09l.05-.05.03-.03q.02-.04 0-.07v-.05l.02-.03.03-.02.04-.02.1-.06q.06-.04.12-.05.06-.04.11-.05l.13-.04h.25q.07.03.14.03h.2l.07-.01.05.04q.03.01.05.04l.04.02.04.02q.09 0 .16.05l.14.1v.08q0 .03.04.05l.04.01.05.01.04.06.04.06.05.05.04.06.02.03.01.03.04.04.03.05.03.09q.03.04.04.09l.02.04.04.04.02.12zm-.88.22-.01-.07-.02-.08-.02-.03v-.11l-.08-.13q-.03-.06-.08-.11l-.01-.02-.03-.02q-.1 0-.23-.06-.07-.04-.18 0h-.02l-.02.02h-.03q-.1-.02-.13.08l-.03.05-.02.06-.02.05-.04.05-.04.07-.04.07q0 .06-.03.13l-.03.12.04.07.03.06q.04.08.03.15V63l.02.02.1.03.11.03.09.02.09-.01h.11l.1-.02.1-.07q.04-.04.1-.06.04-.1.1-.16.06-.07.09-.16m5.42.32-.02.11v.21q0 .05-.03.09v.21l-.02.06-.01.1-.02.1-.02.06-.03.05-.04.04q-.04.04-.09.02l-.06-.01q-.03-.01-.06.01l-.1-.05h-.16l-.03.02h-.05q-.07-.07-.07-.15t-.03-.13l-.03-.14v-.1l.01-.12v-.06q0-.04.02-.07l.02-.17v-.05l-.02-.12q-.01-.06-.05-.12 0-.02-.03-.04 0-.03-.04-.03l-.06-.04q-.03 0-.05-.02l-.08.02h-.03l-.03-.02h-.02l-.01.01q-.04.06-.1.1-.02 0-.05.03l-.05.03q-.01.02-.05.03l-.05.02-.01.04-.02.03q0 .02-.02.03v.04q-.04.08-.05.16v.1l-.03.04-.02.22v.27l-.03.08-.02.08-.13-.02h-.37l-.08-.01q-.07 0-.1-.05l-.04-.15-.02-.17v-.05l.02-.04.01-.09v-.26q.02-.1.01-.18v-.08l-.02-.06q-.02-.03 0-.05v-.13l-.04-.04-.04-.04h-.04l-.05-.02-.06-.03-.06-.03-.06-.02-.04-.02-.1.05-.05.01h-.04l-.07.07-.07.07-.03.05-.02.06-.07.18-.01.2v.2l-.02.22q0 .1-.03.2 0 .05-.02.08l-.03.1-.07.07-.08.05h-.12l-.12.03-.05.01-.05.01h-.05l-.09-.02-.06-.08-.07-.1.01-.03.01-.03q.02-.08 0-.16l-.03-.15-.03-.14q0-.05.02-.08l.03-.08.01-.1.02-.12v-.28q-.02-.13.01-.25l.02-.05.01-.04.05-.05q.03 0 .06-.03.03-.06 0-.12L32.7 62l.03-.06.01-.07.1-.11.07-.1q.02-.02.02-.05t.02-.04l.03-.01.02-.01.21-.07.21-.07q.11-.05.23-.05h.05q.08-.04.16-.04l.18-.01h.07q.04 0 .07.02.03 0 .07.03l.09.05.1.02.04.03.04.02.05.06.05.06.02.06.02.06.05.05q.02.02.07.02l.06-.06.06-.06h.05l.16-.1.02-.05q.02-.02.02-.05h.07l.06-.02.08-.03.08-.05h.13l.05.01.05.01q.08.03.17.03l.16.01q.01.02.05.02l.14.13v.02q.07.17.2.24v.03l.02.03q.03.04.08.04.07.01.07.07l.01.15.05.14.05.16v.26l.02.04q.02.08 0 .18m3.1-.54q.03.07 0 .14l-.02.06v.1l-.02.1v.11l-.05.09v.08l-.03.03-.05.04-.04.1-.03.09v.06q-.03.03-.07.04t-.06.06l-.05.03-.06.03h-.05q-.1 0-.1.1l-.13.1q-.07.04-.13.1-.11.07-.28.1l-.1.03-.11.04-.03-.01h-.04l-.15-.01h-.05l-.05.01-.08-.01-.1-.02-.1-.05-.1-.06q-.04-.01-.07-.04l-.05-.06q0-.02-.02-.02l-.01-.03-.04-.02q-.02 0-.04-.03-.1-.07-.18-.15t-.11-.2q-.03-.08-.08-.14l-.03-.05-.02-.05.01-.05q0-.02-.02-.03t-.01-.05l-.01-.04v-.05q.02-.04.01-.08v-.25l.03-.09.02-.07q0-.04.02-.07l.03-.07q0-.04.02-.07t.04-.08v-.06l.04-.1v-.08l.05-.05.03-.05.03-.05.04-.06.05-.09.05-.05.03-.03q.02-.04.01-.07v-.05l.01-.03.03-.02.04-.02.1-.06.12-.05q.06-.04.11-.05l.13-.04h.25q.07.03.14.03h.2l.07-.01.05.04q.03.01.05.04l.04.02.04.02q.1 0 .16.05l.14.1v.08q0 .03.04.05l.05.01.05.01q0 .03.03.06l.04.06.05.05.04.06.02.03.02.03.03.04.03.05.04.09.03.09.02.04.04.04.02.12zm-.87.22-.01-.07q-.02-.04-.01-.08l-.02-.03-.01-.05v-.06l-.07-.13-.09-.11v-.02q-.02 0-.03-.02-.11 0-.24-.06-.07-.04-.18 0h-.02l-.01.02h-.04q-.1-.02-.13.08l-.03.05-.02.06-.02.05-.03.05-.05.07-.04.07q0 .06-.03.13l-.03.12.04.07.03.06q.04.08.03.15V63l.02.02.1.03.11.03.1.02.08-.01h.12l.1-.02.09-.07.1-.06q.04-.1.1-.16.07-.07.1-.16m3.44-1.15q0 .1-.04.14l-.04.08-.01.1-.03.03-.02.04-.05.06-.03.06q-.02.02-.02.06l-.02.06-.01.02h-.01q0 .02-.02.02h-.04q-.14-.05-.27 0h-.13l-.02.01q-.08.04-.13.09l-.11.1-.06.16q-.02.07-.02.17v.02l-.02.03-.02.04-.02.04-.03.07-.03.08v.08l-.02.08v.1l-.02.1q-.02.05-.02.12l.01.1v.39l-.01.1-.03.05q-.05.07-.11.1t-.14.02l-.1-.01-.1-.02-.07-.01-.07-.02h-.04l-.03.02q-.08-.03-.15-.1v-.09l.01-.08-.01-.05-.01-.05-.02-.08q-.02-.04 0-.08l-.05-.22q.02-.01.02-.03l.02-.04v-.04l.01-.03.01-.02v-.03l-.02-.04v-.21l.01-.05q.02-.03.01-.07 0-.03-.03-.06l-.01-.01-.02-.02v-.07q0-.04-.02-.07l-.02-.08v-.23l.01-.15v-.06l-.02-.14q0-.06.03-.13l.01-.06v-.16q0-.07.03-.12l-.02-.06.02-.06.02-.07.02-.06.01-.05q.04-.04.07-.03.06.02.13 0 .06-.02.13 0l.04-.02.03-.01q.1-.04.18 0l.05.11.01.19q.02.06.07.13l.04.02q.03 0 .04-.02l.04-.03.04-.04.07-.06.06-.07.13-.06.16-.06h.17l.02-.01q.07.03.13.01.1-.03.2.03l.1.05.1.06.05.05zm3.07 1.24v.04l-.05.09q0 .03-.03.08-.03.09-.09.15l-.08.12-.08.12-.13.09-.14.07q-.04.01-.05.03-.04.04-.08.05l-.06.03q-.03.01-.06.05l-.13.05-.12.04h-.04l-.04.01-.06-.02q-.03 0-.06-.03-.06 0-.11.02l-.12.02-.05-.03-.04-.01-.05-.02q-.02-.02-.05 0l-.04.05-.04.07v.1l.02.1-.01.07q-.03.07-.01.15.03.08.02.16v.18q-.03.06-.03.13v.14l-.01.03q-.05.07-.13.07h-.14q-.07 0-.14-.03H43q-.06 0-.12-.03l-.06-.02h-.07v-.02h-.01l-.04-.1-.01-.1-.02-.06-.02-.06.02-.1.03-.09-.01-.09v-.07l-.01-.08-.02-.08.03-.05.02-.05v-.09q-.02-.03-.02-.1l.02-.05.03-.06q-.02-.07-.02-.24l-.02-.32.01-.2v-.17l.04-.16.01-.05.03-.05.02-.12.03-.1.03-.13q0-.04.02-.07l.09-.12q.06-.08.11-.2v-.02l.03-.05.02-.02v-.01l.05-.09q.06-.12.18-.17l.08-.04.1-.06.17-.05.19-.06H44l.08-.01h.14l.1.02q.06 0 .1.04l.06.01h.15l.1.02.07.04.08.03.03.03.03.03.03.03q.09.06.15.15.07.07.13.16.03.06.07.08l.03.04.04.05v.2l.03.06v.22q.03.09 0 .16-.01.04.01.07zm-.82-.24q0-.1-.04-.18-.03-.1-.1-.17l-.11-.1-.12-.08q-.11-.02-.2 0-.03.03-.1.04-.06 0-.08.03l-.07.11-.06.07q-.04.08-.05.18l.01.17.03.12.02.1q0 .03.02.04l.01.05.03.06q.01.03.04.05.03 0 .08.03l.04.01h.14l.08.02q.06.03.15 0l.04-.03q.03 0 .04-.03.04 0 .04-.04 0-.03.02-.05.08-.1.1-.2.04-.1.04-.2m3.73.61q-.03.08-.02.16v.35q-.02.03-.02.07l.01.08v.06q-.02.04-.02.09l-.02.09V64q0 .05-.05.05h-.03q-.05-.03-.08-.02l-.06.03-.04.04-.04.04q-.07.04-.13.02-.05-.01-.12-.05h-.09l-.05-.04-.05-.04q-.05-.05-.03-.1l.01-.04v-.05l-.01-.06v-.13l.02-.06-.04-.1-.04-.1q0-.06-.02-.1v-.11l-.02-.1v-.13q0-.07-.06-.12l-.07-.1-.06-.1-.08-.03-.01-.03-.02-.02-.01-.01v-.02l-.04-.04H47l-.05.01-.04.01h-.05l-.05.04-.04.02-.04.04-.05.01q-.03.06 0 .11v.13l.02.14-.01.14v.05l-.01.04-.02.2q-.01.1-.05.2l.02.12V64q0 .08-.08.1h-.25q-.06.01-.11.04l-.05.02-.05.03-.05.04H46l-.12-.05q-.06-.08-.08-.17 0-.1-.04-.18l.01-.07q.02-.03 0-.07v-.13q-.02-.12 0-.2.02-.06 0-.12l-.02-.23q.02-.1 0-.2-.02-.02 0-.05v-.07l.01-.06q0-.02.03-.04l.03-.03.02-.11-.02-.06q-.01-.02-.02 0h-.03v-.38l-.01-.05v-.07l.02-.06.02-.07q-.03-.05-.03-.1v-.17l.02-.06q-.03-.05-.02-.12v-.8q.02-.01.02-.05v-.05l-.02-.05v-.04q.03-.04.02-.07 0-.05.03-.09v-.01l.02-.01h.01l.06-.03.06-.02.04.03.04.03h.1l.03-.02.02-.02.06-.04.05-.01.05.01.1.06q.06.03.12.03l.04.1.04.1.06.14q0 .03-.03.05-.02.01-.02.05v.04l.01.06v.3l-.02.2v.08q0 .07.03.13.03.02.05.06l.04.05q.04.04.08.04l.18.02h.24l.05.02.05.01q.07.01.06.08l.02.01h.04q.08-.04.14 0l.1.05.09.07.1.14q.08.06.15.14 0 .02.03.04.02 0 .03.02.06.06.06.11.02.1.05.14.01.07.05.16v.06l.01.06.01.05.01.15.02.15zm1.42-2.32v.1l-.01.09q0 .03-.03.07l-.03.06-.05.07-.05.07-.04.02-.03.03q-.04.03-.13.06l-.15.02h-.13l-.07-.02-.04-.02-.03-.03h-.13q-.03-.03-.07-.04l-.06-.03-.04-.11.01-.11v-.12q-.03-.02 0-.04v-.08q-.03-.05 0-.1v-.03q-.02-.04 0-.07l.03-.06v-.08q0-.02.02-.03.05 0 .08-.04l.08-.06.1-.06.1-.05h.09l.07.01h.1q.09 0 .14.08 0 .03.04.04l.06.01q.06.06.08.15l.02.07.03.08.02.08q0 .04.02.07m-.04 1.44-.01.1v.18l-.01.09-.04.06q.03.03.03.07v.27l-.02.1-.03.1-.01.15v.41l-.08.22.01.1.03.1h-.01v.03l-.08.08h-.04l-.14.01h-.16l-.06-.04-.05-.03H49l-.07-.01-.1-.12-.04-.02q-.03 0-.05-.02-.05-.03-.03-.1l.03-.12q.02-.08 0-.15l-.03-.1v-.79q.03-.05.03-.09v-.2q.02-.06 0-.1v-.1l.01-.12v-.14l.1-.04.08-.01h.05l.05-.01.1-.02q.04 0 .06.02l.05.03.09-.02q.04-.01.07 0 .04.02.06.07l.02.02.04.03.08-.02.06-.03q.04 0 .04.03zm2.9-.67-.06.1-.02.12-.1.09-.06.1-.05.09-.05.08h-.03l-.02-.03q0-.03-.02-.03t-.03.02q-.02 0-.03.03l-.02.02-.03.02h-.02l-.06-.04-.06-.05-.08-.03q-.04 0-.07-.02h-.02l-.03-.04q-.02-.02-.04 0-.02.01-.02.03v.04h-.06l-.03.02-.03.01h-.04l-.06-.02q-.06 0-.11.04l-.1.05q-.04 0-.06.05t-.07.12l-.1.12v.03l-.03.04-.02.04v.03l.03.05-.03.04-.02.04v.03l.01.04.05.1.03.05.03.06.05.04.05.05.05.05.04.04h.04l.06-.01.03.01h.03l.08.02.08-.01.1-.03.1-.02.09.01.09.03.08-.05q.05-.03.11-.03.06.02.08.07.03.03.04.07l.04.07q0 .04.03.08l.05.08.04.05.03.06q.02.1-.01.18l-.09.06-.08.08-.03.05-.03.04-.05.02q-.02 0-.05.03l-.04.01-.04.01-.1.06q-.04-.03-.1-.03-.04.03-.1.03l-.1.01-.11-.01q-.04-.03-.1-.04l-.08.04-.13-.04h-.06l-.06.01-.05-.02-.06-.02h-.09l-.06-.04-.05-.04-.05-.03q-.11-.05-.19-.14l-.09-.1-.1-.09-.08-.09q0-.08-.05-.15l-.09-.14-.01-.08-.03-.06v-.24q.02-.03-.03-.07l.01-.03.03-.03q.03-.02.03-.07l-.02-.03-.02-.03.02-.06.01-.06v-.11l.05-.06q0-.05-.03-.05t-.05-.03l.05-.18.08-.12v-.14q0-.06.05-.14.02 0 .04-.03l.03-.03.02-.06.02-.06.08-.05.08-.06.02-.02.05-.02q.03 0 .05-.02l.05-.04h.03l.04.01q.05 0 .09-.04t.08-.07l.15-.03.15-.05.08.02q.05.02.09 0 .01-.02.03 0h.13l.13.01q.1.01.15-.04l.01-.01.01-.02q.02 0 .03.02h.02q.16.15.36.16l.06.02.06.02.13.13q.06.05.04.13v.02zm2.84.91q0 .08-.04.13l-.07.1q-.1.05-.17.12t-.18.08h-.05q-.03 0-.05.02l-.14-.02-.16-.01q-.06 0-.1-.04t-.05-.07l-.03-.07-.03-.07q-.01-.07-.04-.12l-.04-.12v-.26l.04-.05q.03-.02.04-.06l.02-.05.02-.06.08-.07.06-.08q.1-.07.22-.08h.24l.07.06.08.05.05.07.06.06.08.1.05.11q0 .05.04.13zm4.46-.04q.02.07 0 .14l-.03.06v.1l-.02.1.01.11-.06.09v.08l-.03.03-.05.04-.04.1-.03.09v.06l-.06.04q-.03.01-.07.06l-.05.03-.05.03h-.06q-.1 0-.1.1l-.13.1-.13.1q-.1.07-.28.1l-.1.03-.11.04-.03-.01h-.03l-.16-.01h-.05l-.04.01-.1-.01-.09-.02-.1-.05-.1-.06-.06-.04q-.04-.03-.05-.06l-.02-.02-.02-.03-.04-.02q-.02 0-.04-.03-.1-.07-.18-.15t-.11-.2q-.03-.08-.08-.14 0-.03-.03-.05l-.02-.05.02-.05-.03-.03-.01-.05v-.27q.01-.03 0-.07l.01-.08.02-.09.02-.07.02-.07.03-.07.02-.07.04-.08v-.06l.04-.1.01-.08.05-.05.03-.05q0-.03.02-.05l.04-.06q.02-.05.06-.09l.04-.05.03-.03q.02-.04.01-.07v-.05q0-.03.02-.03l.03-.02.03-.02.11-.06q.06-.04.11-.05.06-.04.12-.05l.12-.04h.25q.07.03.14.03h.21l.06-.01.05.04q.03.01.05.04l.04.02.05.02q.08 0 .15.05l.14.1v.08q0 .03.04.05l.05.01.05.01.03.06.04.06.05.05.04.06.02.03.02.03.04.04q.02.02.02.05l.04.09.04.09.01.04.04.04.02.12zm-.88.22-.01-.07q-.02-.04-.01-.08l-.02-.03v-.11l-.08-.13-.08-.11q0-.02-.02-.02l-.02-.02q-.1 0-.23-.06-.08-.04-.18 0h-.02l-.02.02h-.03q-.1-.02-.14.08 0 .02-.03.05l-.02.06-.02.05-.03.05-.05.07q-.01.04-.04.07 0 .06-.03.13l-.03.12.04.07.03.06q.04.08.03.15l.01.03.01.02.11.03.1.03.1.02.08-.01h.12l.1-.02.09-.07.1-.06q.04-.1.1-.16.07-.07.1-.16m3.97.1v.03q-.03.04-.04.09l-.04.08q-.03.09-.08.15l-.1.12-.07.12-.13.09-.14.07-.05.03q-.03.04-.08.05l-.06.03q-.03.01-.06.05l-.13.05q-.05.03-.12.04h-.04l-.04.01-.05-.02q-.04 0-.07-.03l-.1.02q-.07 0-.13.02l-.05-.03-.04-.01-.05-.02q-.01-.02-.05 0l-.04.05-.04.07v.1l.02.1-.01.07q-.03.07 0 .15t.01.16v.18q-.02.06-.02.13l-.02.14v.03q-.05.07-.13.07h-.14q-.07 0-.14-.03h-.21q-.05 0-.1-.03-.03-.02-.07-.02h-.06l-.02-.02-.03-.1-.02-.1-.02-.06-.01-.06.01-.1.03-.09-.01-.09v-.15l-.03-.08.03-.05.02-.05q.02-.05 0-.09t-.02-.1q.02-.02.02-.05l.03-.06q-.02-.07-.02-.24l-.01-.32v-.37l.04-.16.01-.05.03-.05.02-.12.03-.1.03-.13q0-.04.02-.07l.1-.12.1-.2.01-.02.02-.05.02-.02.01-.01.04-.09q.06-.12.19-.17l.07-.04.1-.06.17-.05.19-.06h.08l.09-.01h.13l.1.02q.06 0 .11.04l.05.01h.16q.05 0 .09.02l.08.04.07.03.03.03.03.03q0 .02.03.03.09.06.15.15.07.07.13.16.03.06.07.08l.03.04.04.05v.15l.01.06.02.06v.22q.03.09 0 .16-.01.04.01.07zm-.81-.25q-.01-.1-.05-.18-.03-.1-.1-.17-.05-.06-.11-.1l-.12-.08q-.11-.02-.2 0-.03.03-.1.04-.06 0-.08.03l-.07.11-.06.07-.05.18q0 .1.02.17 0 .07.02.12l.03.1v.04q.02 0 .03.05 0 .04.02.06.01.03.05.05.03 0 .07.03l.04.01h.14l.08.02q.07.03.15 0l.04-.03q.03 0 .05-.03.03 0 .03-.04 0-.03.02-.05.08-.1.1-.2.04-.1.05-.2m3.82-.57v.13l-.02.12v.14q0 .07-.03.15l-.03.04-.04.05v.04l.01.05q-.01.03-.04.05l-.05.04-.11.03-.11.03q-.09.02-.18.01h-.9q-.02.02-.05.01h-.11q-.03.02-.06 0-.03 0-.05.02h-.05l-.05-.01h-.04l.02.05.03.05.03.05.03.06.01.05.02.05.07.06.07.07.06.01.07.01.08.01h.08l.08.01.08.02.11-.01.12-.01.05-.04.06-.03q.08-.02.16 0l.05.07.05.06.08.12q.04.05.05.12l.04.06.03.05v.06l-.02.06-.06.04-.01.01q0 .02-.02.02l-.08.05-.06.05q-.1.08-.19.08h-.05l-.06.03-.07.03h-.07l-.06.03-.04-.01h-.16l-.12-.02-.04-.01h-.03q-.1 0-.2-.04l-.2-.09q-.07-.02-.1-.07-.04-.05-.1-.08-.05-.04-.11-.06l-.08-.03-.08-.05q0-.03-.02-.05 0-.03-.02-.05l-.04-.04-.04-.04-.03-.04-.06-.2q-.03-.11-.08-.21v-.35l-.02-.1v-.1l.03-.1.03-.1v-.09l.02-.14q0-.07.03-.13l.03-.07.05-.08q.05-.07.07-.14l.1-.04.02-.03.08-.08.03-.06q.04-.03.03-.06.06-.1.16-.17l.07-.05.06-.05.06-.02h.09l.05-.02h.04l.03-.03.02-.01h.03l.1-.04.1-.05q.1.04.2.03h.11l.11.04.1-.03q.04 0 .08.03l.1.05h.05l.01.01.01.01.14.12.13.1q.09.07.12.16l.04.05q.07.07.13.17v.08l.02.06q.02.03.02.07m-.79.2v-.19l-.03-.04v-.12l-.03-.03-.06-.01-.03-.09-.05-.03-.07-.02-.17.05-.19.05h-.15q-.07.03-.12.09l-.08.1-.05.07-.04.07v.04q.01.05.05.06t.07.02l.09.02h.03l.03-.01q.08-.03.13 0h.09l.09-.02.07.03.08.01q.08.03.16.03l.15-.02q.03-.03.03-.06m3.62 1.09v.1l-.01.1v.39q-.03.05-.08.05h-.14q-.07 0-.14.03-.03.02-.08.02t-.09 0l-.05-.05q-.08.03-.13-.05l-.04-.09-.01-.09v-.2q0-.1-.03-.19l-.01-.04v-.03l-.01-.14-.03-.14-.01-.05v-.06q-.02-.08-.08-.12 0-.05-.02-.09l-.01-.1q-.02 0-.05-.03l-.07-.03-.06-.03-.03-.03-.03-.05h-.04l-.04.02-.05-.01h-.07l-.06.1-.05.03-.03.03q-.02.01-.02.03l-.04.14q.01.03 0 .07-.02.03 0 .07v.07q-.03.02-.02.04.02 0 .02.03l.02.02v.15q0 .06-.03.13v.05l.02.05-.02.1v.15l-.01.08v.04q.02.07 0 .13l-.07.12-.03.01-.03.01-.02.02h-.12q-.03 0-.04.02l-.05.02q-.08 0-.17-.03-.08-.02-.16.02-.04-.01-.06-.04l-.05-.05-.03-.08-.02-.1.02-.14-.02-.19.02-.2v-.47l.01-.28.01-.08.01-.06.03-.14.03-.11q.01-.05.04-.08.04-.03.05-.07.01-.1.05-.15l.09-.14q.03-.08.1-.07h.02q.02-.02 0-.05 0-.03.03-.06.05-.05.13-.07l.13-.06.08.01q.08.03.16 0 .05 0 .1.03l.12.03.11.02h.05l.05-.01q.07.02.1.07l.1.1q.02.02.06.01l.08.01.07.07.07.07.01.05.02.04q.03 0 .05.03l.01.05.13.03.06.08q.02.04.08.04 0 .06.02.1l.03.11q.01.1.04.16l.04.1.02.12.03.07.04.07-.02.05v.1l.02.05v.07q-.02.04-.01.09zM71 62.14l-.02.07-.01.07v.26q0 .02-.02.03l-.03.04-.03.05h-.06q-.16-.04-.33-.02h-.13q-.07 0-.13-.02h-.25l-.09-.01-.08-.01h-.12q-.1.03-.2.02l-.18-.01-.07-.05q-.03-.02-.04-.07.02-.03 0-.07l.01-.08v-.08q.02-.04.01-.08.02-.06 0-.07t0-.1v-.07q0-.03.04-.05h.1l.15.03h.18l.08.02h.42l.06-.01h.28l.28-.01q.05 0 .11.03l.02.02.02.03q.04.06.03.14m2.3-.57q-.02.08-.07.14l-.05.06-.04.03-.03.05-.03.05q-.03.06-.1.01-.04-.02-.05-.05h-.08l-.02-.01q-.03-.01-.04-.04l-.05-.05-.18-.06q-.1-.02-.2.01l-.08.12-.04.12v.09q.03.03.04.08.03.05.08.07h.05l.05.01.05.04.03.03q.05.02.08.07l.1.05.09.05.08.04q.04 0 .07.03l.05.06.05.07.05.08.03.15q.02.07.02.15v.11l.02.1v.16l-.03.08-.03.1-.07.17-.06.06-.06.06-.03.03-.02.04q-.07.03-.1.08l-.07.11-.1.01-.09.03-.07.02-.07.03h-.15q-.07-.03-.13-.03t-.13.03q-.07.01-.09-.01-.04-.04-.1-.06l-.08-.01q-.06-.07-.13-.12l-.13-.13v-.25q.02-.1.06-.17l.1-.17.07.02.07.02.07.04.09.04q.05.03.09.02h.04l.04.02q.08.03.15-.02l.05-.04q.04-.02.05-.06v-.08l.01-.1v-.03l-.02-.04-.01-.04-.09-.07-.04-.06q0-.04-.04-.06l-.15-.04q-.04-.02-.06-.05l-.05-.04-.03-.02-.02-.01-.05-.02-.06-.01q-.04-.04-.1-.06-.04-.04-.05-.09l-.04-.08-.05-.07-.06-.07-.04-.14-.03-.15q-.03-.09 0-.18l.02-.12.04-.12.1-.2q.06-.1.16-.19l.2-.17.06-.02.06-.02.11-.04.08-.02.15-.01h.01q.09-.03.17-.02t.17.04h.07l.1.08.09.08.06.04.07.03q.07.05.1.11l.1.12q.02.04.02.09zm3.1.83q.01.07-.02.14l-.01.06v.1q-.03.05-.03.1l.01.11-.06.09v.08l-.03.03-.05.04-.04.1-.03.09v.06q-.02.03-.06.04t-.06.06l-.05.03-.06.03h-.06q-.1 0-.1.1l-.13.1-.13.1q-.1.07-.28.1l-.1.03-.1.04-.04-.01h-.03l-.16-.01h-.05l-.04.01-.09-.01-.1-.02-.1-.05-.1-.06-.06-.04-.05-.06q0-.02-.02-.02 0-.02-.02-.03l-.04-.02q-.02 0-.03-.03l-.19-.15q-.07-.08-.1-.2l-.08-.14-.04-.05-.02-.05.02-.05-.03-.03q-.02-.01 0-.05l-.02-.04.01-.05v-.18q.01-.03 0-.07l.01-.08.02-.09.02-.07.03-.07q0-.04.02-.07l.03-.07.03-.08v-.04l.01-.02.04-.1v-.08l.05-.05.03-.05.02-.05.04-.06q.02-.05.06-.09l.04-.05.03-.03.02-.07-.01-.05.02-.03.03-.02.04-.02.1-.06q.06-.04.12-.05.05-.04.1-.05l.13-.04h.25q.07.03.14.03h.21l.07-.01.05.04.05.04q.02 0 .03.02l.05.02q.09 0 .16.05l.13.1v.08q0 .03.05.05l.04.01.05.01.03.06.05.06.05.05.03.06q.02.01.02.03l.02.03.04.04q.02.02.02.05l.04.09q.03.04.04.09l.02.04.03.04.02.12zm-.89.22q.01-.04 0-.07-.03-.04-.02-.08l-.02-.03v-.11l-.08-.13-.08-.11-.01-.02q-.02 0-.03-.02-.1 0-.23-.06-.08-.04-.18 0h-.02l-.02.02h-.03q-.1-.02-.13.08l-.03.05-.02.06q0 .02-.03.05l-.03.05-.04.07-.05.07q0 .06-.03.13l-.02.12.03.07.04.06q.03.08.03.15V63l.02.02.1.03.1.03.1.02.08-.01h.12l.1-.02.1-.07q.04-.04.1-.06.03-.1.1-.16.06-.07.08-.16m3.85-.82q.02.04 0 .08v.07q-.02.04-.02.1v.43l-.02.1-.06.2-.05.23-.01.03-.01.05-.12.26-.05.07-.06.07-.05.03-.05.02q-.02 0-.02.03l.02.03.01.03q-.05.08-.15.15l-.06.01-.07.02q-.06.03-.14.1l-.02.03-.02.04q-.05.02-.1.01h-.08l-.04.01-.03.02-.03.02q-.01.02-.03.02-.07.03-.15.02h-.15l-.06-.02-.07-.03v-.02q0-.02.02-.03-.02-.05-.06-.05l-.09-.03h-.08q-.04 0-.04-.06-.02-.06-.05-.06h-.02q-.05.02-.09 0l-.08-.04-.03-.07-.02-.09q-.02-.03-.06-.05l-.07-.05-.08-.17-.07-.17-.02-.07.01-.07-.02-.03-.01-.03q-.04-.12-.06-.25-.01-.12.03-.25l-.02-.04q0-.02-.02-.03-.01-.03 0-.07l.02-.05v-.15q.02-.03.01-.06V62l.03-.15v-.14l.05-.27q0-.05.03-.09l.05-.07.04-.02.03-.02h.08l.1-.02.07.01h.08l.1.02h.09v.04l.02.02v.21l.03.04-.02.05q0 .04-.02.07l.02.2.01.22.02.14.02.13.01.09.03.09.02.08.03.1q.03.1.09.18l.06.05h.02l.03.01q.05 0 .07-.02t.06-.03q.07-.04.13-.05h.11l.1-.06q.03-.05.04-.11.01-.07.06-.11l.05-.1.06-.08.02-.16q0-.08.03-.15v-.43l.01-.1v-.1q.02-.1.1-.14l.04-.02.04-.02h.05l.06-.01.07.01.07.03h.07l.08-.02.04.01.04.02.02.02v.02l.02.07v.22zm2.56-.33q.01.1-.03.14l-.04.08-.02.1-.02.03-.02.04-.05.06-.04.06-.02.06-.02.06v.02h-.01l-.02.02h-.05q-.13-.05-.27 0h-.12l-.03.01-.13.09-.1.1-.06.16q-.03.07-.03.17v.02l-.01.03-.02.04-.02.04-.03.07-.03.08-.01.08-.01.08v.1l-.02.1q-.02.05-.02.12v.59l-.04.05q-.04.07-.1.1-.07.03-.14.02l-.1-.01-.1-.02-.07-.01-.07-.02H80l-.04.02q-.08-.03-.15-.1l.01-.09v-.13q0-.03-.02-.05l-.02-.08v-.08l-.04-.22.02-.03.02-.04v-.07q0-.02.02-.02l-.01-.03-.01-.04-.01-.04v-.17l.02-.05q.01-.03 0-.07 0-.03-.03-.06v-.01l-.02-.02-.01-.07q0-.04-.02-.07l-.01-.08-.01-.08v-.15l.02-.15v-.06l-.02-.14.02-.13.02-.06v-.16q0-.06.03-.12l-.02-.06.02-.06.02-.07.02-.06v-.05q.05-.04.08-.03.06.02.12 0 .07-.02.13 0l.04-.02.04-.01q.1-.04.17 0 .05.08.05.11l.02.19q.02.07.07.13l.03.02q.03 0 .05-.02l.04-.03.04-.04.07-.06.06-.07.13-.06.15-.06h.18l.02-.01q.07.03.13.01.1-.03.2.03l.1.05.1.06.05.05zm2.85.06-.06.1-.02.12-.1.09-.07.1-.05.09-.05.08h-.02l-.02-.03q0-.03-.03-.03l-.03.02-.02.03-.03.02-.02.02h-.03l-.05-.04-.07-.05-.07-.03q-.04 0-.07-.02h-.02l-.03-.04q-.01-.02-.04 0-.02.01-.02.03v.04h-.07l-.02.02-.03.01h-.05l-.05-.02q-.06 0-.11.04l-.1.05q-.04 0-.06.05l-.08.12q-.05.05-.08.12l-.02.03-.03.04-.01.04v.03q.01.04.03.05l-.03.04-.02.04v.07l.06.1.03.05.03.06.05.04.05.05q.03.02.04.05.03.01.05.04h.04l.06-.01.02.01h.03l.09.02.08-.01.1-.03.1-.02.09.01.08.03.1-.05q.04-.03.1-.03.05.02.08.07l.04.07.03.07.03.08.05.08.04.05.04.06q.02.1-.01.18l-.09.06-.09.08-.02.05-.03.04-.05.02q-.02 0-.05.03l-.04.01-.05.01-.09.06q-.04-.03-.1-.03-.04.03-.1.03l-.1.01-.11-.01-.1-.04-.08.04-.14-.04h-.05l-.06.01-.05-.02-.07-.02h-.08l-.06-.04-.05-.04-.06-.03q-.1-.05-.18-.14l-.1-.1-.1-.09-.07-.09q-.01-.08-.05-.15l-.1-.14v-.08l-.04-.06q.02-.05.01-.11v-.13q.01-.03-.03-.07l.01-.03.03-.03q.03-.02.03-.07l-.03-.03q0-.02-.02-.03l.03-.06.01-.06v-.11l.05-.06q0-.05-.04-.05-.03 0-.05-.03l.06-.18.08-.12v-.14q0-.06.05-.14l.03-.03.04-.03.02-.06.02-.06.07-.05.08-.06.03-.02.04-.02q.04 0 .06-.02l.05-.04h.03l.04.01q.05 0 .09-.04t.08-.07l.15-.03.15-.05.08.02q.04.02.09 0 .01-.02.03 0h.12l.14.01q.09.01.15-.04v-.01l.02-.02.03.02h.02q.16.15.36.16l.06.02.06.02.13.13q.06.05.04.13zm3.03.37-.01.13-.01.12v.14q0 .07-.03.15l-.04.04-.03.05v.09q0 .03-.03.05l-.05.04-.12.03-.1.03q-.1.02-.19.01h-.89q-.03.02-.06.01h-.1q-.03.02-.07 0l-.05.02h-.05l-.04-.01h-.04l.02.05.03.05.03.05.02.06q.02.02.02.05l.01.05.07.06.08.07.06.01.07.01q.04 0 .07.02h.09q.04-.02.08 0l.08.02.11-.01.12-.01.05-.04.06-.03q.08-.02.16 0l.04.07.06.06.07.12q.04.05.05.12l.04.06.04.05v.06l-.02.06-.06.04-.01.01-.02.02-.08.05-.07.05q-.08.08-.18.08h-.05l-.07.03-.07.03h-.06l-.06.03-.04-.01h-.16l-.12-.02-.04-.01h-.04q-.1 0-.2-.04l-.18-.09q-.08-.02-.11-.07-.04-.05-.1-.08-.05-.04-.11-.06l-.08-.03-.08-.05q0-.03-.02-.05l-.02-.05-.04-.04-.04-.04-.03-.04-.06-.2q-.03-.11-.08-.21v-.2l-.01-.03v-.12l-.01-.1v-.1l.03-.1.03-.1v-.04l-.01-.05.02-.14.03-.13.04-.07.05-.08q.05-.07.07-.14l.09-.04.03-.03.08-.08.03-.06q.04-.03.03-.06.05-.1.16-.17l.07-.05.06-.05.06-.02h.09q.03 0 .05-.02h.03l.03-.03.03-.01h.02q.06-.01.11-.04l.1-.05q.09.04.19.03h.12l.11.04.09-.03q.05 0 .1.03l.08.05h.06v.01l.02.01.13.12.13.1q.1.07.12.16l.05.05q.07.07.13.17v.08l.02.06q.02.03.02.07m-.8.2v-.19l-.02-.04-.01-.02v-.1l-.02-.03-.06-.01-.03-.09-.05-.03-.07-.02-.18.05-.18.05h-.16q-.06.03-.1.09l-.1.1-.04.07-.04.07-.01.04q.02.05.06.06l.07.02.08.02h.03l.04-.01q.08-.03.13 0h.08l.1-.02.07.03.08.01q.08.03.16.03l.15-.02q.03-.03.03-.06" aria-label="modular • isomorphic • open-source" paint-order="markers stroke fill"/>
 </g>
</svg>
