<svg xmlns="http://www.w3.org/2000/svg" width="305.5" height="217" viewBox="0 0 80.8 57.4">
  <g paint-order="markers stroke fill">
    <path fill="#a5adcb" d="m17.5.2-3.8 4-5.6-1.4-5.7 5.9L4 14.2l-4 4.2 2.3 7.9 5.6 1.4 1 3.2L4.7 35l2.3 8 5.6 1.3 1.6 5.6 8 2 4-4.2 3.2.8 1.6 5.5 8 2 4-4.1 5.6 1.3 4-4.1 3.2.8 1.6 5.5 8 2 4-4.2 5.6 1.4 5.7-5.9-2.3-7.9-5.6-1.4-.9-3.2 4-4.1-2.3-8-5.6-1.3-.9-3.2 4-4.2L69 7.5l-8-2-4 4.2-3.2-.8-1.6-5.5-8-2-4 4.1-5.6-1.3-4 4.1-3.2-.8L25.7 2l-8-2z"/>
    <g fill="#8087a2" stroke="#5b6078" stroke-linecap="square" stroke-width="2">
      <path d="M21.6 13.5 16 12l-1.6-5.6 4-4.1L24 3.7l1.6 5.6zM38.4 17.6l-5.6-1.4-1.6-5.5 4-4.2L40.8 8l1.6 5.5zM55.2 21.8l-5.6-1.4-1.6-5.6 4-4.1 5.6 1.4 1.6 5.5z"/>
      <path d="M28.8 20.4 23.2 19l-1.6-5.6 4-4.1 5.6 1.4 1.6 5.5zM48 14.8l-5.6-1.4L40.8 8l4-4.2 5.6 1.4 1.6 5.6zM64.8 19l-5.6-1.4-1.6-5.5 4-4.2 5.6 1.4 1.6 5.5zM12 16.2l-5.6-1.4-1.6-5.5 4-4.2 5.6 1.4 1.6 5.6z"/>
      <path d="m19.2 23.2-5.6-1.4-1.6-5.6 4-4.1 5.6 1.3 1.6 5.6zM36 27.3 30.4 26l-1.6-5.5 4-4.2 5.6 1.4 1.6 5.6zM45.6 24.5 40 23.2l-1.6-5.6 4-4.2 5.6 1.4 1.6 5.6zM62.4 28.7l-5.6-1.4-1.6-5.5 4-4.2 5.6 1.4 1.6 5.5z"/>
      <path d="M9.6 26 4 24.4 2.4 19l4-4.2 5.6 1.4 1.6 5.6z"/>
      <path d="m16.8 32.9-5.6-1.4-1.6-5.6 4-4.1 5.6 1.4 1.6 5.5z"/>
      <path d="m26.4 30-5.6-1.3-1.6-5.6 4-4.1 5.6 1.4 1.6 5.5zM33.6 37 28 35.6l-1.6-5.5 4-4.2 5.6 1.4 1.6 5.6z"/>
      <path d="M43.2 34.2 37.6 33 36 27.3l4-4.2 5.6 1.4 1.6 5.6zM52.8 31.5 47.2 30l-1.6-5.6 4-4.1 5.6 1.4 1.6 5.5zM60 38.4 54.4 37l-1.6-5.5 4-4.2 5.6 1.4 1.6 5.5z"/>
      <path d="M69.6 35.6 64 34.3l-1.6-5.6 4-4.2L72 26l1.7 5.6z"/>
    </g>
    <g fill="#8087a2" stroke="#5b6078" stroke-linecap="square">
      <path stroke-width="2.03" d="m14.4 42.6-5.6-1.4-1.6-5.6 4-4.1 5.6 1.4 1.6 5.5z"/>
      <path stroke-width="2.03" d="m24 39.8-5.6-1.4-1.6-5.5 4-4.2 5.6 1.4 1.6 5.5z"/>
      <g stroke-width="2">
        <path d="m40.8 44-5.6-1.4-1.6-5.6 4-4.1 5.6 1.3 1.6 5.6z"/>
        <path d="m50.4 41.2-5.6-1.4-1.6-5.6 4-4.1 5.6 1.4 1.6 5.5zM67.2 45.3 61.6 44 60 38.4l4-4.2 5.6 1.4 1.6 5.6z"/>
      </g>
      <path stroke-width="2.03" d="m74.4 52.3-5.6-1.4-1.6-5.6 4-4.1 5.6 1.4 1.6 5.5zM21.6 49.5 16 48.1l-1.6-5.5 4-4.2 5.6 1.4 1.6 5.5z"/>
      <g stroke-width="2">
        <path d="m38.4 53.7-5.6-1.4-1.6-5.6 4-4.1 5.6 1.4 1.6 5.5z"/>
        <path d="m31.2 46.7-5.6-1.4-1.6-5.5 4-4.2 5.6 1.4 1.6 5.6zM57.6 48.1 52 46.7l-1.6-5.5 4-4.2 5.6 1.4 1.6 5.6z"/>
        <path d="m48 50.9-5.6-1.4-1.6-5.5 4-4.2 5.6 1.4 1.6 5.5zM64.8 55l-5.6-1.3-1.6-5.6 4-4.1 5.6 1.3 1.6 5.6z"/>
      </g>
    </g>
  </g>
  <g fill-rule="evenodd" stroke-linecap="square" stroke-width=".6" paint-order="markers stroke fill">
    <path fill="#8aadf4" d="M39 9q-1.7.1-3.3 1a9 9 0 0 0-6.5.7c-2-.9-4.2-.5-6.2 0-2.2.2-4.6 1.3-5.7 3.5-1.3 2.4-1 5.3-1.3 8-.1 3-.4 6.3 1 9.1 1.4 2.5 4.3 4 7.2 3.7.3 0 1.1-.4 1 0-1.8 4.3.3 10 4.6 12 2.8 1.2 6.1.9 8.6-.8q1.5 0 3-.3c2.7 2.3 6.8 3.2 9.9 1.4 2.2-1.4 3.5-4 3.8-6.5q1.9-3.2.9-6.7c3-.8 5.8-2.7 7.4-5.3 2.5-4.2 1.7-10-1.7-13.4a11 11 0 0 0-11.3-3c-.5.3-1-.3-1.5-.4a10 10 0 0 0-4-.6A8 8 0 0 0 39 9"/>
    <path fill="#a6da95" d="M39 10.1q-1.6 0-3.1.9c-2.2-.6-4.8-.5-6.6 1q-2.7-1.5-5.7-.4c-2 .2-4.2 1-5.2 2.8-1.3 2.1-1 4.8-1.3 7.2-.1 2.8-.5 5.7.4 8.4a6 6 0 0 0 5.8 4q1.5 0 3-.5c0 .6.3 1.3 0 1.9-1.8 4 .2 9.3 4.4 10.8 2.5 1 5.3.5 7.5-1q1.8.1 3.5-.5c2.2 2.2 6 3.3 9 1.8 2-1.2 3.2-3.7 3.4-6 1.4-2.1 1.5-5 .5-7.2 2.8-.4 5.4-2 7.2-4 2.8-3.5 2.6-9-.2-12.4A10 10 0 0 0 50 13.7a9 9 0 0 0-5.4-1.3 7 7 0 0 0-5.5-2.3"/>
    <path fill="#eed49f" d="M39.1 11.1q-1.6 0-3 1c-2-.5-4.2-.7-5.9.4-.4.1-.7.8-1 .6a5 5 0 0 0-4.9-.6c-1.7.3-3.7.5-4.8 2-1.4 1.9-1 4.3-1.4 6.4q-.3 4 .1 8c.5 2 2.3 3.9 4.5 4q2.6.3 4.8-1.2-.4 1.6 0 3.2a7.5 7.5 0 0 0 2.5 9.8 7 7 0 0 0 7.9-.5q2.2.2 4-.8c1.9 2.3 5.2 3.5 8 2.4 2-1 3-3.5 3.2-5.8 1.6-2 1.4-5 .1-7.1q-.3-.7.5-.5c2.6-.1 5-1.5 6.9-3.2a9 9 0 0 0 2.1-7.4 10 10 0 0 0-7.5-7.7q-2.8-.3-5.3.7a8 8 0 0 0-5.8-1.3 6 6 0 0 0-5-2.4"/>
    <path fill="#f5a97f" d="M39.2 12.2q-1.5 0-3 1c-1.5-.3-3.1-.8-4.6-.2q-1.4.6-2.2 1.6a4 4 0 0 0-4.4-1.1c-1.6.3-3.5.2-4.5 1.6-1 1-1 2.5-1.2 3.9q-.4 4-.3 8.1c0 2 1 4 3 4.6a6 6 0 0 0 5.6-1.3l1.9.1c-1 1-1.5 2.6-1 4q.3.5 0 1c-1.8 3.1-.4 7.6 3 8.8 2 .7 4.4.2 6-1.2q2.2.4 4-.7c.3 0 .6-.8.8-.3 1.1 1.9 3.3 3 5.5 3q2.3 0 3.4-2.1 1-1.6.8-3.3c1.7-1.7 1.5-4.5.3-6.5q-.3-1.2-1-2.2 3.6 1 6.7-1.2c1.3-.7 2.6-1.8 3-3.3 1.2-2.3 1-5.2-.4-7.4a8 8 0 0 0-6-4 8 8 0 0 0-4.8 1c-1.6-1.5-4-2-6.1-1.4a5 5 0 0 0-4.5-2.5"/>
    <path fill="#ed8796" d="M38.6 13.2q-1.2.4-2.3 1.1-1.3-.3-2.7-.6a4 4 0 0 0-4 2.4c-.2.7-.4 0-.6-.3-.7-1-2-2-3.4-1.4l-2.9.5c-1.4.2-2.2 1.6-2.2 3q-.2 1.5-.3 3.2-.2 2-.1 3.7c0 1.7-.3 3.6.8 5 1 1.3 3 1.3 4.5.8q1.1-.5 1.8-1.4 1.2.3 2.4.3 1 0 1.7-.6.2.7.7 1.2-.9.4-1.7 1-1.4 1.3-.7 3c-.1.6.4 1.2 0 1.6-1.7 2.4-.8 6.2 1.9 7.5 1.5.8 3.5.4 4.9-.5l.8-.7a7 7 0 0 0 3.2 0q.9-.6 1.4-1.3.6-.2 1 0a6 6 0 0 0 3 3c1.2.4 2.7.8 3.7-.2a6 6 0 0 0 1.5-3c.2-.5-.3-1 .2-1.3 1.4-1.5 1.2-4 0-5.5a4 4 0 0 0-1-2.5q-.8-.7-1.8-1.2.4-.8 1-1.3a6 6 0 0 0 4.5 1.6q2.5-.3 4.6-2 1.2-.8 1.6-2.2.9-1.8.6-3.8a9 9 0 0 0-2.9-4.9 6 6 0 0 0-3.7-1.3q-2.5-.2-4.4 1.3a5.5 5.5 0 0 0-6.5-1.4c-.6-1.7-2.4-3-4.2-2.8zm-1.8 17a5 5 0 0 0 4 .7q-.5.5-.9.9c-.5-.2-1.1 0-1.5-.3a4 4 0 0 0-2-1.3q.3 0 .4 0"/>
    <path fill="#6e738d" d="M38.5 13.8q-1.2.3-2 1.1c-.8-.5-1.8-.3-2.6-.6-1.5-.3-3 .5-3.7 1.8q-.3.8-1 1.4c-.4-1.2-1.3-2.7-2.7-2.8l-2.6.6c-.8 0-1.8 0-2.4.9-.7.8-.4 2-.7 3q0 1.4-.2 2.8v2.4q-.2 2.1.2 4.2.6 1.6 2.2 1.8 2.4.2 4-1.6c0-.3.6.2.9 0 1 .1 2.2.4 3-.4.4-.1.7-1 .7-.2.2 1 1 2 2.1 2q1.5 0 3-.6 1.6 1.1 3.4 1 1.2-.2 1.9-1l.9.5q-1.4.6-2.3 1.6c-.2.3-.2.8-.7.6q-.8-.3-1.8-.2c-.6-1.2-2-1.6-3.2-1.5-.7-.3-1.4 0-2 0-.7-.3-1.3.2-1.7.6-1 .4-1.7 1.7-1.1 2.7q0 .8.2 1.5a5 5 0 0 0-.8 4.8 4 4 0 0 0 3 2.8q1.6.4 3.2-.5.8-.3 1.3-1.1c1 .5 2 .2 3 .1a2 2 0 0 0 1.4-1.4q.8.2 1.7 0c.2 1.4 1.4 2.4 2.6 3.1a8 8 0 0 0 2.5.4c1.2-.2 1.8-1.4 2.1-2.5q.4-1 0-2c1.5-.8 1.6-2.8 1.1-4.2-.2-.6-.8-1-.7-1.6-.3-1.7-1.8-2.7-3.3-3.1-.7-.2.7 0 .6-.7q.7-.8 1.3-1.6c1 1 2.4 2 3.9 2q2.5-.1 4.4-1.7 1.5-.7 2-2.1c.7-1 .6-2.3.7-3.5a8 8 0 0 0-2.7-4.7q-1.4-1.2-3.3-1.3-2.4-.3-4.3 1.2c-.3.5-.5 0-.8-.3a5 5 0 0 0-3.9-1.5q-1.3 0-2.4.7c-.4-1.7-2-3.1-3.7-3zM46 30.5c-.2.3-.3.7-.6.2-.7-.4-.3-.3.2-.3.1 0 .6-.2.4 0"/>
    <path fill="#cad3f5" d="M36.3 25.8v1.6l-.1.2-.2.2h-.6l-.2.2h-.3l-.6.2h-.6l-.1-.3v-.2l-.1-.6v-.5l-.1-.3v-.9l-.1-.5v-.5l-.1-.2-.1-.3v-.7l-.1-.6v-.8h-.3l-.2-.2h-.1l-.1.1-.3.3-.2.4-.1.3-.1.2-.3.4-.2.4v.2l-.1.4-.2.4-.1.4-.2.4-.2.4-.3.4-.2.5-.1.2H29l-.5-.1H28q-.2 0-.2-.2l-.3-.8q-.2-.3-.2-.7L27 25l-.1-.2-.1-.6-.1-.5-.2-.2-.1-.2V23l-.1-.3-.3-.5-.2.1v.2l-.1.2-.1.1-.1 1.2-.2 1.2V27l-.1.4-.1.4-.2.2h-.3l-.3.2-.3.2H23l-.1-.2V28q0-.4-.2-.7l-.1-.5V26l.1-.5v-2.4l.1-.1v-.5l-.1-.3V22l.1-.4v-.5q.1 0 0-.1v-1.1l.2-.3-.1-.4v-.1l.1-.2v-.1l.1-.3v-.9l.1-.2.3-.1h.7l.2-.1h.6l.1-.1.2-.1h.4l.3-.1h.4l.2-.1h.1l.6 1q.3.4.4 1l.1.4.3.4q0 .2.3.4v.7l.1.1.2.2.1.3.2.3h.2l.1-.4.2-.4.1-.2q.1-.2.3-.2t.2-.3l.2-.5.4-.4.2-.4.3-.5.1-.1.2-.2q.3-.2.4-.5v-.2l.4-.5.3-.4.5-.1h.6l.4.1q.3 0 .5.2h.3q.2-.1.4 0 .2 0 .3.2l.2.4v.6l.2.2v2.4l.1.2V22l-.1.3v1.2l.1.5v.6l.1.8.1.2zm4.7-8.2v.6l-.1.2-.1.2-.2.2-.2.2-.2.2-.4.2h-1.1l-.1-.1h-.1l-.2-.1H38l-.2-.1-.2-.1-.1-.4v-2.1l.1-.1.3-.1q.1-.2.3-.2l.3-.2.3-.2h.8q.3 0 .4.3l.2.1h.1l.3.5v.3l.1.2.1.3zm-.2 4.5v1.1l-.1.2v1.4l-.1.3V27l-.3.7v.3l.1.3v.1l-.2.2h-1.3l-.2-.1h-.3L38 28l-.1-.1h-.2V27q.1-.2 0-.4V22l.1-.2v-.3l.3-.1h.6l.3-.1h.2l.1.1h.5l.2.2.2.1h.2l.2-.1h.2zm7.6-2q0 .3-.2.5l-.2.1v.1l-.2.2v.1q-.2.2-.4 0h-.2L47 21l-.2-.1-.1-.2-.6-.2h-.6l-.3.4-.1.4v.3l.1.2.3.3h.3l.1.1.1.1q.2 0 .3.2l.3.2.3.1.2.2h.2l.2.2.1.3.2.2.1.5v.5l.1.3v1.1l-.2.3q0 .3-.2.5l-.1.2-.2.2-.1.1-.1.1-.3.3-.3.3h-.2l-.3.1h-.3l-.2.2H44l-.3-.2h-.3l-.4-.4-.4-.4v-.8l.2-.6.3-.5h.2l.2.1.2.2h.3l.3.2h.3q.2.1.4 0l.2-.2.2-.2V25l-.1-.2-.3-.2-.1-.2-.2-.2-.4-.1-.2-.1-.2-.2h-.1l-.2-.1h-.2q0-.2-.3-.3l-.1-.2q0-.2-.2-.3l-.1-.2-.2-.2-.1-.5-.1-.4v-1l.2-.4.3-.6.5-.6.6-.5h.2l.2-.1.3-.2h.7q.3-.2.6-.1l.5.1h.2l.3.3q.2 0 .3.2l.3.1.2.1.3.4.3.4v.2zm9.9 2.6v.6q-.1.1 0 .2v.1l-.2.4v.3l-.1.3v.3h-.1l-.2.2v.3l-.2.3v.2h-.2l-.2.3H57l-.2.2h-.1q-.4 0-.4.3l-.4.3-.4.3-.9.3-.3.1-.4.1h-1.5l-.3-.3-.3-.1q-.2 0-.3-.2l-.1-.2-.1-.1h-.1l-.2-.2-.5-.4q-.3-.3-.4-.7l-.2-.4-.1-.2-.1-.1v-2l.1-.2v-.3l.2-.2V22l.1-.3v-.1l.2-.3V21l.1-.2.1-.1.1-.2.1-.2.2-.2.2-.2v-.1q.1-.1 0-.2v-.2h.1l.1-.1.1-.1.4-.2.3-.2.4-.1.4-.1H55l.1.2h.2v.1l.2.1q.3 0 .5.2l.5.3v.4h.4v.2l.2.2.2.2v.2h.2v.2h.1l.1.2.1.3.1.3.1.1.1.2v.3zm-2.8.7V23l-.1-.2v-.2l-.2-.4-.3-.4h-.1q-.4 0-.7-.3h-.8q-.3 0-.4.3l-.1.2-.1.2v.2l-.2.1-.1.2-.1.2-.1.4-.1.4v.2l.2.2v.5l.1.1.4.2h.3l.3.1h1q0-.2.2-.3l.3-.2.4-.5q.2-.2.2-.5" aria-label="Miso"/>
    <path fill="#a5adcb" d="M41 36.7v.3l-.1.2v.6h-.2q0 .1-.2 0h-.1q0 .1-.1 0h-.8v1.8h-1.7v-.1l-.1-.1V38l-.2-.2h-.3l-.3.1h-.2l-.2.1q-.2 0-.3.2l-.1.2v.6l-.2.4-.1.1-.2.2-.2.4-.1.2-.2.1-.2.2h-.1l-.2.2h-.2l-.2.1h-.6l-.3.1h-.5l-.2-.1-.2-.2q-.2 0-.2-.2H32l-.1-.1-.1-.2-.2-.2v-.2l-.2-.1v-.6l-.2-.3v-1l.1-.2.1-.2q.2-.7.7-1l.3-.1.3-.1q.2-.2.5-.2h.4l.4-.1.3-.1h.1V35l-.1-.1h-.5l-.4-.2H33l-.4-.1h-.4v-.4L32 34V33H32l.1-.1h.2q.3.1.4-.2h.5l.3-.3h1l.3.1h1l.4.2.1.2.1.1v.2l.1.2v.1l-.1.2v.2l.1.2v1.1l-.2.3v.1h.5l.2.1h.4l.2-.1v-.1h.2v-1.4h.6q0-.1 0 0h1.3v.1h.2v.3l-.1.1v.9l.2.2h.7q.3.1.3.4v.5m-6.6 1.7-.1-.5-.2-.2H34l-.2.1h-.2q-.3 0-.5.3v.2l-.1.1v.3l.2.3h.1l.2.1h.5l.2-.2.2-.2zM45 33.7l-.2.2-.1.2-.3.2-.2.2-.2.2h-.3l-.1-.1-.1-.1-.1-.1-.3-.3-.2-.2-.3-.3-.4-.2V33h.3l.2-.2.1-.1.1-.2.3-.3h.2l.3-.2h.3v.2l.2.2h.1l.1.2h.1q0 .2.2.3l.2.3v.5m4.7 3.3v.3l-.2.1h-1.2l-.1.1h-.3l-.3.2-.2.3v.7l.1.3v.2q.2 0 .3.2.2 0 .3.2l.2.1.2.1.2.3v.1l-.1.1-.2.4v.4l-.2.2v.2H48l-.2.2-.2-.1H47l-.2-.2h-.5l-.1-.1-.1-.1H46V41L46 41l-.3-.3-.5-.5V40L45 40v-.7l.1-.2.2-.2v-.9q-.1-.1-.2 0h-.5l-.3.1h-.1l-.1-.2h-.5l-.1.1H43l-.3.1h-.2v.1h-.6V38l-.2-.3v-.3l.1-.2v-.6l.1-.3h.1q.1 0 0 0 .2 0 .2-.2l.2-.1h.7l.3-.2h.5l.2-.1.1-.2h.4l.1-.1.2-.1h.2l.2-.1h.2q.2 0 .3-.2h.2v-.2l.1-.3V34l.1-.1v-.2l.1-.3.2-.3.2-.3.1-.2.2-.2.2-.3.2.1h.1l.2.1.1.2h.2l.3.3.1.2.2.2.1.2v.2l-.1.3-.2.3v.3l-.2.3.1.2h.4l.3-.1.2.2.2.3h.1v.3l.2.7z" aria-label="みそ"/>
  </g>
</svg>

