<svg xmlns="http://www.w3.org/2000/svg" width="521.31" height="598.94" viewBox="0 0 137.93 158.47">
  <g stroke="#000" stroke-linecap="square" stroke-width=".27" paint-order="markers stroke fill">
    <path fill="#ffff4c" d="M75.1 116.22h-9.99l-5-8.66 5-8.65h10l5 8.65z" transform="rotate(13.9 153.57 61.84)scale(.578)"/>
    <path fill="#ffff4c" d="M75.1 116.22h-9.99l-5-8.66 5-8.65h10l5 8.65z" transform="rotate(13.9 169.75 99.86)scale(.578)"/>
    <path fill="#4cff4c" d="M75.1 116.22h-9.99l-5-8.66 5-8.65h10l5 8.65z" transform="rotate(13.9 194.59 66.84)scale(.578)"/>
    <path fill="#33bcff" d="M75.1 116.22h-9.99l-5-8.66 5-8.65h10l5 8.65z" transform="rotate(13.9 235.6 71.84)scale(.578)"/>
    <path fill="#ffc066" d="M75.1 116.22h-9.99l-5-8.66 5-8.65h10l5 8.65z" transform="rotate(13.9 112.55 56.84)scale(.578)"/>
    <path fill="#ffc066" d="M75.1 116.22h-9.99l-5-8.66 5-8.65h10l5 8.65z" transform="rotate(13.9 128.73 94.87)scale(.578)"/>
    <path fill="#f99" d="M75.1 116.22h-9.99l-5-8.66 5-8.65h10l5 8.65z" transform="rotate(13.9 102.75 308)scale(.578)"/>
    <path fill="#f99" d="M75.1 116.22h-9.99l-5-8.66 5-8.65h10l5 8.65z" transform="rotate(13.9 87.71 89.87)scale(.578)"/>
    <g fill="#ffff4c">
      <path d="M75.1 116.22h-9.99l-5-8.66 5-8.65h10l5 8.65z" transform="rotate(13.9 144.91 132.9)scale(.578)"/>
      <path d="M75.1 116.22h-9.99l-5-8.66 5-8.65h10l5 8.65z" transform="rotate(13.9 161.1 170.93)scale(.578)"/>
      <path d="M75.1 116.22h-9.99l-5-8.66 5-8.65h10l5 8.65z" transform="rotate(13.9 177.27 208.92)scale(.578)"/>
      <path d="M75.1 116.22h-9.99l-5-8.66 5-8.65h10l5 8.65z" transform="rotate(13.9 152.43 241.96)scale(.578)"/>
      <path d="M75.1 116.22h-9.99l-5-8.66 5-8.65h10l5 8.65z" transform="rotate(13.9 168.61 280)scale(.578)"/>
    </g>
    <g fill="#4cff4c">
      <path d="M75.1 116.22h-9.99l-5-8.66 5-8.65h10l5 8.65z" transform="rotate(13.9 185.93 137.89)scale(.578)"/>
      <path d="M75.1 116.22h-9.99l-5-8.66 5-8.65h10l5 8.65z" transform="rotate(13.9 202.11 175.92)scale(.578)"/>
      <path d="M75.1 116.22h-9.99l-5-8.66 5-8.65h10l5 8.65z" transform="rotate(13.9 193.45 246.95)scale(.578)"/>
      <path d="M75.1 116.22h-9.99l-5-8.66 5-8.65h10l5 8.65z" transform="rotate(13.9 178.41 28.82)scale(.578)"/>
    </g>
    <g fill="#33bcff">
      <path d="M75.1 116.22h-9.99l-5-8.66 5-8.65h10l5 8.65z" transform="rotate(13.9 226.95 142.88)scale(.578)"/>
      <path d="M75.1 116.22h-9.99l-5-8.66 5-8.65h10l5 8.65z" transform="rotate(13.9 218.29 213.95)scale(.578)"/>
      <path d="M75.1 116.22h-9.99l-5-8.66 5-8.65h10l5 8.65z" transform="rotate(13.9 210.77 104.87)scale(.578)"/>
      <path d="M75.1 116.22h-9.99l-5-8.66 5-8.65h10l5 8.65z" transform="rotate(13.9 243.13 180.91)scale(.578)"/>
      <path d="M75.1 116.22h-9.99l-5-8.66 5-8.65h10l5 8.65z" transform="rotate(13.9 234.46 251.94)scale(.578)"/>
      <path d="M75.1 116.22h-9.99l-5-8.66 5-8.65h10l5 8.65z" transform="rotate(13.9 219.43 33.82)scale(.578)"/>
    </g>
    <g fill="#ffc066">
      <path d="M75.1 116.22h-9.99l-5-8.66 5-8.65h10l5 8.65z" transform="rotate(13.9 120.07 165.9)scale(.578)"/>
      <path d="M75.1 116.22h-9.99l-5-8.66 5-8.65h10l5 8.65z" transform="rotate(13.9 136.25 203.93)scale(.578)"/>
      <path d="M75.1 116.22h-9.99l-5-8.66 5-8.65h10l5 8.65z" transform="rotate(13.9 127.59 274.96)scale(.578)"/>
    </g>
    <g fill="#f99">
      <path d="M75.1 116.22h-9.99l-5-8.66 5-8.65h10l5 8.65z" transform="rotate(13.9 79.05 160.9)scale(.578)"/>
      <path d="M75.1 116.22h-9.99l-5-8.66 5-8.65h10l5 8.65z" transform="rotate(13.9 103.9 127.89)scale(.578)"/>
      <path d="M75.1 116.22h-9.99l-5-8.66 5-8.65h10l5 8.65z" transform="rotate(13.9 111.41 236.97)scale(.578)"/>
      <path d="M75.1 116.22h-9.99l-5-8.66 5-8.65h10l5 8.65z" transform="rotate(13.9 95.23 198.94)scale(.578)"/>
      <path d="M75.1 116.22h-9.99l-5-8.66 5-8.65h10l5 8.65z" transform="rotate(13.9 86.57 269.97)scale(.578)"/>
    </g>
  </g>
  <g fill="#fff" stroke="#333" stroke-linecap="square" stroke-width=".5" paint-order="markers stroke fill">
    <path d="m18.66 98.11-2.1 2.18-2.93-.73-2.1 2.18.85 2.9-2.1 2.18.84 2.9 2.93.73.84 2.9-2.1 2.18.84 2.9 2.93.73.84 2.9 2.94.73 2.1-2.18 2.92.73.84 2.9 2.94.73 2.1-2.18 2.93.73 2.1-2.18 2.92.72.84 2.9 2.93.73 2.1-2.17 2.93.72 2.1-2.17-.84-2.9-2.93-.73-.84-2.9 2.1-2.18-.84-2.9-2.94-.73-.83-2.9 2.1-2.19-.85-2.9-2.93-.72-2.1 2.17-2.93-.72-.84-2.9-2.93-.73-2.1 2.18-2.93-.73-2.1 2.18-2.93-.73-.84-2.9zm15.09 14.52 2.93.72h0z"/>
    <path d="m51.35 98.11-2.1 2.18-2.93-.73-2.1 2.18.84 2.9-2.1 2.18.84 2.9 2.94.73.84 2.9-2.1 2.18.84 2.9 2.93.73.84 2.9 2.93.73 2.1-2.18 2.93.73.84 2.9 2.93.73 2.1-2.18 2.93.73 2.1-2.18 2.93.72.84 2.9 2.93.73 2.1-2.17 2.93.72 2.1-2.17-.84-2.9-2.94-.73-.83-2.9 2.1-2.18-.84-2.9-2.94-.73-.84-2.9 2.1-2.19-.84-2.9-2.93-.72-2.1 2.17-2.93-.72-.84-2.9-2.93-.73-2.1 2.18-2.93-.73-2.1 2.18-2.93-.73-.84-2.9zm15.08 14.52 2.94.72h0zm-44 7.98-2.1 2.18-2.93-.73-2.1 2.18.85 2.9-2.1 2.18.84 2.9 2.93.73.84 2.9-2.1 2.18.84 2.9 2.94.73.83 2.9 2.94.73 2.1-2.18 2.93.73.83 2.9 2.94.73 2.1-2.18 2.93.73 2.1-2.18 2.92.72.84 2.9 2.94.73 2.1-2.17 2.92.72 2.1-2.18-.84-2.9-2.93-.72-.84-2.9 2.1-2.19-.84-2.9-2.94-.72-.83-2.9 2.1-2.19-.85-2.9-2.93-.72-2.1 2.17-2.93-.72-.84-2.9-2.93-.73-2.1 2.18-2.93-.73-2.1 2.18-2.93-.73-.84-2.9zm15.09 14.52 2.93.72h0z"/>
    <path d="m55.12 120.61-2.1 2.18-2.93-.73-2.1 2.18.84 2.9-2.1 2.18.84 2.9 2.94.73.84 2.9-2.1 2.18.84 2.9 2.93.73.84 2.9 2.93.73 2.1-2.18 2.93.73.84 2.9 2.93.73 2.1-2.18 2.93.73 2.1-2.18 2.93.72.84 2.9 2.93.73 2.1-2.17 2.93.72 2.1-2.18-.84-2.9-2.93-.72-.84-2.9 2.1-2.19-.84-2.9-2.94-.72-.84-2.9 2.1-2.19-.84-2.9-2.93-.72-2.1 2.17-2.93-.72-.84-2.9-2.93-.73-2.1 2.18-2.93-.73-2.1 2.18-2.93-.73-.84-2.9zm15.08 14.52 2.94.72h0zM84.04 98.1l-2.1 2.18-2.93-.73-2.1 2.18.84 2.9-2.1 2.18.84 2.9 2.94.73.84 2.9-2.1 2.18.84 2.9 2.93.73.84 2.9 2.93.73 2.1-2.18 2.93.73.84 2.9 2.93.73 2.1-2.18 2.93.73 2.1-2.18 2.93.72.84 2.9 2.93.73 2.1-2.17 2.93.72 2.1-2.17-.84-2.9-2.94-.73-.83-2.9 2.1-2.19-.85-2.9-2.93-.72-.84-2.9 2.1-2.19-.84-2.9-2.93-.72-2.1 2.17-2.93-.72-.84-2.9-2.93-.73-2.1 2.18-2.93-.73-2.1 2.18-2.93-.73-.84-2.9zm15.08 14.52 2.94.72h0z"/>
    <path d="m87.8 120.61-2.09 2.18-2.93-.73-2.1 2.18.84 2.9-2.1 2.18.84 2.9 2.94.73.84 2.9-2.1 2.18.84 2.9 2.93.73.84 2.9 2.93.73 2.1-2.18 2.93.73.84 2.9 2.93.73 2.1-2.18 2.93.73 2.1-2.18 2.93.72.84 2.9 2.93.73 2.1-2.17 2.93.72 2.1-2.18-.84-2.9-2.94-.72-.83-2.9 2.1-2.19-.85-2.9-2.93-.72-.84-2.9 2.1-2.19-.84-2.9-2.93-.72-2.1 2.17-2.93-.72-.84-2.9-2.93-.73-2.1 2.18-2.93-.73-2.1 2.18-2.93-.73-.84-2.9zm15.1 14.52 2.93.72h0z"/>
  </g>
  <text xml:space="preserve"
        x="184.78" y="188.41"
        fill="currentColor"
        stroke-linecap="square"
        stroke-width=".09"
        font-family="'IBM Plex Sans'"
        font-size="11.45"
        font-weight="600"
        letter-spacing="-.14"
        paint-order="markers stroke fill"
        style="-inkscape-stroke:hairline;line-height:1.2"
        transform="translate(-66.04 -64.44)">
    <tspan x="184.78" y="188.41">...</tspan>
  </text>

  <path fill="currentColor"
        d="M73.75 81.9H71V70.2h-4.08v11.7h-2.74l4.78 8.28z"
        paint-order="markers stroke fill"/>
</svg>
