<svg xmlns="http://www.w3.org/2000/svg" width="331.96" height="331.96" viewBox="0 0 87.801 87.809">
  <g fill-rule="evenodd" stroke-linecap="square">
    <path fill="#cad3f5" stroke-width="1.142" d="m20.067 16.089-3.784 3.92q-2.793-.693-5.585-1.389l-5.245 5.44 2.084 7.264 5.587 1.39 1.094 3.803-4 4.141q.798 2.767 1.593 5.534-1.998 2.072-4 4.142 1.046 3.63 2.088 7.263l5.589 1.393 1.588 5.532c2.444.61 4.89 1.215 7.334 1.825l3.995-4.144 3.842.956 1.59 5.532c2.444.61 4.888 1.216 7.332 1.827l3.995-4.146 5.587 1.391 3.999-4.145 3.84.955 1.59 5.532c2.444.61 4.888 1.216 7.332 1.827l3.997-4.144 5.585 1.391q2.624-2.72 5.25-5.438-1.046-3.632-2.09-7.265l-5.584-1.39-1.095-3.8 4-4.15c-.535-1.842-1.063-3.685-1.595-5.527l4.003-4.149q-1.048-3.63-2.09-7.26l-5.587-1.388-1.59-5.534-7.33-1.827-3.999 4.145-3.84-.953-1.59-5.532-7.332-1.829-3.997 4.144q-2.793-.694-5.585-1.39l-3.997 4.144-3.844-.953-1.589-5.535c-2.444-.609-4.89-1.214-7.333-1.824z" paint-order="fill markers stroke"/>
    <g stroke="#5b6078" stroke-width=".875">
      <g fill="#8aadf4">
        <path stroke-width=".999" d="m14.374 31.418-5.587-1.39-1.59-5.533 3.997-4.143 5.587 1.39 1.59 5.532z" paint-order="fill markers stroke"/>
        <path stroke-width=".999" d="m23.957 28.664-5.587-1.39-1.59-5.533 3.997-4.143 5.587 1.39 1.59 5.533z" paint-order="fill markers stroke"/>
        <path stroke-width=".999" d="m31.133 35.587-5.586-1.39-1.59-5.532 3.997-4.144 5.586 1.39 1.59 5.533zm9.584-2.753-5.586-1.39-1.59-5.533 3.997-4.143 5.586 1.39 1.59 5.532zM50.3 30.08l-5.586-1.39-1.59-5.533 3.997-4.143 5.587 1.39 1.59 5.532z" paint-order="fill markers stroke"/>
        <path stroke-width=".999" d="m57.477 37.002-5.586-1.39-1.59-5.532 3.997-4.144 5.586 1.39 1.59 5.533zm9.584-2.754-5.586-1.39-1.59-5.532 3.997-4.143 5.586 1.39 1.59 5.532z" paint-order="fill markers stroke"/>
      </g>
      <g fill="#eed49f">
        <path stroke-width=".999" d="m19.143 48.017-5.586-1.39-1.59-5.532 3.997-4.144 5.586 1.39 1.59 5.533z" paint-order="fill markers stroke"/>
        <path stroke-width=".999" d="m28.726 45.264-5.586-1.39-1.59-5.533 3.997-4.143 5.586 1.39 1.59 5.532z" paint-order="fill markers stroke"/>
        <path stroke-width=".999" d="m35.903 52.186-5.587-1.39-1.59-5.533 3.997-4.143 5.587 1.39 1.59 5.533zm9.584-2.754-5.586-1.39-1.59-5.532 3.997-4.144 5.586 1.39 1.59 5.533zm9.583-2.754-5.586-1.39-1.59-5.532 3.997-4.143 5.586 1.39 1.59 5.532zm7.178 6.924-5.587-1.39-1.59-5.533 3.997-4.143 5.587 1.39 1.59 5.533z" paint-order="fill markers stroke"/>
        <path stroke-width=".999" d="m71.827 50.848-5.587-1.39-1.59-5.533 3.997-4.143 5.587 1.39 1.59 5.533z" paint-order="fill markers stroke"/>
      </g>
      <g fill="#ed8796">
        <path stroke-width=".999" d="m23.913 64.617-5.587-1.39-1.59-5.533 3.997-4.143 5.587 1.39 1.59 5.533z" paint-order="fill markers stroke"/>
        <path stroke-width=".999" d="m33.496 61.863-5.587-1.39-1.59-5.532 3.997-4.144 5.587 1.39 1.59 5.533zm7.177 6.923-5.586-1.39-1.59-5.533 3.997-4.143 5.586 1.39 1.59 5.532zm9.584-2.754-5.587-1.39-1.59-5.533 3.997-4.143 5.587 1.39 1.59 5.533z" paint-order="fill markers stroke"/>
        <path stroke-width=".999" d="m59.84 63.278-5.587-1.39-1.59-5.533 3.997-4.143 5.587 1.39 1.59 5.533zm7.177 6.922-5.586-1.39-1.59-5.532 3.997-4.143 5.586 1.39 1.59 5.532z" paint-order="fill markers stroke"/>
        <path stroke-width=".999" d="m76.597 67.447-5.587-1.39-1.59-5.533 3.997-4.143 5.587 1.39 1.59 5.532z" paint-order="fill markers stroke"/>
      </g>
      <g fill="#a6da95">
        <path stroke-width=".999" d="m21.55 38.341-5.587-1.39-1.59-5.533 3.997-4.143 5.587 1.39 1.59 5.533zm16.76 4.169-5.586-1.39-1.59-5.533 3.997-4.143 5.587 1.39 1.59 5.532z" paint-order="fill markers stroke"/>
        <path stroke-width=".999" d="m47.894 39.756-5.587-1.39-1.59-5.533 3.997-4.143 5.587 1.39 1.59 5.533zm16.761 4.169-5.587-1.39-1.59-5.533 3.997-4.143 5.587 1.39 1.59 5.532z" paint-order="fill markers stroke"/>
        <path stroke-width=".999" d="m74.237 41.17-5.587-1.389-1.59-5.533 3.997-4.143 5.587 1.39 1.59 5.533z" paint-order="fill markers stroke"/>
      </g>
      <path fill="#f5a97f" stroke-width=".999" d="m66.243 49.457 5.587 1.39 1.59 5.533-3.997 4.143-5.587-1.39-1.59-5.532zm-16.76-4.168 5.586 1.39 1.59 5.532-3.997 4.144-5.586-1.39-1.59-5.533zM39.9 48.042l5.586 1.39 1.59 5.533-3.997 4.143-5.587-1.39-1.59-5.532zm-16.761-4.169 5.586 1.39 1.59 5.532-3.997 4.144-5.586-1.39-1.59-5.533zm-9.584 2.754 5.587 1.39 1.59 5.532-3.997 4.143-5.586-1.39-1.59-5.532z" paint-order="fill markers stroke"/>
    </g>
  </g>
  <g fill-rule="evenodd" stroke-linecap="square" stroke-width=".6">
    <path fill="#a5adcb" d="M42.604 26.35q-1.6 0-3 1c-2-.5-4.2-.7-5.9.4-.4.1-.7.8-1 .6a5 5 0 0 0-4.9-.6c-1.7.3-3.7.5-4.8 2-1.4 1.9-1 4.3-1.4 6.4q-.3 4 .1 8c.5 2 2.3 3.9 4.5 4q2.6.3 4.8-1.2-.4 1.6 0 3.2a7.5 7.5 0 0 0 2.5 9.8 7 7 0 0 0 7.9-.5q2.2.2 4-.8c1.9 2.3 5.2 3.5 8 2.4 2-1 3-3.5 3.2-5.8 1.6-2 1.4-5 .1-7.1q-.3-.7.5-.5c2.6-.1 5-1.5 6.9-3.2a9 9 0 0 0 2.1-7.4 10 10 0 0 0-7.5-7.7q-2.8-.3-5.3.7a8 8 0 0 0-5.8-1.3 6 6 0 0 0-5-2.4" paint-order="markers stroke fill"/>
    <path fill="#cad3f5" d="M42.704 27.45q-1.5 0-3 1c-1.5-.3-3.1-.8-4.6-.2q-1.4.6-2.2 1.6a4 4 0 0 0-4.4-1.1c-1.6.3-3.5.2-4.5 1.6-1 1-1 2.5-1.2 3.9q-.4 4-.3 8.1c0 2 1 4 3 4.6a6 6 0 0 0 5.6-1.3l1.9.1c-1 1-1.5 2.6-1 4q.3.5 0 1c-1.8 3.1-.4 7.6 3 8.8 2 .7 4.4.2 6-1.2q2.2.4 4-.7c.3 0 .6-.8.8-.3 1.1 1.9 3.3 3 5.5 3q2.3 0 3.4-2.1 1-1.6.8-3.3c1.7-1.7 1.5-4.5.3-6.5q-.3-1.2-1-2.2 3.6 1 6.7-1.2c1.3-.7 2.6-1.8 3-3.3 1.2-2.3 1-5.2-.4-7.4a8 8 0 0 0-6-4 8 8 0 0 0-4.8 1c-1.6-1.5-4-2-6.1-1.4a5 5 0 0 0-4.5-2.5" paint-order="markers stroke fill"/>
    <path fill="#cad3f5" d="M42.104 28.45q-1.2.4-2.3 1.1-1.3-.3-2.7-.6a4 4 0 0 0-4 2.4c-.2.7-.4 0-.6-.3-.7-1-2-2-3.4-1.4l-2.9.5c-1.4.2-2.2 1.6-2.2 3q-.2 1.5-.3 3.2-.2 2-.1 3.7c0 1.7-.3 3.6.8 5 1 1.3 3 1.3 4.5.8q1.1-.5 1.8-1.4 1.2.3 2.4.3 1 0 1.7-.6.2.7.7 1.2-.9.4-1.7 1-1.4 1.3-.7 3c-.1.6.4 1.2 0 1.6-1.7 2.4-.8 6.2 1.9 7.5 1.5.8 3.5.4 4.9-.5l.8-.7a7 7 0 0 0 3.2 0q.9-.6 1.4-1.3.6-.2 1 0a6 6 0 0 0 3 3c1.2.4 2.7.8 3.7-.2a6 6 0 0 0 1.5-3c.2-.5-.3-1 .2-1.3 1.4-1.5 1.2-4 0-5.5a4 4 0 0 0-1-2.5q-.8-.7-1.8-1.2.4-.8 1-1.3a6 6 0 0 0 4.5 1.6q2.5-.3 4.6-2 1.2-.8 1.6-2.2.9-1.8.6-3.8a9 9 0 0 0-2.9-4.9 6 6 0 0 0-3.7-1.3q-2.5-.2-4.4 1.3a5.5 5.5 0 0 0-6.5-1.4c-.6-1.7-2.4-3-4.2-2.8zm-1.8 17a5 5 0 0 0 4 .7l-.9.9c-.5-.2-1.1 0-1.5-.3a4 4 0 0 0-2-1.3z" paint-order="markers stroke fill"/>
    <path fill="#6e738d" d="M42.004 29.05q-1.2.3-2 1.1c-.8-.5-1.8-.3-2.6-.6-1.5-.3-3 .5-3.7 1.8q-.3.8-1 1.4c-.4-1.2-1.3-2.7-2.7-2.8l-2.6.6c-.8 0-1.8 0-2.4.9-.7.8-.4 2-.7 3q0 1.4-.2 2.8v2.4q-.2 2.1.2 4.2.6 1.6 2.2 1.8 2.4.2 4-1.6c0-.3.6.2.9 0 1 .1 2.2.4 3-.4.4-.1.7-1 .7-.2.2 1 1 2 2.1 2q1.5 0 3-.6 1.6 1.1 3.4 1 1.2-.2 1.9-1l.9.5q-1.4.6-2.3 1.6c-.2.3-.2.8-.7.6q-.8-.3-1.8-.2c-.6-1.2-2-1.6-3.2-1.5-.7-.3-1.4 0-2 0-.7-.3-1.3.2-1.7.6-1 .4-1.7 1.7-1.1 2.7q0 .8.2 1.5a5 5 0 0 0-.8 4.8 4 4 0 0 0 3 2.8q1.6.4 3.2-.5.8-.3 1.3-1.1c1 .5 2 .2 3 .1a2 2 0 0 0 1.4-1.4q.8.2 1.7 0c.2 1.4 1.4 2.4 2.6 3.1a8 8 0 0 0 2.5.4c1.2-.2 1.8-1.4 2.1-2.5q.4-1 0-2c1.5-.8 1.6-2.8 1.1-4.2-.2-.6-.8-1-.7-1.6-.3-1.7-1.8-2.7-3.3-3.1-.7-.2.7 0 .6-.7q.7-.8 1.3-1.6c1 1 2.4 2 3.9 2q2.5-.1 4.4-1.7 1.5-.7 2-2.1c.7-1 .6-2.3.7-3.5a8 8 0 0 0-2.7-4.7q-1.4-1.2-3.3-1.3-2.4-.3-4.3 1.2c-.3.5-.5 0-.8-.3a5 5 0 0 0-3.9-1.5q-1.3 0-2.4.7c-.4-1.7-2-3.1-3.7-3zm7.5 16.7c-.2.3-.3.7-.6.2-.7-.4-.3-.3.2-.3.1 0 .6-.2.4 0" paint-order="markers stroke fill"/>
    <path fill="#cad3f5" d="M39.804 41.05v1.6l-.1.2-.2.2h-.6l-.2.2h-.3l-.6.2h-.6l-.1-.3v-.2l-.1-.6v-.5l-.1-.3v-.9l-.1-.5v-.5l-.1-.2-.1-.3v-.7l-.1-.6v-.8h-.3l-.2-.2h-.1l-.4.4-.2.4-.1.3-.1.2-.3.4-.2.4v.2l-.1.4-.2.4-.1.4-.4.8-.3.4-.2.5-.1.2h-.7l-.5-.1h-.5q-.2 0-.2-.2l-.3-.8q-.2-.3-.2-.7l-.3-.2-.1-.2-.1-.6-.1-.5-.2-.2-.1-.2v-.3l-.1-.3-.3-.5-.2.1v.2l-.1.2-.1.1-.1 1.2-.2 1.2v1.8l-.2.8-.2.2h-.3l-.6.4h-1l-.1-.2v-.2q0-.4-.2-.7l-.1-.5v-.8l.1-.5v-2.4l.1-.1v-.5l-.1-.3v-.2l.1-.4v-.5q.1 0 0-.1v-1.1l.2-.3-.1-.4v-.1l.1-.2v-.1l.1-.3v-.9l.1-.2.3-.1h.7l.2-.1h.6l.1-.1.2-.1h.4l.3-.1h.4l.2-.1h.1l.6 1q.3.4.4 1l.1.4.3.4q0 .2.3.4v.7l.3.3.1.3.2.3h.2l.1-.4.3-.6q.1-.2.3-.2t.2-.3l.2-.5.4-.4.2-.4.3-.5.3-.3q.3-.2.4-.5v-.2l.4-.5.3-.4.5-.1h.6l.4.1q.3 0 .5.2h.3q.2-.1.4 0 .2 0 .3.2l.2.4v.6l.2.2v2.4l.1.2v1.4l-.1.3v1.2l.1.5v.6l.1.8.1.2zm4.7-8.2v.6l-.2.4-.6.6-.4.2h-1.1l-.1-.1h-.1l-.2-.1h-.3l-.4-.2-.1-.4v-2.1l.1-.1.3-.1q.1-.2.3-.2l.6-.4h.8q.3 0 .4.3l.2.1h.1l.3.5v.3l.1.2.1.3zm-.2 4.5v1.1l-.1.2v1.4l-.1.3v1.9l-.3.7v.3l.1.3v.1l-.2.2h-1.3l-.2-.1h-.3l-.4-.5-.1-.1h-.2v-.9q.1-.2 0-.4v-4.6l.1-.2v-.3l.3-.1h.6l.3-.1h.2l.1.1h.5l.2.2.2.1h.2l.2-.1h.2zm7.6-2q0 .3-.2.5l-.2.1v.1l-.2.2v.1q-.2.2-.4 0h-.2l-.4-.2-.1-.2-.6-.2h-.6l-.3.4-.1.4v.3l.1.2.3.3h.3l.2.2q.2 0 .3.2l.3.2.3.1.2.2h.2l.2.2.1.3.2.2.1.5v.5l.1.3v1.1l-.2.3q0 .3-.2.5l-.1.2-1 1h-.2l-.3.1h-.3l-.2.2h-1.5l-.3-.2h-.3l-.8-.8v-.8l.2-.6.3-.5h.2l.2.1.2.2h.3l.3.2h.3q.2.1.4 0l.4-.4v-.6l-.1-.2-.3-.2-.1-.2-.2-.2-.4-.1-.2-.1-.2-.2h-.1l-.2-.1h-.2q0-.2-.3-.3l-.1-.2q0-.2-.2-.3l-.1-.2-.2-.2-.1-.5-.1-.4v-1l.5-1 .5-.6.6-.5h.2l.2-.1.3-.2h.7q.3-.2.6-.1l.5.1h.2l.3.3q.2 0 .3.2l.3.1.2.1.6.8v.2zm9.9 2.6v.6q-.1.1 0 .2v.1l-.2.4v.3l-.1.3v.3h-.1l-.2.2v.3l-.2.3v.2h-.2l-.2.3h-.1l-.2.2h-.1q-.4 0-.4.3l-.8.6-1.2.4-.4.1h-1.5l-.3-.3-.3-.1q-.2 0-.3-.2l-.1-.2-.1-.1h-.1l-.2-.2-.5-.4q-.3-.3-.4-.7l-.3-.6-.1-.1v-2l.1-.2v-.3l.2-.2v-.2l.1-.3v-.1l.2-.3v-.3l.1-.2.1-.1.2-.4.4-.4v-.1q.1-.1 0-.2v-.2h.1l.2-.2.4-.2.3-.2.8-.2h2.1l.1.2h.2v.1l.2.1q.3 0 .5.2l.5.3v.4h.4v.2l.4.4v.2h.2v.2h.1l.1.2.2.6.1.1.1.2v.3zm-2.8.7v-.4l-.1-.2v-.2l-.2-.4-.3-.4h-.1q-.4 0-.7-.3h-.8q-.3 0-.4.3l-.2.4v.2l-.2.1-.2.4-.2.8v.2l.2.2v.5l.1.1.4.2h.3l.3.1h1q0-.2.2-.3l.3-.2.4-.5q.2-.2.2-.5" aria-label="Miso" paint-order="markers stroke fill"/>
    <path fill="#a5adcb" d="M44.504 51.95v.3l-.1.2v.6h-.2q0 .1-.2 0h-.1q0 .1-.1 0h-.8v1.8h-1.7v-.1l-.1-.1v-1.4l-.2-.2h-.3l-.3.1h-.2l-.2.1q-.2 0-.3.2l-.1.2v.6l-.2.4-.3.3-.3.6-.2.1-.2.2h-.1l-.2.2h-.2l-.2.1h-.6l-.3.1h-.5l-.2-.1-.2-.2q-.2 0-.2-.2h-.2l-.1-.1-.1-.2-.2-.2v-.2l-.2-.1v-.6l-.2-.3v-1l.2-.4q.2-.7.7-1l.6-.2q.2-.2.5-.2h.4l.4-.1.3-.1h.1v-.8l-.1-.1h-.5l-.4-.2h-.4l-.4-.1h-.4v-.4l-.2-.2v-1l.1-.1h.2q.3.1.4-.2h.5l.3-.3h1l.3.1h1l.4.2.1.2.1.1v.2l.1.2v.1l-.1.2v.2l.1.2v1.1l-.2.3v.1h.5l.2.1h.4l.2-.1v-.1h.2v-1.4h.6q0-.1 0 0h1.3v.1h.2v.3l-.1.1v.9l.2.2h.7q.3.1.3.4v.5m-6.6 1.7-.1-.5-.2-.2h-.1l-.2.1h-.2q-.3 0-.5.3v.2l-.1.1v.3l.2.3h.1l.2.1h.5l.4-.4zm10.6-4.6-.2.2-.1.2-.3.2-.4.4h-.3l-1.1-1.1-.4-.2v-.4h.3l.3-.3.1-.2.3-.3h.2l.3-.2h.3v.2l.2.2h.1l.1.2h.1q0 .2.2.3l.2.3v.5m4.7 3.3v.3l-.2.1h-1.2l-.1.1h-.3l-.3.2-.2.3v.7l.1.3v.2q.2 0 .3.2.2 0 .3.2l.4.2.2.3v.1l-.1.1-.2.4v.4l-.2.2v.2h-.1l-.2.2-.2-.1h-.6l-.2-.2h-.5l-.2-.2h-.1v-.2l-.8-.8v-.2h-.2v-.7l.1-.2.2-.2v-.9q-.1-.1-.2 0h-.5l-.3.1h-.1l-.1-.2h-.5l-.1.1h-.5l-.3.1h-.2v.1h-.6v-.2l-.2-.3v-.3l.1-.2v-.6l.1-.3h.1q.1 0 0 0 .2 0 .2-.2l.2-.1h.7l.3-.2h.5l.2-.1.1-.2h.4l.1-.1.2-.1h.2l.2-.1h.2q.2 0 .3-.2h.2v-.2l.1-.3v-.5l.1-.1v-.2l.1-.3.4-.6.1-.2.2-.2.2-.3.2.1h.1l.2.1.1.2h.2l.3.3.1.2.2.2.1.2v.2l-.1.3-.2.3v.3l-.2.3.1.2h.4l.3-.1.2.2.2.3h.1v.3l.2.7z" aria-label="みそ" paint-order="markers stroke fill"/>
  </g>
</svg>
