<?xml version="1.0" encoding="UTF-8"?>
<svg width="331.96" height="331.96" version="1.1" viewBox="0 0 87.801 87.809" xmlns="http://www.w3.org/2000/svg">
 <g transform="matrix(1.4376 0 0 1.4376 -19.21 -19.211)" fill-rule="evenodd" stroke-linecap="square">
  <path d="m20.067 16.089-3.784 3.92q-2.793-0.693-5.585-1.389l-5.245 5.44 2.084 7.264 5.587 1.39 1.094 3.803-4 4.141q0.798 2.767 1.593 5.534-1.998 2.072-4 4.142 1.046 3.63 2.088 7.263l5.589 1.393 1.588 5.532c2.444 0.61 4.89 1.215 7.334 1.825l3.995-4.144 3.842 0.956 1.59 5.532c2.444 0.61 4.888 1.216 7.332 1.827l3.995-4.146 5.587 1.391 3.999-4.145 3.84 0.955 1.59 5.532c2.444 0.61 4.888 1.216 7.332 1.827l3.997-4.144 5.585 1.391q2.624-2.72 5.25-5.438-1.046-3.632-2.09-7.265l-5.584-1.39-1.095-3.8 4-4.15c-0.535-1.842-1.063-3.685-1.595-5.527l4.003-4.149q-1.048-3.63-2.09-7.26l-5.587-1.388-1.59-5.534-7.33-1.827-3.999 4.145-3.84-0.953-1.59-5.532-7.332-1.829-3.997 4.144q-2.793-0.694-5.585-1.39l-3.997 4.144-3.844-0.953-1.589-5.535c-2.444-0.609-4.89-1.214-7.333-1.824z" fill="#cad3f5" stroke-width="1.142" paint-order="fill markers stroke"/>
  <g stroke="#5b6078" stroke-width=".999">
   <g fill="#8aadf4">
    <path d="m14.374 31.418-5.587-1.39-1.59-5.533 3.997-4.143 5.587 1.39 1.59 5.532z" paint-order="fill markers stroke"/>
    <path d="m23.957 28.664-5.587-1.39-1.59-5.533 3.997-4.143 5.587 1.39 1.59 5.533z" paint-order="fill markers stroke"/>
    <path d="m31.133 35.587-5.586-1.39-1.59-5.532 3.997-4.144 5.586 1.39 1.59 5.533zm9.584-2.753-5.586-1.39-1.59-5.533 3.997-4.143 5.586 1.39 1.59 5.532zm9.583-2.754-5.586-1.39-1.59-5.533 3.997-4.143 5.587 1.39 1.59 5.532z" paint-order="fill markers stroke"/>
    <path d="m57.477 37.002-5.586-1.39-1.59-5.532 3.997-4.144 5.586 1.39 1.59 5.533zm9.584-2.754-5.586-1.39-1.59-5.532 3.997-4.143 5.586 1.39 1.59 5.532z" paint-order="fill markers stroke"/>
   </g>
   <g fill="#eed49f">
    <path d="m19.143 48.017-5.586-1.39-1.59-5.532 3.997-4.144 5.586 1.39 1.59 5.533z" paint-order="fill markers stroke"/>
    <path d="m28.726 45.264-5.586-1.39-1.59-5.533 3.997-4.143 5.586 1.39 1.59 5.532z" paint-order="fill markers stroke"/>
    <path d="m35.903 52.186-5.587-1.39-1.59-5.533 3.997-4.143 5.587 1.39 1.59 5.533zm9.584-2.754-5.586-1.39-1.59-5.532 3.997-4.144 5.586 1.39 1.59 5.533zm9.583-2.754-5.586-1.39-1.59-5.532 3.997-4.143 5.586 1.39 1.59 5.532zm7.178 6.924-5.587-1.39-1.59-5.533 3.997-4.143 5.587 1.39 1.59 5.533z" paint-order="fill markers stroke"/>
    <path d="m71.827 50.848-5.587-1.39-1.59-5.533 3.997-4.143 5.587 1.39 1.59 5.533z" paint-order="fill markers stroke"/>
   </g>
   <g fill="#ed8796">
    <path d="m23.913 64.617-5.587-1.39-1.59-5.533 3.997-4.143 5.587 1.39 1.59 5.533z" paint-order="fill markers stroke"/>
    <path d="m33.496 61.863-5.587-1.39-1.59-5.532 3.997-4.144 5.587 1.39 1.59 5.533zm7.177 6.923-5.586-1.39-1.59-5.533 3.997-4.143 5.586 1.39 1.59 5.532zm9.584-2.754-5.587-1.39-1.59-5.533 3.997-4.143 5.587 1.39 1.59 5.533z" paint-order="fill markers stroke"/>
    <path d="m59.84 63.278-5.587-1.39-1.59-5.533 3.997-4.143 5.587 1.39 1.59 5.533zm7.177 6.922-5.586-1.39-1.59-5.532 3.997-4.143 5.586 1.39 1.59 5.532z" paint-order="fill markers stroke"/>
    <path d="m76.597 67.447-5.587-1.39-1.59-5.533 3.997-4.143 5.587 1.39 1.59 5.532z" paint-order="fill markers stroke"/>
   </g>
   <g fill="#a6da95">
    <path d="m21.55 38.341-5.587-1.39-1.59-5.533 3.997-4.143 5.587 1.39 1.59 5.533zm16.76 4.169-5.586-1.39-1.59-5.533 3.997-4.143 5.587 1.39 1.59 5.532z" paint-order="fill markers stroke"/>
    <path d="m47.894 39.756-5.587-1.39-1.59-5.533 3.997-4.143 5.587 1.39 1.59 5.533zm16.761 4.169-5.587-1.39-1.59-5.533 3.997-4.143 5.587 1.39 1.59 5.532z" paint-order="fill markers stroke"/>
    <path d="m74.237 41.17-5.587-1.389-1.59-5.533 3.997-4.143 5.587 1.39 1.59 5.533z" paint-order="fill markers stroke"/>
   </g>
   <path d="m66.243 49.457 5.587 1.39 1.59 5.533-3.997 4.143-5.587-1.39-1.59-5.532zm-16.76-4.168 5.586 1.39 1.59 5.532-3.997 4.144-5.586-1.39-1.59-5.533zm-9.583 2.753 5.586 1.39 1.59 5.533-3.997 4.143-5.587-1.39-1.59-5.532zm-16.761-4.169 5.586 1.39 1.59 5.532-3.997 4.144-5.586-1.39-1.59-5.533zm-9.584 2.754 5.587 1.39 1.59 5.532-3.997 4.143-5.586-1.39-1.59-5.532z" fill="#f5a97f" paint-order="fill markers stroke"/>
  </g>
 </g>
</svg>
