<?xml version="1.0" encoding="UTF-8"?>
<svg width="331.96" height="262.03" version="1.1" viewBox="0 0 87.802 69.313" xmlns="http://www.w3.org/2000/svg">
 <style>.themed {
      fill: #000000;
      stroke-width: 0;
    }
    @media (prefers-color-scheme: dark) {
      .themed {
        fill: #ffffff;
        stroke-width: 0;
      }
    }
    @keyframes colorCycle {
      0%   { fill: #ed8796; }
      5%   { fill: #ed8796; }
      16%  { fill: #f5a97f; }
      21%  { fill: #f5a97f; }
      33%  { fill: #eed49f; }
      38%  { fill: #eed49f; }
      49%  { fill: #a6da95; }
      54%  { fill: #a6da95; }
      66%  { fill: #8aadf4; }
      71%  { fill: #8aadf4; }
      82%  { fill: #c6a0f6; }
      87%  { fill: #c6a0f6; }
      100% { fill: #ed8796; }
    }
    .row {
      animation: colorCycle 10s linear infinite;
    }
    .row-first { animation-delay: -6.6s; }
    .row-second { animation-delay: -4.9s; }
    .row-third { animation-delay: -3.3s; }
    .row-fourth { animation-delay: -1.6s; }
    .row-fifth { animation-delay: 0s; }</style>
 <defs>
  <filter id="b" x="0" y="0" width="1" height="1">
   <feTurbulence baseFrequency="0.025" numOctaves="2" result="noise" seed="1">
    <animate attributeName="baseFrequency" calcMode="discrete" dur="0.8s" repeatCount="indefinite" values="0.025;0.020;0.030;0.022;0.028;0.018;0.032;0.021;0.027;0.024"/>
    <animate attributeName="seed" calcMode="discrete" dur="0.8s" repeatCount="indefinite" values="1;4;7;2;9;5;3;8;6;0"/>
   </feTurbulence>
   <feDisplacementMap in="SourceGraphic" in2="noise" scale="0.75" xChannelSelector="R" yChannelSelector="G"/>
  </filter>
  <filter id="a" x="0" y="0" width="1" height="1">
   <feTurbulence baseFrequency="0.025" numOctaves="2" result="noise" seed="1">
    <animate attributeName="baseFrequency" calcMode="discrete" dur="0.8s" repeatCount="indefinite" values="0.025;0.020;0.030;0.022;0.028;0.018;0.032;0.021;0.027;0.024"/>
    <animate attributeName="seed" calcMode="discrete" dur="0.8s" repeatCount="indefinite" values="1;4;7;2;9;5;3;8;6;0"/>
   </feTurbulence>
   <feDisplacementMap in="SourceGraphic" in2="noise" scale="0.55" xChannelSelector="R" yChannelSelector="G"/>
  </filter>
 </defs>
 <g transform="translate(.00017773 1.7625)" fill-rule="evenodd">
  <g transform="translate(.002 -15.868)" stroke-linecap="square">
   <path d="m19.387 13.738c-1.2625 1.3111-2.5241 2.623-3.7871 3.9336-1.8371-0.5175-3.7212-0.9176-5.5742-1.4043-2.3113 2.4054-4.6282 4.8055-6.9395 7.2109 0.91842 3.2012 1.8374 6.4023 2.7559 9.6035 1.8456 0.46021 3.6914 0.91918 5.5371 1.3789 0.3387 0.64469 0.62451 1.6561-0.13193 2.1286-1.1663 1.1279-2.2729 2.3152-3.4052 3.4768 0.53557 1.8431 1.066 3.6876 1.5996 5.5312-1.3368 1.3807-2.6719 2.7629-4.0098 4.1426 0.92544 3.2046 1.8482 6.41 2.7715 9.6152 1.8632 0.46471 3.7266 0.9283 5.5898 1.3926 0.52926 1.8438 1.0588 3.6874 1.5879 5.5312 3.2334 0.80798 6.4676 1.6127 9.7012 2.4199 1.3205-1.3696 2.6406-2.7396 3.9609-4.1094 0.76014 0.0183 1.7854 0.32777 1.7948 1.2452 0.39101 1.5504 0.87811 3.0737 1.3048 4.6142 3.2327 0.80794 6.4663 1.6127 9.6992 2.4199 1.3317-1.3818 2.6627-2.7644 3.9941-4.1465 1.8626 0.46427 3.7254 0.92792 5.5879 1.3926 1.3211-1.3703 2.6419-2.7409 3.9629-4.1113 0.76014 0.0183 1.7854 0.32777 1.7948 1.2452 0.39152 1.5501 0.87477 3.0742 1.3028 4.6142 3.2327 0.80794 6.4663 1.6127 9.6992 2.4199 1.3327-1.3815 2.6654-2.763 3.998-4.1445 1.8613 0.46425 3.7227 0.92803 5.584 1.3926 2.3188-2.3993 4.6366-4.7996 6.957-7.1973-0.92596-3.2046-1.8496-6.41-2.7734-9.6152-1.8482-0.4613-3.6966-0.92181-5.5449-1.3828-0.28435-0.64611-0.65316-1.602 0.09469-2.0846 1.1912-1.1359 2.3045-2.3496 3.4522-3.5287-0.53534-1.8405-1.066-3.6824-1.5996-5.5234 1.3366-1.3854 2.6732-2.7708 4.0098-4.1562-0.92676-3.1999-1.8497-6.4008-2.7734-9.6016-1.8617-0.46328-3.724-0.9243-5.5859-1.3867-0.5299-1.8451-1.0602-3.69-1.5898-5.5352-3.2321-0.80791-6.465-1.6128-9.6973-2.4199-1.3216 1.3698-2.6432 2.7396-3.9648 4.1094-0.75831-0.01869-1.7876-0.32385-1.7949-1.2432-0.39219-1.5493-0.87367-3.0732-1.3028-4.6122-3.2328-0.80897-6.4662-1.6156-9.6992-2.4238-1.3321 1.3814-2.664 2.763-3.9961 4.1445-1.8619-0.4638-3.7244-0.92551-5.5859-1.3906-1.3222 1.3705-2.6445 2.7409-3.9668 4.1113-0.75866-0.01792-1.786-0.32491-1.7948-1.2432-0.38812-1.552-0.87396-3.0758-1.2989-4.6181-3.2376-0.80526-6.4754-1.61-9.7129-2.416-0.07031 0.07357-0.14062 0.14714-0.21094 0.2207z" fill="#553b6b" fill-opacity=".2"/>
   <path d="m20.067 16.089-3.784 3.92q-2.793-0.693-5.585-1.389l-5.245 5.44 2.084 7.264 5.587 1.39 1.094 3.803-4 4.141q0.798 2.767 1.593 5.534-1.998 2.072-4 4.142 1.046 3.63 2.088 7.263l5.589 1.393 1.588 5.532c2.444 0.61 4.89 1.215 7.334 1.825l3.995-4.144 3.842 0.956 1.59 5.532c2.444 0.61 4.888 1.216 7.332 1.827l3.995-4.146 5.587 1.391 3.999-4.145 3.84 0.955 1.59 5.532c2.444 0.61 4.888 1.216 7.332 1.827l3.997-4.144 5.585 1.391q2.624-2.72 5.25-5.438-1.046-3.632-2.09-7.265l-5.584-1.39-1.095-3.8 4-4.15c-0.535-1.842-1.063-3.685-1.595-5.527l4.003-4.149q-1.048-3.63-2.09-7.26l-5.587-1.388-1.59-5.534-7.33-1.827-3.999 4.145-3.84-0.953-1.59-5.532-7.332-1.829-3.997 4.144q-2.793-0.694-5.585-1.39l-3.997 4.144-3.844-0.953-1.589-5.535c-2.444-0.609-4.89-1.214-7.333-1.824z" fill="#cad3f5" stroke-width="1.142" paint-order="fill markers stroke"/>
   <g stroke="#5b6078">
    <g class="row row-first">
     <path d="m14.374 31.418-5.587-1.39-1.59-5.533 3.997-4.143 5.587 1.39 1.59 5.532z" paint-order="fill markers stroke"/>
     <path d="m23.957 28.664-5.587-1.39-1.59-5.533 3.997-4.143 5.587 1.39 1.59 5.533z" paint-order="fill markers stroke"/>
     <path d="m31.133 35.587-5.586-1.39-1.59-5.532 3.997-4.144 5.586 1.39 1.59 5.533zm9.584-2.753-5.586-1.39-1.59-5.533 3.997-4.143 5.586 1.39 1.59 5.532zm9.583-2.754-5.586-1.39-1.59-5.533 3.997-4.143 5.587 1.39 1.59 5.532z" paint-order="fill markers stroke"/>
     <path d="m57.477 37.002-5.586-1.39-1.59-5.532 3.997-4.144 5.586 1.39 1.59 5.533zm9.584-2.754-5.586-1.39-1.59-5.532 3.997-4.143 5.586 1.39 1.59 5.532z" paint-order="fill markers stroke"/>
    </g>
    <g class="row row-second">
     <path d="m21.55 38.341-5.587-1.39-1.59-5.533 3.997-4.143 5.587 1.39 1.59 5.533zm16.76 4.169-5.586-1.39-1.59-5.533 3.997-4.143 5.587 1.39 1.59 5.532z" paint-order="fill markers stroke"/>
     <path d="m47.894 39.756-5.587-1.39-1.59-5.533 3.997-4.143 5.587 1.39 1.59 5.533zm16.761 4.169-5.587-1.39-1.59-5.533 3.997-4.143 5.587 1.39 1.59 5.532z" paint-order="fill markers stroke"/>
     <path d="m74.237 41.17-5.587-1.389-1.59-5.533 3.997-4.143 5.587 1.39 1.59 5.533z" paint-order="fill markers stroke"/>
    </g>
    <g class="row row-third">
     <path d="m19.143 48.017-5.586-1.39-1.59-5.532 3.997-4.144 5.586 1.39 1.59 5.533z" paint-order="fill markers stroke"/>
     <path d="m28.726 45.264-5.586-1.39-1.59-5.533 3.997-4.143 5.586 1.39 1.59 5.532z" paint-order="fill markers stroke"/>
     <path d="m35.903 52.186-5.587-1.39-1.59-5.533 3.997-4.143 5.587 1.39 1.59 5.533zm9.584-2.754-5.586-1.39-1.59-5.532 3.997-4.144 5.586 1.39 1.59 5.533zm9.583-2.754-5.586-1.39-1.59-5.532 3.997-4.143 5.586 1.39 1.59 5.532zm7.178 6.924-5.587-1.39-1.59-5.533 3.997-4.143 5.587 1.39 1.59 5.533z" paint-order="fill markers stroke"/>
     <path d="m71.827 50.848-5.587-1.39-1.59-5.533 3.997-4.143 5.587 1.39 1.59 5.533z" paint-order="fill markers stroke"/>
    </g>
    <path class="row row-fourth" d="m66.243 49.457 5.587 1.39 1.59 5.533-3.997 4.143-5.587-1.39-1.59-5.532zm-16.76-4.168 5.586 1.39 1.59 5.532-3.997 4.144-5.586-1.39-1.59-5.533zm-9.583 2.753 5.586 1.39 1.59 5.533-3.997 4.143-5.587-1.39-1.59-5.532zm-16.761-4.169 5.586 1.39 1.59 5.532-3.997 4.144-5.586-1.39-1.59-5.533zm-9.584 2.754 5.587 1.39 1.59 5.532-3.997 4.143-5.586-1.39-1.59-5.532z" paint-order="fill markers stroke"/>
    <g class="row row-fifth">
     <path d="m23.913 64.617-5.587-1.39-1.59-5.533 3.997-4.143 5.587 1.39 1.59 5.533z" paint-order="fill markers stroke"/>
     <path d="m33.496 61.863-5.587-1.39-1.59-5.532 3.997-4.144 5.587 1.39 1.59 5.533zm7.177 6.923-5.586-1.39-1.59-5.533 3.997-4.143 5.586 1.39 1.59 5.532zm9.584-2.754-5.587-1.39-1.59-5.533 3.997-4.143 5.587 1.39 1.59 5.533z" paint-order="fill markers stroke"/>
     <path d="m59.84 63.278-5.587-1.39-1.59-5.533 3.997-4.143 5.587 1.39 1.59 5.533zm7.177 6.922-5.586-1.39-1.59-5.532 3.997-4.143 5.586 1.39 1.59 5.532z" paint-order="fill markers stroke"/>
     <path d="m76.597 67.447-5.587-1.39-1.59-5.533 3.997-4.143 5.587 1.39 1.59 5.532z" paint-order="fill markers stroke"/>
    </g>
   </g>
  </g>
  <g transform="translate(.002 -15.868)" filter="url(#b)" stroke-linecap="square" stroke-width=".6">
   <path d="m42.604 26.35q-1.6 0-3 1c-2-0.5-4.2-0.7-5.9 0.4-0.4 0.1-0.7 0.8-1 0.6a5 5 0 0 0-4.9-0.6c-1.7 0.3-3.7 0.5-4.8 2-1.4 1.9-1 4.3-1.4 6.4q-0.3 4 0.1 8c0.5 2 2.3 3.9 4.5 4q2.6 0.3 4.8-1.2-0.4 1.6 0 3.2a7.5 7.5 0 0 0 2.5 9.8 7 7 0 0 0 7.9-0.5q2.2 0.2 4-0.8c1.9 2.3 5.2 3.5 8 2.4 2-1 3-3.5 3.2-5.8 1.6-2 1.4-5 0.1-7.1q-0.3-0.7 0.5-0.5c2.6-0.1 5-1.5 6.9-3.2a9 9 0 0 0 2.1-7.4 10 10 0 0 0-7.5-7.7q-2.8-0.3-5.3 0.7a8 8 0 0 0-5.8-1.3 6 6 0 0 0-5-2.4" fill="#a5adcb" paint-order="markers stroke fill"/>
   <path d="m42.704 27.45q-1.5 0-3 1c-1.5-0.3-3.1-0.8-4.6-0.2q-1.4 0.6-2.2 1.6a4 4 0 0 0-4.4-1.1c-1.6 0.3-3.5 0.2-4.5 1.6-1 1-1 2.5-1.2 3.9q-0.4 4-0.3 8.1c0 2 1 4 3 4.6a6 6 0 0 0 5.6-1.3l1.9 0.1c-1 1-1.5 2.6-1 4q0.3 0.5 0 1c-1.8 3.1-0.4 7.6 3 8.8 2 0.7 4.4 0.2 6-1.2q2.2 0.4 4-0.7c0.3 0 0.6-0.8 0.8-0.3 1.1 1.9 3.3 3 5.5 3q2.3 0 3.4-2.1 1-1.6 0.8-3.3c1.7-1.7 1.5-4.5 0.3-6.5q-0.3-1.2-1-2.2 3.6 1 6.7-1.2c1.3-0.7 2.6-1.8 3-3.3 1.2-2.3 1-5.2-0.4-7.4a8 8 0 0 0-6-4 8 8 0 0 0-4.8 1c-1.6-1.5-4-2-6.1-1.4a5 5 0 0 0-4.5-2.5" fill="#cad3f5" paint-order="markers stroke fill"/>
   <path d="m42.104 28.45q-1.2 0.4-2.3 1.1-1.3-0.3-2.7-0.6a4 4 0 0 0-4 2.4c-0.2 0.7-0.4 0-0.6-0.3-0.7-1-2-2-3.4-1.4l-2.9 0.5c-1.4 0.2-2.2 1.6-2.2 3q-0.2 1.5-0.3 3.2-0.2 2-0.1 3.7c0 1.7-0.3 3.6 0.8 5 1 1.3 3 1.3 4.5 0.8q1.1-0.5 1.8-1.4 1.2 0.3 2.4 0.3 1 0 1.7-0.6 0.2 0.7 0.7 1.2-0.9 0.4-1.7 1-1.4 1.3-0.7 3c-0.1 0.6 0.4 1.2 0 1.6-1.7 2.4-0.8 6.2 1.9 7.5 1.5 0.8 3.5 0.4 4.9-0.5l0.8-0.7a7 7 0 0 0 3.2 0q0.9-0.6 1.4-1.3 0.6-0.2 1 0a6 6 0 0 0 3 3c1.2 0.4 2.7 0.8 3.7-0.2a6 6 0 0 0 1.5-3c0.2-0.5-0.3-1 0.2-1.3 1.4-1.5 1.2-4 0-5.5a4 4 0 0 0-1-2.5q-0.8-0.7-1.8-1.2 0.4-0.8 1-1.3a6 6 0 0 0 4.5 1.6q2.5-0.3 4.6-2 1.2-0.8 1.6-2.2 0.9-1.8 0.6-3.8a9 9 0 0 0-2.9-4.9 6 6 0 0 0-3.7-1.3q-2.5-0.2-4.4 1.3a5.5 5.5 0 0 0-6.5-1.4c-0.6-1.7-2.4-3-4.2-2.8zm-1.8 17a5 5 0 0 0 4 0.7l-0.9 0.9c-0.5-0.2-1.1 0-1.5-0.3a4 4 0 0 0-2-1.3z" fill="#cad3f5" paint-order="markers stroke fill"/>
   <path d="m42.004 29.05q-1.2 0.3-2 1.1c-0.8-0.5-1.8-0.3-2.6-0.6-1.5-0.3-3 0.5-3.7 1.8q-0.3 0.8-1 1.4c-0.4-1.2-1.3-2.7-2.7-2.8l-2.6 0.6c-0.8 0-1.8 0-2.4 0.9-0.7 0.8-0.4 2-0.7 3q0 1.4-0.2 2.8v2.4q-0.2 2.1 0.2 4.2 0.6 1.6 2.2 1.8 2.4 0.2 4-1.6c0-0.3 0.6 0.2 0.9 0 1 0.1 2.2 0.4 3-0.4 0.4-0.1 0.7-1 0.7-0.2 0.2 1 1 2 2.1 2q1.5 0 3-0.6 1.6 1.1 3.4 1 1.2-0.2 1.9-1l0.9 0.5q-1.4 0.6-2.3 1.6c-0.2 0.3-0.2 0.8-0.7 0.6q-0.8-0.3-1.8-0.2c-0.6-1.2-2-1.6-3.2-1.5-0.7-0.3-1.4 0-2 0-0.7-0.3-1.3 0.2-1.7 0.6-1 0.4-1.7 1.7-1.1 2.7q0 0.8 0.2 1.5a5 5 0 0 0-0.8 4.8 4 4 0 0 0 3 2.8q1.6 0.4 3.2-0.5 0.8-0.3 1.3-1.1c1 0.5 2 0.2 3 0.1a2 2 0 0 0 1.4-1.4q0.8 0.2 1.7 0c0.2 1.4 1.4 2.4 2.6 3.1a8 8 0 0 0 2.5 0.4c1.2-0.2 1.8-1.4 2.1-2.5q0.4-1 0-2c1.5-0.8 1.6-2.8 1.1-4.2-0.2-0.6-0.8-1-0.7-1.6-0.3-1.7-1.8-2.7-3.3-3.1-0.7-0.2 0.7 0 0.6-0.7q0.7-0.8 1.3-1.6c1 1 2.4 2 3.9 2q2.5-0.1 4.4-1.7 1.5-0.7 2-2.1c0.7-1 0.6-2.3 0.7-3.5a8 8 0 0 0-2.7-4.7q-1.4-1.2-3.3-1.3-2.4-0.3-4.3 1.2c-0.3 0.5-0.5 0-0.8-0.3a5 5 0 0 0-3.9-1.5q-1.3 0-2.4 0.7c-0.4-1.7-2-3.1-3.7-3zm7.5 16.7c-0.2 0.3-0.3 0.7-0.6 0.2-0.7-0.4-0.3-0.3 0.2-0.3 0.1 0 0.6-0.2 0.4 0" fill="#6e738d" paint-order="markers stroke fill"/>
   <path d="m39.804 41.05v1.6l-0.1 0.2-0.2 0.2h-0.6l-0.2 0.2h-0.3l-0.6 0.2h-0.6l-0.1-0.3v-0.2l-0.1-0.6v-0.5l-0.1-0.3v-0.9l-0.1-0.5v-0.5l-0.1-0.2-0.1-0.3v-0.7l-0.1-0.6v-0.8h-0.3l-0.2-0.2h-0.1l-0.4 0.4-0.2 0.4-0.1 0.3-0.1 0.2-0.3 0.4-0.2 0.4v0.2l-0.1 0.4-0.2 0.4-0.1 0.4-0.4 0.8-0.3 0.4-0.2 0.5-0.1 0.2h-0.7l-0.5-0.1h-0.5q-0.2 0-0.2-0.2l-0.3-0.8q-0.2-0.3-0.2-0.7l-0.3-0.2-0.1-0.2-0.1-0.6-0.1-0.5-0.2-0.2-0.1-0.2v-0.3l-0.1-0.3-0.3-0.5-0.2 0.1v0.2l-0.1 0.2-0.1 0.1-0.1 1.2-0.2 1.2v1.8l-0.2 0.8-0.2 0.2h-0.3l-0.6 0.4h-1l-0.1-0.2v-0.2q0-0.4-0.2-0.7l-0.1-0.5v-0.8l0.1-0.5v-2.4l0.1-0.1v-0.5l-0.1-0.3v-0.2l0.1-0.4v-0.5q0.1 0 0-0.1v-1.1l0.2-0.3-0.1-0.4v-0.1l0.1-0.2v-0.1l0.1-0.3v-0.9l0.1-0.2 0.3-0.1h0.7l0.2-0.1h0.6l0.1-0.1 0.2-0.1h0.4l0.3-0.1h0.4l0.2-0.1h0.1l0.6 1q0.3 0.4 0.4 1l0.1 0.4 0.3 0.4q0 0.2 0.3 0.4v0.7l0.3 0.3 0.1 0.3 0.2 0.3h0.2l0.1-0.4 0.3-0.6q0.1-0.2 0.3-0.2t0.2-0.3l0.2-0.5 0.4-0.4 0.2-0.4 0.3-0.5 0.3-0.3q0.3-0.2 0.4-0.5v-0.2l0.4-0.5 0.3-0.4 0.5-0.1h0.6l0.4 0.1q0.3 0 0.5 0.2h0.3q0.2-0.1 0.4 0 0.2 0 0.3 0.2l0.2 0.4v0.6l0.2 0.2v2.4l0.1 0.2v1.4l-0.1 0.3v1.2l0.1 0.5v0.6l0.1 0.8 0.1 0.2zm4.7-8.2v0.6l-0.2 0.4-0.6 0.6-0.4 0.2h-1.1l-0.1-0.1h-0.1l-0.2-0.1h-0.3l-0.4-0.2-0.1-0.4v-2.1l0.1-0.1 0.3-0.1q0.1-0.2 0.3-0.2l0.6-0.4h0.8q0.3 0 0.4 0.3l0.2 0.1h0.1l0.3 0.5v0.3l0.1 0.2 0.1 0.3zm-0.2 4.5v1.1l-0.1 0.2v1.4l-0.1 0.3v1.9l-0.3 0.7v0.3l0.1 0.3v0.1l-0.2 0.2h-1.3l-0.2-0.1h-0.3l-0.4-0.5-0.1-0.1h-0.2v-0.9q0.1-0.2 0-0.4v-4.6l0.1-0.2v-0.3l0.3-0.1h0.6l0.3-0.1h0.2l0.1 0.1h0.5l0.2 0.2 0.2 0.1h0.2l0.2-0.1h0.2zm7.6-2q0 0.3-0.2 0.5l-0.2 0.1v0.1l-0.2 0.2v0.1q-0.2 0.2-0.4 0h-0.2l-0.4-0.2-0.1-0.2-0.6-0.2h-0.6l-0.3 0.4-0.1 0.4v0.3l0.1 0.2 0.3 0.3h0.3l0.2 0.2q0.2 0 0.3 0.2l0.3 0.2 0.3 0.1 0.2 0.2h0.2l0.2 0.2 0.1 0.3 0.2 0.2 0.1 0.5v0.5l0.1 0.3v1.1l-0.2 0.3q0 0.3-0.2 0.5l-0.1 0.2-1 1h-0.2l-0.3 0.1h-0.3l-0.2 0.2h-1.5l-0.3-0.2h-0.3l-0.8-0.8v-0.8l0.2-0.6 0.3-0.5h0.2l0.2 0.1 0.2 0.2h0.3l0.3 0.2h0.3q0.2 0.1 0.4 0l0.4-0.4v-0.6l-0.1-0.2-0.3-0.2-0.1-0.2-0.2-0.2-0.4-0.1-0.2-0.1-0.2-0.2h-0.1l-0.2-0.1h-0.2q0-0.2-0.3-0.3l-0.1-0.2q0-0.2-0.2-0.3l-0.1-0.2-0.2-0.2-0.1-0.5-0.1-0.4v-1l0.5-1 0.5-0.6 0.6-0.5h0.2l0.2-0.1 0.3-0.2h0.7q0.3-0.2 0.6-0.1l0.5 0.1h0.2l0.3 0.3q0.2 0 0.3 0.2l0.3 0.1 0.2 0.1 0.6 0.8v0.2zm9.9 2.6v0.6q-0.1 0.1 0 0.2v0.1l-0.2 0.4v0.3l-0.1 0.3v0.3h-0.1l-0.2 0.2v0.3l-0.2 0.3v0.2h-0.2l-0.2 0.3h-0.1l-0.2 0.2h-0.1q-0.4 0-0.4 0.3l-0.8 0.6-1.2 0.4-0.4 0.1h-1.5l-0.3-0.3-0.3-0.1q-0.2 0-0.3-0.2l-0.1-0.2-0.1-0.1h-0.1l-0.2-0.2-0.5-0.4q-0.3-0.3-0.4-0.7l-0.3-0.6-0.1-0.1v-2l0.1-0.2v-0.3l0.2-0.2v-0.2l0.1-0.3v-0.1l0.2-0.3v-0.3l0.1-0.2 0.1-0.1 0.2-0.4 0.4-0.4v-0.1q0.1-0.1 0-0.2v-0.2h0.1l0.2-0.2 0.4-0.2 0.3-0.2 0.8-0.2h2.1l0.1 0.2h0.2v0.1l0.2 0.1q0.3 0 0.5 0.2l0.5 0.3v0.4h0.4v0.2l0.4 0.4v0.2h0.2v0.2h0.1l0.1 0.2 0.2 0.6 0.1 0.1 0.1 0.2v0.3zm-2.8 0.7v-0.4l-0.1-0.2v-0.2l-0.2-0.4-0.3-0.4h-0.1q-0.4 0-0.7-0.3h-0.8q-0.3 0-0.4 0.3l-0.2 0.4v0.2l-0.2 0.1-0.2 0.4-0.2 0.8v0.2l0.2 0.2v0.5l0.1 0.1 0.4 0.2h0.3l0.3 0.1h1q0-0.2 0.2-0.3l0.3-0.2 0.4-0.5q0.2-0.2 0.2-0.5" fill="#cad3f5" aria-label="Miso" paint-order="markers stroke fill"/>
   <path d="m44.504 51.95v0.3l-0.1 0.2v0.6h-0.2q0 0.1-0.2 0h-0.1q0 0.1-0.1 0h-0.8v1.8h-1.7v-0.1l-0.1-0.1v-1.4l-0.2-0.2h-0.3l-0.3 0.1h-0.2l-0.2 0.1q-0.2 0-0.3 0.2l-0.1 0.2v0.6l-0.2 0.4-0.3 0.3-0.3 0.6-0.2 0.1-0.2 0.2h-0.1l-0.2 0.2h-0.2l-0.2 0.1h-0.6l-0.3 0.1h-0.5l-0.2-0.1-0.2-0.2q-0.2 0-0.2-0.2h-0.2l-0.1-0.1-0.1-0.2-0.2-0.2v-0.2l-0.2-0.1v-0.6l-0.2-0.3v-1l0.2-0.4q0.2-0.7 0.7-1l0.6-0.2q0.2-0.2 0.5-0.2h0.4l0.4-0.1 0.3-0.1h0.1v-0.8l-0.1-0.1h-0.5l-0.4-0.2h-0.4l-0.4-0.1h-0.4v-0.4l-0.2-0.2v-1l0.1-0.1h0.2q0.3 0.1 0.4-0.2h0.5l0.3-0.3h1l0.3 0.1h1l0.4 0.2 0.1 0.2 0.1 0.1v0.2l0.1 0.2v0.1l-0.1 0.2v0.2l0.1 0.2v1.1l-0.2 0.3v0.1h0.5l0.2 0.1h0.4l0.2-0.1v-0.1h0.2v-1.4h0.6q0-0.1 0 0h1.3v0.1h0.2v0.3l-0.1 0.1v0.9l0.2 0.2h0.7q0.3 0.1 0.3 0.4v0.5m-6.6 1.7-0.1-0.5-0.2-0.2h-0.1l-0.2 0.1h-0.2q-0.3 0-0.5 0.3v0.2l-0.1 0.1v0.3l0.2 0.3h0.1l0.2 0.1h0.5l0.4-0.4zm10.6-4.6-0.2 0.2-0.1 0.2-0.3 0.2-0.4 0.4h-0.3l-1.1-1.1-0.4-0.2v-0.4h0.3l0.3-0.3 0.1-0.2 0.3-0.3h0.2l0.3-0.2h0.3v0.2l0.2 0.2h0.1l0.1 0.2h0.1q0 0.2 0.2 0.3l0.2 0.3v0.5m4.7 3.3v0.3l-0.2 0.1h-1.2l-0.1 0.1h-0.3l-0.3 0.2-0.2 0.3v0.7l0.1 0.3v0.2q0.2 0 0.3 0.2 0.2 0 0.3 0.2l0.4 0.2 0.2 0.3v0.1l-0.1 0.1-0.2 0.4v0.4l-0.2 0.2v0.2h-0.1l-0.2 0.2-0.2-0.1h-0.6l-0.2-0.2h-0.5l-0.2-0.2h-0.1v-0.2l-0.8-0.8v-0.2h-0.2v-0.7l0.1-0.2 0.2-0.2v-0.9q-0.1-0.1-0.2 0h-0.5l-0.3 0.1h-0.1l-0.1-0.2h-0.5l-0.1 0.1h-0.5l-0.3 0.1h-0.2v0.1h-0.6v-0.2l-0.2-0.3v-0.3l0.1-0.2v-0.6l0.1-0.3h0.1q0.1 0 0 0 0.2 0 0.2-0.2l0.2-0.1h0.7l0.3-0.2h0.5l0.2-0.1 0.1-0.2h0.4l0.1-0.1 0.2-0.1h0.2l0.2-0.1h0.2q0.2 0 0.3-0.2h0.2v-0.2l0.1-0.3v-0.5l0.1-0.1v-0.2l0.1-0.3 0.4-0.6 0.1-0.2 0.2-0.2 0.2-0.3 0.2 0.1h0.1l0.2 0.1 0.1 0.2h0.2l0.3 0.3 0.1 0.2 0.2 0.2 0.1 0.2v0.2l-0.1 0.3-0.2 0.3v0.3l-0.2 0.3 0.1 0.2h0.4l0.3-0.1 0.2 0.2 0.2 0.3h0.1v0.3l0.2 0.7z" fill="#a5adcb" aria-label="みそ" paint-order="markers stroke fill"/>
  </g>
  <path class="themed" d="m4.2056 65.58-0.01 0.11v0.11l-0.01 0.1q0 0.05-0.02 0.09t-0.02 0.07v0.2l-0.02 0.1q0 0.06-0.02 0.1l-0.02 0.06-0.02 0.05-0.05 0.04q-0.03 0.04-0.08 0.02l-0.07-0.01q-0.02-0.01-0.05 0.01l-0.11-0.05h-0.16l-0.03 0.02h-0.05q-0.07-0.07-0.07-0.15t-0.02-0.13l-0.04-0.14v-0.1l0.01-0.12v-0.06q0-0.04 0.03-0.07l0.02-0.17v-0.05q0-0.06-0.03-0.12l-0.04-0.12-0.03-0.04q-0.02-0.03-0.05-0.03l-0.05-0.04-0.06-0.02-0.07 0.02h-0.04l-0.02-0.02h-0.02v0.01l-0.1 0.1q-0.03 0-0.05 0.03l-0.1 0.06-0.06 0.02-0.01 0.04-0.01 0.03-0.02 0.03-0.02 0.04q-0.03 0.08-0.03 0.16v0.04l-0.02 0.06-0.02 0.04-0.01 0.22v0.2q0 0.05-0.02 0.07l-0.04 0.16-0.13-0.02h-0.36l-0.08-0.01q-0.07 0-0.1-0.05l-0.05-0.15-0.02-0.17v-0.05l0.02-0.04 0.01-0.09 0.01-0.08v-0.44q0-0.04-0.02-0.06v-0.18l-0.04-0.04q0-0.02-0.03-0.04h-0.05l-0.04-0.02q-0.03 0-0.06-0.03l-0.07-0.03-0.1-0.04-0.1 0.05-0.05 0.01h-0.04l-0.14 0.14-0.02 0.05-0.03 0.06-0.06 0.18q-0.02 0.09-0.02 0.2v0.2l-0.01 0.22-0.03 0.2-0.03 0.08-0.02 0.1-0.07 0.07-0.1 0.05h-0.1l-0.14 0.02-0.1 0.02h-0.05l-0.09-0.02-0.06-0.08-0.06-0.1v-0.03l0.02-0.03v-0.16l-0.03-0.15-0.04-0.13q0-0.06 0.02-0.09t0.03-0.08q0.02-0.04 0.02-0.1l0.01-0.12v-0.12l0.01-0.1v-0.06q-0.02-0.13 0-0.25l0.02-0.05 0.01-0.04 0.05-0.05q0.04 0 0.06-0.03 0.03-0.06 0.01-0.12l-0.02-0.11 0.03-0.06 0.02-0.07 0.09-0.11 0.08-0.1v-0.05q0-0.03 0.03-0.04l0.03-0.01 0.02-0.01 0.22-0.07 0.2-0.07q0.12-0.05 0.23-0.05h0.06q0.08-0.04 0.16-0.04l0.17-0.01h0.08l0.06 0.02q0.04 0 0.07 0.03l0.1 0.05q0.04 0.02 0.1 0.02l0.04 0.03 0.04 0.02 0.1 0.12 0.01 0.06q0.02 0.02 0.02 0.06l0.05 0.05q0.03 0.02 0.07 0.02l0.12-0.12h0.06l0.15-0.1 0.03-0.05 0.02-0.05h0.06l0.06-0.02 0.08-0.03 0.08-0.05h0.13l0.05 0.01 0.06 0.01q0.08 0.03 0.16 0.03l0.16 0.01q0.01 0.02 0.05 0.02l0.14 0.13v0.01l0.01 0.01q0.06 0.17 0.2 0.24v0.06q0.05 0.04 0.1 0.04 0.07 0.01 0.06 0.07 0 0.08 0.02 0.15l0.05 0.14 0.04 0.16v0.26l0.02 0.04q0.02 0.08 0 0.18m3.11-0.54q0.02 0.07 0 0.14l-0.02 0.06v0.1q-0.03 0.05-0.03 0.1l0.01 0.11-0.06 0.09v0.08l-0.03 0.03-0.05 0.04-0.04 0.1-0.03 0.09v0.06l-0.06 0.04q-0.03 0.01-0.07 0.06l-0.1 0.06h-0.06q-0.1 0-0.1 0.1l-0.26 0.2q-0.1 0.07-0.28 0.1l-0.1 0.03-0.1 0.04-0.04-0.01h-0.03l-0.16-0.01h-0.05l-0.04 0.01-0.09-0.01-0.1-0.02-0.1-0.05-0.1-0.06-0.06-0.04-0.05-0.06q0-0.02-0.02-0.02 0-0.02-0.02-0.03l-0.04-0.02q-0.02 0-0.04-0.03-0.1-0.07-0.18-0.15t-0.11-0.2l-0.07-0.14-0.04-0.05-0.02-0.05 0.02-0.05-0.03-0.03-0.01-0.05v-0.27q0.01-0.03 0-0.07l0.01-0.08 0.04-0.16 0.03-0.07q0-0.04 0.02-0.07l0.03-0.07q0-0.04 0.03-0.08v-0.06l0.05-0.1q0.02-0.04 0-0.08l0.05-0.05 0.03-0.05 0.02-0.05 0.04-0.06q0.02-0.05 0.06-0.09l0.04-0.05 0.03-0.03q0.02-0.04 0.01-0.07v-0.05l0.02-0.03 0.03-0.02 0.04-0.02 0.1-0.06q0.06-0.04 0.11-0.05 0.06-0.04 0.12-0.05l0.12-0.04h0.25q0.07 0.03 0.14 0.03h0.21l0.07-0.01 0.1 0.08q0.02 0 0.03 0.02l0.05 0.02q0.09 0 0.15 0.05l0.14 0.1v0.08q0 0.03 0.05 0.05l0.04 0.01 0.05 0.01 0.03 0.06 0.04 0.06 0.05 0.05 0.08 0.12 0.04 0.04q0.02 0.02 0.02 0.05l0.04 0.09q0.03 0.04 0.04 0.09l0.02 0.04 0.03 0.04 0.02 0.12zm-0.88 0.22q0.01-0.04 0-0.07-0.03-0.04-0.02-0.08l-0.02-0.03v-0.11l-0.08-0.13-0.08-0.11q0-0.02-0.02-0.02l-0.02-0.02q-0.1 0-0.23-0.06-0.08-0.04-0.18 0h-0.02l-0.02 0.02h-0.04q-0.1-0.02-0.13 0.08l-0.03 0.05-0.02 0.06-0.06 0.1-0.04 0.07-0.05 0.07q0 0.07-0.03 0.13l-0.02 0.12 0.03 0.07 0.03 0.06q0.04 0.08 0.04 0.15v0.03l0.02 0.02 0.2 0.06 0.1 0.02 0.08-0.01h0.12l0.1-0.02 0.09-0.07 0.1-0.06q0.04-0.1 0.1-0.16 0.07-0.07 0.1-0.16m3.83-1.31q-0.03 0.11-0.03 0.23l-0.02 0.23v0.45l-0.02 0.2-0.01 0.19-0.01 0.05v0.06q0 0.1-0.03 0.17l-0.01 0.16-0.01 0.1-0.03 0.1v0.09q0 0.05-0.03 0.1l-0.02 0.09-0.03 0.08-0.05 0.08-0.04 0.08q-0.06 0.03-0.1 0.08l-0.12 0.1-0.11 0.11q-0.08 0.07-0.15 0.07h-0.04q-0.12 0.02-0.2 0.08l-0.03 0.03q-0.08 0.01-0.17-0.01l-0.15-0.07h-0.21q-0.17-0.05-0.32-0.15l-0.05-0.03-0.05-0.01-0.08-0.02-0.07-0.02q-0.04-0.02-0.05-0.05l-0.04-0.07-0.06-0.1-0.05-0.13-0.12-0.2v-0.02 0.02l-0.03-0.01-0.05-0.05-0.02-0.06q0.02-0.04 0.02-0.1l-0.01-0.14q-0.03-0.1-0.03-0.19l0.02-0.2 0.02-0.07q0.05-0.11 0.05-0.2 0.06-0.08 0.1-0.18l0.09-0.19 0.05-0.02q0.02-0.02 0.05-0.02l0.02-0.03q0-0.02 0.02-0.03 0.02-0.02 0.05-0.02 0.02-0.02 0.05-0.02l0.02-0.04 0.03-0.04 0.02-0.02q0.15-0.05 0.3-0.07h0.05l0.06-0.02q0.08-0.03 0.16-0.02h0.21l0.05 0.02 0.05 0.01h0.03q0.07-0.01 0.1 0.02l0.02 0.02h0.1q0.06-0.01 0.07-0.05v-0.04l-0.02-0.02v-0.63q0.02-0.03 0-0.05l-0.02-0.1 0.02-0.1 0.03-0.14v-0.18l0.02-0.12q0-0.07 0.02-0.12t0.07-0.05l0.08-0.05h0.18q0.1 0.01 0.18-0.01l0.080001 0.03h0.08q0.06 0.06 0.06 0.14v0.14q0 0.03 0.02 0.05l0.02 0.05-0.02 0.04v0.1l0.02 0.07v0.51zm-0.91 1.58-0.03-0.1q0-0.05-0.02-0.08l-0.05-0.09q-0.03-0.03-0.04-0.08-0.07-0.03-0.1-0.06l-0.06-0.02-0.06-0.01-0.05-0.02-0.04-0.02-0.09 0.04-0.07 0.04q-0.1 0.04-0.14 0.16v0.05l-0.01 0.06-0.03 0.03-0.02 0.05v0.12q0 0.08 0.04 0.15t0.12 0.12q0.02 0 0.03 0.03l0.04 0.02q0.04 0.04 0.08 0.04l0.2-0.02q0.09-0.01 0.17-0.05l0.06-0.06 0.06-0.1v-0.2m3.85-1.09q0.02 0.04 0.01 0.08l-0.01 0.07q-0.02 0.04-0.02 0.1v0.43l-0.02 0.1-0.06 0.2-0.05 0.23v0.03l-0.02 0.05-0.11 0.26-0.12 0.14-0.05 0.03-0.05 0.02q-0.02 0-0.02 0.03l0.02 0.03q0 0.02 0.02 0.03-0.05 0.08-0.16 0.15l-0.06 0.01-0.07 0.02q-0.06 0.03-0.14 0.1l-0.02 0.03-0.02 0.04q-0.05 0.02-0.1 0.01h-0.08l-0.04 0.01-0.06 0.04-0.02 0.02q-0.08 0.03-0.15 0.02h-0.16l-0.06-0.02-0.07-0.03v-0.02l0.02-0.03q-0.02-0.05-0.06-0.05l-0.09-0.03h-0.08q-0.04 0-0.04-0.06-0.02-0.06-0.05-0.06h-0.02q-0.05 0.02-0.09 0-0.04-0.01-0.07-0.04t-0.04-0.07l-0.02-0.09q-0.02-0.03-0.06-0.05l-0.07-0.05-0.08-0.17-0.07-0.17-0.02-0.07 0.01-0.07-0.02-0.03-0.01-0.03q-0.04-0.12-0.06-0.25 0-0.12 0.03-0.25l-0.02-0.04q0-0.02-0.02-0.03-0.01-0.03 0-0.07l0.02-0.05v-0.15q0.02-0.03 0.01-0.06v-0.04l0.03-0.15 0.01-0.14q0-0.14 0.04-0.27l0.03-0.09 0.05-0.07 0.04-0.02 0.03-0.02h0.08l0.1-0.02 0.07 0.01h0.09l0.08 0.02h0.1l0.01 0.04 0.01 0.02v0.21l0.03 0.04-0.02 0.05q0 0.04-0.02 0.07l0.02 0.2 0.01 0.22 0.02 0.14 0.02 0.13 0.01 0.09 0.03 0.09 0.02 0.08 0.03 0.1q0.03 0.1 0.09 0.18l0.06 0.05h0.02l0.03 0.01q0.05 0 0.07-0.02t0.06-0.03q0.07-0.04 0.13-0.05h0.11l0.1-0.06q0.03-0.05 0.04-0.11 0.01-0.07 0.06-0.1l0.05-0.11 0.06-0.08 0.02-0.16 0.03-0.15v-0.43l0.01-0.1v-0.1q0.02-0.1 0.1-0.14l0.08-0.04h0.05l0.07-0.01 0.06 0.01 0.07 0.03h0.07l0.08-0.02 0.04 0.01 0.04 0.02 0.02 0.02v0.02l0.02 0.07v0.22zm2.02 1.8q0 0.06-0.05 0.1t-0.03 0.11l0.01 0.1v0.1l-0.01 0.03-0.02 0.02-0.03 0.02h-0.24q-0.08-0.02-0.17-0.02l-0.16-0.02h-0.19l-0.12-0.06-0.13-0.07q-0.04-0.07-0.1-0.1-0.07-0.06-0.12-0.13l-0.06-0.12q-0.07-0.1-0.09-0.2 0-0.05-0.03-0.08-0.05-0.1-0.02-0.17v-0.05l-0.03-0.05-0.03-0.04v-0.06l-0.04-0.07 0.02-0.13 0.02-0.14-0.04-0.06q0-0.03 0.02-0.04l0.03-0.05 0.03-0.13 0.02-0.14v-0.54q0.04-0.14 0.03-0.28l0.02-0.26v-0.04q-0.02-0.07 0-0.14l0.04-0.12v-0.04q0-0.02-0.02-0.03l0.04-0.07 0.05-0.05 0.01-0.05 0.02-0.06 0.05-0.04q0.05-0.02 0.12 0h0.03l0.05 0.03 0.08 0.05h0.1l0.13 0.04h0.16q0.04 0 0.07 0.03 0.02 0.03 0 0.06l-0.02 0.38-0.03 0.18-0.03 0.17-0.02 0.28-0.02 0.26v0.06l-0.04 0.12-0.03 0.13q-0.02 0.05 0 0.11 0.02 0.07 0.01 0.15l-0.01 0.16v0.03l0.02 0.06 0.03 0.06v0.05l-0.02 0.03 0.02 0.14 0.05 0.06q0.03 0.03 0.04 0.07v0.03q0 0.02 0.03 0.03 0 0.03 0.03 0.05l0.06 0.03 0.08 0.02 0.08 0.03h0.04l0.04-0.01 0.03 0.01 0.04 0.01 0.02 0.02v0.02q0.02 0.05 0.08 0.1l0.05 0.06q0.03 0.02 0.05 0.06m3.36 0.2q0.02 0.04 0 0.08l-0.02 0.08-0.02 0.02-0.03 0.01-0.05 0.01-0.04 0.01q-0.1 0.02-0.11 0.1 0 0.02-0.03 0.04h-0.06l-0.07 0.05-0.1 0.01-0.07 0.05h-0.02l-0.02 0.01q-0.03 0.01-0.06-0.01t-0.03-0.05v-0.04h-0.06q-0.03 0.01-0.05-0.02v-0.1l-0.04-0.02-0.03-0.02-0.12-0.2-0.04-0.02-0.03 0.02-0.06 0.09q0 0.02-0.02 0.03l-0.16 0.07-0.16 0.04q-0.04 0.04-0.09 0.06l-0.08 0.05q-0.04 0-0.07 0.02l-0.07 0.02q-0.04-0.02-0.08-0.01l-0.08 0.02-0.12-0.03-0.13-0.02h-0.07l-0.08-0.04h-0.06l-0.05 0.03-0.07-0.02h-0.08l-0.05-0.06-0.03-0.07-0.02-0.01-0.02-0.02-0.06-0.15q-0.08-0.2-0.12-0.42l-0.02-0.02-0.03-0.04-0.02-0.1-0.01-0.12v-0.07q0-0.07-0.02-0.12l0.05-0.15q0.04-0.07 0.02-0.15l0.03-0.05 0.04-0.04q0.05-0.06 0.08-0.14 0.02-0.07 0.06-0.12l0.1-0.08 0.14-0.07 0.13-0.06h0.07q0.11-0.02 0.2-0.01h0.14l0.13-0.03 0.07 0.02 0.08-0.01h0.03l0.06 0.04h0.06q0.07 0.02 0.08-0.02l-0.01-0.13-0.04-0.1-0.03-0.08v-0.08l-0.02-0.04q0-0.03-0.03-0.05-0.08-0.03-0.2-0.04h-0.03l-0.12 0.02q-0.07 0-0.13 0.02l-0.1 0.02-0.1 0.03q-0.04 0.03-0.1-0.02l-0.01-0.12 0.01-0.12-0.03-0.1q-0.02-0.06-0.02-0.14v-0.05l-0.04-0.04q-0.02-0.02 0-0.04v-0.02l0.1-0.02 0.1-0.01 0.07-0.07 0.03-0.01 0.2 0.02q0.07 0 0.21-0.05 0.07 0 0.13 0.02h0.14l0.04 0.04 0.05 0.03 0.12-0.04 0.08 0.05h0.05q0.02-0.03 0.05-0.03 0.05 0 0.09 0.06 0.03 0.04 0.08 0.07l0.17 0.17q0.02 0.02 0.01 0.04l0.06 0.04 0.04 0.04 0.07 0.04q0.03 0.01 0.05 0.04l0.03 0.07 0.04 0.06 0.04 0.13q0.02 0.06 0 0.13v0.06l0.04 0.14v0.1l0.03 0.06q0 0.04-0.03 0.07l-0.03 0.01-0.04 0.02q-0.07 0.04-0.01 0.11l0.01 0.03q0.02 0 0.03 0.03v0.05l0.01 0.06q-0.02 0.12-0.1 0.23l0.07 0.16 0.07 0.17 0.05 0.04 0.04 0.03 0.01 0.03v0.02l0.02 0.12 0.04 0.12 0.05 0.1 0.07 0.1 0.05 0.08zm-1.37-0.84q-0.04-0.1-0.1-0.13-0.07-0.03-0.09-0.08 0-0.03-0.02-0.03l-0.04-0.01h-0.2l-0.06-0.02q-0.06 0-0.1 0.03l-0.05 0.04q-0.02 0-0.04 0.03l-0.08 0.15 0.03 0.07q0.02 0.03 0 0.08l0.03 0.12 0.05 0.1q0 0.02 0.02 0.02l0.13 0.01h0.17q0.07-0.05 0.17-0.08 0.04 0 0.07-0.05l0.05-0.12q0.02-0.07 0.06-0.13m-1.33 1.02v0.02m5.25-2.51q0.01 0.1-0.03 0.14l-0.05 0.08v0.1l-0.03 0.03-0.02 0.04-0.05 0.06-0.04 0.06-0.04 0.12-0.01 0.02v0.01h-0.03v0.01h-0.04q-0.14-0.05-0.27 0h-0.12l-0.03 0.01-0.13 0.09-0.1 0.1-0.06 0.16q-0.03 0.07-0.03 0.17v0.02l-0.02 0.03-0.02 0.04-0.01 0.04-0.04 0.07-0.03 0.08q0.02 0.04 0 0.08l-0.02 0.08q0.02 0.05 0 0.1l-0.01 0.1q-0.02 0.05-0.02 0.12v0.59l-0.04 0.05q-0.04 0.07-0.1 0.1-0.07 0.03-0.14 0.02l-0.11-0.01-0.1-0.02-0.06-0.01-0.07-0.02h-0.05l-0.03 0.02q-0.08-0.03-0.15-0.1v-0.09l0.01-0.08v-0.05q0-0.03-0.02-0.05l-0.01-0.1v-0.08l-0.04-0.22 0.02-0.03 0.02-0.08v-0.03l0.01-0.02v-0.03l-0.02-0.04v-0.21l0.02-0.05q0.01-0.03 0-0.07 0-0.03-0.03-0.06l-0.01-0.01-0.01-0.02-0.02-0.07v-0.07l-0.03-0.08v-0.23l0.02-0.15-0.01-0.03v-0.03l-0.01-0.14 0.02-0.13 0.01-0.06v-0.16q0.01-0.06 0.04-0.11l-0.02-0.07 0.02-0.06 0.01-0.07 0.02-0.06 0.02-0.05q0.03-0.04 0.06-0.03 0.07 0.02 0.13 0 0.07-0.02 0.13 0l0.04-0.02 0.04-0.01q0.1-0.04 0.17 0 0.05 0.08 0.05 0.11l0.01 0.19q0.02 0.07 0.07 0.13l0.04 0.02q0.03 0 0.04-0.02l0.05-0.03 0.17-0.17 0.13-0.06 0.15-0.06h0.17l0.02-0.01q0.08 0.03 0.13 0.01 0.1-0.03 0.2 0.03l0.1 0.05q0.06 0.02 0.11 0.06l0.05 0.05zm2.84 0.97q0 0.08-0.05 0.13-0.03 0.07-0.06 0.1-0.1 0.05-0.17 0.12t-0.19 0.08h-0.04q-0.03 0-0.05 0.02l-0.14-0.02-0.16-0.01q-0.06 0-0.1-0.04t-0.05-0.07l-0.06-0.14-0.08-0.24v-0.26l0.04-0.05 0.04-0.06 0.02-0.05 0.02-0.06 0.08-0.07 0.06-0.08q0.1-0.07 0.22-0.08h0.24l0.07 0.06 0.08 0.05 0.05 0.07 0.06 0.06q0.05 0.05 0.07 0.1l0.05 0.11 0.05 0.13zm2.78-1.68q0.02 0.05 0.01 0.1l-0.02 0.09-0.02 0.07-0.03 0.06-0.06 0.07-0.05 0.07q-0.02 0-0.03 0.02l-0.03 0.03-0.14 0.06-0.15 0.02h-0.12l-0.07-0.02-0.05-0.02-0.03-0.03h-0.13l-0.06-0.04-0.07-0.03-0.03-0.11 0.01-0.11-0.01-0.12q-0.02-0.02 0-0.04 0.02-0.04 0-0.08-0.02-0.05 0-0.1v-0.03q-0.02-0.04 0-0.07l0.03-0.06v-0.08l0.02-0.03q0.05 0 0.08-0.04 0.04-0.04 0.09-0.06l0.09-0.06 0.1-0.05h0.1l0.07 0.01h0.09q0.1 0 0.14 0.08 0.01 0.03 0.04 0.04l0.06 0.01q0.06 0.06 0.08 0.15l0.03 0.07 0.04 0.16zm-0.04 1.44-0.01 0.1v0.27l-0.05 0.06q0.03 0.03 0.04 0.07v0.27q0 0.04-0.03 0.1l-0.03 0.1v0.31l-0.01 0.25q-0.02 0.11-0.08 0.22l0.04 0.2-0.01 0.03q-0.03 0.05-0.08 0.08h-0.03l-0.15 0.01h-0.15l-0.06-0.04-0.06-0.03h-0.06l-0.06-0.01-0.1-0.12-0.1-0.04q-0.04-0.03-0.03-0.1l0.03-0.12q0.02-0.08 0-0.15l-0.03-0.1v-0.79q0.04-0.05 0.04-0.09v-0.52l0.01-0.06v-0.08l0.09-0.04 0.08-0.01h0.05l0.06-0.01 0.1-0.02q0.04 0 0.05 0.02l0.05 0.03 0.1-0.02q0.04-0.01 0.07 0 0.03 0.02 0.05 0.07l0.02 0.02 0.05 0.03q0.04 0 0.07-0.02l0.06-0.03q0.04 0 0.05 0.03 0.02 0.05 0.02 0.13m2.35-0.63q-0.01 0.08-0.07 0.14l-0.04 0.06-0.04 0.03-0.04 0.05-0.02 0.05q-0.04 0.06-0.11 0.01-0.04-0.02-0.05-0.05h-0.08l-0.02-0.01q-0.03-0.01-0.04-0.04t-0.04-0.05l-0.2-0.06q-0.08-0.02-0.18 0.01l-0.09 0.12-0.04 0.12 0.01 0.09 0.03 0.08q0.04 0.05 0.09 0.07h0.05l0.05 0.01 0.04 0.04 0.04 0.03q0.04 0.02 0.08 0.07l0.18 0.1 0.09 0.04q0.03 0 0.06 0.03l0.06 0.06 0.04 0.07 0.06 0.08 0.03 0.15q0.02 0.07 0.02 0.15v0.11l0.02 0.1v0.16l-0.04 0.08-0.03 0.1q-0.02 0.09-0.07 0.17l-0.05 0.06-0.06 0.06-0.04 0.03q-0.02 0.01-0.02 0.04-0.06 0.03-0.1 0.08l-0.07 0.11-0.09 0.01-0.1 0.03-0.07 0.02-0.07 0.03h-0.13q-0.06-0.03-0.13-0.03-0.06 0-0.13 0.03-0.06 0.01-0.09-0.01-0.04-0.04-0.09-0.06l-0.09-0.01q-0.06-0.07-0.13-0.12-0.07-0.06-0.12-0.13l-0.01-0.04v-0.21q0.02-0.1 0.07-0.17l0.1-0.17 0.06 0.02 0.07 0.01 0.07 0.05 0.1 0.04q0.05 0.03 0.08 0.02h0.04l0.05 0.02q0.07 0.03 0.14-0.02l0.06-0.04q0.03-0.02 0.05-0.06v-0.21l-0.01-0.04-0.02-0.04-0.08-0.07-0.04-0.06q-0.01-0.04-0.05-0.06l-0.15-0.04-0.06-0.05-0.05-0.04-0.02-0.02-0.03-0.01-0.05-0.02-0.06-0.01q-0.03-0.04-0.1-0.06l-0.05-0.09q0-0.04-0.04-0.08l-0.05-0.07q-0.02-0.04-0.06-0.07l-0.03-0.14-0.03-0.15q-0.04-0.09-0.01-0.18l0.02-0.12 0.05-0.12 0.1-0.2q0.05-0.1 0.15-0.19l0.21-0.17 0.06-0.02 0.05-0.02 0.12-0.04q0.03-0.02 0.08-0.02l0.14-0.01h0.01q0.1-0.03 0.17-0.02 0.1 0.01 0.17 0.04h0.07l0.1 0.08 0.09 0.08 0.07 0.04 0.07 0.03q0.06 0.05 0.1 0.11l0.1 0.12 0.02 0.09zm3.1 0.83q0.01 0.07-0.01 0.14l-0.02 0.06v0.1q-0.03 0.05-0.03 0.1l0.02 0.11-0.07 0.09v0.08l-0.03 0.03-0.05 0.04q0 0.04-0.03 0.1l-0.04 0.09v0.06q-0.02 0.03-0.06 0.04t-0.06 0.06l-0.05 0.03-0.06 0.03h-0.05q-0.1 0-0.1 0.1l-0.14 0.1-0.13 0.1q-0.1 0.07-0.27 0.1l-0.1 0.03-0.11 0.04-0.04-0.01h-0.03l-0.15-0.01h-0.05l-0.05 0.01-0.09-0.01-0.09-0.02-0.1-0.05-0.1-0.06q-0.04-0.01-0.07-0.04t-0.05-0.06q0-0.02-0.02-0.02 0-0.02-0.02-0.03l-0.03-0.02q-0.02 0-0.04-0.03-0.1-0.07-0.18-0.15t-0.12-0.2l-0.07-0.14-0.06-0.1 0.02-0.05-0.02-0.03-0.02-0.05v-0.09q0.02-0.04 0.01-0.08v-0.25l0.03-0.09 0.01-0.07 0.03-0.07 0.02-0.07 0.03-0.07 0.04-0.08v-0.06l0.04-0.1v-0.08l0.05-0.05 0.06-0.1 0.03-0.06q0.02-0.05 0.06-0.09l0.08-0.08q0.02-0.04 0-0.07v-0.05l0.02-0.03 0.03-0.02 0.04-0.02 0.1-0.06q0.06-0.04 0.12-0.05 0.06-0.04 0.11-0.05l0.13-0.04h0.25q0.07 0.03 0.14 0.03h0.2l0.07-0.01 0.05 0.04q0.03 0.01 0.05 0.04l0.08 0.04q0.09 0 0.16 0.05l0.14 0.1v0.08q0 0.03 0.04 0.05l0.04 0.01 0.05 0.01 0.08 0.12 0.05 0.05 0.06 0.09 0.01 0.03 0.04 0.04 0.03 0.05 0.03 0.09q0.03 0.04 0.04 0.09l0.02 0.04 0.04 0.04 0.02 0.12zm-0.88 0.22-0.01-0.07-0.02-0.08-0.02-0.03v-0.11l-0.08-0.13q-0.03-0.06-0.08-0.11l-0.01-0.02-0.03-0.02q-0.1 0-0.23-0.06-0.07-0.04-0.18 0h-0.02l-0.02 0.02h-0.03q-0.1-0.02-0.13 0.08l-0.03 0.05-0.02 0.06-0.02 0.05-0.04 0.05-0.08 0.14q0 0.06-0.03 0.13l-0.03 0.12 0.04 0.07 0.03 0.06q0.04 0.08 0.03 0.15v0.01l0.02 0.02 0.1 0.03 0.11 0.03 0.09 0.02 0.09-0.01h0.11l0.1-0.02 0.1-0.07q0.04-0.04 0.1-0.06 0.04-0.1 0.1-0.16 0.06-0.07 0.09-0.16m5.42 0.32-0.02 0.11v0.21q0 0.05-0.03 0.09v0.21l-0.02 0.06-0.01 0.1-0.02 0.1-0.02 0.06-0.03 0.05-0.04 0.04q-0.04 0.04-0.09 0.02l-0.06-0.01q-0.03-0.01-0.06 0.01l-0.1-0.05h-0.16l-0.03 0.02h-0.05q-0.07-0.07-0.07-0.15t-0.03-0.13l-0.03-0.14v-0.1l0.01-0.12v-0.06q0-0.04 0.02-0.07l0.02-0.17v-0.05l-0.02-0.12q-0.01-0.06-0.05-0.12 0-0.02-0.03-0.04 0-0.03-0.04-0.03l-0.06-0.04q-0.03 0-0.05-0.02l-0.08 0.02h-0.03l-0.03-0.02h-0.02l-0.01 0.01q-0.04 0.06-0.1 0.1-0.02 0-0.05 0.03l-0.05 0.03q-0.01 0.02-0.05 0.03l-0.05 0.02-0.01 0.04-0.02 0.03q0 0.02-0.02 0.03v0.04q-0.04 0.08-0.05 0.16v0.1l-0.03 0.04-0.02 0.22v0.27l-0.03 0.08-0.02 0.08-0.13-0.02h-0.37l-0.08-0.01q-0.07 0-0.1-0.05l-0.04-0.15-0.02-0.17v-0.05l0.02-0.04 0.01-0.09v-0.26q0.02-0.1 0.01-0.18v-0.08l-0.02-0.06q-0.02-0.03 0-0.05v-0.13l-0.08-0.08h-0.04l-0.05-0.02-0.12-0.06-0.06-0.02-0.04-0.02-0.1 0.05-0.05 0.01h-0.04l-0.14 0.14-0.03 0.05-0.02 0.06-0.07 0.18-0.01 0.2v0.2l-0.02 0.22q0 0.1-0.03 0.2 0 0.05-0.02 0.08l-0.03 0.1-0.07 0.07-0.08 0.05h-0.12l-0.12 0.03-0.1 0.02h-0.05l-0.09-0.02-0.06-0.08-0.07-0.1 0.02-0.06q0.02-0.08 0-0.16l-0.03-0.15-0.03-0.14q0-0.05 0.02-0.08l0.03-0.08 0.01-0.1 0.02-0.12v-0.28q-0.02-0.13 0.01-0.25l0.02-0.05 0.01-0.04 0.05-0.05q0.03 0 0.06-0.03 0.03-0.06 0-0.12l-0.01-0.12 0.03-0.06 0.01-0.07 0.1-0.11 0.07-0.1q0.02-0.02 0.02-0.05t0.02-0.04l0.03-0.01 0.02-0.01 0.42-0.14q0.11-0.05 0.23-0.05h0.05q0.08-0.04 0.16-0.04l0.18-0.01h0.07q0.04 0 0.07 0.02 0.03 0 0.07 0.03l0.09 0.05 0.1 0.02 0.04 0.03 0.04 0.02 0.1 0.12 0.04 0.12 0.05 0.05q0.02 0.02 0.07 0.02l0.12-0.12h0.05l0.16-0.1 0.02-0.05q0.02-0.02 0.02-0.05h0.07l0.06-0.02 0.08-0.03 0.08-0.05h0.13l0.1 0.02q0.08 0.03 0.17 0.03l0.16 0.01q0.01 0.02 0.05 0.02l0.14 0.13v0.02q0.07 0.17 0.2 0.24v0.03l0.02 0.03q0.03 0.04 0.08 0.04 0.07 0.01 0.07 0.07l0.01 0.15 0.05 0.14 0.05 0.16v0.26l0.02 0.04q0.02 0.08 0 0.18m3.1-0.54q0.03 0.07 0 0.14l-0.02 0.06v0.1l-0.02 0.1v0.11l-0.05 0.09v0.08l-0.03 0.03-0.05 0.04-0.04 0.1-0.03 0.09v0.06q-0.03 0.03-0.07 0.04t-0.06 0.06l-0.05 0.03-0.06 0.03h-0.05q-0.1 0-0.1 0.1l-0.13 0.1q-0.07 0.04-0.13 0.1-0.11 0.07-0.28 0.1l-0.1 0.03-0.11 0.04-0.03-0.01h-0.04l-0.15-0.01h-0.05l-0.05 0.01-0.08-0.01-0.1-0.02-0.1-0.05-0.1-0.06q-0.04-0.01-0.07-0.04l-0.05-0.06q0-0.02-0.02-0.02l-0.01-0.03-0.04-0.02q-0.02 0-0.04-0.03-0.1-0.07-0.18-0.15t-0.11-0.2q-0.03-0.08-0.08-0.14l-0.03-0.05-0.02-0.05 0.01-0.05q0-0.02-0.02-0.03t-0.01-0.05l-0.01-0.04v-0.05q0.02-0.04 0.01-0.08v-0.25l0.03-0.09 0.02-0.07q0-0.04 0.02-0.07l0.03-0.07q0-0.04 0.02-0.07t0.04-0.08v-0.06l0.04-0.1v-0.08l0.05-0.05 0.06-0.1 0.04-0.06 0.05-0.09 0.08-0.08q0.02-0.04 0.01-0.07v-0.05l0.01-0.03 0.03-0.02 0.04-0.02 0.1-0.06 0.12-0.05q0.06-0.04 0.11-0.05l0.13-0.04h0.25q0.07 0.03 0.14 0.03h0.2l0.07-0.01 0.05 0.04q0.03 0.01 0.05 0.04l0.08 0.04q0.1 0 0.16 0.05l0.14 0.1v0.08q0 0.03 0.04 0.05l0.1 0.02q0 0.03 0.03 0.06l0.04 0.06 0.05 0.05 0.08 0.12 0.03 0.04 0.03 0.05 0.04 0.09 0.03 0.09 0.02 0.04 0.04 0.04 0.02 0.12zm-0.87 0.22-0.01-0.07q-0.02-0.04-0.01-0.08l-0.02-0.03-0.01-0.05v-0.06l-0.07-0.13-0.09-0.11v-0.02q-0.02 0-0.03-0.02-0.11 0-0.24-0.06-0.07-0.04-0.18 0h-0.02l-0.01 0.02h-0.04q-0.1-0.02-0.13 0.08l-0.03 0.05-0.02 0.06-0.02 0.05-0.03 0.05-0.05 0.07-0.04 0.07q0 0.06-0.03 0.13l-0.03 0.12 0.04 0.07 0.03 0.06q0.04 0.08 0.03 0.15v0.03l0.02 0.02 0.1 0.03 0.11 0.03 0.1 0.02 0.08-0.01h0.12l0.1-0.02 0.09-0.07 0.1-0.06q0.04-0.1 0.1-0.16 0.07-0.07 0.1-0.16m3.44-1.15q0 0.1-0.04 0.14l-0.04 0.08-0.01 0.1-0.03 0.03-0.02 0.04-0.05 0.06-0.03 0.06q-0.02 0.02-0.02 0.06l-0.02 0.06-0.01 0.02h-0.01q0 0.02-0.02 0.02h-0.04q-0.14-0.05-0.27 0h-0.13l-0.02 0.01q-0.08 0.04-0.13 0.09l-0.11 0.1-0.06 0.16q-0.02 0.07-0.02 0.17v0.02l-0.02 0.03-0.04 0.08-0.03 0.07-0.03 0.08v0.08l-0.02 0.08v0.1l-0.02 0.1q-0.02 0.05-0.02 0.12l0.01 0.1v0.39l-0.01 0.1-0.03 0.05q-0.05 0.07-0.11 0.1t-0.14 0.02l-0.1-0.01-0.1-0.02-0.07-0.01-0.07-0.02h-0.04l-0.03 0.02q-0.08-0.03-0.15-0.1v-0.09l0.01-0.08-0.02-0.1-0.02-0.08q-0.02-0.04 0-0.08l-0.05-0.22q0.02-0.01 0.02-0.03l0.02-0.04v-0.04l0.01-0.03 0.01-0.02v-0.03l-0.02-0.04v-0.21l0.01-0.05q0.02-0.03 0.01-0.07 0-0.03-0.03-0.06l-0.03-0.03v-0.07q0-0.04-0.02-0.07l-0.02-0.08v-0.23l0.01-0.15v-0.06l-0.02-0.14q0-0.06 0.03-0.13l0.01-0.06v-0.16q0-0.07 0.03-0.12l-0.02-0.06 0.02-0.06 0.02-0.07 0.02-0.06 0.01-0.05q0.04-0.04 0.07-0.03 0.06 0.02 0.13 0 0.06-0.02 0.13 0l0.04-0.02 0.03-0.01q0.1-0.04 0.18 0l0.05 0.11 0.01 0.19q0.02 0.06 0.07 0.13l0.04 0.02q0.03 0 0.04-0.02l0.04-0.03 0.04-0.04 0.07-0.06 0.06-0.07 0.13-0.06 0.16-0.06h0.17l0.02-0.01q0.07 0.03 0.13 0.01 0.1-0.03 0.2 0.03l0.1 0.05 0.1 0.06 0.05 0.05zm3.07 1.24v0.04l-0.05 0.09q0 0.03-0.03 0.08-0.03 0.09-0.09 0.15l-0.16 0.24-0.13 0.09-0.14 0.07q-0.04 0.01-0.05 0.03-0.04 0.04-0.08 0.05l-0.06 0.03q-0.03 0.01-0.06 0.05l-0.13 0.05-0.12 0.04h-0.04l-0.04 0.01-0.06-0.02q-0.03 0-0.06-0.03-0.06 0-0.11 0.02l-0.12 0.02-0.05-0.03-0.04-0.01-0.05-0.02q-0.02-0.02-0.05 0l-0.04 0.05-0.04 0.07v0.1l0.02 0.1-0.01 0.07q-0.03 0.07-0.01 0.15 0.03 0.08 0.02 0.16v0.18q-0.03 0.06-0.03 0.13v0.14l-0.01 0.03q-0.05 0.07-0.13 0.07h-0.14q-0.07 0-0.14-0.03h-0.21q-0.06 0-0.12-0.03l-0.06-0.02h-0.07v-0.02h-0.01l-0.04-0.1-0.01-0.1-0.04-0.12 0.02-0.1 0.03-0.09-0.01-0.09v-0.07l-0.01-0.08-0.02-0.08 0.03-0.05 0.02-0.05v-0.09q-0.02-0.03-0.02-0.1l0.02-0.05 0.03-0.06q-0.02-0.07-0.02-0.24l-0.02-0.32 0.01-0.2v-0.17l0.04-0.16 0.01-0.05 0.03-0.05 0.02-0.12 0.03-0.1 0.03-0.13q0-0.04 0.02-0.07l0.09-0.12q0.06-0.08 0.11-0.2v-0.02l0.03-0.05 0.02-0.02v-0.01l0.05-0.09q0.06-0.12 0.18-0.17l0.08-0.04 0.1-0.06 0.17-0.05 0.19-0.06h0.09l0.08-0.01h0.14l0.1 0.02q0.06 0 0.1 0.04l0.06 0.01h0.15l0.1 0.02 0.07 0.04 0.08 0.03 0.09 0.09q0.09 0.06 0.15 0.15 0.07 0.07 0.13 0.16 0.03 0.06 0.07 0.08l0.03 0.04 0.04 0.05v0.2l0.03 0.06v0.22q0.03 0.09 0 0.16-0.01 0.04 0.01 0.07zm-0.82-0.24q0-0.1-0.04-0.18-0.03-0.1-0.1-0.17l-0.11-0.1-0.12-0.08q-0.11-0.02-0.2 0-0.03 0.03-0.1 0.04-0.06 0-0.08 0.03l-0.07 0.11-0.06 0.07q-0.04 0.08-0.05 0.18l0.01 0.17 0.03 0.12 0.02 0.1q0 0.03 0.02 0.04l0.01 0.05 0.03 0.06q0.01 0.03 0.04 0.05 0.03 0 0.08 0.03l0.04 0.01h0.14l0.08 0.02q0.06 0.03 0.15 0l0.04-0.03q0.03 0 0.04-0.03 0.04 0 0.04-0.04 0-0.03 0.02-0.05 0.08-0.1 0.1-0.2 0.04-0.1 0.04-0.2m3.73 0.61q-0.03 0.08-0.02 0.16v0.35q-0.02 0.03-0.02 0.07l0.01 0.08v0.06q-0.02 0.04-0.02 0.09l-0.02 0.09v0.02q0 0.05-0.05 0.05h-0.03q-0.05-0.03-0.08-0.02l-0.06 0.03-0.08 0.08q-0.07 0.04-0.13 0.02-0.05-0.01-0.12-0.05h-0.09l-0.1-0.08q-0.05-0.05-0.03-0.1l0.01-0.04v-0.05l-0.01-0.06v-0.13l0.02-0.06-0.08-0.2q0-0.06-0.02-0.1v-0.11l-0.02-0.1v-0.13q0-0.07-0.06-0.12l-0.07-0.1-0.06-0.1-0.08-0.03-0.01-0.03-0.03-0.03v-0.02l-0.04-0.04h-0.06l-0.05 0.01-0.04 0.01h-0.05l-0.05 0.04-0.04 0.02-0.04 0.04-0.05 0.01q-0.03 0.06 0 0.11v0.13l0.02 0.14-0.01 0.14v0.05l-0.01 0.04-0.02 0.2q-0.01 0.1-0.05 0.2l0.02 0.12v0.26q0 0.08-0.08 0.1h-0.25q-0.06 0.01-0.11 0.04l-0.05 0.02-0.05 0.03-0.05 0.04h-0.04l-0.12-0.05q-0.06-0.08-0.08-0.17 0-0.1-0.04-0.18l0.01-0.07q0.02-0.03 0-0.07v-0.13q-0.02-0.12 0-0.2 0.02-0.06 0-0.12l-0.02-0.23q0.02-0.1 0-0.2-0.02-0.02 0-0.05v-0.07l0.01-0.06q0-0.02 0.03-0.04l0.03-0.03 0.02-0.11-0.02-0.06q-0.01-0.02-0.02 0h-0.03v-0.38l-0.01-0.05v-0.07l0.02-0.06 0.02-0.07q-0.03-0.05-0.03-0.1v-0.17l0.02-0.06q-0.03-0.05-0.02-0.12v-0.8q0.02-0.01 0.02-0.05v-0.05l-0.02-0.05v-0.04q0.03-0.04 0.02-0.07 0-0.05 0.03-0.09v-0.01l0.02-0.01h0.01l0.06-0.03 0.06-0.02 0.08 0.06h0.1l0.03-0.02 0.02-0.02 0.06-0.04 0.05-0.01 0.05 0.01 0.1 0.06q0.06 0.03 0.12 0.03l0.08 0.2 0.06 0.14q0 0.03-0.03 0.05-0.02 0.01-0.02 0.05v0.04l0.01 0.06v0.3l-0.02 0.2v0.08q0 0.07 0.03 0.13 0.03 0.02 0.05 0.06l0.04 0.05q0.04 0.04 0.08 0.04l0.18 0.02h0.24l0.05 0.02 0.05 0.01q0.07 0.01 0.06 0.08l0.02 0.01h0.04q0.08-0.04 0.14 0l0.1 0.05 0.09 0.07 0.1 0.14q0.08 0.06 0.15 0.14 0 0.02 0.03 0.04 0.02 0 0.03 0.02 0.06 0.06 0.06 0.11 0.02 0.1 0.05 0.14 0.01 0.07 0.05 0.16v0.06l0.01 0.06 0.01 0.05 0.01 0.15 0.02 0.15zm1.42-2.32v0.1l-0.01 0.09q0 0.03-0.03 0.07l-0.03 0.06-0.1 0.14-0.04 0.02-0.03 0.03q-0.04 0.03-0.13 0.06l-0.15 0.02h-0.13l-0.07-0.02-0.04-0.02-0.03-0.03h-0.13q-0.03-0.03-0.07-0.04l-0.06-0.03-0.04-0.11 0.01-0.11v-0.12q-0.03-0.02 0-0.04v-0.08q-0.03-0.05 0-0.1v-0.03q-0.02-0.04 0-0.07l0.03-0.06v-0.08q0-0.02 0.02-0.03 0.05 0 0.08-0.04l0.08-0.06 0.1-0.06 0.1-0.05h0.09l0.07 0.01h0.1q0.09 0 0.14 0.08 0 0.03 0.04 0.04l0.06 0.01q0.06 0.06 0.08 0.15l0.02 0.07 0.03 0.08 0.02 0.08q0 0.04 0.02 0.07m-0.04 1.44-0.01 0.1v0.18l-0.01 0.09-0.04 0.06q0.03 0.03 0.03 0.07v0.27l-0.02 0.1-0.03 0.1-0.01 0.15v0.41l-0.08 0.22 0.01 0.1 0.03 0.1h-0.01v0.03l-0.08 0.08h-0.04l-0.14 0.01h-0.16l-0.06-0.04-0.05-0.03h-0.06l-0.07-0.01-0.1-0.12-0.04-0.02q-0.03 0-0.05-0.02-0.05-0.03-0.03-0.1l0.03-0.12q0.02-0.08 0-0.15l-0.03-0.1v-0.79q0.03-0.05 0.03-0.09v-0.2q0.02-0.06 0-0.1v-0.1l0.01-0.12v-0.14l0.1-0.04 0.08-0.01h0.05l0.15-0.03q0.04 0 0.06 0.02l0.05 0.03 0.09-0.02q0.04-0.01 0.07 0 0.04 0.02 0.06 0.07l0.02 0.02 0.04 0.03 0.08-0.02 0.06-0.03q0.04 0 0.04 0.03zm2.9-0.67-0.06 0.1-0.02 0.12-0.1 0.09-0.06 0.1-0.05 0.09-0.05 0.08h-0.03l-0.02-0.03q0-0.03-0.02-0.03t-0.03 0.02q-0.02 0-0.03 0.03l-0.02 0.02-0.03 0.02h-0.02l-0.06-0.04-0.06-0.05-0.08-0.03q-0.04 0-0.07-0.02h-0.02l-0.03-0.04q-0.02-0.02-0.04 0-0.02 0.01-0.02 0.03v0.04h-0.06l-0.03 0.02-0.03 0.01h-0.04l-0.06-0.02q-0.06 0-0.11 0.04l-0.1 0.05q-0.04 0-0.06 0.05t-0.07 0.12l-0.1 0.12v0.03l-0.03 0.04-0.02 0.04v0.03l0.03 0.05-0.03 0.04-0.02 0.04v0.03l0.01 0.04 0.05 0.1 0.03 0.05 0.03 0.06 0.05 0.04 0.14 0.14h0.04l0.06-0.01 0.03 0.01h0.03l0.08 0.02 0.08-0.01 0.1-0.03 0.1-0.02 0.09 0.01 0.09 0.03 0.08-0.05q0.05-0.03 0.11-0.03 0.06 0.02 0.08 0.07 0.03 0.03 0.04 0.07l0.04 0.07q0 0.04 0.03 0.08l0.05 0.08 0.04 0.05 0.03 0.06q0.02 0.1-0.01 0.18l-0.09 0.06-0.08 0.08-0.03 0.05-0.03 0.04-0.05 0.02q-0.02 0-0.05 0.03l-0.08 0.02-0.1 0.06q-0.04-0.03-0.1-0.03-0.04 0.03-0.1 0.03l-0.1 0.01-0.11-0.01q-0.04-0.03-0.1-0.04l-0.08 0.04-0.13-0.04h-0.06l-0.06 0.01-0.05-0.02-0.06-0.02h-0.09l-0.06-0.04-0.05-0.04-0.05-0.03q-0.11-0.05-0.19-0.14l-0.09-0.1-0.1-0.09-0.08-0.09q0-0.08-0.05-0.15l-0.09-0.14-0.01-0.08-0.03-0.06v-0.24q0.02-0.03-0.03-0.07l0.01-0.03 0.03-0.03q0.03-0.02 0.03-0.07l-0.04-0.06 0.02-0.06 0.01-0.06v-0.11l0.05-0.06q0-0.05-0.03-0.05t-0.05-0.03l0.05-0.18 0.08-0.12v-0.14q0-0.06 0.05-0.14 0.02 0 0.04-0.03l0.03-0.03 0.04-0.12 0.08-0.05 0.08-0.06 0.02-0.02 0.05-0.02q0.03 0 0.05-0.02l0.05-0.04h0.03l0.04 0.01q0.05 0 0.09-0.04t0.08-0.07l0.15-0.03 0.15-0.05 0.08 0.02q0.05 0.02 0.09 0 0.01-0.02 0.03 0h0.13l0.13 0.01q0.1 0.01 0.15-0.04l0.01-0.01 0.01-0.02q0.02 0 0.03 0.02h0.02q0.16 0.15 0.36 0.16l0.12 0.04 0.13 0.13q0.06 0.05 0.04 0.13v0.02zm2.84 0.91q0 0.08-0.04 0.13l-0.07 0.1q-0.1 0.05-0.17 0.12t-0.18 0.08h-0.05q-0.03 0-0.05 0.02l-0.14-0.02-0.16-0.01q-0.06 0-0.1-0.04t-0.05-0.07l-0.06-0.14q-0.01-0.07-0.04-0.12l-0.04-0.12v-0.26l0.04-0.05q0.03-0.02 0.04-0.06l0.02-0.05 0.02-0.06 0.08-0.07 0.06-0.08q0.1-0.07 0.22-0.08h0.24l0.07 0.06 0.08 0.05 0.05 0.07 0.06 0.06 0.08 0.1 0.05 0.11q0 0.05 0.04 0.13zm4.46-0.04q0.02 0.07 0 0.14l-0.03 0.06v0.1l-0.02 0.1 0.01 0.11-0.06 0.09v0.08l-0.03 0.03-0.05 0.04-0.04 0.1-0.03 0.09v0.06l-0.06 0.04q-0.03 0.01-0.07 0.06l-0.1 0.06h-0.06q-0.1 0-0.1 0.1l-0.26 0.2q-0.1 0.07-0.28 0.1l-0.1 0.03-0.11 0.04-0.03-0.01h-0.03l-0.16-0.01h-0.05l-0.04 0.01-0.1-0.01-0.09-0.02-0.1-0.05-0.1-0.06-0.06-0.04q-0.04-0.03-0.05-0.06l-0.02-0.02-0.02-0.03-0.04-0.02q-0.02 0-0.04-0.03-0.1-0.07-0.18-0.15t-0.11-0.2q-0.03-0.08-0.08-0.14 0-0.03-0.03-0.05l-0.02-0.05 0.02-0.05-0.03-0.03-0.01-0.05v-0.27q0.01-0.03 0-0.07l0.01-0.08 0.02-0.09 0.04-0.14 0.03-0.07 0.02-0.07 0.04-0.08v-0.06l0.04-0.1 0.01-0.08 0.05-0.05 0.03-0.05q0-0.03 0.02-0.05l0.04-0.06q0.02-0.05 0.06-0.09l0.04-0.05 0.03-0.03q0.02-0.04 0.01-0.07v-0.05q0-0.03 0.02-0.03l0.06-0.04 0.11-0.06q0.06-0.04 0.11-0.05 0.06-0.04 0.12-0.05l0.12-0.04h0.25q0.07 0.03 0.14 0.03h0.21l0.06-0.01 0.05 0.04q0.03 0.01 0.05 0.04l0.04 0.02 0.05 0.02q0.08 0 0.15 0.05l0.14 0.1v0.08q0 0.03 0.04 0.05l0.1 0.02 0.03 0.06 0.04 0.06 0.05 0.05 0.08 0.12 0.04 0.04q0.02 0.02 0.02 0.05l0.08 0.18 0.01 0.04 0.04 0.04 0.02 0.12zm-0.88 0.22-0.01-0.07q-0.02-0.04-0.01-0.08l-0.02-0.03v-0.11l-0.08-0.13-0.08-0.11q0-0.02-0.02-0.02l-0.02-0.02q-0.1 0-0.23-0.06-0.08-0.04-0.18 0h-0.02l-0.02 0.02h-0.03q-0.1-0.02-0.14 0.08 0 0.02-0.03 0.05l-0.02 0.06-0.02 0.05-0.03 0.05-0.05 0.07q-0.01 0.04-0.04 0.07 0 0.06-0.03 0.13l-0.03 0.12 0.04 0.07 0.03 0.06q0.04 0.08 0.03 0.15l0.01 0.03 0.01 0.02 0.11 0.03 0.1 0.03 0.1 0.02 0.08-0.01h0.12l0.1-0.02 0.09-0.07 0.1-0.06q0.04-0.1 0.1-0.16 0.07-0.07 0.1-0.16m3.97 0.1v0.03q-0.03 0.04-0.04 0.09l-0.04 0.08q-0.03 0.09-0.08 0.15l-0.1 0.12-0.07 0.12-0.13 0.09-0.14 0.07-0.05 0.03q-0.03 0.04-0.08 0.05l-0.06 0.03q-0.03 0.01-0.06 0.05l-0.13 0.05q-0.05 0.03-0.12 0.04h-0.04l-0.04 0.01-0.05-0.02q-0.04 0-0.07-0.03l-0.1 0.02q-0.07 0-0.13 0.02l-0.05-0.03-0.04-0.01-0.05-0.02q-0.01-0.02-0.05 0l-0.04 0.05-0.04 0.07v0.1l0.02 0.1-0.01 0.07q-0.03 0.07 0 0.15t0.01 0.16v0.18q-0.02 0.06-0.02 0.13l-0.02 0.14v0.03q-0.05 0.07-0.13 0.07h-0.14q-0.07 0-0.14-0.03h-0.21q-0.05 0-0.1-0.03-0.03-0.02-0.07-0.02h-0.06l-0.02-0.02-0.03-0.1-0.02-0.1-0.02-0.06-0.01-0.06 0.01-0.1 0.03-0.09-0.01-0.09v-0.15l-0.03-0.08 0.03-0.05 0.02-0.05q0.02-0.05 0-0.09t-0.02-0.1q0.02-0.02 0.02-0.05l0.03-0.06q-0.02-0.07-0.02-0.24l-0.01-0.32v-0.37l0.04-0.16 0.01-0.05 0.03-0.05 0.02-0.12 0.03-0.1 0.03-0.13q0-0.04 0.02-0.07l0.1-0.12 0.11-0.22 0.02-0.05 0.03-0.03 0.04-0.09q0.06-0.12 0.19-0.17l0.07-0.04 0.1-0.06 0.17-0.05 0.19-0.06h0.08l0.09-0.01h0.13l0.1 0.02q0.06 0 0.11 0.04l0.05 0.01h0.16q0.05 0 0.09 0.02l0.08 0.04 0.07 0.03 0.06 0.06q0 0.02 0.03 0.03 0.09 0.06 0.15 0.15 0.07 0.07 0.13 0.16 0.03 0.06 0.07 0.08l0.03 0.04 0.04 0.05v0.15l0.01 0.06 0.02 0.06v0.22q0.03 0.09 0 0.16-0.01 0.04 0.01 0.07zm-0.81-0.25q-0.01-0.1-0.05-0.18-0.03-0.1-0.1-0.17-0.05-0.06-0.11-0.1l-0.12-0.08q-0.11-0.02-0.2 0-0.03 0.03-0.1 0.04-0.06 0-0.08 0.03l-0.07 0.11-0.06 0.07-0.05 0.18q0 0.1 0.02 0.17 0 0.07 0.02 0.12l0.03 0.1v0.04q0.02 0 0.03 0.05 0 0.04 0.02 0.06 0.01 0.03 0.05 0.05 0.03 0 0.07 0.03l0.04 0.01h0.14l0.08 0.02q0.07 0.03 0.15 0l0.04-0.03q0.03 0 0.05-0.03 0.03 0 0.03-0.04 0-0.03 0.02-0.05 0.08-0.1 0.1-0.2 0.04-0.1 0.05-0.2m3.82-0.57v0.13l-0.02 0.12v0.14q0 0.07-0.03 0.15l-0.03 0.04-0.04 0.05v0.04l0.01 0.05q-0.01 0.03-0.04 0.05l-0.05 0.04-0.22 0.06q-0.09 0.02-0.18 0.01h-0.9q-0.02 0.02-0.05 0.01h-0.11q-0.03 0.02-0.06 0-0.03 0-0.05 0.02h-0.05l-0.05-0.01h-0.04l0.02 0.05 0.06 0.1 0.03 0.06 0.01 0.05 0.02 0.05 0.07 0.06 0.07 0.07 0.06 0.01 0.07 0.01 0.08 0.01h0.08l0.08 0.01 0.08 0.02 0.11-0.01 0.12-0.01 0.05-0.04 0.06-0.03q0.08-0.02 0.16 0l0.05 0.07 0.05 0.06 0.08 0.12q0.04 0.05 0.05 0.12l0.04 0.06 0.03 0.05v0.06l-0.02 0.06-0.06 0.04-0.01 0.01q0 0.02-0.02 0.02l-0.08 0.05-0.06 0.05q-0.1 0.08-0.19 0.08h-0.05l-0.06 0.03-0.07 0.03h-0.07l-0.06 0.03-0.04-0.01h-0.16l-0.12-0.02-0.04-0.01h-0.03q-0.1 0-0.2-0.04l-0.2-0.09q-0.07-0.02-0.1-0.07-0.04-0.05-0.1-0.08-0.05-0.04-0.11-0.06l-0.08-0.03-0.08-0.05q0-0.03-0.02-0.05 0-0.03-0.02-0.05l-0.08-0.08-0.03-0.04-0.06-0.2q-0.03-0.11-0.08-0.21v-0.35l-0.02-0.1v-0.1l0.06-0.2v-0.09l0.02-0.14q0-0.07 0.03-0.13l0.03-0.07 0.05-0.08q0.05-0.07 0.07-0.14l0.1-0.04 0.02-0.03 0.08-0.08 0.03-0.06q0.04-0.03 0.03-0.06 0.06-0.1 0.16-0.17l0.07-0.05 0.06-0.05 0.06-0.02h0.09l0.05-0.02h0.04l0.03-0.03 0.02-0.01h0.03l0.1-0.04 0.1-0.05q0.1 0.04 0.2 0.03h0.11l0.11 0.04 0.1-0.03q0.04 0 0.08 0.03l0.1 0.05h0.05l0.02 0.02 0.14 0.12 0.13 0.1q0.09 0.07 0.12 0.16l0.04 0.05q0.07 0.07 0.13 0.17v0.08l0.02 0.06q0.02 0.03 0.02 0.07m-0.79 0.2v-0.19l-0.03-0.04v-0.12l-0.03-0.03-0.06-0.01-0.03-0.09-0.05-0.03-0.07-0.02-0.17 0.05-0.19 0.05h-0.15q-0.07 0.03-0.12 0.09l-0.08 0.1-0.05 0.07-0.04 0.07v0.04q0.01 0.05 0.05 0.06t0.07 0.02l0.09 0.02h0.03l0.03-0.01q0.08-0.03 0.13 0h0.09l0.09-0.02 0.07 0.03 0.08 0.01q0.08 0.03 0.16 0.03l0.15-0.02q0.03-0.03 0.03-0.06m3.62 1.09v0.1l-0.01 0.1v0.39q-0.03 0.05-0.08 0.05h-0.14q-0.07 0-0.14 0.03-0.03 0.02-0.08 0.02t-0.09 0l-0.05-0.05q-0.08 0.03-0.13-0.05l-0.04-0.09-0.01-0.09v-0.2q0-0.1-0.03-0.19l-0.01-0.04v-0.03l-0.01-0.14-0.03-0.14-0.01-0.05v-0.06q-0.02-0.08-0.08-0.12 0-0.05-0.02-0.09l-0.01-0.1q-0.02 0-0.05-0.03l-0.07-0.03-0.06-0.03-0.03-0.03-0.03-0.05h-0.04l-0.04 0.02-0.05-0.01h-0.07l-0.06 0.1-0.05 0.03-0.03 0.03q-0.02 0.01-0.02 0.03l-0.04 0.14q0.01 0.03 0 0.07-0.02 0.03 0 0.07v0.07q-0.03 0.02-0.02 0.04 0.02 0 0.02 0.03l0.02 0.02v0.15q0 0.06-0.03 0.13v0.05l0.02 0.05-0.02 0.1v0.15l-0.01 0.08v0.04q0.02 0.07 0 0.13l-0.07 0.12-0.06 0.02-0.02 0.02h-0.12q-0.03 0-0.04 0.02l-0.05 0.02q-0.08 0-0.17-0.03-0.08-0.02-0.16 0.02-0.04-0.01-0.06-0.04l-0.05-0.05-0.03-0.08-0.02-0.1 0.02-0.14-0.02-0.19 0.02-0.2v-0.47l0.01-0.28 0.01-0.08 0.01-0.06 0.03-0.14 0.03-0.11q0.01-0.05 0.04-0.08 0.04-0.03 0.05-0.07 0.01-0.1 0.05-0.15l0.09-0.14q0.03-0.08 0.1-0.07h0.02q0.02-0.02 0-0.05 0-0.03 0.03-0.06 0.05-0.05 0.13-0.07l0.13-0.06 0.08 0.01q0.08 0.03 0.16 0 0.05 0 0.1 0.03l0.12 0.03 0.11 0.02h0.05l0.05-0.01q0.07 0.02 0.1 0.07l0.1 0.1q0.02 0.02 0.06 0.01l0.08 0.01 0.14 0.14 0.01 0.05 0.02 0.04q0.03 0 0.05 0.03l0.01 0.05 0.13 0.03 0.06 0.08q0.02 0.04 0.08 0.04 0 0.06 0.02 0.1l0.03 0.11q0.01 0.1 0.04 0.16l0.04 0.1 0.02 0.12 0.03 0.07 0.04 0.07-0.02 0.05v0.1l0.02 0.05v0.07q-0.02 0.04-0.01 0.09zm2.13-1.05-0.02 0.07-0.01 0.07v0.26q0 0.02-0.02 0.03l-0.03 0.04-0.03 0.05h-0.06q-0.16-0.04-0.33-0.02h-0.13q-0.07 0-0.13-0.02h-0.25l-0.09-0.01-0.08-0.01h-0.12q-0.1 0.03-0.2 0.02l-0.18-0.01-0.07-0.05q-0.03-0.02-0.04-0.07 0.02-0.03 0-0.07l0.01-0.08v-0.08q0.02-0.04 0.01-0.08 0.02-0.06 0-0.07t0-0.1v-0.07q0-0.03 0.04-0.05h0.1l0.15 0.03h0.18l0.08 0.02h0.42l0.06-0.01h0.28l0.28-0.01q0.05 0 0.11 0.03l0.02 0.02 0.02 0.03q0.04 0.06 0.03 0.14m2.3-0.57q-0.02 0.08-0.07 0.14l-0.05 0.06-0.04 0.03-0.06 0.1q-0.03 0.06-0.1 0.01-0.04-0.02-0.05-0.05h-0.08l-0.02-0.01q-0.03-0.01-0.04-0.04l-0.05-0.05-0.18-0.06q-0.1-0.02-0.2 0.01l-0.08 0.12-0.04 0.12v0.09q0.03 0.03 0.04 0.08 0.03 0.05 0.08 0.07h0.05l0.05 0.01 0.05 0.04 0.03 0.03q0.05 0.02 0.08 0.07l0.1 0.05 0.09 0.05 0.08 0.04q0.04 0 0.07 0.03l0.05 0.06 0.05 0.07 0.05 0.08 0.03 0.15q0.02 0.07 0.02 0.15v0.11l0.02 0.1v0.16l-0.03 0.08-0.03 0.1-0.07 0.17-0.15 0.15-0.02 0.04q-0.07 0.03-0.1 0.08l-0.07 0.11-0.1 0.01-0.09 0.03-0.07 0.02-0.07 0.03h-0.15q-0.07-0.03-0.13-0.03t-0.13 0.03q-0.07 0.01-0.09-0.01-0.04-0.04-0.1-0.06l-0.08-0.01q-0.06-0.07-0.13-0.12l-0.13-0.13v-0.25q0.02-0.1 0.06-0.17l0.1-0.17 0.14 0.04 0.07 0.04 0.09 0.04q0.05 0.03 0.09 0.02h0.04l0.04 0.02q0.08 0.03 0.15-0.02l0.05-0.04q0.04-0.02 0.05-0.06v-0.08l0.01-0.1v-0.03l-0.02-0.04-0.01-0.04-0.09-0.07-0.04-0.06q0-0.04-0.04-0.06l-0.15-0.04q-0.04-0.02-0.06-0.05l-0.05-0.04-0.03-0.02-0.02-0.01-0.05-0.02-0.06-0.01q-0.04-0.04-0.1-0.06-0.04-0.04-0.05-0.09l-0.04-0.08-0.05-0.07-0.06-0.07-0.04-0.14-0.03-0.15q-0.03-0.09 0-0.18l0.02-0.12 0.04-0.12 0.1-0.2q0.06-0.1 0.16-0.19l0.2-0.17 0.12-0.04 0.11-0.04 0.08-0.02 0.15-0.01h0.01q0.09-0.03 0.17-0.02t0.17 0.04h0.07l0.1 0.08 0.09 0.08 0.06 0.04 0.07 0.03q0.07 0.05 0.1 0.11l0.1 0.12q0.02 0.04 0.02 0.09zm3.1 0.83q0.01 0.07-0.02 0.14l-0.01 0.06v0.1q-0.03 0.05-0.03 0.1l0.01 0.11-0.06 0.09v0.08l-0.03 0.03-0.05 0.04-0.04 0.1-0.03 0.09v0.06q-0.02 0.03-0.06 0.04t-0.06 0.06l-0.05 0.03-0.06 0.03h-0.06q-0.1 0-0.1 0.1l-0.26 0.2q-0.1 0.07-0.28 0.1l-0.1 0.03-0.1 0.04-0.04-0.01h-0.03l-0.16-0.01h-0.05l-0.04 0.01-0.09-0.01-0.1-0.02-0.1-0.05-0.1-0.06-0.06-0.04-0.05-0.06q0-0.02-0.02-0.02 0-0.02-0.02-0.03l-0.04-0.02q-0.02 0-0.03-0.03l-0.19-0.15q-0.07-0.08-0.1-0.2l-0.08-0.14-0.04-0.05-0.02-0.05 0.02-0.05-0.03-0.03q-0.02-0.01 0-0.05l-0.02-0.04 0.01-0.05v-0.18q0.01-0.03 0-0.07l0.01-0.08 0.02-0.09 0.02-0.07 0.03-0.07q0-0.04 0.02-0.07l0.03-0.07 0.03-0.08v-0.04l0.01-0.02 0.04-0.1v-0.08l0.05-0.05 0.03-0.05 0.02-0.05 0.04-0.06q0.02-0.05 0.06-0.09l0.04-0.05 0.03-0.03 0.02-0.07-0.01-0.05 0.02-0.03 0.03-0.02 0.04-0.02 0.1-0.06q0.06-0.04 0.12-0.05 0.05-0.04 0.1-0.05l0.13-0.04h0.25q0.07 0.03 0.14 0.03h0.21l0.07-0.01 0.1 0.08q0.02 0 0.03 0.02l0.05 0.02q0.09 0 0.16 0.05l0.13 0.1v0.08q0 0.03 0.05 0.05l0.04 0.01 0.05 0.01 0.03 0.06 0.05 0.06 0.05 0.05 0.03 0.06q0.02 0.01 0.02 0.03l0.02 0.03 0.04 0.04q0.02 0.02 0.02 0.05l0.04 0.09q0.03 0.04 0.04 0.09l0.02 0.04 0.03 0.04 0.02 0.12zm-0.89 0.22q0.01-0.04 0-0.07-0.03-0.04-0.02-0.08l-0.02-0.03v-0.11l-0.08-0.13-0.08-0.11-0.01-0.02q-0.02 0-0.03-0.02-0.1 0-0.23-0.06-0.08-0.04-0.18 0h-0.02l-0.02 0.02h-0.03q-0.1-0.02-0.13 0.08l-0.03 0.05-0.02 0.06q0 0.02-0.03 0.05l-0.03 0.05-0.04 0.07-0.05 0.07q0 0.06-0.03 0.13l-0.02 0.12 0.03 0.07 0.04 0.06q0.03 0.08 0.03 0.15v0.03l0.02 0.02 0.2 0.06 0.1 0.02 0.08-0.01h0.12l0.1-0.02 0.1-0.07q0.04-0.04 0.1-0.06 0.03-0.1 0.1-0.16 0.06-0.07 0.08-0.16m3.85-0.82q0.02 0.04 0 0.08v0.07q-0.02 0.04-0.02 0.1v0.43l-0.02 0.1-0.06 0.2-0.05 0.23-0.01 0.03-0.01 0.05-0.12 0.26-0.05 0.07-0.06 0.07-0.05 0.03-0.05 0.02q-0.02 0-0.02 0.03l0.02 0.03 0.01 0.03q-0.05 0.08-0.15 0.15l-0.06 0.01-0.07 0.02q-0.06 0.03-0.14 0.1l-0.02 0.03-0.02 0.04q-0.05 0.02-0.1 0.01h-0.08l-0.04 0.01-0.06 0.04q-0.01 0.02-0.03 0.02-0.07 0.03-0.15 0.02h-0.15l-0.06-0.02-0.07-0.03v-0.02q0-0.02 0.02-0.03-0.02-0.05-0.06-0.05l-0.09-0.03h-0.08q-0.04 0-0.04-0.06-0.02-0.06-0.05-0.06h-0.02q-0.05 0.02-0.09 0l-0.08-0.04-0.03-0.07-0.02-0.09q-0.02-0.03-0.06-0.05l-0.07-0.05-0.08-0.17-0.07-0.17-0.02-0.07 0.01-0.07-0.02-0.03-0.01-0.03q-0.04-0.12-0.06-0.25-0.01-0.12 0.03-0.25l-0.02-0.04q0-0.02-0.02-0.03-0.01-0.03 0-0.07l0.02-0.05v-0.15q0.02-0.03 0.01-0.06v-0.04l0.03-0.15v-0.14l0.05-0.27q0-0.05 0.03-0.09l0.05-0.07 0.04-0.02 0.03-0.02h0.08l0.1-0.02 0.07 0.01h0.08l0.1 0.02h0.09v0.04l0.02 0.02v0.21l0.03 0.04-0.02 0.05q0 0.04-0.02 0.07l0.02 0.2 0.01 0.22 0.02 0.14 0.02 0.13 0.01 0.09 0.03 0.09 0.02 0.08 0.03 0.1q0.03 0.1 0.09 0.18l0.06 0.05h0.02l0.03 0.01q0.05 0 0.07-0.02t0.06-0.03q0.07-0.04 0.13-0.05h0.11l0.1-0.06q0.03-0.05 0.04-0.11 0.01-0.07 0.06-0.11l0.05-0.1 0.06-0.08 0.02-0.16q0-0.08 0.03-0.15v-0.43l0.01-0.1v-0.1q0.02-0.1 0.1-0.14l0.08-0.04h0.05l0.06-0.01 0.07 0.01 0.07 0.03h0.07l0.08-0.02 0.04 0.01 0.04 0.02 0.02 0.02v0.02l0.02 0.07v0.22zm2.56-0.33q0.01 0.1-0.03 0.14l-0.04 0.08-0.02 0.1-0.02 0.03-0.02 0.04-0.05 0.06-0.04 0.06-0.04 0.12v0.02h-0.01l-0.02 0.02h-0.05q-0.13-0.05-0.27 0h-0.12l-0.03 0.01-0.13 0.09-0.1 0.1-0.06 0.16q-0.03 0.07-0.03 0.17v0.02l-0.01 0.03-0.04 0.08-0.03 0.07-0.03 0.08-0.02 0.16v0.1l-0.02 0.1q-0.02 0.05-0.02 0.12v0.59l-0.04 0.05q-0.04 0.07-0.1 0.1-0.07 0.03-0.14 0.02l-0.1-0.01-0.1-0.02-0.07-0.01-0.07-0.02h-0.05l-0.04 0.02q-0.08-0.03-0.15-0.1l0.01-0.09v-0.13q0-0.03-0.02-0.05l-0.02-0.08v-0.08l-0.04-0.22 0.02-0.03 0.02-0.04v-0.07q0-0.02 0.02-0.02l-0.01-0.03-0.02-0.08v-0.17l0.02-0.05q0.01-0.03 0-0.07 0-0.03-0.03-0.06v-0.01l-0.02-0.02-0.01-0.07q0-0.04-0.02-0.07l-0.02-0.16v-0.15l0.02-0.15v-0.06l-0.02-0.14 0.02-0.13 0.02-0.06v-0.16q0-0.06 0.03-0.12l-0.02-0.06 0.02-0.06 0.02-0.07 0.02-0.06v-0.05q0.05-0.04 0.08-0.03 0.06 0.02 0.12 0 0.07-0.02 0.13 0l0.04-0.02 0.04-0.01q0.1-0.04 0.17 0 0.05 0.08 0.05 0.11l0.02 0.19q0.02 0.07 0.07 0.13l0.03 0.02q0.03 0 0.05-0.02l0.04-0.03 0.04-0.04 0.07-0.06 0.06-0.07 0.13-0.06 0.15-0.06h0.18l0.02-0.01q0.07 0.03 0.13 0.01 0.1-0.03 0.2 0.03l0.1 0.05 0.1 0.06 0.05 0.05zm2.85 0.06-0.06 0.1-0.02 0.12-0.1 0.09-0.07 0.1-0.05 0.09-0.05 0.08h-0.02l-0.02-0.03q0-0.03-0.03-0.03l-0.03 0.02-0.02 0.03-0.03 0.02-0.02 0.02h-0.03l-0.05-0.04-0.07-0.05-0.07-0.03q-0.04 0-0.07-0.02h-0.02l-0.03-0.04q-0.01-0.02-0.04 0-0.02 0.01-0.02 0.03v0.04h-0.07l-0.02 0.02-0.03 0.01h-0.05l-0.05-0.02q-0.06 0-0.11 0.04l-0.1 0.05q-0.04 0-0.06 0.05l-0.08 0.12q-0.05 0.05-0.08 0.12l-0.02 0.03-0.03 0.04-0.01 0.04v0.03q0.01 0.04 0.03 0.05l-0.03 0.04-0.02 0.04v0.07l0.09 0.15 0.03 0.06 0.05 0.04 0.05 0.05q0.03 0.02 0.04 0.05 0.03 0.01 0.05 0.04h0.04l0.06-0.01 0.02 0.01h0.03l0.09 0.02 0.08-0.01 0.1-0.03 0.1-0.02 0.09 0.01 0.08 0.03 0.1-0.05q0.04-0.03 0.1-0.03 0.05 0.02 0.08 0.07l0.04 0.07 0.03 0.07 0.03 0.08 0.05 0.08 0.04 0.05 0.04 0.06q0.02 0.1-0.01 0.18l-0.09 0.06-0.09 0.08-0.02 0.05-0.03 0.04-0.05 0.02q-0.02 0-0.05 0.03l-0.04 0.01-0.05 0.01-0.09 0.06q-0.04-0.03-0.1-0.03-0.04 0.03-0.1 0.03l-0.1 0.01-0.11-0.01-0.1-0.04-0.08 0.04-0.14-0.04h-0.05l-0.06 0.01-0.05-0.02-0.07-0.02h-0.08l-0.06-0.04-0.05-0.04-0.06-0.03q-0.1-0.05-0.18-0.14l-0.1-0.1-0.1-0.09-0.07-0.09q-0.01-0.08-0.05-0.15l-0.1-0.14v-0.08l-0.04-0.06q0.02-0.05 0.01-0.11v-0.13q0.01-0.03-0.03-0.07l0.01-0.03 0.03-0.03q0.03-0.02 0.03-0.07l-0.03-0.03q0-0.02-0.02-0.03l0.03-0.06 0.01-0.06v-0.11l0.05-0.06q0-0.05-0.04-0.05-0.03 0-0.05-0.03l0.06-0.18 0.08-0.12v-0.14q0-0.06 0.05-0.14l0.03-0.03 0.04-0.03 0.04-0.12 0.07-0.05 0.08-0.06 0.03-0.02 0.04-0.02q0.04 0 0.06-0.02l0.05-0.04h0.03l0.04 0.01q0.05 0 0.09-0.04t0.08-0.07l0.15-0.03 0.15-0.05 0.08 0.02q0.04 0.02 0.09 0 0.01-0.02 0.03 0h0.12l0.14 0.01q0.09 0.01 0.15-0.04v-0.01l0.02-0.02 0.03 0.02h0.02q0.16 0.15 0.36 0.16l0.12 0.04 0.13 0.13q0.06 0.05 0.04 0.13zm3.03 0.37-0.01 0.13-0.01 0.12v0.14q0 0.07-0.03 0.15l-0.04 0.04-0.03 0.05v0.09q0 0.03-0.03 0.05l-0.05 0.04-0.12 0.03-0.1 0.03q-0.1 0.02-0.19 0.01h-0.89q-0.03 0.02-0.06 0.01h-0.1q-0.03 0.02-0.07 0l-0.05 0.02h-0.05l-0.04-0.01h-0.04l0.02 0.05 0.06 0.1 0.02 0.06q0.02 0.02 0.02 0.05l0.01 0.05 0.07 0.06 0.08 0.07 0.06 0.01 0.07 0.01q0.04 0 0.07 0.02h0.09q0.04-0.02 0.08 0l0.08 0.02 0.11-0.01 0.12-0.01 0.05-0.04 0.06-0.03q0.08-0.02 0.16 0l0.04 0.07 0.06 0.06 0.07 0.12q0.04 0.05 0.05 0.12l0.04 0.06 0.04 0.05v0.06l-0.02 0.06-0.06 0.04-0.03 0.03-0.08 0.05-0.07 0.05q-0.08 0.08-0.18 0.08h-0.05l-0.14 0.06h-0.06l-0.06 0.03-0.04-0.01h-0.16l-0.12-0.02-0.04-0.01h-0.04q-0.1 0-0.2-0.04l-0.18-0.09q-0.08-0.02-0.11-0.07-0.04-0.05-0.1-0.08-0.05-0.04-0.11-0.06l-0.08-0.03-0.08-0.05q0-0.03-0.02-0.05l-0.02-0.05-0.08-0.08-0.03-0.04-0.06-0.2q-0.03-0.11-0.08-0.21v-0.2l-0.01-0.03v-0.12l-0.01-0.1v-0.1l0.06-0.2v-0.04l-0.01-0.05 0.02-0.14 0.03-0.13 0.04-0.07 0.05-0.08q0.05-0.07 0.07-0.14l0.09-0.04 0.11-0.11 0.03-0.06q0.04-0.03 0.03-0.06 0.05-0.1 0.16-0.17l0.07-0.05 0.06-0.05 0.06-0.02h0.09q0.03 0 0.05-0.02h0.03l0.03-0.03 0.03-0.01h0.02q0.06-0.01 0.11-0.04l0.1-0.05q0.09 0.04 0.19 0.03h0.12l0.11 0.04 0.09-0.03q0.05 0 0.1 0.03l0.08 0.05h0.06v0.01l0.02 0.01 0.13 0.12 0.13 0.1q0.1 0.07 0.12 0.16l0.05 0.05q0.07 0.07 0.13 0.17v0.08l0.02 0.06q0.02 0.03 0.02 0.07m-0.8 0.2v-0.19l-0.03-0.06v-0.1l-0.02-0.03-0.06-0.01-0.03-0.09-0.05-0.03-0.07-0.02-0.36 0.1h-0.16q-0.06 0.03-0.1 0.09l-0.1 0.1-0.08 0.14-0.01 0.04q0.02 0.05 0.06 0.06l0.07 0.02 0.08 0.02h0.03l0.04-0.01q0.08-0.03 0.13 0h0.08l0.1-0.02 0.07 0.03 0.08 0.01q0.08 0.03 0.16 0.03l0.15-0.02q0.03-0.03 0.03-0.06" filter="url(#a)" aria-label="modular • isomorphic • open-source" paint-order="markers stroke fill"/>
 </g>
</svg>
