<?xml version="1.0" encoding="UTF-8"?>
<svg width="82" height="82" version="1.1" xmlns="http://www.w3.org/2000/svg" xmlns:cc="http://creativecommons.org/ns#" xmlns:dc="http://purl.org/dc/elements/1.1/" xmlns:rdf="http://www.w3.org/1999/02/22-rdf-syntax-ns#">
 <title>I²C logo</title>
 <metadata>
  <rdf:RDF>
   <cc:Work rdf:about="">
    <dc:format>image/svg+xml</dc:format>
    <dc:type rdf:resource="http://purl.org/dc/dcmitype/StillImage"/>
    <dc:title>I²C logo</dc:title>
    <dc:date>2014-11-10</dc:date>
    <dc:creator>
     <cc:Agent>
      <dc:title>https://commons.wikimedia.org/wiki/User:Xoneca</dc:title>
     </cc:Agent>
    </dc:creator>
    <cc:license rdf:resource="http://creativecommons.org/publicdomain/zero/1.0/"/>
    <dc:rights>
     <cc:Agent>
      <dc:title>I²C bus -- logo is a trademark of NXP Semiconductors N.V.</dc:title>
     </cc:Agent>
    </dc:rights>
    <dc:source>http://www.nxp.com/documents/data_sheet/PCA9540B.pdf</dc:source>
    <dc:description>I²C logo extracted from an NXP datasheet as-is.</dc:description>
   </cc:Work>
   <cc:License rdf:about="http://creativecommons.org/publicdomain/zero/1.0/">
    <cc:permits rdf:resource="http://creativecommons.org/ns#Reproduction"/>
    <cc:permits rdf:resource="http://creativecommons.org/ns#Distribution"/>
    <cc:permits rdf:resource="http://creativecommons.org/ns#DerivativeWorks"/>
   </cc:License>
  </rdf:RDF>
 </metadata>
 <path d="m46.979 9.3242c-1.3975 0-2.7371 0.55422-3.7246 1.543-1 0.99875-1.5555 2.359-1.543 3.7715h-0.046876v37.205c0 2.9062 2.3574 5.2637 5.2637 5.2637h0.050782v-0.019531h29.48c2.9 0 5.2524-2.3454 5.2637-5.2441h-0.021484v-14.74h-16.865v7.0156c0 1.7287-1.3872 3.1398-3.1172 3.166v-0.048828c-1.73 0-3.1398-1.3884-3.166-3.1172h-0.023437v-21.756c0-1.7462 1.4185-3.166 3.166-3.166h0.023438v-0.023438c1.7475 0 3.1641 1.4185 3.1641 3.166v0.023437h-0.046874v7.0156h16.865v-14.74c0-1.3975-0.55352-2.7352-1.541-3.7227-0.98125-0.98245-2.3124-1.5367-3.7012-1.543v-0.048828h-29.48zm0.14062 2.834h29.127v0.03125h0.029297c1.5088 0 2.7344 1.2237 2.7344 2.7324v11.623h-11.34v-7.5117h0.011719c-5e-3 -1.45-1.1828-2.623-2.6328-2.623h-6.6621v-0.009765c-1.4488 0.005001-2.6211 1.1828-2.6211 2.6328v28.416l-0.011719 0.001953c0.00625 1.4488 1.1828 2.6211 2.6328 2.6211h6.6621v0.009765c1.4488-0.00625 2.6211-1.1828 2.6211-2.6328v-7.582h11.197v11.764h0.011718c-0.0025 0.695-0.28023 1.3603-0.77148 1.8516-0.49375 0.49375-1.1626 0.77148-1.8613 0.77148l-29.127 0.009766c-1.45-0.00625-2.623-1.1828-2.623-2.6328v-36.85h-0.009766c0.0025-0.695 0.28023-1.3603 0.77148-1.8516 0.49375-0.49375 1.1638-0.77148 1.8613-0.77148z" fill="#fff" fill-rule="evenodd"/>
 <path d="m76.458 57.088c2.9 0 5.2538-2.345 5.265-5.2437l-0.02125-0.0012v-14.74h-16.866v7.0162c0 1.7287-1.3875 3.1388-3.1175 3.165v-0.0475c-1.73 0-3.1388-1.3888-3.165-3.1175h-0.02375v-21.756c0-1.7462 1.4175-3.165 3.165-3.165h0.02375v-0.02375c1.7475 0 3.165 1.4175 3.165 3.165v0.025l-0.0475-0.0013v7.0162h16.866v-14.74c0-1.3975-0.555-2.7362-1.5425-3.7238-0.98125-0.98245-2.3125-1.5362-3.7012-1.5425v-0.04875h-29.48c-1.3975 0-2.7362 0.55375-3.7238 1.5425-1 0.99875-1.555 2.3588-1.5425 3.7712l-0.04875 0.0012v37.204c0 2.9062 2.3588 5.265 5.265 5.265h0.05v-0.02z" fill="none"/>
 <path d="m76.246 54.253c0.69875 0 1.3675-0.2775 1.8612-0.77125 0.49125-0.49125 0.76875-1.1562 0.77125-1.8512h-0.01v-11.764h-11.198v7.5825c0 1.45-1.1725 2.6275-2.6212 2.6338l-0.0012-0.01125h-6.6612c-1.45 0-2.6262-1.1725-2.6325-2.6213l0.01125-0.0012v-28.416c0-1.45 1.1725-2.6275 2.6212-2.6325v0.01h6.6612c1.45 0 2.6275 1.1725 2.6325 2.6225h-0.01v7.5112h11.339v-11.622c0-1.5088-1.225-2.7325-2.7338-2.7325h-0.03v-0.03125h-29.126c-0.6975 0-1.3675 0.2775-1.8612 0.77125-0.49125 0.49125-0.76875 1.1562-0.77125 1.8512h0.01v36.85c0 1.45 1.1725 2.6275 2.6225 2.6338m0-0.01125h29.126" fill="none"/>
 <path d="m0.27734 9.3945v47.764h16.865v-47.764h-16.865zm2.7637 2.834h11.268v42.096h-11.268v-42.096z" fill="#fff" fill-rule="evenodd"/>
 <path d="m0.27688 57.158h16.866v-47.764h-16.866z" fill="none"/>
 <path d="m3.0406 54.324h11.268v-42.095h-11.268zm61.795-24.945h16.866m-16.866 7.7238h16.866" fill="none"/>
 <path d="m20.262 9.3242c0-1.415 0.56125-2.7712 1.5612-3.7712 1.0125-1.0125 2.3912-1.575 3.8238-1.5612v0.0175h7.5825c1.415 0 2.7712 0.56125 3.7712 1.5612 0.995 0.99625 1.5562 2.345 1.5612 3.7538h-0.0175v0.85c0 1.415-0.56125 2.77-1.5612 3.7712-0.99625 0.995-2.345 1.5562-3.7538 1.5612v0.05375h-7.5112c-0.6375 0-1.165 0.4975-1.2012 1.1337h-0.0038 14.031v4.2512h-18.282v-4.2512c0-1.415 0.56125-2.7712 1.5612-3.7712 1.0125-1.0125 2.3912-1.575 3.8238-1.5612v0.0175h7.1575c0.84375 0 1.5275-0.685 1.5275-1.5275v-0.03125h0.03125c0-0.84375-0.68375-1.5288-1.5275-1.5288-0.01 0-0.02125 0-0.03125 0.0012v0.03875h-7.1575c-0.59375 0-1.085 0.435-1.1225 0.9925h-0.01125" fill="#fff" fill-rule="evenodd"/>
 <path d="m20.262 9.3242c0-1.415 0.56125-2.7712 1.5612-3.7712 1.0125-1.0125 2.3912-1.575 3.8238-1.5612v0.0175h7.5825c1.415 0 2.7712 0.56125 3.7712 1.5612 0.995 0.99625 1.5562 2.345 1.5612 3.7538h-0.0175v0.85c0 1.415-0.56125 2.77-1.5612 3.7712-0.99625 0.995-2.345 1.5562-3.7538 1.5612v0.05375h-7.5112c-0.6375 0-1.165 0.4975-1.2012 1.1337h-0.0038 14.031v4.2512h-18.282v-4.2512c0-1.415 0.56125-2.7712 1.5612-3.7712 1.0125-1.0125 2.3912-1.575 3.8238-1.5612v0.0175h7.1575c0.84375 0 1.5275-0.685 1.5275-1.5275v-0.03125h0.03125c0-0.84375-0.68375-1.5288-1.5275-1.5288-0.01 0-0.02125 0-0.03125 0.0012v0.03875h-7.1575c-0.59375 0-1.085 0.435-1.1225 0.9925h-0.01125z" fill="none"/>
 <g fill="#fff" stroke="#032742" stroke-linecap="round" stroke-linejoin="round" stroke-miterlimit="10" stroke-width=".28375">
  <g fill-rule="evenodd">
   <path d="m22.812 66.229c0 0.58875-0.5025 1.0688-1.1325 1.08l-0.0013-0.01625h-9.7088v-2.1262h9.7088c0.64 0 1.1588 0.48375 1.1588 1.0812 0 0.0175 0 0.035-0.0012 0.05375m-0.02375 6.305c0-0.5875-0.50375-1.0675-1.1325-1.0788l-0.0013 0.01625h-9.7088v2.055h9.7088c0.6325 0 1.1475-0.4725 1.1575-1.0625m4.1575-0.9925v-0.0075c-0.0037-1.1738-1.0125-2.1275-2.2675-2.1475v-0.04125c1.2625 0 2.29-0.9475 2.3088-2.1262h-0.04125l0.07125-2.1262v-0.0075c-5e-3 -2.3312-2.0338-4.22-4.5312-4.215h-0.0037v0.04125h-15.024v16.938h15.024c2.495 0 4.5188-1.8888 4.5212-4.2188v-0.03375"/>
   <path d="m35.568 60.914h-4.4638v11.693 0.0037c0.0013 2.8912 2.5012 5.2388 5.5975 5.2562v-0.015h8.2912c3.105 0 5.6238-2.345 5.6312-5.245h0.03875v-11.692h-4.5362v10.63c0 1.1662-1.0125 2.1125-2.2612 2.1125h-0.0063v-0.0575h-6.0237c-1.225 0-2.2275-0.91125-2.26-2.055h-0.0075z"/>
   <path d="m68.379 60.843c3.1038 0 5.6225 2.3462 5.6312 5.245h-4.4975c0-0.52375-0.45375-0.9475-1.0138-0.9475-0.01625 0-0.03125 0-0.0475 0.0012l-0.0012-0.0462h-8.5038c-0.63875 0-1.1575 0.48375-1.1575 1.08 0 0.0175 0 0.035 0.0012 0.05125l-0.04875 0.0025c0 0.59625 0.5175 1.08 1.1562 1.08 0.01625 0 0.0325-0.0012 0.04875-0.0012v-0.015h8.3613c3.0925 0 5.6025 2.335 5.6138 5.2225v0.02125h-0.015v0.0025c-0.0012 2.92-2.5412 5.2888-5.6688 5.2875v-0.0463h-8.3625c-3.1038 0-5.6225-2.345-5.6312-5.2438h4.4975c0 0.57875 0.50375 1.0488 1.1238 1.0488h0.01v0.01375h8.7162c0.395 0 0.7175-0.4725 0.725-1.0625h-0.01625c0-0.57125-0.44125-1.0338-0.98625-1.0338h-0.0062v-0.03h-8.3612c-3.11 0-5.6375-2.34-5.665-5.2438h-5e-3v-0.015c0.0087-2.96 2.5712-5.3588 5.7412-5.3762l-0.0012-0.065h8.3625"/>
  </g>
  <path d="m26.993 73.599v-2.055"/>
 </g>
</svg>
