<?xml version="1.0" encoding="UTF-8"?>
<svg width="580.26" height="401.25" version="1.1" viewBox="0 0 153.47 106.14" xmlns="http://www.w3.org/2000/svg">
 <defs>
  <marker id="a" overflow="visible" markerHeight="0.5" markerWidth="0.5" orient="auto-start-reverse" preserveAspectRatio="xMidYMid" viewBox="0 0 1 1">
   <path transform="scale(.5)" d="m5.77 0-8.65 5v-10z" fill="context-stroke" fill-rule="evenodd" stroke="context-stroke" stroke-width="1pt"/>
  </marker>
 </defs>
 <g fill-rule="evenodd">
  <path d="m17.194 0.2207c-1.2622 1.3081-2.5248 2.6159-3.7871 3.9238-1.8613-0.46379-3.723-0.92556-5.584-1.3906-2.6098 2.6995-5.2187 5.3997-7.8301 8.0977 1.0419 3.6076 2.0813 7.216 3.1211 10.824 1.8612 0.46411 3.7227 0.92699 5.584 1.3906 0.2526 0.45834-0.56972 0.71664-0.75258 1.0977-1.0603 1.0977-2.121 2.1949-3.181 3.2929 0.53557 1.8431 1.066 3.6876 1.5996 5.5312-1.3359 1.3854-2.6718 2.7709-4.0078 4.1562 1.0421 3.6009 2.08 7.2029 3.1191 10.805 1.8605 0.46406 3.7214 0.927 5.582 1.3906 0.26532 0.432-0.51013 0.67192-0.68151 1.0274-1.0836 1.1196-2.1654 2.2408-3.2501 3.3593 1.0414 3.6076 2.0799 7.216 3.1191 10.824 1.8605 0.46406 3.7214 0.927 5.582 1.3906 0.26535 0.43203-0.51024 0.67181-0.6817 1.0272-1.0835 1.119-2.1654 2.2396-3.2499 3.3575 0.53509 1.8453 1.0675 3.6915 1.6016 5.5371l-4.0098 4.1562c1.0426 3.6009 2.0815 7.2029 3.1211 10.805 1.8618 0.46416 3.724 0.92698 5.5859 1.3906 0.5299 1.8451 1.0602 3.69 1.5898 5.5352 3.6377 0.9094 7.2762 1.816 10.914 2.7246 1.3328-1.3821 2.6653-2.7643 3.998-4.1465 0.51807-0.02251 0.33737 0.77754 0.56142 1.1076 0.42933 1.4941 0.85921 2.9881 1.2882 4.4823 3.6371 0.9099 7.2748 1.8174 10.912 2.7266 1.3321-1.3814 2.664-2.763 3.9961-4.1445 1.8626 0.46381 3.7257 0.92546 5.5879 1.3906 1.3328-1.3821 2.6653-2.7643 3.998-4.1465 0.51805-0.02251 0.33743 0.77752 0.56151 1.1075 0.42929 1.4935 0.85921 2.9868 1.2881 4.4804 3.6371 0.9099 7.2748 1.8174 10.912 2.7266 1.332-1.3809 2.6641-2.7617 3.9961-4.1426 1.8613 0.46317 3.7231 0.92405 5.584 1.3887 1.3326-1.381 2.6654-2.7617 3.998-4.1426 1.8632 0.46381 3.727 0.92541 5.5898 1.3906 1.3321-1.3814 2.664-2.763 3.9961-4.1445 0.51805-0.02251 0.33743 0.77752 0.56151 1.1075 0.42929 1.4935 0.85921 2.9868 1.2881 4.4803 3.6371 0.9099 7.2748 1.8174 10.912 2.7266 1.3327-1.3815 2.6654-2.763 3.998-4.1445 1.8619 0.46379 3.7244 0.9255 5.5859 1.3906 1.3328-1.3821 2.6654-2.7643 3.998-4.1465 0.51805-0.02251 0.33742 0.77752 0.56151 1.1075 0.42929 1.4935 0.85921 2.9868 1.2881 4.4803 3.6371 0.9099 7.2748 1.8174 10.912 2.7266 1.332-1.3809 2.6641-2.7617 3.9961-4.1426 1.8613 0.46317 3.7231 0.92405 5.584 1.3887 2.6098-2.6995 5.2187-5.3997 7.8301-8.0977-1.0414-3.6076-2.0799-7.216-3.1191-10.824-1.8611-0.46367-3.7227-0.92565-5.584-1.3887-0.2454-0.4879 0.62004-0.76906 0.8214-1.1781 1.0368-1.0747 2.0735-2.1495 3.1102-3.2242-0.53483-1.8398-1.0647-3.6811-1.5977-5.5215 1.3359-1.3848 2.6719-2.7695 4.0078-4.1543-1.0422-3.6022-2.08-7.2056-3.1191-10.809-1.8612-0.46411-3.7227-0.92699-5.584-1.3906-0.22942-0.48278 0.61542-0.76633 0.82249-1.1712 1.0366-1.071 2.0714-2.1437 3.1092-3.2136-1.0414-3.6076-2.0799-7.216-3.1191-10.824-1.8611-0.46367-3.7227-0.92565-5.584-1.3887-0.24599-0.48727 0.61878-0.76766 0.81969-1.1759 1.038-1.0755 2.0761-2.1508 3.1139-3.2264-0.53483-1.8398-1.0647-3.6811-1.5977-5.5215 1.3359-1.3848 2.6719-2.7695 4.0078-4.1543-1.0422-3.6022-2.08-7.2056-3.1191-10.809-1.8618-0.46416-3.724-0.92698-5.5859-1.3906-0.52988-1.8438-1.0603-3.6874-1.5898-5.5313-3.6371-0.9099-7.2748-1.8174-10.912-2.7266-1.3333 1.3822-2.6667 2.7643-4 4.1465-0.52104 0.022328-0.33565-0.77748-0.56108-1.1077-0.42882-1.4941-0.85793-2.9881-1.2866-4.4822-3.6377-0.9094-7.2762-1.816-10.914-2.7246-1.332 1.3809-2.6641 2.7617-3.9961 4.1426-1.8619-0.46318-3.7244-0.924-5.5859-1.3887-1.3321 1.3814-2.664 2.763-3.9961 4.1445-0.53345-3.901e-4 -0.35409-0.84467-0.591-1.2037-0.42012-1.4621-0.84079-2.924-1.2606-4.3862-3.6377-0.9094-7.2762-1.816-10.914-2.7246-1.332 1.3809-2.6641 2.7617-3.9961 4.1426-1.8619-0.46318-3.7244-0.924-5.5859-1.3887-1.3326 1.381-2.6654 2.7617-3.998 4.1426-1.8619-0.4638-3.7244-0.92551-5.5859-1.3906-1.3333 1.3822-2.6667 2.7643-4 4.1465-0.51996 0.022023-0.3333-0.7788-0.55946-1.1076-0.42933-1.4941-0.85921-2.9881-1.2882-4.4823-3.6371-0.90937-7.2748-1.816-10.912-2.7246-1.3332 1.3816-2.6667 2.763-4 4.1445-1.8613-0.46379-3.723-0.92556-5.584-1.3906-1.3321 1.3814-2.664 2.763-3.9961 4.1445-0.53345-3.901e-4 -0.3541-0.84467-0.591-1.2037-0.42012-1.4621-0.84079-2.924-1.2606-4.3862-3.6371-0.90937-7.2748-1.816-10.912-2.7246-0.07096 0.073568-0.14193 0.14714-0.21289 0.2207z" fill="#523d00" fill-opacity=".2"/>
  <path d="m18.034 3.1602c-1.2622 1.3081-2.5248 2.6159-3.7871 3.9238-1.8613-0.46379-3.723-0.92556-5.584-1.3906-1.9003 1.9669-3.7992 3.9351-5.7012 5.9004 0.75889 2.6278 1.5147 5.2564 2.2715 7.8848 1.8618 0.46416 3.724 0.92698 5.5859 1.3906 0.30599 1.0605 0.61198 2.1211 0.91797 3.1816-1.3349 1.3806-2.6677 2.7633-4.0039 4.1426 0.53357 1.8433 1.0635 3.6876 1.5957 5.5312-1.3346 1.3841-2.6692 2.7683-4.0039 4.1523 0.75926 2.6242 1.5133 5.2499 2.2695 7.875 1.8618 0.46416 3.724 0.92698 5.5859 1.3906l0.91992 3.1836c-1.3355 1.3806-2.6691 2.7631-4.0059 4.1426 0.75841 2.6277 1.5133 5.2564 2.2695 7.8848 1.8618 0.46416 3.724 0.92698 5.5859 1.3906l0.91797 3.1836c-1.3349 1.38-2.6678 2.7618-4.0039 4.1406 0.53402 1.8433 1.0649 3.6876 1.5977 5.5312l-4.0059 4.1523c0.75974 2.6242 1.5148 5.2499 2.2715 7.875 1.8618 0.46416 3.724 0.92698 5.5859 1.3906 0.5299 1.8451 1.0602 3.69 1.5898 5.5352 2.6515 0.66156 5.3038 1.3201 7.9551 1.9824 1.332-1.3809 2.6641-2.7617 3.9961-4.1426 1.0736 0.26562 2.1471 0.53125 3.2207 0.79688 0.52988 1.8438 1.0603 3.6874 1.5898 5.5312 2.6507 0.66277 5.3022 1.3224 7.9531 1.9844 1.3321-1.3814 2.664-2.763 3.9961-4.1445 1.8626 0.46381 3.7257 0.92546 5.5879 1.3906 1.3327-1.3815 2.6654-2.763 3.998-4.1445 1.0729 0.26562 2.1458 0.53125 3.2188 0.79688 0.52988 1.8438 1.0603 3.6874 1.5898 5.5313 2.6507 0.66276 5.3022 1.3224 7.9531 1.9844 1.332-1.3809 2.6641-2.7617 3.9961-4.1426 1.8613 0.46317 3.7231 0.92405 5.584 1.3887 1.3326-1.381 2.6654-2.7617 3.998-4.1426 1.8632 0.46381 3.727 0.92541 5.5898 1.3906 1.332-1.3809 2.6641-2.7617 3.9961-4.1426 1.0729 0.26562 2.1458 0.53125 3.2188 0.79688 0.52988 1.8438 1.0603 3.6874 1.5898 5.5312 2.6507 0.66277 5.3022 1.3224 7.9531 1.9844 1.3327-1.3815 2.6654-2.763 3.998-4.1445 1.8619 0.4638 3.7244 0.92551 5.5859 1.3906 1.3332-1.3816 2.6667-2.763 4-4.1445 1.0723 0.26562 2.1445 0.53125 3.2168 0.79687 0.52988 1.8438 1.0603 3.6874 1.5898 5.5312 2.6507 0.66277 5.3022 1.3224 7.9531 1.9844 1.332-1.3809 2.6641-2.7617 3.9961-4.1426 1.8613 0.46317 3.7231 0.92405 5.584 1.3887 1.9003-1.9669 3.7992-3.9351 5.7012-5.9004-0.75841-2.6277-1.5133-5.2564-2.2695-7.8848-1.8611-0.46367-3.7227-0.92565-5.584-1.3887l-0.91797-3.1855c1.3333-1.3822 2.6667-2.7643 4-4.1465-0.53444-1.8404-1.0634-3.6824-1.5957-5.5234l4.0059-4.1523c-0.75935-2.6255-1.5132-5.2526-2.2695-7.8789-1.8618-0.46416-3.724-0.92698-5.5859-1.3906l-0.91797-3.1836c1.3342-1.38 2.6664-2.762 4.002-4.1406-0.75841-2.6277-1.5133-5.2564-2.2695-7.8848-1.8611-0.46367-3.7227-0.92565-5.584-1.3887l-0.91797-3.1836c1.334-1.3828 2.668-2.7656 4.002-4.1484-0.53444-1.8404-1.0634-3.6824-1.5957-5.5234l4.0059-4.1523c-0.75935-2.6255-1.5132-5.2526-2.2695-7.8789-1.8618-0.46416-3.724-0.92698-5.5859-1.3906-0.52987-1.8438-1.0603-3.6874-1.5898-5.5312-2.6507-0.66277-5.3022-1.3224-7.9531-1.9844-1.3328 1.3821-2.6653 2.7643-3.998 4.1465-1.0729-0.26628-2.1458-0.53255-3.2188-0.79883-0.52989-1.8444-1.0603-3.6887-1.5898-5.5332-2.6515-0.66156-5.3038-1.3201-7.9551-1.9824-1.332 1.3809-2.6641 2.7617-3.9961 4.1426-1.8619-0.46318-3.7244-0.924-5.5859-1.3887-1.3327 1.3815-2.6654 2.763-3.998 4.1445-1.0729-0.26628-2.1458-0.53255-3.2188-0.79883-0.52989-1.8444-1.0603-3.6887-1.5898-5.5332-2.6515-0.66156-5.3038-1.3201-7.9551-1.9824-1.332 1.3809-2.6641 2.7617-3.9961 4.1426-1.8619-0.46318-3.7244-0.924-5.5859-1.3887-1.3326 1.381-2.6654 2.7617-3.998 4.1426-1.8619-0.4638-3.7244-0.92551-5.5859-1.3906-1.3328 1.3821-2.6653 2.7643-3.998 4.1465-1.0729-0.26628-2.1458-0.53255-3.2188-0.79883-0.52989-1.8444-1.0603-3.6887-1.5898-5.5332-2.6509-0.66152-5.3025-1.3201-7.9531-1.9824-1.3332 1.3816-2.6667 2.763-4 4.1445-1.8613-0.46379-3.723-0.92556-5.584-1.3906-1.3327 1.3815-2.6654 2.763-3.998 4.1445-1.0729-0.26628-2.1458-0.53255-3.2188-0.79883-0.52989-1.8444-1.0603-3.6887-1.5898-5.5332-2.6509-0.66152-5.3025-1.3201-7.9531-1.9824-0.07096 0.073568-0.14193 0.14714-0.21289 0.2207z" fill="#cad3f5"/>
  <g stroke="#5b6078" stroke-linecap="square">
   <g fill="#fff" stroke-width=".66129">
    <path d="m12.514 19.111-5.587-1.39-1.59-5.533 3.997-4.143 5.587 1.39 1.59 5.532z"/>
    <path d="m22.097 16.357-5.587-1.39-1.59-5.533 3.997-4.143 5.587 1.39 1.59 5.533z"/>
    <path d="m48.44 17.773-5.586-1.39-1.59-5.533 3.997-4.143 5.587 1.39 1.59 5.532z"/>
    <path d="m38.857 20.527-5.586-1.39-1.59-5.533 3.997-4.143 5.586 1.39 1.59 5.532z"/>
    <path d="m29.273 23.28-5.586-1.39-1.59-5.532 3.997-4.144 5.586 1.39 1.59 5.533z"/>
    <path d="m65.201 21.941-5.586-1.39-1.59-5.532 3.997-4.143 5.586 1.39 1.59 5.532z"/>
    <path d="m55.617 24.695-5.586-1.39-1.59-5.532 3.997-4.144 5.586 1.39 1.59 5.533z"/>
    <path d="m17.283 35.71-5.586-1.39-1.59-5.532 3.997-4.144 5.586 1.39 1.59 5.533z"/>
    <path d="m26.866 32.957-5.586-1.39-1.59-5.533 3.997-4.143 5.586 1.39 1.59 5.532z"/>
   </g>
   <g stroke-width=".66129">
    <path d="m60.388 41.295-5.587-1.39-1.59-5.533 3.997-4.143 5.587 1.39 1.59 5.533z" fill="#eed49f"/>
    <path d="m53.21 34.371-5.586-1.39-1.59-5.532 3.997-4.143 5.586 1.39 1.59 5.532z" fill="#fff"/>
    <path d="m43.627 37.125-5.586-1.39-1.59-5.532 3.997-4.144 5.586 1.39 1.59 5.533z" fill="#eed49f"/>
   </g>
   <g stroke-width=".66129">
    <g fill="#fff">
     <path d="m34.043 39.879-5.587-1.39-1.59-5.533 3.997-4.143 5.587 1.39 1.59 5.533z"/>
     <path d="m69.967 38.541-5.587-1.39-1.59-5.533 3.997-4.143 5.587 1.39 1.59 5.533z"/>
     <path d="m22.053 52.31-5.587-1.39-1.59-5.533 3.997-4.143 5.587 1.39 1.59 5.533z"/>
     <path d="m48.397 53.725-5.587-1.39-1.59-5.533 3.997-4.143 5.587 1.39 1.59 5.533z"/>
     <path d="m38.813 56.479-5.586-1.39-1.59-5.533 3.997-4.143 5.586 1.39 1.59 5.532z"/>
     <path d="m31.636 49.556-5.587-1.39-1.59-5.532 3.997-4.144 5.587 1.39 1.59 5.533z"/>
     <path d="m65.157 57.893-5.586-1.39-1.59-5.532 3.997-4.143 5.586 1.39 1.59 5.532z"/>
     <path d="m57.98 50.971-5.587-1.39-1.59-5.533 3.997-4.143 5.587 1.39 1.59 5.533z"/>
     <path d="m74.737 55.14-5.587-1.39-1.59-5.533 3.997-4.143 5.587 1.39 1.59 5.532z"/>
     <path d="m36.45 30.203-5.586-1.39-1.59-5.533 3.997-4.143 5.587 1.39 1.59 5.532z"/>
     <path d="m19.69 26.034-5.587-1.39-1.59-5.533 3.997-4.143 5.587 1.39 1.59 5.533z"/>
     <path d="m62.795 31.618-5.587-1.39-1.59-5.533 3.997-4.143 5.587 1.39 1.59 5.532z"/>
     <path d="m46.034 27.449-5.587-1.39-1.59-5.533 3.997-4.143 5.587 1.39 1.59 5.533z"/>
     <path d="m72.377 28.863-5.587-1.389-1.59-5.533 3.997-4.143 5.587 1.39 1.59 5.533z"/>
     <path d="m11.695 34.32 5.587 1.39 1.59 5.532-3.997 4.143-5.586-1.39-1.59-5.532z"/>
    </g>
    <path d="m21.279 31.566 5.586 1.39 1.59 5.532-3.997 4.144-5.586-1.39-1.59-5.533z" fill="#eed49f"/>
    <g fill="#fff">
     <path d="m38.04 35.735 5.586 1.39 1.59 5.533-3.997 4.143-5.587-1.39-1.59-5.532z"/>
     <path d="m47.623 32.982 5.586 1.39 1.59 5.532-3.997 4.144-5.586-1.39-1.59-5.533z"/>
     <path d="m64.383 37.15 5.587 1.39 1.59 5.533-3.997 4.143-5.587-1.39-1.59-5.532z"/>
     <path d="m19.646 61.986-5.587-1.39-1.59-5.533 3.997-4.143 5.587 1.39 1.59 5.532z"/>
     <path d="m29.229 59.232-5.587-1.39-1.59-5.533 3.997-4.143 5.587 1.39 1.59 5.533z"/>
     <path d="m55.572 60.648-5.586-1.39-1.59-5.533 3.997-4.143 5.587 1.39 1.59 5.532z"/>
     <path d="m45.989 63.402-5.586-1.39-1.59-5.533 3.997-4.143 5.586 1.39 1.59 5.532z"/>
     <path d="m36.405 66.155-5.586-1.39-1.59-5.532 3.997-4.144 5.586 1.39 1.59 5.533z"/>
     <path d="m72.333 64.816-5.586-1.39-1.59-5.532 3.997-4.143 5.586 1.39 1.59 5.532z"/>
     <path d="m62.749 67.57-5.586-1.39-1.59-5.532 3.997-4.144 5.586 1.39 1.59 5.533z"/>
     <path d="m24.415 78.585-5.586-1.39-1.59-5.532 3.997-4.144 5.586 1.39 1.59 5.533z"/>
     <path d="m33.998 75.832-5.586-1.39-1.59-5.533 3.997-4.143 5.586 1.39 1.59 5.532z"/>
     <path d="m67.52 84.17-5.587-1.39-1.59-5.533 3.997-4.143 5.587 1.39 1.59 5.533z"/>
     <path d="m60.342 77.246-5.586-1.39-1.59-5.532 3.997-4.143 5.586 1.39 1.59 5.532z"/>
     <path d="m50.759 80-5.586-1.39-1.59-5.532 3.997-4.144 5.586 1.39 1.59 5.533z"/>
     <path d="m41.175 82.754-5.587-1.39-1.59-5.533 3.997-4.143 5.587 1.39 1.59 5.533z"/>
     <path d="m77.099 81.416-5.587-1.39-1.59-5.533 3.997-4.143 5.587 1.39 1.59 5.533z"/>
     <path d="m29.185 95.185-5.587-1.39-1.59-5.533 3.997-4.143 5.587 1.39 1.59 5.533z"/>
     <path d="m55.529 96.6-5.587-1.39-1.59-5.533 3.997-4.143 5.587 1.39 1.59 5.533z"/>
     <path d="m45.945 99.354-5.586-1.39-1.59-5.533 3.997-4.143 5.586 1.39 1.59 5.532z"/>
     <path d="m38.768 92.431-5.587-1.39-1.59-5.532 3.997-4.144 5.587 1.39 1.59 5.533z"/>
     <path d="m72.289 100.77-5.586-1.39-1.59-5.532 3.997-4.143 5.586 1.39 1.59 5.532z"/>
     <path d="m65.112 93.846-5.587-1.39-1.59-5.533 3.997-4.143 5.587 1.39 1.59 5.533z"/>
     <path d="m81.869 98.015-5.587-1.39-1.59-5.533 3.997-4.143 5.587 1.39 1.59 5.532z"/>
     <path d="m43.582 73.078-5.586-1.39-1.59-5.533 3.997-4.143 5.587 1.39 1.59 5.532z"/>
     <path d="m26.822 68.909-5.587-1.39-1.59-5.533 3.997-4.143 5.587 1.39 1.59 5.533z"/>
     <path d="m69.927 74.493-5.587-1.39-1.59-5.533 3.997-4.143 5.587 1.39 1.59 5.532z"/>
     <path d="m53.166 70.324-5.587-1.39-1.59-5.533 3.997-4.143 5.587 1.39 1.59 5.533z"/>
     <path d="m79.509 71.738-5.587-1.389-1.59-5.533 3.997-4.143 5.587 1.39 1.59 5.533z"/>
     <path d="m18.827 77.195 5.587 1.39 1.59 5.532-3.997 4.143-5.586-1.39-1.59-5.532z"/>
     <path d="m28.411 74.441 5.586 1.39 1.59 5.532-3.997 4.144-5.586-1.39-1.59-5.533z"/>
     <path d="m45.172 78.61 5.586 1.39 1.59 5.533-3.997 4.143-5.587-1.39-1.59-5.532z"/>
     <path d="m54.755 75.857 5.586 1.39 1.59 5.532-3.997 4.144-5.586-1.39-1.59-5.533z"/>
     <path d="m71.515 80.025 5.587 1.39 1.59 5.533-3.997 4.143-5.587-1.39-1.59-5.532z"/>
     <path d="m74.785 19.189-5.587-1.39-1.59-5.533 3.997-4.143 5.587 1.39 1.59 5.532z"/>
     <path d="m84.368 16.435-5.587-1.39-1.59-5.533 3.997-4.143 5.587 1.39 1.59 5.533z"/>
     <path d="m110.71 17.851-5.586-1.39-1.59-5.533 3.997-4.143 5.587 1.39 1.59 5.532z"/>
     <path d="m101.13 20.605-5.586-1.39-1.59-5.533 3.997-4.143 5.586 1.39 1.59 5.532z"/>
     <path d="m91.544 23.358-5.586-1.39-1.59-5.532 3.997-4.144 5.586 1.39 1.59 5.533z"/>
     <path d="m127.47 22.019-5.586-1.39-1.59-5.532 3.997-4.143 5.586 1.39 1.59 5.532z"/>
     <path d="m117.89 24.773-5.586-1.39-1.59-5.532 3.997-4.144 5.586 1.39 1.59 5.533z"/>
     <path d="m79.554 35.788-5.586-1.39-1.59-5.532 3.997-4.144 5.586 1.39 1.59 5.533z"/>
     <path d="m89.137 33.035-5.586-1.39-1.59-5.533 3.997-4.143 5.586 1.39 1.59 5.532z"/>
     <path d="m122.66 41.373-5.587-1.39-1.59-5.533 3.997-4.143 5.587 1.39 1.59 5.533z"/>
     <path d="m115.48 34.449-5.586-1.39-1.59-5.532 3.997-4.143 5.586 1.39 1.59 5.532z"/>
     <path d="m105.9 37.203-5.586-1.39-1.59-5.532 3.997-4.144 5.586 1.39 1.59 5.533z"/>
     <path d="m96.314 39.957-5.587-1.39-1.59-5.533 3.997-4.143 5.587 1.39 1.59 5.533z"/>
     <path d="m132.24 38.619-5.587-1.39-1.59-5.533 3.997-4.143 5.587 1.39 1.59 5.533z"/>
     <path d="m84.324 52.388-5.587-1.39-1.59-5.533 3.997-4.143 5.587 1.39 1.59 5.533z"/>
     <path d="m110.67 53.803-5.587-1.39-1.59-5.533 3.997-4.143 5.587 1.39 1.59 5.533z"/>
     <path d="m101.08 56.557-5.586-1.39-1.59-5.533 3.997-4.143 5.586 1.39 1.59 5.532z"/>
     <path d="m93.907 49.634-5.587-1.39-1.59-5.532 3.997-4.144 5.587 1.39 1.59 5.533z"/>
     <path d="m127.43 57.971-5.586-1.39-1.59-5.532 3.997-4.143 5.586 1.39 1.59 5.532z"/>
     <path d="m120.25 51.049-5.587-1.39-1.59-5.533 3.997-4.143 5.587 1.39 1.59 5.533z"/>
     <path d="m137.01 55.218-5.587-1.39-1.59-5.533 3.997-4.143 5.587 1.39 1.59 5.532z"/>
     <path d="m98.721 30.281-5.586-1.39-1.59-5.533 3.997-4.143 5.587 1.39 1.59 5.532z"/>
     <path d="m81.961 26.112-5.587-1.39-1.59-5.533 3.997-4.143 5.587 1.39 1.59 5.533z"/>
     <path d="m125.07 31.696-5.587-1.39-1.59-5.533 3.997-4.143 5.587 1.39 1.59 5.532z"/>
     <path d="m108.31 27.527-5.587-1.39-1.59-5.533 3.997-4.143 5.587 1.39 1.59 5.533z"/>
     <path d="m134.65 28.941-5.587-1.389-1.59-5.533 3.997-4.143 5.587 1.39 1.59 5.533z"/>
     <path d="m73.966 34.398 5.587 1.39 1.59 5.532-3.997 4.143-5.586-1.39-1.59-5.532z"/>
     <path d="m83.55 31.644 5.586 1.39 1.59 5.532-3.997 4.144-5.586-1.39-1.59-5.533z"/>
     <path d="m100.31 35.813 5.586 1.39 1.59 5.533-3.997 4.143-5.587-1.39-1.59-5.532z"/>
     <path d="m109.89 33.06 5.586 1.39 1.59 5.532-3.997 4.144-5.586-1.39-1.59-5.533z"/>
     <path d="m126.65 37.228 5.587 1.39 1.59 5.533-3.997 4.143-5.587-1.39-1.59-5.532z"/>
     <path d="m81.917 62.064-5.587-1.39-1.59-5.533 3.997-4.143 5.587 1.39 1.59 5.532z"/>
     <path d="m91.5 59.31-5.587-1.39-1.59-5.533 3.997-4.143 5.587 1.39 1.59 5.533z"/>
     <path d="m117.84 60.726-5.586-1.39-1.59-5.533 3.997-4.143 5.587 1.39 1.59 5.532z"/>
    </g>
   </g>
   <g stroke-width=".66129">
    <path d="m108.26 63.48-5.586-1.39-1.59-5.533 3.997-4.143 5.586 1.39 1.59 5.532z" fill="#eed49f"/>
    <path d="m98.676 66.233-5.586-1.39-1.59-5.532 3.997-4.144 5.586 1.39 1.59 5.533z" fill="#fff"/>
    <path d="m134.6 64.894-5.586-1.39-1.59-5.532 3.997-4.143 5.586 1.39 1.59 5.532z" fill="#fff"/>
    <path d="m125.02 67.648-5.586-1.39-1.59-5.532 3.997-4.144 5.586 1.39 1.59 5.533z" fill="#eed49f"/>
   </g>
   <g stroke-width=".66129">
    <g fill="#fff">
     <path d="m86.686 78.663-5.586-1.39-1.59-5.532 3.997-4.144 5.586 1.39 1.59 5.533z"/>
     <path d="m96.269 75.91-5.586-1.39-1.59-5.533 3.997-4.143 5.586 1.39 1.59 5.532z"/>
     <path d="m129.79 84.248-5.587-1.39-1.59-5.533 3.997-4.143 5.587 1.39 1.59 5.533z"/>
     <path d="m122.61 77.324-5.586-1.39-1.59-5.532 3.997-4.143 5.586 1.39 1.59 5.532z"/>
     <path d="m113.03 80.078-5.586-1.39-1.59-5.532 3.997-4.144 5.586 1.39 1.59 5.533z"/>
     <path d="m103.45 82.832-5.587-1.39-1.59-5.533 3.997-4.143 5.587 1.39 1.59 5.533z"/>
     <path d="m139.37 81.494-5.587-1.39-1.59-5.533 3.997-4.143 5.587 1.39 1.59 5.533z"/>
     <path d="m91.456 95.263-5.587-1.39-1.59-5.533 3.997-4.143 5.587 1.39 1.59 5.533z"/>
     <path d="m117.8 96.678-5.587-1.39-1.59-5.533 3.997-4.143 5.587 1.39 1.59 5.533z"/>
     <path d="m108.22 99.432-5.586-1.39-1.59-5.533 3.997-4.143 5.586 1.39 1.59 5.532z"/>
     <path d="m101.04 92.509-5.587-1.39-1.59-5.532 3.997-4.144 5.587 1.39 1.59 5.533z"/>
     <path d="m134.56 100.85-5.586-1.39-1.59-5.532 3.997-4.143 5.586 1.39 1.59 5.532z"/>
     <path d="m127.38 93.924-5.587-1.39-1.59-5.533 3.997-4.143 5.587 1.39 1.59 5.533z"/>
     <path d="m144.14 98.093-5.587-1.39-1.59-5.533 3.997-4.143 5.587 1.39 1.59 5.532z"/>
     <path d="m105.85 73.156-5.586-1.39-1.59-5.533 3.997-4.143 5.587 1.39 1.59 5.532z"/>
    </g>
    <path d="m89.093 68.987-5.587-1.39-1.59-5.533 3.997-4.143 5.587 1.39 1.59 5.533z" fill="#eed49f"/>
    <g fill="#fff">
     <path d="m132.2 74.571-5.587-1.39-1.59-5.533 3.997-4.143 5.587 1.39 1.59 5.532z"/>
     <path d="m115.44 70.402-5.587-1.39-1.59-5.533 3.997-4.143 5.587 1.39 1.59 5.533z"/>
     <path d="m141.78 71.816-5.587-1.389-1.59-5.533 3.997-4.143 5.587 1.39 1.59 5.533z"/>
     <path d="m81.098 77.273 5.587 1.39 1.59 5.532-3.997 4.143-5.586-1.39-1.59-5.532z"/>
     <path d="m90.682 74.519 5.586 1.39 1.59 5.532-3.997 4.144-5.586-1.39-1.59-5.533z"/>
     <path d="m107.44 78.688 5.586 1.39 1.59 5.533-3.997 4.143-5.587-1.39-1.59-5.532z"/>
     <path d="m117.03 75.935 5.586 1.39 1.59 5.532-3.997 4.144-5.586-1.39-1.59-5.533z"/>
     <path d="m133.79 80.103 5.587 1.39 1.59 5.533-3.997 4.143-5.587-1.39-1.59-5.532z"/>
    </g>
   </g>
  </g>
 </g>
 <g stroke-linecap="square">
  <path d="m22.869 37.099 19.169-5.507 16.761 4.17" fill="none" stroke="#5b6078" stroke-dasharray="1.98388, 3.96775" stroke-width="1.9839"/>
  <path d="m87.503 63.454 19.169-5.507 16.76 4.17" fill="none" stroke="#5b6078" stroke-dasharray="1.98388, 3.96775" stroke-width="1.9839"/>
  <path d="m73.537 31.291c-2.1363 0.05331-4.2395 0.46468-6.3475 0.77989 0.3169 2.051 0.63765 4.1015 0.95721 6.1521 3.1844-0.53388 6.4669-1.1012 9.6724-0.38612 4.1164 0.82597 7.7264 3.3287 10.468 6.4413-1.3534 0.66827-2.7071 1.3361-4.0603 2.0047 4.6485 3.0962 9.2951 6.1955 13.943 9.293 0.36322-5.5732 0.72955-11.146 1.0951-16.719-1.7524 0.86581-3.5048 1.7316-5.2573 2.5974-3.9565-5.1417-9.7882-8.9886-16.273-9.9115-1.3886-0.20573-2.7946-0.28652-4.198-0.2517z" fill="#5b6078" fill-rule="evenodd" stop-color="#000000" stroke-width=".84064"/>
  <path d="m72.636 30.275c-2.2347 0.15948-4.4383 0.58509-6.6523 0.91211 0.42471 2.7517 0.85436 5.5026 1.2812 8.2539 3.5391-0.56617 7.1977-1.3719 10.782-0.47026 3.2439 0.78161 6.1627 2.6312 8.4955 4.9878-1.4759 0.72917-2.9518 1.4583-4.4277 2.1875 5.6657 3.7733 11.329 7.5495 16.994 11.324 0.44213-6.7918 0.88709-13.583 1.332-20.375-2.047 1.0114-4.0937 2.0235-6.1406 3.0352-4.6637-5.7612-11.754-9.7282-19.245-9.8867-0.80623-0.02082-1.6139-0.02359-2.4189 0.03125z" fill="#5b6078" fill-opacity=".2" fill-rule="evenodd" stop-color="#000000" stroke-width=".84064"/>
  <path d="m70.744 34.669c15.882-2.4696 23.142 12.235 23.142 12.235" fill="none" marker-end="url(#a)" stroke="#cad3f5" stroke-width="4.4473"/>
 </g>
</svg>
