<?xml version="1.0" encoding="UTF-8"?>
<svg width="100" height="100" version="1.1" viewBox="0 0 100 100" xmlns="http://www.w3.org/2000/svg">
 <defs>
  <marker id="h" overflow="visible" markerHeight="0.75" markerWidth="0.75" orient="auto-start-reverse" preserveAspectRatio="xMidYMid" viewBox="0 0 1 1">
   <path transform="scale(.5)" d="m5.77 0-8.65 5v-10z" fill="context-stroke" fill-rule="evenodd" stroke="context-stroke" stroke-width="1pt"/>
  </marker>
  <marker id="c" overflow="visible" markerHeight="0.75" markerWidth="0.75" orient="auto-start-reverse" preserveAspectRatio="xMidYMid" viewBox="0 0 1 1">
   <path transform="scale(.5)" d="m5.77 0-8.65 5v-10z" fill="context-stroke" fill-rule="evenodd" stroke="context-stroke" stroke-width="1pt"/>
  </marker>
  <marker id="f" overflow="visible" markerHeight="0.75" markerWidth="0.75" orient="auto-start-reverse" preserveAspectRatio="xMidYMid" viewBox="0 0 1 1">
   <path transform="scale(.5)" d="m5.77 0-8.65 5v-10z" fill="context-stroke" fill-rule="evenodd" stroke="context-stroke" stroke-width="1pt"/>
  </marker>
  <marker id="e" overflow="visible" markerHeight="0.75" markerWidth="0.75" orient="auto-start-reverse" preserveAspectRatio="xMidYMid" viewBox="0 0 1 1">
   <path transform="scale(.5)" d="m5.77 0-8.65 5v-10z" fill="context-stroke" fill-rule="evenodd" stroke="context-stroke" stroke-width="1pt"/>
  </marker>
  <marker id="g" overflow="visible" markerHeight="0.75" markerWidth="0.75" orient="auto-start-reverse" preserveAspectRatio="xMidYMid" viewBox="0 0 1 1">
   <path transform="scale(.5)" d="m5.77 0-8.65 5v-10z" fill="context-stroke" fill-rule="evenodd" stroke="context-stroke" stroke-width="1pt"/>
  </marker>
  <marker id="b" overflow="visible" markerHeight="0.75" markerWidth="0.75" orient="auto-start-reverse" preserveAspectRatio="xMidYMid" viewBox="0 0 1 1">
   <path transform="scale(.5)" d="m5.77 0-8.65 5v-10z" fill="context-stroke" fill-rule="evenodd" stroke="context-stroke" stroke-width="1pt"/>
  </marker>
  <marker id="a" overflow="visible" markerHeight="0.75" markerWidth="0.75" orient="auto-start-reverse" preserveAspectRatio="xMidYMid" viewBox="0 0 1 1">
   <path transform="scale(.5)" d="m5.77 0-8.65 5v-10z" fill="context-stroke" fill-rule="evenodd" stroke="context-stroke" stroke-width="1pt"/>
  </marker>
  <marker id="d" overflow="visible" markerHeight="0.75" markerWidth="0.75" orient="auto-start-reverse" preserveAspectRatio="xMidYMid" viewBox="0 0 1 1">
   <path transform="scale(.5)" d="m5.77 0-8.65 5v-10z" fill="context-stroke" fill-rule="evenodd" stroke="context-stroke" stroke-width="1pt"/>
  </marker>
 </defs>
 <g fill="#ffe699" fill-rule="evenodd" stroke-linecap="square">
  <path d="m18.941 13.614-2.0282 3.5131-4.0565 3.4e-5 -2.0283-3.513 2.0282-3.5131 4.0565-3.4e-5z" stroke-width="5.9954"/>
  <path d="m65.975 18.418-4.8039-1.2872-1.2872-4.8038 3.5166-3.5167 4.8039 1.2872 1.2872 4.8038z" stroke-width="7.3505"/>
  <path d="m43.413 38.075-1.8138 3.1416-3.6276-2.5e-5 -1.8138-3.1416 1.8138-3.1416 3.6276 2.5e-5z" stroke-width="5.3616"/>
  <path d="m22.058 64.457-5.251 5.251-7.173-1.922-1.922-7.173 5.251-5.251 7.173 1.922z" stroke-width="10.976"/>
  <path d="m95.451 39.643-4.2875 4.2875-5.8567-1.5693-1.5693-5.8567 4.2875-4.2875 5.8567 1.5693z" stroke-width="8.9615"/>
  <path d="m94.39 88.283-3.5166 3.5166-4.8037-1.2872-1.2872-4.8037 3.5166-3.5166 4.8037 1.2872z" stroke-width="7.3504"/>
  <path d="m68.995 60.048v4.9733l-4.3069 2.4866-4.3069-2.4866v-4.9733l4.3069-2.4866z" stroke-width="7.3504"/>
  <path d="m44.59 85.709-1.2872 4.8039-4.8038 1.2872-3.5167-3.5166 1.2872-4.8039 4.8038-1.2872z" stroke-width="7.3505"/>
  <g stroke="#ffe699">
   <g transform="translate(2.852 -1.6576)" stroke-width=".99624">
    <path d="m39.786 13.614v8.6656" marker-end="url(#h)"/>
    <path d="m39.786 13.614-6.1275-6.1275" marker-end="url(#h)"/>
   </g>
   <g transform="translate(-2.6201 .70711)" stroke-width=".90822">
    <path d="m63.981 37.367 5.5862-5.5862" marker-end="url(#c)"/>
    <path d="m63.981 37.367 5.5862 5.5862" marker-end="url(#c)"/>
   </g>
   <g transform="translate(-.28566 7.3137)" stroke-width="1.2839">
    <path d="m88.882 12.907-2.8904-10.787" marker-end="url(#f)"/>
    <path d="m88.882 12.907 5.5838-9.6715" marker-end="url(#f)"/>
   </g>
   <g stroke-width=".83907">
    <path d="m14.884 38.074 6.3207 3.6492" marker-end="url(#e)"/>
    <path d="m14.884 38.074-6.3207-3.6492" marker-end="url(#e)"/>
   </g>
   <g transform="translate(.70711 -5.1708)" stroke-width="1.2839">
    <path d="m39.079 61.828-5.5838 9.6715" marker-end="url(#g)"/>
    <path d="m39.079 61.828 5.5838 9.6715" marker-end="url(#g)"/>
   </g>
   <g transform="translate(-2.3481 1.3647)" stroke-width=".82021">
    <path d="m89.589 62.535v-7.1345" marker-end="url(#b)"/>
    <path d="m89.589 62.535 5.0448 5.0448" marker-end="url(#b)"/>
   </g>
   <g transform="translate(4.4867)" stroke-width="1.2247">
    <path d="m14.884 86.996-7.533 7.533" marker-end="url(#a)"/>
    <path d="m14.884 86.996-7.533-7.533" marker-end="url(#a)"/>
   </g>
   <g stroke-width="1.0396">
    <path d="m64.688 86.996-4.5212 7.8309" marker-end="url(#d)"/>
    <path d="m64.688 86.996 4.5212-7.8309" marker-end="url(#d)"/>
   </g>
  </g>
 </g>
</svg>
