<?xml version="1.0" encoding="UTF-8"?>
<svg width="267.91" height="439.1" version="1.1" viewBox="0 0 70.861 116.15" xmlns="http://www.w3.org/2000/svg">
 <g fill-rule="evenodd">
  <path d="m34.451 0.01959c-0.0977 0.0017-0.19525 0.0034663-0.29293 0.0051663-12.699 0.36019-24.904 8.166-30.457 19.61-5.0082 10.003-4.9821 22.426 0.34821 32.299 2.4133 4.6111 5.8832 8.6518 10.028 11.796-3.7128 9.8929-7.4259 19.786-11.138 29.679h13.037c0.45539 1.5779 0.90821 3.1566 1.3624 4.7349 0.92239 0.23036 1.8451 0.45929 2.7676 0.68919 0.2617 0.91212 0.52372 1.8244 0.78528 2.7366 0.92423 0.23213 1.8488 0.46204 2.7733 0.69332-0.45638 0.76302-0.91269 1.5256-1.3691 2.2887h-4.3438c-0.48453 3.8657-0.9662 7.7319-1.4491 11.598h37.854c-0.48336-3.8659-0.96623-7.7321-1.4512-11.598h-4.2069c0.45689-0.3806 0.78854-1.199 1.475-0.77856 0.72716 0.18146 1.4541 0.3628 2.1812 0.54453 1.289-1.334 2.5769-2.6694 3.8675-4.0018-0.51529-1.7814-1.028-3.564-1.5411-5.3461-0.91979-0.22971-1.8399-0.45787-2.7598-0.68712 0.05758-0.32459 0.3709-0.59826 0.67472-0.87362h15.324c-3.7112-9.8923-7.4236-19.784-11.136-29.676 0.18492-0.14216 0.36825-0.2862 0.55021-0.43242 7.8422-6.1503 12.956-15.717 13.464-25.695 0.60319-9.8438-3.047-19.914-10.021-26.923-6.8049-6.9803-16.569-10.998-26.327-10.662z" fill="#0f4119" fill-opacity=".2" style="paint-order:normal"/>
  <path d="m34.198 2.1418c-9.9357 0.31363-19.591 5.3789-25.491 13.381-5.8796 7.8143-8.0341 18.291-5.6742 27.785 1.8968 7.9394 6.8645 15.07 13.589 19.673-3.5423 9.4366-7.0855 18.873-10.627 28.31h58.871c-3.544-9.445-7.0901-18.889-10.635-28.334 5.5008-3.7797 9.8803-9.1988 12.266-15.449 3.5098-8.9408 2.8807-19.394-1.7111-27.836-4.254-7.9612-11.866-14.051-20.598-16.375-3.2451-0.88699-6.6276-1.2766-9.9906-1.1552z" fill="#cad3f5" style="paint-order:normal"/>
  <path d="m64.539 35.45a29.115 29.115 0 0 1-29.115 29.115 29.115 29.115 0 0 1-29.115-29.115 29.115 29.115 0 0 1 29.115-29.115 29.115 29.115 0 0 1 29.115 29.115z" fill="#d0f0cd" stop-color="#000000"/>
  <path d="m19.052 55.202 40.209-29.006-49.233 5.8482 45.885 18.78-31.006-38.688 8.3344 48.874 16.432-46.778-37.068 32.926 48.389-10.799-47.55-14.041 34.761 35.353-13.236-47.78-11.615 48.2 33.547-36.507-47.048 15.639 48.726 9.1586-38.159-31.655 18.002 46.196 6.6789-49.128-29.681 39.713 45.225-20.319-49.403-4.1821 41.166 27.632-22.583-44.138-1.6745 49.551 25.511-42.512-42.937 24.79 49.573-0.83737-43.75-23.325 26.933 41.626-3.3471-49.466z" fill="#ace8a5" stroke="#86db64" stroke-linecap="square" stroke-width=".25585" style="paint-order:normal"/>
  <path d="m35.424 3.6886c-17.51 0-31.762 14.252-31.762 31.762s14.252 31.76 31.762 31.76c17.509 0 31.76-14.25 31.76-31.76s-14.25-31.762-31.76-31.762zm0 5.291c14.65 0 26.469 11.82 26.469 26.471s-11.818 26.471-26.469 26.471c-14.65 0-26.471-11.82-26.471-26.471s11.82-26.471 26.471-26.471z" fill="#98e381" stop-color="#000000" stroke="#5b6078" stroke-linecap="square" stroke-width=".66129"/>
 </g>
 <g fill="#5b6078" fill-rule="evenodd" font-family="sans-serif" font-size="3.4281px" letter-spacing="0px" stroke-linecap="square" stroke-width="1.0713" text-anchor="middle">
  <text x="34.963009" y="7.6361537" text-align="center" style="line-height:1.2;paint-order:normal" xml:space="preserve"><tspan x="34.963009" y="7.6361537" fill="#5b6078" stroke-width="1.0713">C</tspan></text>
  <text transform="rotate(11.613)" x="41.411373" y="-0.18202162" text-align="center" style="line-height:1.2;paint-order:normal" xml:space="preserve"><tspan x="41.411373" y="-0.18202162" fill="#5b6078" stroke-width="1.0713">D𝄫</tspan></text>
  <text transform="rotate(23.226)" x="46.056702" y="-9.2104282" text-align="center" style="line-height:1.2;paint-order:normal" xml:space="preserve"><tspan x="46.056702" y="-9.2104282" fill="#5b6078" stroke-width="1.0713">C♯</tspan></text>
  <text transform="rotate(34.839)" x="48.872738" y="-18.954073" text-align="center" style="line-height:1.2;paint-order:normal" xml:space="preserve"><tspan x="48.872738" y="-18.954073" fill="#5b6078" stroke-width="1.0713">D♭</tspan></text>
  <text transform="rotate(46.452)" x="49.569008" y="-28.986725" text-align="center" style="line-height:1.2;paint-order:normal" xml:space="preserve"><tspan x="49.569008" y="-28.986725" fill="#5b6078" stroke-width="1.0713">C𝄪</tspan></text>
  <text transform="rotate(58.065)" x="48.376602" y="-39.124619" text-align="center" style="line-height:1.2;paint-order:normal" xml:space="preserve"><tspan x="48.376602" y="-39.124619" fill="#5b6078" stroke-width="1.0713">D</tspan></text>
  <text transform="rotate(81.291)" x="39.949848" y="-57.462112" text-align="center" style="line-height:1.2;paint-order:normal" xml:space="preserve"><tspan x="39.949848" y="-57.462112" fill="#5b6078" stroke-width="1.0713">D♯</tspan></text>
  <text transform="rotate(69.678)" x="45.133076" y="-48.748787" text-align="center" style="line-height:1.2;paint-order:normal" xml:space="preserve"><tspan x="45.133076" y="-48.748787" fill="#5b6078" stroke-width="1.0713">E𝄫</tspan></text>
  <text transform="rotate(92.904)" x="33.140865" y="-65.031303" text-align="center" style="line-height:1.2;paint-order:normal" xml:space="preserve"><tspan x="33.140865" y="-65.031303" fill="#5b6078" stroke-width="1.0713">E♭</tspan></text>
  <text transform="rotate(104.52)" x="24.941591" y="-71.037117" text-align="center" style="line-height:1.2;paint-order:normal" xml:space="preserve"><tspan x="24.941591" y="-71.037117" fill="#5b6078" stroke-width="1.0713">D𝄪</tspan></text>
  <text transform="rotate(116.13)" x="15.740091" y="-75.29525" text-align="center" style="line-height:1.2;paint-order:normal" xml:space="preserve"><tspan x="15.740091" y="-75.29525" fill="#5b6078" stroke-width="1.0713">E</tspan></text>
  <text transform="rotate(127.74)" x="5.8434291" y="-77.595085" text-align="center" style="line-height:1.2;paint-order:normal" xml:space="preserve"><tspan x="5.8434291" y="-77.595085" fill="#5b6078" stroke-width="1.0713">F♭</tspan></text>
  <text transform="rotate(139.36)" x="-4.3101912" y="-77.858047" text-align="center" style="line-height:1.2;paint-order:normal" xml:space="preserve"><tspan x="-4.3101912" y="-77.858047" fill="#5b6078" stroke-width="1.0713">E♯</tspan></text>
  <text transform="rotate(150.97)" x="-14.297001" y="-76.07077" text-align="center" style="line-height:1.2;paint-order:normal" xml:space="preserve"><tspan x="-14.297001" y="-76.07077" fill="#5b6078" stroke-width="1.0713">F</tspan></text>
  <text transform="rotate(162.58)" x="-23.720249" y="-72.333801" text-align="center" style="line-height:1.2;paint-order:normal" xml:space="preserve"><tspan x="-23.720249" y="-72.333801" fill="#5b6078" stroke-width="1.0713">G𝄫</tspan></text>
  <text transform="rotate(174.2)" x="-32.221268" y="-66.724716" text-align="center" style="line-height:1.2;paint-order:normal" xml:space="preserve"><tspan x="-32.221268" y="-66.724716" fill="#5b6078" stroke-width="1.0713">F♯</tspan></text>
  <text transform="rotate(-11.613)" x="27.107058" y="14.040041" text-align="center" style="line-height:1.2;paint-order:normal" xml:space="preserve"><tspan x="27.107058" y="14.040041" fill="#5b6078" stroke-width="1.0713">B♯</tspan></text>
  <text transform="rotate(-23.226)" x="18.098503" y="18.735754" text-align="center" style="line-height:1.2;paint-order:normal" xml:space="preserve"><tspan x="18.098503" y="18.735754" fill="#5b6078" stroke-width="1.0713">C♭</tspan></text>
  <text transform="rotate(-34.839)" x="8.372406" y="21.518061" text-align="center" style="line-height:1.2;paint-order:normal" xml:space="preserve"><tspan x="8.372406" y="21.518061" fill="#5b6078" stroke-width="1.0713">B</tspan></text>
  <text transform="rotate(-46.452)" x="-1.8329829" y="22.354923" text-align="center" style="line-height:1.2;paint-order:normal" xml:space="preserve"><tspan x="-1.832983" y="22.354923" fill="#5b6078" stroke-width="1.0713">A𝄪</tspan></text>
  <text transform="rotate(-58.065)" x="-11.800074" y="20.999825" text-align="center" style="line-height:1.2;paint-order:normal" xml:space="preserve"><tspan x="-11.800074" y="20.999825" fill="#5b6078" stroke-width="1.0713">B♭</tspan></text>
  <text transform="rotate(-69.678)" x="-21.432257" y="17.71567" text-align="center" style="line-height:1.2;paint-order:normal" xml:space="preserve"><tspan x="-21.432257" y="17.71567" fill="#5b6078" stroke-width="1.0713">A♯</tspan></text>
  <text transform="rotate(-81.291)" x="-30.104177" y="12.608299" text-align="center" style="line-height:1.2;paint-order:normal" xml:space="preserve"><tspan x="-30.104177" y="12.608299" fill="#5b6078" stroke-width="1.0713">B𝄫</tspan></text>
  <text transform="rotate(267.1)" x="-37.660328" y="5.7675796" text-align="center" style="line-height:1.2;paint-order:normal" xml:space="preserve"><tspan x="-37.660328" y="5.7675796" fill="#5b6078" stroke-width="1.0713">A</tspan></text>
  <text transform="rotate(255.48)" x="-43.664177" y="-2.3595154" text-align="center" style="line-height:1.2;paint-order:normal" xml:space="preserve"><tspan x="-43.664177" y="-2.3595154" fill="#5b6078" stroke-width="1.0713">G𝄪</tspan></text>
  <text transform="rotate(243.87)" x="-47.91695" y="-11.624208" text-align="center" style="line-height:1.2;paint-order:normal" xml:space="preserve"><tspan x="-47.91695" y="-11.624208" fill="#5b6078" stroke-width="1.0713">A♭</tspan></text>
  <text transform="rotate(232.26)" x="-50.192867" y="-21.501324" text-align="center" style="line-height:1.2;paint-order:normal" xml:space="preserve"><tspan x="-50.192867" y="-21.501324" fill="#5b6078" stroke-width="1.0713">G♯</tspan></text>
  <text transform="rotate(220.64)" x="-50.404411" y="-31.631222" text-align="center" style="line-height:1.2;paint-order:normal" xml:space="preserve"><tspan x="-50.404411" y="-31.631222" fill="#5b6078" stroke-width="1.0713">A𝄫</tspan></text>
  <text transform="rotate(209.03)" x="-48.647308" y="-41.619461" text-align="center" style="line-height:1.2;paint-order:normal" xml:space="preserve"><tspan x="-48.647308" y="-41.619461" fill="#5b6078" stroke-width="1.0713">G</tspan></text>
  <text transform="rotate(197.42)" x="-44.887947" y="-51.019413" text-align="center" style="line-height:1.2;paint-order:normal" xml:space="preserve"><tspan x="-44.887947" y="-51.019413" fill="#5b6078" stroke-width="1.0713">F𝄪</tspan></text>
  <text transform="rotate(185.8)" x="-39.298717" y="-59.503601" text-align="center" style="line-height:1.2;paint-order:normal" xml:space="preserve"><tspan x="-39.298717" y="-59.503601" fill="#5b6078" stroke-width="1.0713">G♭</tspan></text>
 </g>
 <g fill-rule="evenodd" stroke-linecap="square">
  <path d="m20.454 57.293-12.168 32.411h54.289l-12.168-32.411z" fill="#98e381" stroke="#5b6078" stroke-width=".52903" style="paint-order:normal"/>
  <path d="m32.235 91.018c-3.0124 5.0404-6.0247 10.081-9.0371 15.121h-3.8438c-0.35193 2.8064-0.70039 5.6133-1.0508 8.4199h34.256c-0.35071-2.8067-0.70043-5.6134-1.0527-8.4199h-3.8438c-3.0634-5.1266-6.1302-10.251-9.1914-15.379h-6.082c-0.05143 0.0859-0.10286 0.17187-0.1543 0.25781z" fill="#cad3f5" stroke-width=".42927"/>
  <path d="m32.69 91.291-9.1921 15.379h-3.6769l-0.91922 7.3608h33.057l-0.91922-7.3608h-3.6769l-9.1921-15.379z" fill="#5b6078" stroke="#5b6078" stroke-width=".42927"/>
 </g>
 <path d="m23.635 76.293-1.8725 1.9398q-1.3821-0.34293-2.7638-0.68735l-2.5955 2.692 1.0313 3.5946 2.7648 0.68785 0.54137 1.8819-1.9794 2.0492q0.39489 1.3693 0.7883 2.7385-0.98872 1.0253-1.9794 2.0497 0.51762 1.7963 1.0333 3.5941l2.7657 0.68934 0.78583 2.7375c1.2094 0.30186 2.4198 0.60124 3.6293 0.90311l1.9769-2.0507 1.9012 0.47308 0.78682 2.7375c1.2094 0.30186 2.4189 0.60174 3.6283 0.9041l1.9769-2.0517 2.7648 0.68834 1.9789-2.0512 1.9002 0.47258 0.78682 2.7375c1.2094 0.30186 2.4189 0.60174 3.6283 0.9041l1.9779-2.0507 2.7638 0.68835q1.2985-1.346 2.598-2.691-0.51762-1.7973-1.0342-3.5951l-2.7633-0.68785-0.54187-1.8804 1.9794-2.0536c-0.26475-0.91153-0.52603-1.8236-0.78929-2.7351l1.9809-2.0532q-0.51861-1.7963-1.0342-3.5926l-2.7648-0.68686-0.78682-2.7385-3.6273-0.9041-1.9789 2.0512-1.9002-0.4716-0.78682-2.7375-3.6283-0.90509-1.9779 2.0507q-1.3821-0.34343-2.7638-0.68785l-1.9779 2.0507-1.9022-0.47159-0.78632-2.739c-1.2094-0.30136-2.4198-0.60075-3.6288-0.90261z" fill="#cad3f5" fill-rule="evenodd" stroke-linecap="square" stroke-width=".56512" paint-order="fill markers stroke"/>
 <g transform="matrix(.49486 0 0 .49486 13.705 68.331)" fill-rule="evenodd" stroke="#5b6078" stroke-linecap="square" stroke-width=".66129">
  <g fill="#d0f0cd">
   <path d="m14.374 31.418-5.587-1.39-1.59-5.533 3.997-4.143 5.587 1.39 1.59 5.532z"/>
   <path d="m23.957 28.664-5.587-1.39-1.59-5.533 3.997-4.143 5.587 1.39 1.59 5.533z"/>
   <path d="m50.3 30.08-5.586-1.39-1.59-5.533 3.997-4.143 5.587 1.39 1.59 5.532z"/>
   <path d="m40.717 32.834-5.586-1.39-1.59-5.533 3.997-4.143 5.586 1.39 1.59 5.532z"/>
  </g>
  <path d="m31.133 35.587-5.586-1.39-1.59-5.532 3.997-4.144 5.586 1.39 1.59 5.533z" fill="#ace8a5"/>
  <path d="m67.061 34.248-5.586-1.39-1.59-5.532 3.997-4.143 5.586 1.39 1.59 5.532z" fill="#d0f0cd"/>
  <path d="m57.477 37.002-5.586-1.39-1.59-5.532 3.997-4.144 5.586 1.39 1.59 5.533z" fill="#ace8a5"/>
  <g fill="#82e675">
   <path d="m19.143 48.017-5.586-1.39-1.59-5.532 3.997-4.144 5.586 1.39 1.59 5.533z" paint-order="fill markers stroke"/>
   <path d="m28.726 45.264-5.586-1.39-1.59-5.533 3.997-4.143 5.586 1.39 1.59 5.532z" paint-order="fill markers stroke"/>
   <path d="m62.248 53.602-5.587-1.39-1.59-5.533 3.997-4.143 5.587 1.39 1.59 5.533z"/>
   <path d="m55.07 46.678-5.586-1.39-1.59-5.532 3.997-4.143 5.586 1.39 1.59 5.532z"/>
   <path d="m45.487 49.432-5.586-1.39-1.59-5.532 3.997-4.144 5.586 1.39 1.59 5.533z"/>
   <path d="m35.903 52.186-5.587-1.39-1.59-5.533 3.997-4.143 5.587 1.39 1.59 5.533z"/>
   <path d="m71.827 50.848-5.587-1.39-1.59-5.533 3.997-4.143 5.587 1.39 1.59 5.533z" paint-order="fill markers stroke"/>
  </g>
  <g fill="#d0f0cd">
   <path d="m23.913 64.617-5.587-1.39-1.59-5.533 3.997-4.143 5.587 1.39 1.59 5.533z"/>
   <path d="m50.257 66.032-5.587-1.39-1.59-5.533 3.997-4.143 5.587 1.39 1.59 5.533z"/>
   <path d="m40.673 68.786-5.586-1.39-1.59-5.533 3.997-4.143 5.586 1.39 1.59 5.532z"/>
  </g>
  <path d="m33.496 61.863-5.587-1.39-1.59-5.532 3.997-4.144 5.587 1.39 1.59 5.533z" fill="#ace8a5"/>
  <path d="m67.017 70.2-5.586-1.39-1.59-5.532 3.997-4.143 5.586 1.39 1.59 5.532z" fill="#d0f0cd"/>
  <path d="m59.84 63.278-5.587-1.39-1.59-5.533 3.997-4.143 5.587 1.39 1.59 5.533z" fill="#ace8a5"/>
  <path d="m76.597 67.447-5.587-1.39-1.59-5.533 3.997-4.143 5.587 1.39 1.59 5.532z" fill="#d0f0cd"/>
  <g fill="#ace8a5">
   <path d="m38.31 42.51-5.586-1.39-1.59-5.533 3.997-4.143 5.587 1.39 1.59 5.532z"/>
   <path d="m21.55 38.341-5.587-1.39-1.59-5.533 3.997-4.143 5.587 1.39 1.59 5.533z"/>
   <path d="m64.655 43.925-5.587-1.39-1.59-5.533 3.997-4.143 5.587 1.39 1.59 5.532z"/>
   <path d="m47.894 39.756-5.587-1.39-1.59-5.533 3.997-4.143 5.587 1.39 1.59 5.533z"/>
   <path d="m74.237 41.17-5.587-1.389-1.59-5.533 3.997-4.143 5.587 1.39 1.59 5.533z"/>
   <path d="m13.555 46.627 5.587 1.39 1.59 5.532-3.997 4.143-5.586-1.39-1.59-5.532z"/>
   <path d="m23.139 43.873 5.586 1.39 1.59 5.532-3.997 4.144-5.586-1.39-1.59-5.533z"/>
   <path d="m39.9 48.042 5.586 1.39 1.59 5.533-3.997 4.143-5.587-1.39-1.59-5.532z"/>
   <path d="m49.483 45.289 5.586 1.39 1.59 5.532-3.997 4.144-5.586-1.39-1.59-5.533z"/>
   <path d="m66.243 49.457 5.587 1.39 1.59 5.533-3.997 4.143-5.587-1.39-1.59-5.532z"/>
  </g>
  <g fill="#5b6078" fill-rule="evenodd" font-family="sans-serif" font-size="4.2323px" letter-spacing="0px" stroke="none" stroke-linejoin="round">
   <path d="m35.557 45.346v0.44018q-0.21079-0.19632-0.45051-0.29345-0.23765-0.09713-0.50631-0.09713-0.52904 0-0.81009 0.32445-0.28105 0.32238-0.28105 0.93408 0 0.60963 0.28105 0.93408 0.28105 0.32238 0.81009 0.32238 0.26865 0 0.50631-0.09713 0.23972-0.09713 0.45051-0.29345v0.43604q-0.21905 0.14879-0.46497 0.22319-0.24385 0.0744-0.51664 0.0744-0.70056 0-1.1035-0.42778-0.40298-0.42984-0.40298-1.1717 0-0.74396 0.40298-1.1717 0.40298-0.42984 1.1035-0.42984 0.27692 0 0.52077 0.07439 0.24592 0.07233 0.46084 0.21906z" style="paint-order:fill markers stroke" aria-label="C"/>
   <path d="m43.018 42.699v2.3993h0.50424q0.63856 0 0.93408-0.28932 0.29758-0.28932 0.29758-0.91342 0-0.61997-0.29758-0.90722-0.29552-0.28932-0.93408-0.28932zm-0.41744-0.34305h0.85762q0.89688 0 1.3164 0.37405 0.41951 0.37198 0.41951 1.1655 0 0.79769-0.42158 1.1717-0.42158 0.37405-1.3143 0.37405h-0.85762z" style="paint-order:fill markers stroke" aria-label="D"/>
   <path d="m52.486 39.603h1.9508v0.35131h-1.5334v0.91342h1.4693v0.35131h-1.4693v1.118h1.5706v0.35131h-1.988z" style="paint-order:fill markers stroke" aria-label="E"/>
   <path d="m59.771 46.526h1.7731v0.35131h-1.3557v0.90928h1.2234v0.35131h-1.2234v1.4735h-0.41744z" style="paint-order:fill markers stroke" aria-label="F"/>
   <path d="m71.171 46.415v-0.82869h-0.68196v-0.34305h1.0953v1.3247q-0.24179 0.17152-0.53317 0.26039-0.29138 0.0868-0.62203 0.0868-0.72329 0-1.1325-0.42158-0.40711-0.42364-0.40711-1.1779 0-0.75636 0.40711-1.1779 0.40918-0.42364 1.1325-0.42364 0.30172 0 0.57244 0.0744 0.27278 0.0744 0.50217 0.21906v0.44431q-0.23145-0.19632-0.49184-0.29552-0.26038-0.0992-0.54764-0.0992-0.56624 0-0.85142 0.31618-0.28312 0.31618-0.28312 0.94235 0 0.6241 0.28312 0.94028 0.28518 0.31618 0.85142 0.31618 0.22112 0 0.39471-0.0372 0.17359-0.03926 0.31205-0.11986z" style="paint-order:fill markers stroke" aria-label="G"/>
   <path d="m17.554 41.353-0.56624 1.5354h1.1345zm-0.23559-0.41124h0.47324l1.1759 3.0854h-0.43398l-0.28105-0.79149h-1.3908l-0.28105 0.79149h-0.44018z" style="paint-order:fill markers stroke" aria-label="A"/>
   <path d="m26.46 39.8v1.1304h0.66956q0.33685 0 0.49804-0.13846 0.16326-0.14052 0.16326-0.42778 0-0.28932-0.16326-0.42571-0.16119-0.13846-0.49804-0.13846zm0-1.2689v0.92995h0.6179q0.30585 0 0.45464-0.11366 0.15086-0.11573 0.15086-0.35131 0-0.23352-0.15086-0.34925-0.14879-0.11573-0.45464-0.11573zm-0.41744-0.34305h1.0663q0.47737 0 0.73569 0.19839t0.25832 0.56417q0 0.28312-0.13226 0.45051-0.13226 0.16739-0.38851 0.20872 0.30792 0.06613 0.47737 0.27692 0.17152 0.20872 0.17152 0.52284 0 0.41331-0.28105 0.63856t-0.79976 0.22525h-1.1077z" style="paint-order:fill markers stroke" aria-label="B"/>
   <path d="m39.383 25.994v0.44018q-0.21079-0.19632-0.45051-0.29345-0.23765-0.09713-0.5063-0.09713-0.52904 0-0.81009 0.32445-0.28105 0.32238-0.28105 0.93408 0 0.60963 0.28105 0.93408 0.28105 0.32238 0.81009 0.32238 0.26865 0 0.5063-0.09713 0.23972-0.09713 0.45051-0.29345v0.43604q-0.21906 0.14879-0.46497 0.22319-0.24385 0.0744-0.51664 0.0744-0.70056 0-1.1035-0.42778-0.40298-0.42984-0.40298-1.1717 0-0.74396 0.40298-1.1717 0.40298-0.42984 1.1035-0.42984 0.27692 0 0.52077 0.0744 0.24592 0.07233 0.46084 0.21906zm1.6176 1.8658q-0.07618 0-0.12274 0.06772-0.04656 0.06349-0.04656 0.16083 0 0.22008 0.16929 0.22008h0.35974v0.5629h-0.57982v-0.35974q0-0.16506-0.22854-0.16506-0.09311 0-0.16083 0.05079-0.06772 0.05079-0.06772 0.11427v0.35974h-0.55443v-0.5629h0.35975q0.16506 0 0.16506-0.22008 0-0.09734-0.05079-0.16083-0.04656-0.06772-0.11427-0.06772h-0.35974v-0.56713h0.55443v0.35975q0 0.07618 0.06772 0.12697 0.06772 0.04656 0.16083 0.04656 0.22854 0 0.22854-0.17352v-0.35975h0.57982v0.56713z" style="paint-order:fill markers stroke" aria-label="C𝄪"/>
   <path d="m46.833 23.333v2.3993h0.50424q0.63856 0 0.93408-0.28932 0.29758-0.28932 0.29758-0.91342 0-0.61997-0.29758-0.90722-0.29552-0.28932-0.93408-0.28932zm-0.41744-0.34305h0.85762q0.89688 0 1.3164 0.37405 0.41951 0.37198 0.41951 1.1655 0 0.79769-0.42158 1.1717-0.42158 0.37405-1.3143 0.37405h-0.85762zm4.2318 2.1035q-0.07618 0-0.12274 0.06772-0.04656 0.06348-0.04656 0.16083 0 0.22008 0.16929 0.22008h0.35975v0.5629h-0.57982v-0.35975q0-0.16506-0.22854-0.16506-0.09311 0-0.16083 0.05079-0.06772 0.05079-0.06772 0.11427v0.35975h-0.55443v-0.5629h0.35975q0.16506 0 0.16506-0.22008 0-0.09734-0.05079-0.16083-0.04656-0.06772-0.11427-0.06772h-0.35974v-0.56713h0.55443v0.35974q0 0.07618 0.06772 0.12697 0.06772 0.04656 0.16083 0.04656 0.22854 0 0.22854-0.17352v-0.35975h0.57982v0.56713z" style="paint-order:fill markers stroke" aria-label="D𝄪"/>
   <path d="m63.588 27.158h1.7731v0.35131h-1.3557v0.90928h1.2234v0.35131h-1.2234v1.4735h-0.41744zm3.4072 2.1035q-0.07618 0-0.12274 0.06772-0.04656 0.06348-0.04656 0.16083 0 0.22008 0.16929 0.22008h0.35975v0.5629h-0.57982v-0.35975q0-0.16506-0.22854-0.16506-0.09311 0-0.16083 0.05079-0.06772 0.05079-0.06772 0.11427v0.35975h-0.55443v-0.5629h0.35975q0.16506 0 0.16506-0.22008 0-0.09734-0.05079-0.16083-0.04655-0.06772-0.11427-0.06772h-0.35975v-0.56713h0.55443v0.35974q0 0.07618 0.06772 0.12697 0.06772 0.04656 0.16083 0.04656 0.22854 0 0.22854-0.17352v-0.35974h0.57982v0.56713z" style="paint-order:fill markers stroke" aria-label="F𝄪"/>
   <path d="m12.671 26.985v-0.82869h-0.68196v-0.34305h1.0953v1.3247q-0.24179 0.17152-0.53317 0.26038-0.29138 0.0868-0.62203 0.0868-0.72329 0-1.1325-0.42158-0.40711-0.42364-0.40711-1.1779 0-0.75636 0.40711-1.1779 0.40918-0.42364 1.1325-0.42364 0.30172 0 0.57244 0.0744 0.27278 0.07439 0.50217 0.21905v0.44431q-0.23145-0.19632-0.49184-0.29552-0.26039-0.0992-0.54764-0.0992-0.56624 0-0.85142 0.31618-0.28312 0.31618-0.28312 0.94235 0 0.6241 0.28312 0.94028 0.28518 0.31618 0.85142 0.31618 0.22112 0 0.39471-0.0372 0.17359-0.03926 0.31205-0.11986zm2.1487-0.54172q-0.07618 0-0.12274 0.06772-0.04656 0.06348-0.04656 0.16083 0 0.22008 0.16929 0.22008h0.35975v0.5629h-0.57982v-0.35975q0-0.16506-0.22854-0.16506-0.09311 0-0.16083 0.05079-0.06772 0.05079-0.06772 0.11427v0.35975h-0.55443v-0.5629h0.35975q0.16506 0 0.16506-0.22008 0-0.09734-0.05079-0.16083-0.04656-0.06772-0.11427-0.06772h-0.35975v-0.56713h0.55443v0.35974q0 0.07618 0.06772 0.12697 0.06772 0.04656 0.16083 0.04656 0.22854 0 0.22854-0.17352v-0.35974h0.57982v0.56713z" style="paint-order:fill markers stroke" aria-label="G𝄪"/>
   <g transform="translate(-3.5688,-47.794)">
    <path d="m35.776 102.82v0.44017q-0.21079-0.19632-0.45051-0.29345-0.23765-0.0971-0.5063-0.0971-0.52904 0-0.81009 0.32445-0.28105 0.32239-0.28105 0.93409 0 0.60963 0.28105 0.93408 0.28105 0.32238 0.81009 0.32238 0.26865 0 0.5063-0.0971 0.23972-0.0971 0.45051-0.29345v0.43604q-0.21906 0.1488-0.46497 0.22319-0.24385 0.0744-0.51664 0.0744-0.70056 0-1.1035-0.42778-0.40298-0.42984-0.40298-1.1717 0-0.74396 0.40298-1.1717 0.40298-0.42984 1.1035-0.42984 0.27692 0 0.52077 0.0744 0.24592 0.0723 0.46084 0.21906zm0.61583-0.24592h0.093l0.01033 0.0124v1.986h0.0062q0.35131-0.48977 0.65096-0.48977 0.46911 6e-3 0.51044 0.5373-0.05993 0.87829-1.2771 1.0602l-0.0062-6e-3v-3.0874zm0.10333 2.2195v0.73362q0.86382-0.20459 0.86382-0.83489 0.0021-0.0269 0.0021-0.0517 0-0.30585-0.30792-0.32238-0.24592 0-0.55797 0.47531z" style="paint-order:fill markers stroke" aria-label="C♭"/>
    <path d="m43.225 100.17v2.3993h0.50424q0.63856 0 0.93408-0.28932 0.29758-0.28931 0.29758-0.91341 0-0.61997-0.29758-0.90722-0.29552-0.28932-0.93408-0.28932zm-0.41744-0.34304h0.85762q0.89688 0 1.3164 0.37404 0.41951 0.37198 0.41951 1.1655 0 0.79769-0.42158 1.1717-0.42158 0.37405-1.3143 0.37405h-0.85762zm3.23-0.0083h0.093l0.01033 0.0124v1.986h0.0062q0.35131-0.48978 0.65096-0.48978 0.46911 6e-3 0.51044 0.53731-0.05993 0.87828-1.2771 1.0601l-0.0062-6e-3v-3.0874zm0.10333 2.2195v0.73362q0.86382-0.20458 0.86382-0.83488 0.0021-0.0269 0.0021-0.0517 0-0.30585-0.30792-0.32238-0.24592 0-0.55797 0.47531z" style="paint-order:fill markers stroke" aria-label="D♭"/>
    <path d="m52.683 97.071h1.9508v0.35131h-1.5334v0.91342h1.4693v0.35131h-1.4693v1.118h1.5706v0.35131h-1.988zm2.6452-0.0083h0.093l0.01033 0.0124v1.986h0.0062q0.35131-0.48977 0.65096-0.48977 0.46911 0.0062 0.51044 0.5373-0.05993 0.87828-1.2771 1.0601l-0.0062-6e-3v-3.0874zm0.10333 2.2195v0.73363q0.86382-0.2046 0.86382-0.8349 0.0021-0.02687 0.0021-0.05166 0-0.30585-0.30792-0.32238-0.24592 0-0.55797 0.47531z" style="paint-order:fill markers stroke" aria-label="E♭"/>
    <path d="m59.981 103.99h1.7731v0.35132h-1.3557v0.90928h1.2234v0.35132h-1.2234v1.4734h-0.41744zm2.4055-8e-3h0.093l0.01033 0.0124v1.986h0.0062q0.35131-0.48977 0.65096-0.48977 0.46911 6e-3 0.51044 0.53731-0.05993 0.87828-1.2771 1.0601l-0.0062-6e-3v-3.0874zm0.10333 2.2195v0.73362q0.86382-0.20459 0.86382-0.83488 0.0021-0.0269 0.0021-0.0517 0-0.30585-0.30792-0.32238-0.24592 0-0.55797 0.47531z" style="paint-order:fill markers stroke" aria-label="F♭"/>
    <path d="m71.334 103.88v-0.82868h-0.68196v-0.34305h1.0953v1.3247q-0.24179 0.17152-0.53317 0.26039-0.29138 0.0868-0.62203 0.0868-0.72329 0-1.1325-0.42158-0.40711-0.42364-0.40711-1.1779 0-0.75636 0.40711-1.1779 0.40918-0.42364 1.1325-0.42364 0.30172 0 0.57244 0.0744 0.27278 0.0744 0.50217 0.21905v0.44431q-0.23145-0.19632-0.49184-0.29552-0.26038-0.0992-0.54764-0.0992-0.56624 0-0.85142 0.31618-0.28312 0.31618-0.28312 0.94235 0 0.6241 0.28312 0.94028 0.28518 0.31618 0.85142 0.31618 0.22112 0 0.39471-0.0372 0.17359-0.0393 0.31205-0.11986zm1.1469-2.6534h0.09299l0.01033 0.0124v1.986h0.0062q0.35131-0.48978 0.65096-0.48978 0.46911 6e-3 0.51044 0.53731-0.05993 0.87828-1.2771 1.0601l-0.0062-6e-3v-3.0874zm0.10333 2.2195v0.73363q0.86382-0.20459 0.86382-0.83489 0.0021-0.0269 0.0021-0.0517 0-0.30585-0.30792-0.32238-0.24592 0-0.55797 0.47531z" style="paint-order:fill markers stroke" aria-label="G♭"/>
    <path d="m17.868 98.82-0.56624 1.5354h1.1345zm-0.23559-0.41124h0.47324l1.1759 3.0854h-0.43398l-0.28105-0.79149h-1.3908l-0.28105 0.79149h-0.44018zm2.0707-0.0083h0.093l0.01033 0.0124v1.986h0.0062q0.35131-0.48978 0.65096-0.48978 0.46911 0.0062 0.51044 0.53731-0.05993 0.87829-1.2771 1.0601l-0.0062-6e-3v-3.0874zm0.10333 2.2195v0.73363q0.86382-0.20459 0.86382-0.83489 0.0021-0.0269 0.0021-0.0517 0-0.30585-0.30792-0.32239-0.24592 0-0.55797 0.47531z" style="paint-order:fill markers stroke" aria-label="A♭"/>
    <path d="m26.642 97.267v1.1304h0.66956q0.33685 0 0.49804-0.13846 0.16326-0.14052 0.16326-0.42778 0-0.28932-0.16326-0.42571-0.16119-0.13846-0.49804-0.13846zm0-1.2689v0.92995h0.6179q0.30585 0 0.45464-0.11366 0.15086-0.11573 0.15086-0.35131 0-0.23352-0.15086-0.34925-0.14879-0.11573-0.45464-0.11573zm-0.41744-0.34305h1.0663q0.47737 0 0.73569 0.19839t0.25832 0.56417q0 0.28312-0.13226 0.45051-0.13226 0.16739-0.38851 0.20872 0.30792 0.06613 0.47737 0.27692 0.17152 0.20872 0.17152 0.52284 0 0.41331-0.28105 0.63856-0.28105 0.22525-0.79976 0.22525h-1.1077zm2.8746-0.0083h0.093l0.01033 0.0124v1.986h0.0062q0.35131-0.48977 0.65096-0.48977 0.46911 0.0062 0.51044 0.5373-0.05993 0.87828-1.2771 1.0601l-0.0062-0.0062v-3.0874zm0.10333 2.2195v0.73363q0.86382-0.20459 0.86382-0.83489 0.0021-0.02687 0.0021-0.05166 0-0.30585-0.30792-0.32238-0.24592 0-0.55797 0.47531z" style="paint-order:fill markers stroke" aria-label="B♭"/>
   </g>
   <path d="m21.475 21.985-0.56624 1.5354h1.1345zm-0.23559-0.41124h0.47324l1.1759 3.0854h-0.43398l-0.28105-0.79149h-1.3908l-0.28105 0.79149h-0.44018zm3.0724 2.1035q-0.07618 0-0.12274 0.06772-0.04656 0.06348-0.04656 0.16083 0 0.22008 0.16929 0.22008h0.35975v0.5629h-0.57983v-0.35974q0-0.16506-0.22854-0.16506-0.09311 0-0.16083 0.05079-0.06772 0.05079-0.06772 0.11427v0.35974h-0.55442v-0.5629h0.35974q0.16506 0 0.16506-0.22008 0-0.09734-0.05079-0.16083-0.04655-0.06772-0.11427-0.06772h-0.35974v-0.56713h0.55443v0.35974q0 0.07618 0.06772 0.12697 0.06772 0.04655 0.16083 0.04655 0.22854 0 0.22854-0.17352v-0.35974h0.57983v0.56713z" style="paint-order:fill markers stroke" aria-label="A𝄪"/>
   <path d="m37.003 35.67v0.44018q-0.21079-0.19632-0.45051-0.29345-0.23765-0.09713-0.5063-0.09713-0.52904 0-0.81009 0.32445-0.28105 0.32238-0.28105 0.93408 0 0.60963 0.28105 0.93408 0.28105 0.32238 0.81009 0.32238 0.26865 0 0.5063-0.09713 0.23972-0.09713 0.45051-0.29345v0.43604q-0.21906 0.14879-0.46498 0.22319-0.24385 0.0744-0.51664 0.0744-0.70056 0-1.1035-0.42778-0.40298-0.42984-0.40298-1.1717 0-0.74396 0.40298-1.1717 0.40298-0.42984 1.1035-0.42984 0.27692 0 0.52077 0.0744 0.24592 0.07233 0.46084 0.21905zm1.5664-0.24592h0.09506l0.01033 0.01033v0.62823l0.24592-0.12399 0.0062 0.0041v0.29138q-0.0062 0.01447-0.25212 0.13846v0.77082l0.25212-0.11366v0.27898q-0.0021 0.0083-0.25212 0.14673v0.61377l-0.01033 0.0083h-0.09506l-0.01033-0.0083v-0.56417l-0.59517 0.28932v0.71503l-0.01033 0.0083h-0.0868l-0.01033-0.0083v-0.66336l-0.26658 0.12399v-0.29345q0-0.0124 0.26658-0.13639v-0.78322h-0.0041l-0.26245 0.11573v-0.28725l0.26658-0.13433v-0.5931l0.01033-0.0083h0.0868l0.01033 0.0083v0.54144l0.59517-0.27692v-0.68816zm-0.6055 1.2875v0.77909l0.59517-0.28725v-0.76876z" style="paint-order:fill markers stroke" aria-label="C♯"/>
   <path d="m44.452 33.027v2.3993h0.50424q0.63856 0 0.93408-0.28932 0.29758-0.28932 0.29758-0.91342 0-0.61997-0.29758-0.90722-0.29552-0.28932-0.93408-0.28932zm-0.41744-0.34305h0.85762q0.89688 0 1.3164 0.37405 0.41951 0.37198 0.41951 1.1655 0 0.79769-0.42158 1.1717t-1.3143 0.37405h-0.85762zm4.1806-0.0083h0.09506l0.01033 0.01033v0.62823l0.24592-0.12399 0.0062 0.0041v0.29138q-0.0062 0.01447-0.25212 0.13846v0.77082l0.25212-0.11366v0.27898q-0.0021 0.0083-0.25212 0.14672v0.61377l-0.01033 0.0083h-0.09506l-0.01033-0.0083v-0.56417l-0.59517 0.28932v0.71503l-0.01033 0.0083h-0.08679l-0.01033-0.0083v-0.66336l-0.26658 0.12399v-0.29345q0-0.0124 0.26658-0.13639v-0.78322h-0.0041l-0.26245 0.11573v-0.28725l0.26658-0.13433v-0.5931l0.01033-0.0083h0.08679l0.01033 0.0083v0.54144l0.59517-0.27692v-0.68816zm-0.6055 1.2875v0.77909l0.59517-0.28725v-0.76876z" style="paint-order:fill markers stroke" aria-label="D♯"/>
   <path d="m53.911 29.93h1.9508v0.35131h-1.5334v0.91342h1.4693v0.35131h-1.4693v1.118h1.5706v0.35131h-1.988zm3.5958-0.0083h0.09506l0.01033 0.01033v0.62823l0.24592-0.12399 0.0062 0.0041v0.29138q-0.0062 0.01447-0.25212 0.13846v0.77082l0.25212-0.11366v0.27898q-0.0021 0.0083-0.25212 0.14672v0.61377l-0.01033 0.0083h-0.09506l-0.01033-0.0083v-0.5641l-0.59517 0.28932v0.71503l-0.01033 0.0083h-0.08679l-0.01033-0.0083v-0.66336l-0.26658 0.12399v-0.29345q0-0.0124 0.26658-0.13639v-0.78322h-0.0041l-0.26245 0.11573v-0.28725l0.26658-0.13433v-0.5931l0.01033-0.0083h0.08679l0.01033 0.0083v0.54144l0.59517-0.27692v-0.68816zm-0.6055 1.2875v0.77909l0.59517-0.28725v-0.76876z" style="paint-order:fill markers stroke" aria-label="E♯"/>
   <path d="m61.208 36.853h1.7731v0.35131h-1.3557v0.90928h1.2234v0.35131h-1.2234v1.4735h-0.41744zm3.3561-0.0083h0.09506l0.01033 0.01033v0.62823l0.24592-0.12399 0.0062 0.0041v0.29138q-0.0062 0.01447-0.25212 0.13846v0.77082l0.25212-0.11366v0.27898q-0.0021 0.0083-0.25212 0.14672v0.61377l-0.01033 0.0083h-0.09506l-0.01033-0.0083v-0.56417l-0.59517 0.28932v0.71503l-0.01033 0.0083h-0.0868l-0.01033-0.0083v-0.66336l-0.26658 0.12399v-0.29345q0-0.0124 0.26658-0.13639v-0.78322h-0.0041l-0.26245 0.11573v-0.28725l0.26658-0.13433v-0.5931l0.01033-0.0083h0.0868l0.01033 0.0083v0.54144l0.59517-0.27692v-0.68816zm-0.6055 1.2875v0.77909l0.59517-0.28725v-0.76876z" style="paint-order:fill markers stroke" aria-label="F♯"/>
   <path d="m72.56 36.738v-0.82869h-0.68196v-0.34305h1.0953v1.3247q-0.24179 0.17152-0.53317 0.26039-0.29138 0.0868-0.62203 0.0868-0.72329 0-1.1325-0.42158-0.40711-0.42364-0.40711-1.1779 0-0.75636 0.40711-1.1779 0.40918-0.42364 1.1325-0.42364 0.30172 0 0.57244 0.0744 0.27278 0.0744 0.50217 0.21906v0.44431q-0.23145-0.19632-0.49184-0.29552-0.26039-0.09919-0.54764-0.09919-0.56624 0-0.85142 0.31618-0.28312 0.31618-0.28312 0.94235 0 0.6241 0.28312 0.94028 0.28518 0.31618 0.85142 0.31618 0.22112 0 0.39471-0.0372 0.17359-0.03926 0.31205-0.11986zm2.0976-2.6535h0.09506l0.01033 0.01033v0.62823l0.24592-0.12399 0.0062 0.0041v0.29138q-0.0062 0.01447-0.25212 0.13846v0.77082l0.25212-0.11366v0.27898q-0.0021 0.0083-0.25212 0.14672v0.61377l-0.01033 0.0083h-0.09506l-0.01033-0.0083v-0.56417l-0.59517 0.28932v0.71503l-0.01033 0.0083h-0.08679l-0.01033-0.0083v-0.66333l-0.26658 0.12399v-0.29345q0-0.0124 0.26658-0.13639v-0.78322h-0.0041l-0.26245 0.11573v-0.28725l0.26658-0.13432v-0.5931l0.01033-0.0083h0.08679l0.01033 0.0083v0.54144l0.59517-0.27692v-0.68816zm-0.6055 1.2875v0.77909l0.59517-0.28725v-0.76876z" style="paint-order:fill markers stroke" aria-label="G♯"/>
   <path d="m19.095 31.681-0.56624 1.5354h1.1345zm-0.23559-0.41124h0.47324l1.1759 3.0854h-0.43398l-0.28105-0.79149h-1.3908l-0.28105 0.79149h-0.44018zm3.0213-0.0083h0.09506l0.01033 0.01033v0.62823l0.24592-0.12399 0.0062 0.0041v0.29138q-0.0062 0.01447-0.25212 0.13846v0.77082l0.25212-0.11366v0.27898q-0.0021 0.0083-0.25212 0.14672v0.61377l-0.01033 0.0083h-0.09506l-0.01033-0.0083v-0.56417l-0.59517 0.28932v0.71503l-0.01033 0.0083h-0.08679l-0.01033-0.0083v-0.66336l-0.26658 0.12399v-0.29345q0-0.0124 0.26658-0.13639v-0.78322h-0.0041l-0.26245 0.11573v-0.28725l0.26658-0.13433v-0.5931l0.01033-0.0083h0.08679l0.01033 0.0083v0.54144l0.59517-0.27692v-0.68816zm-0.6055 1.2875v0.77909l0.59517-0.28725v-0.76872z" style="paint-order:fill markers stroke" aria-label="A♯"/>
   <path d="m27.87 30.127v1.1304h0.66956q0.33685 0 0.49804-0.13846 0.16326-0.14053 0.16326-0.42778 0-0.28932-0.16326-0.42571-0.16119-0.13846-0.49804-0.13846zm0-1.2689v0.92995h0.6179q0.30585 0 0.45464-0.11366 0.15086-0.11573 0.15086-0.35131 0-0.23352-0.15086-0.34925-0.14879-0.11573-0.45464-0.11573zm-0.41744-0.34305h1.0663q0.47737 0 0.73569 0.19839 0.25832 0.19839 0.25832 0.56417 0 0.28312-0.13226 0.45051-0.13226 0.16739-0.38851 0.20872 0.30792 0.06613 0.47737 0.27692 0.17152 0.20872 0.17152 0.52284 0 0.41331-0.28105 0.63856-0.28105 0.22526-0.79976 0.22526h-1.1077zm3.8252-0.0083h0.09506l0.01033 0.01033v0.62823l0.24592-0.12399 0.0062 0.0041v0.29138q-0.0062 0.01447-0.25212 0.13846v0.77082l0.25212-0.11366v0.27898q-0.0021 0.0083-0.25212 0.14673v0.61377l-0.01033 0.0083h-0.09506l-0.01033-0.0083v-0.56417l-0.59517 0.28932v0.71503l-0.01033 0.0083h-0.0868l-0.01033-0.0083v-0.66329l-0.26658 0.12399v-0.29345q0-0.0124 0.26658-0.13639v-0.78322h-0.0041l-0.26245 0.11573v-0.28725l0.26658-0.13433v-0.5931l0.01033-0.0083h0.0868l0.01033 0.0083v0.54144l0.59517-0.27692v-0.68816zm-0.6055 1.2875v0.77909l0.59517-0.28725v-0.76876z" style="paint-order:fill markers stroke" aria-label="B♯"/>
   <path d="m36.896 62.03v2.3993h0.50424q0.63856 0 0.93408-0.28932 0.29758-0.28932 0.29758-0.91342 0-0.61997-0.29758-0.90722-0.29552-0.28932-0.93408-0.28932zm-0.41744-0.34305h0.85762q0.89688 0 1.3164 0.37405 0.41951 0.37198 0.41951 1.1655 0 0.79769-0.42158 1.1717t-1.3143 0.37405h-0.85762zm3.8255 2.0781q0-0.2751-0.20738-0.2751-0.10158 0-0.20738 0.06349-0.10158 0.05925-0.14813 0.16506v0.98189q0.25394-0.2878 0.4063-0.5375 0.1566-0.25394 0.1566-0.39784zm0.97343 0q0-0.2751-0.20738-0.2751-0.10158 0-0.20738 0.06349-0.10158 0.05925-0.14813 0.16506v0.98189q0.25394-0.2878 0.4063-0.5375 0.1566-0.25394 0.1566-0.39784zm-0.04232-0.5629q0.22431 0 0.33858 0.13967t0.11427 0.38514q0 0.18622-0.12697 0.35128-0.12274 0.16506-0.45286 0.49518-0.32589 0.33012-0.57559 0.63908v-1.0623q-0.06772 0.08465-0.39784 0.42323-0.33012 0.33858-0.57559 0.63908v-3.8387l0.18199-0.08041v2.0738q0.20738-0.16506 0.52057-0.16506 0.16506 0 0.27087 0.07618v-1.9045l0.18199-0.08041v2.0738q0.20738-0.16506 0.52057-0.16506z" style="paint-order:fill markers stroke" aria-label="D𝄫"/>
   <path d="m46.355 58.933h1.9508v0.35131h-1.5334v0.91342h1.4693v0.35131h-1.4693v1.118h1.5706v0.35131h-1.988zm3.2406 2.0781q0-0.2751-0.20738-0.2751-0.10158 0-0.20738 0.06348-0.10158 0.05925-0.14813 0.16506v0.98189q0.25394-0.2878 0.4063-0.5375 0.1566-0.25394 0.1566-0.39784zm0.97343 0q0-0.2751-0.20738-0.2751-0.10158 0-0.20738 0.06348-0.10158 0.05925-0.14813 0.16506v0.98189q0.25394-0.2878 0.4063-0.5375 0.1566-0.25394 0.1566-0.39784zm-0.04232-0.5629q0.22431 0 0.33858 0.13967 0.11427 0.13966 0.11427 0.38514 0 0.18622-0.12697 0.35128-0.12274 0.16506-0.45286 0.49518-0.32589 0.33012-0.57559 0.63908v-1.0623q-0.06772 0.08465-0.39784 0.42323-0.33012 0.33858-0.57559 0.63908v-3.8387l0.18199-0.08041v2.0738q0.20738-0.16506 0.52057-0.16506 0.16506 0 0.27087 0.07618v-1.9045l0.18199-0.08041v2.0738q0.20738-0.16506 0.52057-0.16506z" style="paint-order:fill markers stroke" aria-label="E𝄫"/>
   <path d="m65.005 65.747v-0.82869h-0.68196v-0.34305h1.0953v1.3247q-0.24179 0.17152-0.53317 0.26039-0.29138 0.0868-0.62203 0.0868-0.72329 0-1.1325-0.42158-0.40711-0.42364-0.40711-1.1779 0-0.75636 0.40711-1.1779 0.40918-0.42364 1.1325-0.42364 0.30172 0 0.57244 0.0744 0.27278 0.0744 0.50217 0.21905v0.44431q-0.23145-0.19632-0.49184-0.29552-0.26038-0.09919-0.54764-0.09919-0.56624 0-0.85142 0.31618-0.28312 0.31618-0.28312 0.94235 0 0.6241 0.28312 0.94028 0.28518 0.31618 0.85142 0.31618 0.22112 0 0.39471-0.0372 0.17359-0.03926 0.31205-0.11986zm1.7424-0.56711q0-0.2751-0.20738-0.2751-0.10158 0-0.20738 0.06349-0.10158 0.05925-0.14813 0.16506v0.98189q0.25394-0.2878 0.4063-0.5375 0.1566-0.25394 0.1566-0.39784zm0.97343 0q0-0.2751-0.20738-0.2751-0.10158 0-0.20738 0.06349-0.10158 0.05925-0.14813 0.16506v0.98189q0.25394-0.2878 0.4063-0.5375 0.1566-0.25394 0.1566-0.39784zm-0.04232-0.5629q0.22431 0 0.33858 0.13967 0.11427 0.13967 0.11427 0.38514 0 0.18622-0.12697 0.35128-0.12274 0.16506-0.45286 0.49518-0.32589 0.33012-0.57559 0.63908v-1.0623q-0.06772 0.08465-0.39784 0.42323-0.33012 0.33858-0.57559 0.63908v-3.8387l0.18199-0.08041v2.0738q0.20738-0.16506 0.52057-0.16506 0.16506 0 0.27087 0.07618v-1.9045l0.18199-0.08041v2.0738q0.20738-0.16506 0.52057-0.16506z" style="paint-order:fill markers stroke" aria-label="G𝄫"/>
   <path d="m73.807 60.759-0.56624 1.5354h1.1345zm-0.23559-0.41124h0.47324l1.1759 3.0854h-0.43398l-0.28105-0.79149h-1.3908l-0.28105 0.79149h-0.44018zm2.6661 2.0781q0-0.2751-0.20738-0.2751-0.10158 0-0.20738 0.06348-0.10158 0.05925-0.14813 0.16506v0.98189q0.25394-0.2878 0.4063-0.5375 0.1566-0.25394 0.1566-0.39784zm0.97343 0q0-0.2751-0.20738-0.2751-0.10158 0-0.20738 0.06348-0.10158 0.05925-0.14813 0.16506v0.98189q0.25394-0.2878 0.4063-0.5375 0.1566-0.25394 0.1566-0.39784zm-0.04232-0.5629q0.22431 0 0.33858 0.13966 0.11427 0.13967 0.11427 0.38514 0 0.18622-0.12697 0.35128-0.12274 0.16506-0.45286 0.49518-0.32589 0.33012-0.57559 0.63908v-1.0623q-0.06772 0.08465-0.39784 0.42323-0.33012 0.33858-0.57559 0.63908v-3.8387l0.18199-0.08041v2.0738q0.20738-0.16506 0.52057-0.16506 0.16506 0 0.27087 0.07618v-1.9045l0.18199-0.08041v2.0738q0.20738-0.16506 0.52057-0.16506z" style="paint-order:fill markers stroke" aria-label="A𝄫"/>
   <path d="m20.313 59.13v1.1304h0.66956q0.33685 0 0.49804-0.13846 0.16326-0.14052 0.16326-0.42778 0-0.28932-0.16326-0.42571-0.16119-0.13846-0.49804-0.13846zm0-1.2689v0.92995h0.6179q0.30585 0 0.45464-0.11366 0.15086-0.11573 0.15086-0.35131 0-0.23352-0.15086-0.34925-0.14879-0.11573-0.45464-0.11573zm-0.41744-0.34305h1.0663q0.47737 0 0.73569 0.19839t0.25832 0.56417q0 0.28312-0.13226 0.45051-0.13226 0.16739-0.38851 0.20872 0.30792 0.06613 0.47737 0.27692 0.17152 0.20872 0.17152 0.52284 0 0.41331-0.28105 0.63856-0.28105 0.22525-0.79976 0.22525h-1.1077zm3.47 2.0781q0-0.2751-0.20738-0.2751-0.10158 0-0.20738 0.06349-0.10158 0.05925-0.14813 0.16506v0.98189q0.25394-0.2878 0.4063-0.5375 0.1566-0.25394 0.1566-0.39784zm0.97343 0q0-0.2751-0.20738-0.2751-0.10158 0-0.20738 0.06349-0.10158 0.05925-0.14813 0.16506v0.98189q0.25394-0.2878 0.4063-0.5375 0.1566-0.25394 0.1566-0.39784zm-0.04232-0.5629q0.22431 0 0.33858 0.13967 0.11427 0.13966 0.11427 0.38514 0 0.18622-0.12697 0.35128-0.12274 0.16506-0.45286 0.49518-0.32589 0.33012-0.57559 0.63908v-1.0623q-0.06772 0.08465-0.39784 0.42323-0.33012 0.33858-0.57559 0.63908v-3.8387l0.18199-0.08041v2.0738q0.20738-0.16506 0.52057-0.16506 0.16506 0 0.27087 0.07618v-1.9045l0.18199-0.08041v2.0738q0.20738-0.16506 0.52057-0.16506z" style="paint-order:fill markers stroke" aria-label="B𝄫"/>
  </g>
 </g>
</svg>
