<?xml version="1.0" encoding="UTF-8"?>
<svg width="553.32" height="374.58" version="1.1" viewBox="0 0 146.35 99.082" xmlns="http://www.w3.org/2000/svg">
 <path d="m14.64 0.2207c-1.2622 1.3081-2.5248 2.6159-3.7871 3.9238-1.8613-0.46379-3.723-0.92556-5.584-1.3906-1.7585 1.8203-3.5153 3.6422-5.2754 5.4609 0.70231 2.4318 1.4014 4.8645 2.1016 7.2969 1.8618 0.46416 3.724 0.92698 5.5859 1.3906 0.36198 1.2565 0.72396 2.513 1.0859 3.7695-1.3343 1.3806-2.6663 2.7634-4.002 4.1426 0.53313 1.8432 1.0622 3.6876 1.5938 5.5312-1.334 1.3834-2.6679 2.767-4.002 4.1504 0.70272 2.4289 1.3999 4.8593 2.0996 7.2891 1.8618 0.46416 3.724 0.92698 5.5859 1.3906 0.36263 1.2572 0.72526 2.5143 1.0879 3.7715-1.3349 1.3806-2.6677 2.7633-4.0039 4.1426 0.70184 2.4317 1.3999 4.8645 2.0996 7.2969 1.8618 0.46416 3.724 0.92698 5.5859 1.3906 0.36198 1.2572 0.72396 2.5143 1.0859 3.7715-1.3342 1.38-2.6664 2.762-4.002 4.1406 0.53357 1.8433 1.0635 3.6876 1.5957 5.5312-1.3346 1.3835-2.6693 2.7669-4.0039 4.1504 0.70319 2.4289 1.4014 4.8593 2.1016 7.2891 1.8618 0.46416 3.724 0.92698 5.5859 1.3906 0.5299 1.8451 1.0602 3.69 1.5898 5.5352 2.4543 0.61264 4.9092 1.2225 7.3633 1.8359 1.3321-1.3814 2.664-2.763 3.9961-4.1445 1.2708 0.3151 2.5417 0.63021 3.8125 0.94531 0.52988 1.8438 1.0603 3.6874 1.5898 5.5312 2.4534 0.61337 4.9077 1.2233 7.3613 1.8359 1.332-1.3809 2.6641-2.7617 3.9961-4.1426 1.8626 0.46319 3.7257 0.92395 5.5879 1.3887 1.3327-1.3815 2.6654-2.763 3.998-4.1445 1.2702 0.3151 2.5404 0.63021 3.8105 0.94531 0.52988 1.8438 1.0603 3.6874 1.5898 5.5312 2.4534 0.61337 4.9077 1.2233 7.3613 1.8359 1.3319-1.3803 2.6641-2.7604 3.9961-4.1406 1.8613 0.46317 3.7231 0.92405 5.584 1.3887 1.3321-1.3814 2.664-2.763 3.9961-4.1445 1.8626 0.46381 3.7257 0.92546 5.5879 1.3906 1.3327-1.3815 2.6654-2.763 3.998-4.1445 1.2702 0.3151 2.5404 0.63021 3.8105 0.94531 0.52989 1.8444 1.0603 3.6887 1.5898 5.5332 2.4534 0.61337 4.9077 1.2233 7.3613 1.8359 1.3321-1.3814 2.664-2.763 3.9961-4.1445 1.8626 0.46319 3.7257 0.92395 5.5879 1.3887 1.332-1.3809 2.6641-2.7617 3.9961-4.1426 1.2708 0.3151 2.5417 0.63021 3.8125 0.94531 0.52988 1.8438 1.0603 3.6874 1.5898 5.5312 2.4534 0.61337 4.9077 1.2233 7.3613 1.8359 1.332-1.3809 2.6641-2.7617 3.9961-4.1426 1.8613 0.46317 3.7231 0.92405 5.584 1.3887 1.7584-1.8229 3.5169-3.6458 5.2754-5.4688-0.70319-2.4289-1.4014-4.8593-2.1016-7.2891-1.8605-0.46362-3.7214-0.92566-5.582-1.3887-0.36263-1.2578-0.72526-2.5156-1.0879-3.7734 1.3336-1.3799 2.665-2.7621 4-4.1406-0.53313-1.8432-1.0622-3.6876-1.5938-5.5312 1.3346-1.3841 2.6692-2.7683 4.0039-4.1523-0.70272-2.4289-1.3999-4.8593-2.0996-7.2891-1.8618-0.46416-3.724-0.92698-5.5859-1.3906-0.36198-1.2559-0.72396-2.5117-1.0859-3.7676 1.334-1.3834 2.6679-2.767 4.002-4.1504-0.70278-2.4295-1.3998-4.8606-2.0996-7.291-1.8605-0.46362-3.7214-0.92566-5.582-1.3887-0.36263-1.2572-0.72526-2.5143-1.0879-3.7715 1.3333-1.3822 2.6667-2.7643 4-4.1465-0.53406-1.841-1.062-3.6837-1.5938-5.5254 1.3353-1.3835 2.6707-2.7668 4.0059-4.1504-0.70329-2.4302-1.4013-4.8619-2.1016-7.293-1.8618-0.46416-3.724-0.92698-5.5859-1.3906-0.52987-1.8438-1.0603-3.6874-1.5898-5.5312-2.4534-0.61337-4.9077-1.2233-7.3613-1.8359-1.3328 1.3821-2.6654 2.7643-3.998 4.1465-1.2702-0.31576-2.5404-0.63151-3.8106-0.94727-0.52989-1.8444-1.0603-3.6887-1.5898-5.5332-2.4536-0.61213-4.908-1.2211-7.3613-1.834-1.3326 1.381-2.6654 2.7617-3.9981 4.1426-1.8619-0.46318-3.7244-0.924-5.5859-1.3887-1.3327 1.3815-2.6654 2.763-3.998 4.1445-1.2702-0.31576-2.5404-0.63151-3.8105-0.94727-0.52989-1.8444-1.0603-3.6887-1.5898-5.5332-2.4542-0.61218-4.9093-1.221-7.3633-1.834-1.332 1.3809-2.6641 2.7617-3.9961 4.1426-1.8619-0.46318-3.7244-0.924-5.5859-1.3887-1.3326 1.381-2.6654 2.7617-3.998 4.1426-1.8619-0.4638-3.7244-0.92551-5.5859-1.3906-1.3328 1.3821-2.6653 2.7643-3.998 4.1465-1.2702-0.31576-2.5404-0.63151-3.8105-0.94727-0.52989-1.8444-1.0603-3.6887-1.5898-5.5332-2.4536-0.61213-4.9079-1.2211-7.3613-1.834-1.3332 1.3816-2.6667 2.763-4 4.1445-1.8613-0.46379-3.723-0.92556-5.584-1.3906-1.3327 1.3815-2.6654 2.763-3.998 4.1445-1.2702-0.31576-2.5404-0.63151-3.8105-0.94727-0.52989-1.8444-1.0603-3.6887-1.5898-5.5332-2.4536-0.61213-4.9079-1.2211-7.3613-1.834-0.07096 0.073568-0.14193 0.14714-0.21289 0.2207z" fill="#cad3f5" fill-rule="evenodd"/>
 <g transform="translate(-5.4213 -15.835)" fill-rule="evenodd" stroke="#5b6078" stroke-linecap="square" stroke-width=".999">
  <g fill="#8aadf4">
   <path d="m14.374 31.418-5.587-1.39-1.59-5.533 3.997-4.143 5.587 1.39 1.59 5.532z" paint-order="fill markers stroke"/>
   <path d="m23.957 28.664-5.587-1.39-1.59-5.533 3.997-4.143 5.587 1.39 1.59 5.533z" paint-order="fill markers stroke"/>
   <path d="m31.133 35.587-5.586-1.39-1.59-5.532 3.997-4.144 5.586 1.39 1.59 5.533zm9.584-2.753-5.586-1.39-1.59-5.533 3.997-4.143 5.586 1.39 1.59 5.532zm9.583-2.754-5.586-1.39-1.59-5.533 3.997-4.143 5.587 1.39 1.59 5.532z" paint-order="fill markers stroke"/>
   <path d="m57.477 37.002-5.586-1.39-1.59-5.532 3.997-4.144 5.586 1.39 1.59 5.533zm9.584-2.754-5.586-1.39-1.59-5.532 3.997-4.143 5.586 1.39 1.59 5.532z" paint-order="fill markers stroke"/>
  </g>
  <g fill="#eed49f">
   <path d="m19.143 48.017-5.586-1.39-1.59-5.532 3.997-4.144 5.586 1.39 1.59 5.533z" paint-order="fill markers stroke"/>
   <path d="m28.726 45.264-5.586-1.39-1.59-5.533 3.997-4.143 5.586 1.39 1.59 5.532z" paint-order="fill markers stroke"/>
   <path d="m35.903 52.186-5.587-1.39-1.59-5.533 3.997-4.143 5.587 1.39 1.59 5.533zm9.584-2.754-5.586-1.39-1.59-5.532 3.997-4.144 5.586 1.39 1.59 5.533zm9.583-2.754-5.586-1.39-1.59-5.532 3.997-4.143 5.586 1.39 1.59 5.532zm7.178 6.924-5.587-1.39-1.59-5.533 3.997-4.143 5.587 1.39 1.59 5.533z" paint-order="fill markers stroke"/>
   <path d="m71.827 50.848-5.587-1.39-1.59-5.533 3.997-4.143 5.587 1.39 1.59 5.533z" paint-order="fill markers stroke"/>
  </g>
  <g fill="#ed8796">
   <path d="m23.913 64.617-5.587-1.39-1.59-5.533 3.997-4.143 5.587 1.39 1.59 5.533z" paint-order="fill markers stroke"/>
   <path d="m33.496 61.863-5.587-1.39-1.59-5.532 3.997-4.144 5.587 1.39 1.59 5.533zm7.177 6.923-5.586-1.39-1.59-5.533 3.997-4.143 5.586 1.39 1.59 5.532zm9.584-2.754-5.587-1.39-1.59-5.533 3.997-4.143 5.587 1.39 1.59 5.533z" paint-order="fill markers stroke"/>
   <path d="m59.84 63.278-5.587-1.39-1.59-5.533 3.997-4.143 5.587 1.39 1.59 5.533zm7.177 6.922-5.586-1.39-1.59-5.532 3.997-4.143 5.586 1.39 1.59 5.532z" paint-order="fill markers stroke"/>
   <path d="m76.597 67.447-5.587-1.39-1.59-5.533 3.997-4.143 5.587 1.39 1.59 5.532z" paint-order="fill markers stroke"/>
  </g>
  <g fill="#a6da95">
   <path d="m21.55 38.341-5.587-1.39-1.59-5.533 3.997-4.143 5.587 1.39 1.59 5.533zm16.76 4.169-5.586-1.39-1.59-5.533 3.997-4.143 5.587 1.39 1.59 5.532z" paint-order="fill markers stroke"/>
   <path d="m47.894 39.756-5.587-1.39-1.59-5.533 3.997-4.143 5.587 1.39 1.59 5.533zm16.761 4.169-5.587-1.39-1.59-5.533 3.997-4.143 5.587 1.39 1.59 5.532z" paint-order="fill markers stroke"/>
   <path d="m74.237 41.17-5.587-1.389-1.59-5.533 3.997-4.143 5.587 1.39 1.59 5.533z" paint-order="fill markers stroke"/>
  </g>
  <path d="m66.243 49.457 5.587 1.39 1.59 5.533-3.997 4.143-5.587-1.39-1.59-5.532zm-16.76-4.168 5.586 1.39 1.59 5.532-3.997 4.144-5.586-1.39-1.59-5.533zm-9.583 2.753 5.586 1.39 1.59 5.533-3.997 4.143-5.587-1.39-1.59-5.532zm-16.761-4.169 5.586 1.39 1.59 5.532-3.997 4.144-5.586-1.39-1.59-5.533zm-9.584 2.754 5.587 1.39 1.59 5.532-3.997 4.143-5.586-1.39-1.59-5.532z" fill="#f5a97f" paint-order="fill markers stroke"/>
  <g transform="translate(62.271 .078)">
   <g fill="#8aadf4">
    <path d="m14.374 31.418-5.587-1.39-1.59-5.533 3.997-4.143 5.587 1.39 1.59 5.532z" paint-order="fill markers stroke"/>
    <path d="m23.957 28.664-5.587-1.39-1.59-5.533 3.997-4.143 5.587 1.39 1.59 5.533z" paint-order="fill markers stroke"/>
    <path d="m31.133 35.587-5.586-1.39-1.59-5.532 3.997-4.144 5.586 1.39 1.59 5.533zm9.584-2.753-5.586-1.39-1.59-5.533 3.997-4.143 5.586 1.39 1.59 5.532zm9.583-2.754-5.586-1.39-1.59-5.533 3.997-4.143 5.587 1.39 1.59 5.532z" paint-order="fill markers stroke"/>
    <path d="m57.477 37.002-5.586-1.39-1.59-5.532 3.997-4.144 5.586 1.39 1.59 5.533zm9.584-2.754-5.586-1.39-1.59-5.532 3.997-4.143 5.586 1.39 1.59 5.532z" paint-order="fill markers stroke"/>
   </g>
   <g fill="#eed49f">
    <path d="m19.143 48.017-5.586-1.39-1.59-5.532 3.997-4.144 5.586 1.39 1.59 5.533z" paint-order="fill markers stroke"/>
    <path d="m28.726 45.264-5.586-1.39-1.59-5.533 3.997-4.143 5.586 1.39 1.59 5.532z" paint-order="fill markers stroke"/>
    <path d="m35.903 52.186-5.587-1.39-1.59-5.533 3.997-4.143 5.587 1.39 1.59 5.533zm9.584-2.754-5.586-1.39-1.59-5.532 3.997-4.144 5.586 1.39 1.59 5.533zm9.583-2.754-5.586-1.39-1.59-5.532 3.997-4.143 5.586 1.39 1.59 5.532zm7.178 6.924-5.587-1.39-1.59-5.533 3.997-4.143 5.587 1.39 1.59 5.533z" paint-order="fill markers stroke"/>
    <path d="m71.827 50.848-5.587-1.39-1.59-5.533 3.997-4.143 5.587 1.39 1.59 5.533z" paint-order="fill markers stroke"/>
   </g>
   <g fill="#ed8796">
    <path d="m23.913 64.617-5.587-1.39-1.59-5.533 3.997-4.143 5.587 1.39 1.59 5.533z" paint-order="fill markers stroke"/>
    <path d="m33.496 61.863-5.587-1.39-1.59-5.532 3.997-4.144 5.587 1.39 1.59 5.533zm7.177 6.923-5.586-1.39-1.59-5.533 3.997-4.143 5.586 1.39 1.59 5.532zm9.584-2.754-5.587-1.39-1.59-5.533 3.997-4.143 5.587 1.39 1.59 5.533z" paint-order="fill markers stroke"/>
    <path d="m59.84 63.278-5.587-1.39-1.59-5.533 3.997-4.143 5.587 1.39 1.59 5.533zm7.177 6.922-5.586-1.39-1.59-5.532 3.997-4.143 5.586 1.39 1.59 5.532z" paint-order="fill markers stroke"/>
    <path d="m76.597 67.447-5.587-1.39-1.59-5.533 3.997-4.143 5.587 1.39 1.59 5.532z" paint-order="fill markers stroke"/>
   </g>
   <g fill="#a6da95">
    <path d="m21.55 38.341-5.587-1.39-1.59-5.533 3.997-4.143 5.587 1.39 1.59 5.533zm16.76 4.169-5.586-1.39-1.59-5.533 3.997-4.143 5.587 1.39 1.59 5.532z" paint-order="fill markers stroke"/>
    <path d="m47.894 39.756-5.587-1.39-1.59-5.533 3.997-4.143 5.587 1.39 1.59 5.533zm16.761 4.169-5.587-1.39-1.59-5.533 3.997-4.143 5.587 1.39 1.59 5.532z" paint-order="fill markers stroke"/>
    <path d="m74.237 41.17-5.587-1.389-1.59-5.533 3.997-4.143 5.587 1.39 1.59 5.533z" paint-order="fill markers stroke"/>
   </g>
   <path d="m66.243 49.457 5.587 1.39 1.59 5.533-3.997 4.143-5.587-1.39-1.59-5.532zm-16.76-4.168 5.586 1.39 1.59 5.532-3.997 4.144-5.586-1.39-1.59-5.533zm-9.583 2.753 5.586 1.39 1.59 5.533-3.997 4.143-5.587-1.39-1.59-5.532zm-16.761-4.169 5.586 1.39 1.59 5.532-3.997 4.144-5.586-1.39-1.59-5.533zm-9.584 2.754 5.587 1.39 1.59 5.532-3.997 4.143-5.586-1.39-1.59-5.532z" fill="#f5a97f" paint-order="fill markers stroke"/>
  </g>
 </g>
 <g transform="translate(1.7107 27.04)" stroke="#5b6078" stroke-width=".999">
  <g fill="#8aadf4">
   <path d="m14.374 31.418-5.587-1.39-1.59-5.533 3.997-4.143 5.587 1.39 1.59 5.532z" paint-order="fill markers stroke"/>
   <path d="m23.957 28.664-5.587-1.39-1.59-5.533 3.997-4.143 5.587 1.39 1.59 5.533z" paint-order="fill markers stroke"/>
   <path d="m31.133 35.587-5.586-1.39-1.59-5.532 3.997-4.144 5.586 1.39 1.59 5.533zm9.584-2.753-5.586-1.39-1.59-5.533 3.997-4.143 5.586 1.39 1.59 5.532zm9.583-2.754-5.586-1.39-1.59-5.533 3.997-4.143 5.587 1.39 1.59 5.532z" paint-order="fill markers stroke"/>
   <path d="m57.477 37.002-5.586-1.39-1.59-5.532 3.997-4.144 5.586 1.39 1.59 5.533zm9.584-2.754-5.586-1.39-1.59-5.532 3.997-4.143 5.586 1.39 1.59 5.532z" paint-order="fill markers stroke"/>
  </g>
  <g fill="#eed49f">
   <path d="m19.143 48.017-5.586-1.39-1.59-5.532 3.997-4.144 5.586 1.39 1.59 5.533z" paint-order="fill markers stroke"/>
   <path d="m28.726 45.264-5.586-1.39-1.59-5.533 3.997-4.143 5.586 1.39 1.59 5.532z" paint-order="fill markers stroke"/>
   <path d="m35.903 52.186-5.587-1.39-1.59-5.533 3.997-4.143 5.587 1.39 1.59 5.533zm9.584-2.754-5.586-1.39-1.59-5.532 3.997-4.144 5.586 1.39 1.59 5.533zm9.583-2.754-5.586-1.39-1.59-5.532 3.997-4.143 5.586 1.39 1.59 5.532zm7.178 6.924-5.587-1.39-1.59-5.533 3.997-4.143 5.587 1.39 1.59 5.533z" paint-order="fill markers stroke"/>
   <path d="m71.827 50.848-5.587-1.39-1.59-5.533 3.997-4.143 5.587 1.39 1.59 5.533z" paint-order="fill markers stroke"/>
  </g>
  <g fill="#ed8796">
   <path d="m23.913 64.617-5.587-1.39-1.59-5.533 3.997-4.143 5.587 1.39 1.59 5.533z" paint-order="fill markers stroke"/>
   <path d="m33.496 61.863-5.587-1.39-1.59-5.532 3.997-4.144 5.587 1.39 1.59 5.533zm7.177 6.923-5.586-1.39-1.59-5.533 3.997-4.143 5.586 1.39 1.59 5.532zm9.584-2.754-5.587-1.39-1.59-5.533 3.997-4.143 5.587 1.39 1.59 5.533z" paint-order="fill markers stroke"/>
   <path d="m59.84 63.278-5.587-1.39-1.59-5.533 3.997-4.143 5.587 1.39 1.59 5.533zm7.177 6.922-5.586-1.39-1.59-5.532 3.997-4.143 5.586 1.39 1.59 5.532z" paint-order="fill markers stroke"/>
   <path d="m76.597 67.447-5.587-1.39-1.59-5.533 3.997-4.143 5.587 1.39 1.59 5.532z" paint-order="fill markers stroke"/>
  </g>
  <g fill="#a6da95">
   <path d="m21.55 38.341-5.587-1.39-1.59-5.533 3.997-4.143 5.587 1.39 1.59 5.533zm16.76 4.169-5.586-1.39-1.59-5.533 3.997-4.143 5.587 1.39 1.59 5.532z" paint-order="fill markers stroke"/>
   <path d="m47.894 39.756-5.587-1.39-1.59-5.533 3.997-4.143 5.587 1.39 1.59 5.533zm16.761 4.169-5.587-1.39-1.59-5.533 3.997-4.143 5.587 1.39 1.59 5.532z" paint-order="fill markers stroke"/>
   <path d="m74.237 41.17-5.587-1.389-1.59-5.533 3.997-4.143 5.587 1.39 1.59 5.533z" paint-order="fill markers stroke"/>
  </g>
  <path d="m66.243 49.457 5.587 1.39 1.59 5.533-3.997 4.143-5.587-1.39-1.59-5.532zm-16.76-4.168 5.586 1.39 1.59 5.532-3.997 4.144-5.586-1.39-1.59-5.533zm-9.583 2.753 5.586 1.39 1.59 5.533-3.997 4.143-5.587-1.39-1.59-5.532zm-16.761-4.169 5.586 1.39 1.59 5.532-3.997 4.144-5.586-1.39-1.59-5.533zm-9.584 2.754 5.587 1.39 1.59 5.532-3.997 4.143-5.586-1.39-1.59-5.532z" fill="#f5a97f" paint-order="fill markers stroke"/>
 </g>
 <g transform="translate(63.979 27.117)" stroke="#5b6078" stroke-width=".999">
  <g fill="#8aadf4">
   <path d="m14.374 31.418-5.587-1.39-1.59-5.533 3.997-4.143 5.587 1.39 1.59 5.532z" paint-order="fill markers stroke"/>
   <path d="m23.957 28.664-5.587-1.39-1.59-5.533 3.997-4.143 5.587 1.39 1.59 5.533z" paint-order="fill markers stroke"/>
   <path d="m31.133 35.587-5.586-1.39-1.59-5.532 3.997-4.144 5.586 1.39 1.59 5.533zm9.584-2.753-5.586-1.39-1.59-5.533 3.997-4.143 5.586 1.39 1.59 5.532zm9.583-2.754-5.586-1.39-1.59-5.533 3.997-4.143 5.587 1.39 1.59 5.532z" paint-order="fill markers stroke"/>
   <path d="m57.477 37.002-5.586-1.39-1.59-5.532 3.997-4.144 5.586 1.39 1.59 5.533zm9.584-2.754-5.586-1.39-1.59-5.532 3.997-4.143 5.586 1.39 1.59 5.532z" paint-order="fill markers stroke"/>
  </g>
  <g fill="#eed49f">
   <path d="m19.143 48.017-5.586-1.39-1.59-5.532 3.997-4.144 5.586 1.39 1.59 5.533z" paint-order="fill markers stroke"/>
   <path d="m28.726 45.264-5.586-1.39-1.59-5.533 3.997-4.143 5.586 1.39 1.59 5.532z" paint-order="fill markers stroke"/>
   <path d="m35.903 52.186-5.587-1.39-1.59-5.533 3.997-4.143 5.587 1.39 1.59 5.533zm9.584-2.754-5.586-1.39-1.59-5.532 3.997-4.144 5.586 1.39 1.59 5.533zm9.583-2.754-5.586-1.39-1.59-5.532 3.997-4.143 5.586 1.39 1.59 5.532zm7.178 6.924-5.587-1.39-1.59-5.533 3.997-4.143 5.587 1.39 1.59 5.533z" paint-order="fill markers stroke"/>
   <path d="m71.827 50.848-5.587-1.39-1.59-5.533 3.997-4.143 5.587 1.39 1.59 5.533z" paint-order="fill markers stroke"/>
  </g>
  <g fill="#ed8796">
   <path d="m23.913 64.617-5.587-1.39-1.59-5.533 3.997-4.143 5.587 1.39 1.59 5.533z" paint-order="fill markers stroke"/>
   <path d="m33.496 61.863-5.587-1.39-1.59-5.532 3.997-4.144 5.587 1.39 1.59 5.533zm7.177 6.923-5.586-1.39-1.59-5.533 3.997-4.143 5.586 1.39 1.59 5.532zm9.584-2.754-5.587-1.39-1.59-5.533 3.997-4.143 5.587 1.39 1.59 5.533z" paint-order="fill markers stroke"/>
   <path d="m59.84 63.278-5.587-1.39-1.59-5.533 3.997-4.143 5.587 1.39 1.59 5.533zm7.177 6.922-5.586-1.39-1.59-5.532 3.997-4.143 5.586 1.39 1.59 5.532z" paint-order="fill markers stroke"/>
   <path d="m76.597 67.447-5.587-1.39-1.59-5.533 3.997-4.143 5.587 1.39 1.59 5.532z" paint-order="fill markers stroke"/>
  </g>
  <g fill="#a6da95">
   <path d="m21.55 38.341-5.587-1.39-1.59-5.533 3.997-4.143 5.587 1.39 1.59 5.533zm16.76 4.169-5.586-1.39-1.59-5.533 3.997-4.143 5.587 1.39 1.59 5.532z" paint-order="fill markers stroke"/>
   <path d="m47.894 39.756-5.587-1.39-1.59-5.533 3.997-4.143 5.587 1.39 1.59 5.533zm16.761 4.169-5.587-1.39-1.59-5.533 3.997-4.143 5.587 1.39 1.59 5.532z" paint-order="fill markers stroke"/>
   <path d="m74.237 41.17-5.587-1.389-1.59-5.533 3.997-4.143 5.587 1.39 1.59 5.533z" paint-order="fill markers stroke"/>
  </g>
  <path d="m66.243 49.457 5.587 1.39 1.59 5.533-3.997 4.143-5.587-1.39-1.59-5.532zm-16.76-4.168 5.586 1.39 1.59 5.532-3.997 4.144-5.586-1.39-1.59-5.533zm-9.583 2.753 5.586 1.39 1.59 5.533-3.997 4.143-5.587-1.39-1.59-5.532zm-16.761-4.169 5.586 1.39 1.59 5.532-3.997 4.144-5.586-1.39-1.59-5.533zm-9.584 2.754 5.587 1.39 1.59 5.532-3.997 4.143-5.586-1.39-1.59-5.532z" fill="#f5a97f" paint-order="fill markers stroke"/>
 </g>
</svg>
