<?xml version="1.0" encoding="UTF-8"?>
<svg width="308.61" height="229.73" version="1.1" viewBox="0 0 81.626 60.767" xmlns="http://www.w3.org/2000/svg">
 <g transform="matrix(.99999 0 0 .99999 -3.0889 -13.516)" fill-rule="evenodd" stroke-linecap="square">
  <path d="m19.387 13.738c-1.2567 1.3083-2.5172 2.613-3.7754 3.9199-1.8619-0.4638-3.7244-0.92551-5.5859-1.3906-2.3132 2.4023-4.6279 4.8031-6.9395 7.207 0.9185 3.2025 1.8374 6.4049 2.7559 9.6074 1.8618 0.46416 3.724 0.92698 5.5859 1.3906 0.01475 0.54179 0.66851 1.2422 0.21142 1.6669-1.2654 1.3081-2.5288 2.618-3.7954 3.9249 0.53408 1.844 1.0648 3.6889 1.5977 5.5332-1.3355 1.3806-2.6691 2.7631-4.0059 4.1426 0.92442 3.2045 1.8453 6.4101 2.7676 9.6152 1.8632 0.46471 3.7266 0.9283 5.5898 1.3926 0.52926 1.8438 1.0588 3.6874 1.5879 5.5312 3.2334 0.80798 6.4676 1.6127 9.7012 2.4199 1.3328-1.3821 2.6653-2.7643 3.998-4.1465 0.47865 0.25856 1.4113 0.0461 1.5537 0.65353 0.50284 1.7477 1.0065 3.4951 1.5088 5.243 3.2327 0.80794 6.4663 1.6127 9.6992 2.4199 1.3317-1.3818 2.6627-2.7644 3.9941-4.1465 1.8626 0.46442 3.7256 0.92696 5.5879 1.3926 1.3334-1.3827 2.6667-2.7656 4-4.1484 0.4786 0.25857 1.4114 0.04607 1.5536 0.65356 0.50225 1.7477 1.0051 3.4952 1.507 5.2429 3.2327 0.80794 6.4663 1.6127 9.6992 2.4199 1.3327-1.3815 2.6654-2.763 3.998-4.1445 1.8613 0.46425 3.7227 0.92803 5.584 1.3926 2.3177-2.3991 4.6338-4.7997 6.9531-7.1973-0.92493-3.2046-1.8467-6.41-2.7695-9.6152-1.8612-0.46411-3.7227-0.92699-5.584-1.3906-0.01519-0.54264-0.66759-1.2432-0.21169-1.6691 1.2652-1.3121 2.5304-2.6243 3.7957-3.9364-0.53489-1.8405-1.0647-3.6824-1.5977-5.5234 1.3353-1.3841 2.6706-2.7682 4.0059-4.1523-0.92581-3.2011-1.8467-6.4035-2.7695-9.6055-1.8617-0.46328-3.724-0.9243-5.5859-1.3867-0.5299-1.8451-1.0602-3.69-1.5898-5.5352-3.2321-0.80791-6.465-1.6128-9.6973-2.4199-1.3333 1.3822-2.6667 2.7643-4 4.1465-0.4794-0.25785-1.4126-0.0442-1.5556-0.6516-0.50223-1.747-1.0051-3.4938-1.5069-5.241-3.2328-0.80897-6.4662-1.6156-9.6992-2.4238-1.3321 1.3814-2.664 2.763-3.9961 4.1445-1.8619-0.4638-3.7244-0.92551-5.5859-1.3906-1.334 1.3828-2.668 2.7656-4.002 4.1484-0.4793-0.25787-1.4128-0.04414-1.5554-0.65165-0.5017-1.7489-1.0036-3.4978-1.5052-5.2468-3.2362-0.80665-6.4728-1.6113-9.709-2.418-0.07096 0.07422-0.14193 0.14844-0.21289 0.22266z" fill="#10421a" fill-opacity=".2"/>
  <path d="m20.067 16.089-3.784 3.92q-2.793-0.693-5.585-1.389l-5.245 5.44 2.084 7.264 5.587 1.39 1.094 3.803-4 4.141q0.798 2.767 1.593 5.534-1.998 2.072-4 4.142 1.046 3.63 2.088 7.263l5.589 1.393 1.588 5.532c2.444 0.61 4.89 1.215 7.334 1.825l3.995-4.144 3.842 0.956 1.59 5.532c2.444 0.61 4.888 1.216 7.332 1.827l3.995-4.146 5.587 1.391 3.999-4.145 3.84 0.955 1.59 5.532c2.444 0.61 4.888 1.216 7.332 1.827l3.997-4.144 5.585 1.391q2.624-2.72 5.25-5.438-1.046-3.632-2.09-7.265l-5.584-1.39-1.095-3.8 4-4.15c-0.535-1.842-1.063-3.685-1.595-5.527l4.003-4.149q-1.048-3.63-2.09-7.26l-5.587-1.388-1.59-5.534-7.33-1.827-3.999 4.145-3.84-0.953-1.59-5.532-7.332-1.829-3.997 4.144q-2.793-0.694-5.585-1.39l-3.997 4.144-3.844-0.953-1.589-5.535c-2.444-0.609-4.89-1.214-7.333-1.824z" fill="#cad3f5" stroke-width="1.142" paint-order="fill markers stroke"/>
  <g stroke="#5b6078" stroke-width=".66129">
   <g fill="#d0f0cd">
    <path d="m14.374 31.418-5.587-1.39-1.59-5.533 3.997-4.143 5.587 1.39 1.59 5.532z"/>
    <path d="m23.957 28.664-5.587-1.39-1.59-5.533 3.997-4.143 5.587 1.39 1.59 5.533z"/>
    <path d="m50.3 30.08-5.586-1.39-1.59-5.533 3.997-4.143 5.587 1.39 1.59 5.532z"/>
    <path d="m40.717 32.834-5.586-1.39-1.59-5.533 3.997-4.143 5.586 1.39 1.59 5.532z"/>
   </g>
   <path d="m31.133 35.587-5.586-1.39-1.59-5.532 3.997-4.144 5.586 1.39 1.59 5.533z" fill="#ace8a5"/>
   <path d="m67.061 34.248-5.586-1.39-1.59-5.532 3.997-4.143 5.586 1.39 1.59 5.532z" fill="#d0f0cd"/>
   <path d="m57.477 37.002-5.586-1.39-1.59-5.532 3.997-4.144 5.586 1.39 1.59 5.533z" fill="#ace8a5"/>
   <g fill="#82e675">
    <path d="m19.143 48.017-5.586-1.39-1.59-5.532 3.997-4.144 5.586 1.39 1.59 5.533z" paint-order="fill markers stroke"/>
    <path d="m28.726 45.264-5.586-1.39-1.59-5.533 3.997-4.143 5.586 1.39 1.59 5.532z" paint-order="fill markers stroke"/>
    <path d="m62.248 53.602-5.587-1.39-1.59-5.533 3.997-4.143 5.587 1.39 1.59 5.533z"/>
    <path d="m55.07 46.678-5.586-1.39-1.59-5.532 3.997-4.143 5.586 1.39 1.59 5.532z"/>
    <path d="m45.487 49.432-5.586-1.39-1.59-5.532 3.997-4.144 5.586 1.39 1.59 5.533z"/>
    <path d="m35.903 52.186-5.587-1.39-1.59-5.533 3.997-4.143 5.587 1.39 1.59 5.533z"/>
    <path d="m71.827 50.848-5.587-1.39-1.59-5.533 3.997-4.143 5.587 1.39 1.59 5.533z" paint-order="fill markers stroke"/>
   </g>
   <g fill="#d0f0cd">
    <path d="m23.913 64.617-5.587-1.39-1.59-5.533 3.997-4.143 5.587 1.39 1.59 5.533z"/>
    <path d="m50.257 66.032-5.587-1.39-1.59-5.533 3.997-4.143 5.587 1.39 1.59 5.533z"/>
    <path d="m40.673 68.786-5.586-1.39-1.59-5.533 3.997-4.143 5.586 1.39 1.59 5.532z"/>
   </g>
   <path d="m33.496 61.863-5.587-1.39-1.59-5.532 3.997-4.144 5.587 1.39 1.59 5.533z" fill="#ace8a5"/>
   <path d="m67.017 70.2-5.586-1.39-1.59-5.532 3.997-4.143 5.586 1.39 1.59 5.532z" fill="#d0f0cd"/>
   <path d="m59.84 63.278-5.587-1.39-1.59-5.533 3.997-4.143 5.587 1.39 1.59 5.533z" fill="#ace8a5"/>
   <path d="m76.597 67.447-5.587-1.39-1.59-5.533 3.997-4.143 5.587 1.39 1.59 5.532z" fill="#d0f0cd"/>
   <g fill="#ace8a5">
    <path d="m38.31 42.51-5.586-1.39-1.59-5.533 3.997-4.143 5.587 1.39 1.59 5.532z"/>
    <path d="m21.55 38.341-5.587-1.39-1.59-5.533 3.997-4.143 5.587 1.39 1.59 5.533z"/>
    <path d="m64.655 43.925-5.587-1.39-1.59-5.533 3.997-4.143 5.587 1.39 1.59 5.532z"/>
    <path d="m47.894 39.756-5.587-1.39-1.59-5.533 3.997-4.143 5.587 1.39 1.59 5.533z"/>
    <path d="m74.237 41.17-5.587-1.389-1.59-5.533 3.997-4.143 5.587 1.39 1.59 5.533z"/>
    <path d="m13.555 46.627 5.587 1.39 1.59 5.532-3.997 4.143-5.586-1.39-1.59-5.532z"/>
    <path d="m23.139 43.873 5.586 1.39 1.59 5.532-3.997 4.144-5.586-1.39-1.59-5.533z"/>
    <path d="m39.9 48.042 5.586 1.39 1.59 5.533-3.997 4.143-5.587-1.39-1.59-5.532z"/>
    <path d="m49.483 45.289 5.586 1.39 1.59 5.532-3.997 4.144-5.586-1.39-1.59-5.533z"/>
    <path d="m66.243 49.457 5.587 1.39 1.59 5.533-3.997 4.143-5.587-1.39-1.59-5.532z"/>
   </g>
   <g fill="#5b6078" fill-rule="evenodd" font-family="sans-serif" font-size="4.2323px" letter-spacing="0px" stroke="none" stroke-linejoin="round">
    <text x="32.831291" y="48.193604" style="line-height:1.2;paint-order:fill markers stroke" xml:space="preserve"><tspan x="32.831291" y="48.193604" fill="#5b6078" stroke-width=".66129">C</tspan></text>
    <text x="42.185371" y="45.441666" style="line-height:1.2;paint-order:fill markers stroke" xml:space="preserve"><tspan x="42.185371" y="45.441666" stroke-width=".66129">D</tspan></text>
    <text x="52.071121" y="42.688171" style="line-height:1.2;paint-order:fill markers stroke" xml:space="preserve"><tspan x="52.071121" y="42.688171" stroke-width=".66129">E</tspan></text>
    <text x="59.356083" y="49.611671" style="line-height:1.2;paint-order:fill markers stroke" xml:space="preserve"><tspan x="59.356083" y="49.611671" stroke-width=".66129">F</tspan></text>
    <text x="68.651962" y="46.855602" style="line-height:1.2;paint-order:fill markers stroke" xml:space="preserve"><tspan x="68.651962" y="46.855602" stroke-width=".66129">G</tspan></text>
    <text x="16.106924" y="44.026669" style="line-height:1.2;paint-order:fill markers stroke" xml:space="preserve"><tspan x="16.106924" y="44.026669" stroke-width=".66129">A</tspan></text>
    <text x="25.626894" y="41.273674" style="line-height:1.2;paint-order:fill markers stroke" xml:space="preserve"><tspan x="25.626894" y="41.273674" stroke-width=".66129">B</tspan></text>
    <text x="36.657135" y="28.841608" style="line-height:1.2;paint-order:fill markers stroke" xml:space="preserve"><tspan x="36.657135" y="28.841608" fill="#5b6078" stroke-width=".66129">C𝄪</tspan></text>
    <text x="45.999889" y="26.074862" style="line-height:1.2;paint-order:fill markers stroke" xml:space="preserve"><tspan x="45.999889" y="26.074862" stroke-width=".66129">D𝄪</tspan></text>
    <text x="63.172657" y="30.243359" style="line-height:1.2;paint-order:fill markers stroke" xml:space="preserve"><tspan x="63.172657" y="30.243359" stroke-width=".66129">F𝄪</tspan></text>
    <text x="10.151412" y="27.425608" style="line-height:1.2;paint-order:fill markers stroke" xml:space="preserve"><tspan x="10.151412" y="27.425608" stroke-width=".66129">G𝄪</tspan></text>
   </g>
   <g transform="translate(-3.5688 -47.794)" fill="#5b6078" fill-rule="evenodd" font-family="sans-serif" font-size="4.2323px" letter-spacing="0px" stroke="none" stroke-linejoin="round">
    <text x="33.049717" y="105.66418" style="line-height:1.2;paint-order:fill markers stroke" xml:space="preserve"><tspan x="33.049717" y="105.66418" fill="#5b6078" stroke-width=".66129">C♭</tspan></text>
    <text x="42.391964" y="102.90918" style="line-height:1.2;paint-order:fill markers stroke" xml:space="preserve"><tspan x="42.391964" y="102.90918" stroke-width=".66129">D♭</tspan></text>
    <text x="52.267879" y="100.15618" style="line-height:1.2;paint-order:fill markers stroke" xml:space="preserve"><tspan x="52.267879" y="100.15618" stroke-width=".66129">E♭</tspan></text>
    <text x="59.565239" y="107.07918" style="line-height:1.2;paint-order:fill markers stroke" xml:space="preserve"><tspan x="59.565239" y="107.07918" stroke-width=".66129">F♭</tspan></text>
    <text x="68.814491" y="104.32418" style="line-height:1.2;paint-order:fill markers stroke" xml:space="preserve"><tspan x="68.814491" y="104.32418" stroke-width=".66129">G♭</tspan></text>
    <text x="16.42148" y="101.49368" style="line-height:1.2;paint-order:fill markers stroke" xml:space="preserve"><tspan x="16.42148" y="101.49368" stroke-width=".66129">A♭</tspan></text>
    <text x="25.809189" y="98.740181" style="line-height:1.2;paint-order:fill markers stroke" xml:space="preserve"><tspan x="25.809189" y="98.740181" stroke-width=".66129">B♭</tspan></text>
   </g>
   <g fill="#5b6078" fill-rule="evenodd" font-family="sans-serif" font-size="4.2323px" letter-spacing="0px" stroke="none" stroke-linejoin="round">
    <text x="20.028894" y="24.658857" style="line-height:1.2;paint-order:fill markers stroke" xml:space="preserve"><tspan x="20.028894" y="24.658857" stroke-width=".66129">A𝄪</tspan></text>
    <text x="34.277321" y="38.517609" style="line-height:1.2;paint-order:fill markers stroke" xml:space="preserve"><tspan x="34.277321" y="38.517609" fill="#5b6078" stroke-width=".66129">C♯</tspan></text>
    <text x="43.619568" y="35.769802" style="line-height:1.2;paint-order:fill markers stroke" xml:space="preserve"><tspan x="43.619568" y="35.769802" stroke-width=".66129">D♯</tspan></text>
    <text x="53.495483" y="33.0158" style="line-height:1.2;paint-order:fill markers stroke" xml:space="preserve"><tspan x="53.495483" y="33.0158" stroke-width=".66129">E♯</tspan></text>
    <text x="60.792843" y="39.938808" style="line-height:1.2;paint-order:fill markers stroke" xml:space="preserve"><tspan x="60.792843" y="39.938808" stroke-width=".66129">F♯</tspan></text>
    <text x="70.0411" y="37.178089" style="line-height:1.2;paint-order:fill markers stroke" xml:space="preserve"><tspan x="70.0411" y="37.178089" stroke-width=".66129">G♯</tspan></text>
    <text x="17.648577" y="34.354805" style="line-height:1.2;paint-order:fill markers stroke" xml:space="preserve"><tspan x="17.648577" y="34.354805" stroke-width=".66129">A♯</tspan></text>
    <text x="27.036789" y="31.6008" style="line-height:1.2;paint-order:fill markers stroke" xml:space="preserve"><tspan x="27.036789" y="31.6008" stroke-width=".66129">B♯</tspan></text>
    <text x="36.063427" y="64.772392" style="line-height:1.2;paint-order:fill markers stroke" xml:space="preserve"><tspan x="36.063427" y="64.772392" stroke-width=".66129">D𝄫</tspan></text>
    <text x="45.939342" y="62.018387" style="line-height:1.2;paint-order:fill markers stroke" xml:space="preserve"><tspan x="45.939342" y="62.018387" stroke-width=".66129">E𝄫</tspan></text>
    <text x="62.485958" y="66.186882" style="line-height:1.2;paint-order:fill markers stroke" xml:space="preserve"><tspan x="62.485958" y="66.186882" stroke-width=".66129">G𝄫</tspan></text>
    <text x="72.35994" y="63.433388" style="line-height:1.2;paint-order:fill markers stroke" xml:space="preserve"><tspan x="72.35994" y="63.433388" stroke-width=".66129">A𝄫</tspan></text>
    <text x="19.48065" y="60.603386" style="line-height:1.2;paint-order:fill markers stroke" xml:space="preserve"><tspan x="19.48065" y="60.603386" stroke-width=".66129">B𝄫</tspan></text>
   </g>
  </g>
 </g>
</svg>
