<?xml version="1.0" encoding="UTF-8"?>
<svg width="267.94" height="429.39" version="1.1" viewBox="0 0 70.869 113.58" xmlns="http://www.w3.org/2000/svg">
 <g fill-rule="evenodd">
  <g transform="translate(.00062053 .0034244)">
   <path d="m34.158 0.023438c-12.318 0.36181-24.187 7.6936-29.939 18.607-5.3822 9.9578-5.6971 22.563-0.48788 32.657 2.4381 4.8641 6.0017 9.1648 10.345 12.444-3.712 9.892-7.4257 19.783-11.137 29.676 5.6823-0.0031 11.365-0.0023 17.047 0.01172l0.04687 2.6328 2.1602 1.3535 0.79688 2.2148 2.6738 0.73828-0.94336 1.5801h-3.7266c-0.48633 3.8774-0.97036 7.7552-1.4551 11.633h31.785c-0.48383-3.8673-0.96763-7.7345-1.4531-11.602l1.3675-0.5264c0.85591-1.3357 1.7127-2.6708 2.5681-4.0068-0.87199-1.3425-1.742-2.6863-2.6133-4.0293h16.727c-3.7124-9.8982-7.4273-19.796-11.141-29.693 8.9996-6.6974 14.453-17.899 14.072-29.123-0.21749-9.4968-4.3843-18.87-11.455-25.247-6.7803-6.2405-16.021-9.6908-25.238-9.3218z" fill="#10421a" fill-opacity=".2" style="paint-order:normal"/>
   <path d="m34.198 2.1418c-9.9357 0.31363-19.591 5.3789-25.491 13.381-5.8796 7.8143-8.0341 18.291-5.6742 27.785 1.8968 7.9394 6.8645 15.07 13.589 19.673-3.5423 9.4366-7.0855 18.873-10.627 28.31h58.871c-3.544-9.445-7.0901-18.889-10.635-28.334 5.5008-3.7797 9.8803-9.1988 12.266-15.449 3.5098-8.9408 2.8807-19.394-1.7111-27.836-4.254-7.9612-11.866-14.051-20.598-16.375-3.2451-0.88699-6.6276-1.2766-9.9906-1.1552z" fill="#cad3f5" style="paint-order:normal"/>
   <path d="m64.539 35.45a29.115 29.115 0 0 1-29.115 29.115 29.115 29.115 0 0 1-29.115-29.115 29.115 29.115 0 0 1 29.115-29.115 29.115 29.115 0 0 1 29.115 29.115z" fill="#d0f0cd" stop-color="#000000"/>
   <path d="m19.052 55.202 40.209-29.006-49.233 5.8482 45.885 18.78-31.006-38.688 8.3344 48.874 16.432-46.778-37.068 32.926 48.389-10.799-47.55-14.041 34.761 35.353-13.236-47.78-11.615 48.2 33.547-36.507-47.048 15.639 48.726 9.1586-38.159-31.655 18.002 46.196 6.6789-49.128-29.681 39.713 45.225-20.319-49.403-4.1821 41.166 27.632-22.583-44.138-1.6745 49.551 25.511-42.512-42.937 24.79 49.573-0.83737-43.75-23.325 26.933 41.626-3.3471-49.466z" fill="#ace8a5" stroke="#86db64" stroke-linecap="square" stroke-width=".25585" style="paint-order:normal"/>
   <path d="m35.424 3.6886c-17.51 0-31.762 14.252-31.762 31.762s14.252 31.76 31.762 31.76c17.509 0 31.76-14.25 31.76-31.76s-14.25-31.762-31.76-31.762zm0 5.291c14.65 0 26.469 11.82 26.469 26.471s-11.818 26.471-26.469 26.471c-14.65 0-26.471-11.82-26.471-26.471s11.82-26.471 26.471-26.471z" fill="#98e381" stop-color="#000000" stroke="#5b6078" stroke-linecap="square" stroke-width=".66129"/>
  </g>
  <g transform="translate(.00062053 .0034244)" fill="#5b6078" font-family="sans-serif" font-size="3.4281px" letter-spacing="0px" stroke-linecap="square" stroke-width="1.0713" text-anchor="middle">
   <text x="34.963001" y="7.6361537" text-align="center" style="line-height:1.2;paint-order:normal" xml:space="preserve"><tspan x="34.963001" y="7.6361537" fill="#5b6078" stroke-width="1.0713">C</tspan></text>
   <text transform="rotate(11.613)" x="41.411362" y="-0.18201983" text-align="center" style="line-height:1.2;paint-order:normal" xml:space="preserve"><tspan x="41.411362" y="-0.18201983" fill="#5b6078" stroke-width="1.0713">D𝄫</tspan></text>
   <text transform="rotate(23.226)" x="46.05669" y="-9.2104254" text-align="center" style="line-height:1.2;paint-order:normal" xml:space="preserve"><tspan x="46.05669" y="-9.2104254" fill="#5b6078" stroke-width="1.0713">C♯</tspan></text>
   <text transform="rotate(34.839)" x="48.872726" y="-18.954067" text-align="center" style="line-height:1.2;paint-order:normal" xml:space="preserve"><tspan x="48.872726" y="-18.954067" fill="#5b6078" stroke-width="1.0713">D♭</tspan></text>
   <text transform="rotate(46.452)" x="49.569" y="-28.986717" text-align="center" style="line-height:1.2;paint-order:normal" xml:space="preserve"><tspan x="49.569" y="-28.986717" fill="#5b6078" stroke-width="1.0713">C𝄪</tspan></text>
   <text transform="rotate(58.065)" x="48.376598" y="-39.124611" text-align="center" style="line-height:1.2;paint-order:normal" xml:space="preserve"><tspan x="48.376598" y="-39.124611" fill="#5b6078" stroke-width="1.0713">D</tspan></text>
   <text transform="rotate(81.291)" x="39.949844" y="-57.462101" text-align="center" style="line-height:1.2;paint-order:normal" xml:space="preserve"><tspan x="39.949844" y="-57.462101" fill="#5b6078" stroke-width="1.0713">D♯</tspan></text>
   <text transform="rotate(69.678)" x="45.133072" y="-48.748779" text-align="center" style="line-height:1.2;paint-order:normal" xml:space="preserve"><tspan x="45.133072" y="-48.748779" fill="#5b6078" stroke-width="1.0713">E𝄫</tspan></text>
   <text transform="rotate(92.904)" x="33.140865" y="-65.031288" text-align="center" style="line-height:1.2;paint-order:normal" xml:space="preserve"><tspan x="33.140865" y="-65.031288" fill="#5b6078" stroke-width="1.0713">E♭</tspan></text>
   <text transform="rotate(104.52)" x="24.941593" y="-71.037109" text-align="center" style="line-height:1.2;paint-order:normal" xml:space="preserve"><tspan x="24.941593" y="-71.037109" fill="#5b6078" stroke-width="1.0713">D𝄪</tspan></text>
   <text transform="rotate(116.13)" x="15.740095" y="-75.295242" text-align="center" style="line-height:1.2;paint-order:normal" xml:space="preserve"><tspan x="15.740095" y="-75.295242" fill="#5b6078" stroke-width="1.0713">E</tspan></text>
   <text transform="rotate(127.74)" x="5.8434348" y="-77.595078" text-align="center" style="line-height:1.2;paint-order:normal" xml:space="preserve"><tspan x="5.8434348" y="-77.595078" fill="#5b6078" stroke-width="1.0713">F♭</tspan></text>
   <text transform="rotate(139.36)" x="-4.310184" y="-77.85804" text-align="center" style="line-height:1.2;paint-order:normal" xml:space="preserve"><tspan x="-4.310184" y="-77.85804" fill="#5b6078" stroke-width="1.0713">E♯</tspan></text>
   <text transform="rotate(150.97)" x="-14.296992" y="-76.07077" text-align="center" style="line-height:1.2;paint-order:normal" xml:space="preserve"><tspan x="-14.296992" y="-76.07077" fill="#5b6078" stroke-width="1.0713">F</tspan></text>
   <text transform="rotate(162.58)" x="-23.72024" y="-72.333801" text-align="center" style="line-height:1.2;paint-order:normal" xml:space="preserve"><tspan x="-23.72024" y="-72.333801" fill="#5b6078" stroke-width="1.0713">G𝄫</tspan></text>
   <text transform="rotate(174.2)" x="-32.221256" y="-66.724724" text-align="center" style="line-height:1.2;paint-order:normal" xml:space="preserve"><tspan x="-32.221256" y="-66.724724" fill="#5b6078" stroke-width="1.0713">F♯</tspan></text>
   <text transform="rotate(-11.613)" x="27.107046" y="14.040039" text-align="center" style="line-height:1.2;paint-order:normal" xml:space="preserve"><tspan x="27.107046" y="14.040039" fill="#5b6078" stroke-width="1.0713">B♯</tspan></text>
   <text transform="rotate(-23.226)" x="18.098494" y="18.735752" text-align="center" style="line-height:1.2;paint-order:normal" xml:space="preserve"><tspan x="18.098494" y="18.735752" fill="#5b6078" stroke-width="1.0713">C♭</tspan></text>
   <text transform="rotate(-34.839)" x="8.3723974" y="21.518055" text-align="center" style="line-height:1.2;paint-order:normal" xml:space="preserve"><tspan x="8.3723974" y="21.518055" fill="#5b6078" stroke-width="1.0713">B</tspan></text>
   <text transform="rotate(-46.452)" x="-1.8329897" y="22.354916" text-align="center" style="line-height:1.2;paint-order:normal" xml:space="preserve"><tspan x="-1.8329898" y="22.354916" fill="#5b6078" stroke-width="1.0713">A𝄪</tspan></text>
   <text transform="rotate(-58.065)" x="-11.800079" y="20.999815" text-align="center" style="line-height:1.2;paint-order:normal" xml:space="preserve"><tspan x="-11.800079" y="20.999815" fill="#5b6078" stroke-width="1.0713">B♭</tspan></text>
   <text transform="rotate(-69.678)" x="-21.432261" y="17.715658" text-align="center" style="line-height:1.2;paint-order:normal" xml:space="preserve"><tspan x="-21.432261" y="17.715658" fill="#5b6078" stroke-width="1.0713">A♯</tspan></text>
   <text transform="rotate(-81.291)" x="-30.104179" y="12.60829" text-align="center" style="line-height:1.2;paint-order:normal" xml:space="preserve"><tspan x="-30.104179" y="12.60829" fill="#5b6078" stroke-width="1.0713">B𝄫</tspan></text>
   <text transform="rotate(-92.9)" x="-37.660328" y="5.7675695" text-align="center" style="line-height:1.2;paint-order:normal" xml:space="preserve"><tspan x="-37.660328" y="5.7675695" fill="#5b6078" stroke-width="1.0713">A</tspan></text>
   <text transform="rotate(255.48)" x="-43.664173" y="-2.3595252" text-align="center" style="line-height:1.2;paint-order:normal" xml:space="preserve"><tspan x="-43.664173" y="-2.3595252" fill="#5b6078" stroke-width="1.0713">G𝄪</tspan></text>
   <text transform="rotate(243.87)" x="-47.916946" y="-11.624218" text-align="center" style="line-height:1.2;paint-order:normal" xml:space="preserve"><tspan x="-47.916946" y="-11.624218" fill="#5b6078" stroke-width="1.0713">A♭</tspan></text>
   <text transform="rotate(232.26)" x="-50.19286" y="-21.501331" text-align="center" style="line-height:1.2;paint-order:normal" xml:space="preserve"><tspan x="-50.19286" y="-21.501331" fill="#5b6078" stroke-width="1.0713">G♯</tspan></text>
   <text transform="rotate(220.64)" x="-50.404404" y="-31.631229" text-align="center" style="line-height:1.2;paint-order:normal" xml:space="preserve"><tspan x="-50.404404" y="-31.631229" fill="#5b6078" stroke-width="1.0713">A𝄫</tspan></text>
   <text transform="rotate(209.03)" x="-48.647297" y="-41.619461" text-align="center" style="line-height:1.2;paint-order:normal" xml:space="preserve"><tspan x="-48.647297" y="-41.619461" fill="#5b6078" stroke-width="1.0713">G</tspan></text>
   <text transform="rotate(197.42)" x="-44.887939" y="-51.019413" text-align="center" style="line-height:1.2;paint-order:normal" xml:space="preserve"><tspan x="-44.887939" y="-51.019413" fill="#5b6078" stroke-width="1.0713">F𝄪</tspan></text>
   <text transform="rotate(185.8)" x="-39.29871" y="-59.503605" text-align="center" style="line-height:1.2;paint-order:normal" xml:space="preserve"><tspan x="-39.29871" y="-59.503605" fill="#5b6078" stroke-width="1.0713">G♭</tspan></text>
  </g>
  <g transform="translate(.00062053 .0034244)" stroke-linecap="square">
   <path d="m20.454 57.293-12.168 32.411h54.289l-12.168-32.411z" fill="#98e381" stroke="#5b6078" stroke-width=".52903" style="paint-order:normal"/>
   <path d="m32.685 92.738c-2.2541 3.7731-4.5092 7.5455-6.7637 11.318h-3.0605c-0.30954 2.466-0.61584 4.9323-0.92383 7.3984h26.988c-0.30824-2.4662-0.61594-4.9324-0.92578-7.3984h-3.0605c-2.306-3.8587-4.6116-7.7177-6.918-11.576h-5.1816c-0.05143 0.08594-0.10286 0.17188-0.1543 0.25781z" fill="#cad3f5" stroke-width=".32316"/>
   <path d="m33.368 93.408-6.92 11.578h-2.768l-0.692 5.5413h24.886l-0.692-5.5413h-2.768l-6.92-11.578z" fill="#5b6078" stroke="#5b6078" stroke-width=".32316"/>
  </g>
  <path d="m28.421 84.095c-0.58947 0.27278-1.102 0.96041-1.8032 0.63073-0.60215-0.17281-1.184-0.24277-1.6736 0.2213-0.36698 0.36906-1.3081 0.42928-1.2374 1.0335 0.02859 0.5616 0.05933 1.1231 0.08522 1.6848 0.56553 0.11184 1.1315 0.22135 1.6973 0.33203 0.33428 0.75004-0.43272 0.97938-0.93138 1.3356-0.6582 0.21656-0.74455 0.72253-0.61034 1.3378 0.28444 0.7255-0.36148 0.99353-0.86835 1.3299-0.49606 0.34984-1.1749 0.60452-0.94456 1.3341 0.0017 0.62838 0.0017 1.2568 5e-3 1.8852 0.68902 0.16706 1.3776 0.336 2.0664 0.50391 0.03636 0.70378 0.07418 1.4075 0.10938 2.1113 0.95092 0.24193 1.9011 0.48671 2.8516 0.73047 0.64522-0.54878 1.2904-1.0977 1.9355-1.6465 0.50815 0.23783 1.4022 0.10527 1.6545 0.58869 0.13945 0.69436 0.27656 1.3892 0.41781 2.0832 1.0042 0.25614 2.0078 0.51432 3.0117 0.77148 0.57839-0.59413 1.1576-1.1874 1.7363-1.7813 0.79818 0.19464 1.5963 0.3895 2.3945 0.58398 0.51203-0.56411 1.0248-1.1276 1.5371-1.6914 0.59916 0.19533 1.3528 0.20283 1.8574 0.51307 0.33701 0.7503 0.67588 1.4998 1.0117 2.2506 1.0616 0.25759 2.1228 0.51659 3.1836 0.77734 0.43495-0.60971 0.86706-1.2214 1.3008-1.832 0.86136 0.2004 1.7224 0.40222 2.584 0.60156 0.49851-0.7796 1.0015-1.5563 1.5-2.3359-0.5598-0.86227-1.1201-1.7242-1.6777-2.5879-0.78146-0.21387-1.686-0.25774-2.3892-0.58194-0.14837-0.52296-1.0644-1.1085-0.49925-1.5733 0.25253-0.46672 1.1702-0.89231 0.57428-1.4111-0.14022-0.48856-1.1074-1.0449-0.4927-1.4716 0.36694-0.4303 1.062-0.83846 0.39543-1.335-0.3744-0.44569-0.63019-1.0771-1.0737-1.4143-0.59304-0.1549-1.3039-0.13057-1.8232-0.39626-0.4016-0.45779-0.53585-1.3197-1.2804-1.2553-0.58627-0.04431-1.2359-0.31804-1.7842-0.22472-0.48107 0.29871-0.83879 1.0556-1.4828 0.75454-0.73812 0.07657-1.0064-0.47746-1.242-1.0753-0.29324-0.52018-1.1391-0.29737-1.6664-0.50302-0.61958-0.30906-1.0371 0.24376-1.5109 0.55742-0.47287 0.41752-1.1547-0.07053-1.7211-0.05831-0.55591-0.03589-0.96389 0.59632-1.4608 0.82689-0.52615-0.06308-1.3765 0.01798-1.3059-0.75858 0.05682-0.77472-0.73105-0.64461-1.2713-0.77692-0.36982 0.0077-0.83625-0.30035-1.1593-0.06873z" fill="#cad3f5"/>
  <g transform="matrix(.37253 0 0 .37253 19.077 76.126)" stroke="#5b6078" stroke-linecap="square" stroke-width=".66129">
   <g fill="#d0f0cd">
    <path d="m18.523 30.679-4.5037-0.88428-0.17222-3.3534 4.0098-2.3495 4.2472 0.77371 0.48732 3.2277z"/>
    <path d="m27.091 28.943-4.5003-0.85051-0.48714-3.2283 3.7145-2.2646 4.2431 0.74603 0.77891 3.1101z"/>
    <path d="m49.347 29.827-4.7619-0.86762-1.3159-3.2917 3.1715-2.3077 4.4736 0.76007 1.5828 3.1695z"/>
    <path d="m41.135 31.598-4.7741-0.90243-1.0269-3.4206 3.4507-2.395 4.4841 0.78855 1.3159 3.2912z"/>
   </g>
   <path d="m32.588 33.44-4.7834-0.93935-0.71392-3.5564 3.7491-2.4879 4.4931 0.81865 1.0269 3.4206z" fill="#ace8a5"/>
   <path d="m64.217 32.535-5.0556-0.92111-1.916-3.4891 2.8689-2.4418 4.7302 0.80381 2.1773 3.3564z" fill="#d0f0cd"/>
   <path d="m56.054 34.416-5.0746-0.95922-1.632-3.6298 3.1492-2.5375 4.7472 0.8348 1.9161 3.4897z" fill="#ace8a5"/>
   <g fill="#82e675">
    <path d="m19.747 42.785-5.1184-1.1379-0.22044-4.2872 4.4898-2.9794 4.7893 0.9786 0.61984 4.1078z" paint-order="fill markers stroke"/>
    <path d="m29.42 40.556-5.1133-1.0889-0.61984-4.1078 4.1178-2.858 4.7834 0.93936 0.98647 3.938z" paint-order="fill markers stroke"/>
    <path d="m62.652 47.63-5.8632-1.2483-2.1091-4.6919 3.3845-3.2482 5.4301 1.0661 2.4631 4.4859z"/>
    <path d="m54.679 41.689-5.4506-1.1137-1.6785-4.1982 3.4297-2.9191 5.0747 0.95923 2.0092 4.0236z"/>
    <path d="m45.466 43.97-5.4685-1.1645-1.3166-4.3845 3.7784-3.0445 5.0909 0.99973 1.6786 4.199z"/>
    <path d="m35.824 46.358-5.4833-1.2188-0.91987-4.5842 4.1544-3.1765 5.1049 1.0429 1.3165 4.3853z"/>
    <path d="m71.787 45.184-5.8347-1.192-2.4629-4.4859 3.0349-3.1109 5.4054 1.0216 2.7845 4.2932z" paint-order="fill markers stroke"/>
   </g>
   <g fill="#d0f0cd">
    <path d="m21.354 58.677-5.9299-1.5188-0.29142-5.6757 5.0995-3.8992 5.4924 1.2771 0.81522 5.4027z"/>
    <path d="m51.168 60.264-6.3992-1.5598-1.7485-5.8242 4.1646-3.9968 5.8876 1.3087 2.2148 5.5405z"/>
    <path d="m40.111 63.48-6.4198-1.6446-1.2302-6.1304 4.6527-4.1976 5.9064 1.3736 1.7485 5.8232z"/>
   </g>
   <path d="m32.46 55.705-5.9218-1.4435-0.81532-5.4016 4.6171-3.7202 5.4834 1.2189 1.2894 5.1488z" fill="#ace8a5"/>
   <path d="m71.425 65.2-6.9354-1.6908-2.8306-6.296 3.6287-4.3067 6.3372 1.4089 3.2824 5.9776z" fill="#d0f0cd"/>
   <path d="m61.657 57.213-6.3712-1.4815-2.2148-5.5404 3.7168-3.8101 5.8632 1.2483 2.6347 5.2769z" fill="#ace8a5"/>
   <path d="m81.794 61.895-6.8919-1.6025-3.2824-5.9786 3.1807-4.0982 6.3008 1.3415 3.6859 5.6826z" fill="#d0f0cd"/>
   <g fill="#ace8a5">
    <path d="m38.68 38.421-5.1039-1.0429-0.98643-3.9387 3.7718-2.7445 4.775 0.90243 1.3229 3.7792z"/>
    <path d="m23.687 35.359-4.7902-0.9786-0.37434-3.7019 4.0682-2.5851 4.5003 0.85052 0.7138 3.5571z"/>
    <path d="m63.495 39.507-5.43-1.0661-2.0093-4.0243 3.1058-2.802 5.0565 0.92113 2.3116 3.8596z"/>
    <path d="m47.55 36.377-5.0918-0.99973-1.3229-3.7799 3.4496-2.6376 4.7628 0.86762 1.632 3.6305z"/>
    <path d="m71.933 37.416-5.4052-1.0208-2.3117-3.8603 2.8048-2.6917 5.035 0.88525 2.5883 3.7061z"/>
    <path d="m14.627 41.647 5.1193 1.1379 0.48524 4.7962-5.0994 3.8991-5.4947-1.3396-0.00821-5.0241z"/>
    <path d="m24.306 39.466 5.1132 1.0888 0.91994 4.5833-4.617 3.72-5.4913-1.2771-0.48504-4.797z"/>
    <path d="m39.996 42.806 5.4685 1.1645 1.7192 4.9123-4.1646 3.9968-5.9073-1.3736-1.2894-5.1477z"/>
    <path d="m49.228 40.576 5.4506 1.1137 2.1089 4.691-3.7167 3.811-5.8865-1.3087-1.7192-4.9123z"/>
    <path d="m65.956 43.992 5.8347 1.1919 3.0131 5.0316-3.1806 4.0981-6.3381-1.4088-2.6345-5.2758z"/>
   </g>
   <g fill="#5b6078" fill-rule="evenodd" font-family="sans-serif" font-size="4.2323px" letter-spacing="0px" stroke="none" stroke-linejoin="round">
    <path d="m35.933 40.621-0.02803 0.35032c-0.12616-0.10442-0.26344-0.18232-0.41195-0.23382-0.14704-0.05145-0.30604-0.07715-0.47712-0.07715-0.33689 0-0.603 0.08591-0.79883 0.25818-0.1964 0.17176-0.31117 0.42165-0.34398 0.75082-0.03291 0.33022 0.03265 0.58468 0.19728 0.76221 0.16531 0.17701 0.42008 0.26575 0.76386 0.26575 0.17458 0 0.34138-0.02675 0.50028-0.08021 0.16008-0.05341 0.31281-0.13398 0.45811-0.24158l-0.02875 0.35938c-0.14908 0.08211-0.30545 0.14378-0.46901 0.18494-0.16235 0.04119-0.33246 0.0618-0.51022 0.0618-0.45652 0-0.80453-0.11838-1.0432-0.35431-0.23748-0.23597-0.33479-0.55582-0.29302-0.95795 0.04156-0.40007 0.20274-0.71288 0.48284-0.94004 0.27894-0.22724 0.64036-0.34046 1.0852-0.34046 0.17586 0 0.33954 0.01958 0.49112 0.05876 0.15311 0.03812 0.29488 0.09591 0.42538 0.17343z" style="paint-order:fill markers stroke" aria-label="C"/>
    <path d="m43.074 38.565-0.01566 1.8598h0.48051c0.40567 0 0.70211-0.07612 0.88889-0.22802 0.18751-0.15143 0.27972-0.38954 0.27705-0.71307-0.0026-0.3193-0.09765-0.5516-0.28464-0.69814-0.18516-0.14715-0.47656-0.22056-0.87464-0.22056zm-0.38711-0.26024h0.79981c0.55762 0 0.96738 0.09442 1.2301 0.28382 0.26369 0.18908 0.39844 0.48678 0.40353 0.89509 0.0052 0.4139-0.12464 0.7201-0.39022 0.91658-0.26663 0.19728-0.68469 0.29621-1.2534 0.29621h-0.81949z" style="paint-order:fill markers stroke" aria-label="D"/>
    <path d="m51.738 36.266h1.7811l0.02584 0.25544h-1.4038l0.05796 0.67062h1.3546l0.02618 0.26044h-1.3582l0.07245 0.83831h1.4645l0.02704 0.26644h-1.8588z" style="paint-order:fill markers stroke" aria-label="E"/>
    <path d="m59.197 41.566h1.7091l0.04821 0.28473h-1.3104l0.11639 0.7445h1.1913l0.04884 0.2906h-1.1947l0.19341 1.2372h-0.4126z" style="paint-order:fill markers stroke" aria-label="F"/>
    <path d="m70.162 41.476-0.1738-0.66412h-0.6524l-0.0695-0.27236h1.045l0.28162 1.06c-0.13098 0.09256-0.28403 0.16294-0.4591 0.21103-0.17553 0.04702-0.36993 0.07054-0.58307 0.07054-0.46624 0-0.85937-0.11416-1.1783-0.3417-0.31642-0.22762-0.52236-0.54235-0.61834-0.94254-0.09547-0.3981-0.04066-0.70589 0.16318-0.92502 0.20397-0.21924 0.53287-0.3285 0.98739-0.3285 0.18959 0 0.3744 0.01917 0.55452 0.05753 0.18156 0.03839 0.35439 0.09497 0.51858 0.16979l0.0917 0.34618c-0.17321-0.10223-0.34859-0.17903-0.52627-0.23052-0.17748-0.05144-0.35666-0.07714-0.53765-0.07714-0.35677 0-0.60463 0.08196-0.74391 0.24629-0.13845 0.16488-0.1678 0.41161-0.08732 0.74142 0.08075 0.3309 0.23255 0.58164 0.45556 0.75097 0.22509 0.16991 0.51992 0.25508 0.88391 0.25508 0.14214 0 0.26642-0.01003 0.37281-0.03008 0.10606-0.02115 0.19789-0.05342 0.27547-0.09679z" style="paint-order:fill markers stroke" aria-label="G"/>
    <path d="m19.519 37.552-0.8228 1.1574h1.0624zm-0.14014-0.30536h0.43654l0.52518 2.3394h-0.41006l-0.11526-0.6109h-1.306l-0.42402 0.6109h-0.41592z" style="paint-order:fill markers stroke" aria-label="A"/>
    <path d="m27.952 36.409-0.13874 0.82935h0.61758c0.20713 0 0.36562-0.03414 0.47535-0.10236 0.111-0.06913 0.17734-0.17417 0.19908-0.31487 0.02183-0.1413-0.01199-0.24498-0.10134-0.31131-0.0878-0.06723-0.23433-0.10082-0.43967-0.10082zm0.15292-0.91408-0.11178 0.66818h0.56355c0.18597 0 0.32851-0.02741 0.42755-0.08217 0.10034-0.0557 0.15927-0.14011 0.17684-0.25309 0.01738-0.11172-0.01526-0.1951-0.09781-0.25027-0.08121-0.05511-0.2141-0.08264-0.39876-0.08264zm-0.33623-0.24412h0.96318c0.28747 0 0.50167 0.04696 0.64282 0.14102 0.14143 0.09425 0.19905 0.22859 0.17257 0.40335-0.02056 0.13572-0.07713 0.24397-0.16975 0.32458-0.09279 0.08074-0.21875 0.13115-0.37783 0.15113 0.18249 0.03198 0.31758 0.09902 0.4053 0.20126 0.08933 0.10145 0.12255 0.22882 0.09948 0.38232-0.03047 0.20272-0.14048 0.35991-0.33027 0.47111-0.19023 0.11146-0.44541 0.16729-0.76522 0.16729h-1.0244z" style="paint-order:fill markers stroke" aria-label="B"/>
    <path d="m40.162 27.324-0.01138 0.26283c-0.11311-0.07832-0.23491-0.13676-0.36546-0.1754-0.1293-0.03861-0.26801-0.0579-0.41622-0.0579-0.29186 0-0.51909 0.06447-0.68204 0.19371-0.16339 0.1288-0.25299 0.31606-0.26851 0.56257-0.01555 0.24707 0.05107 0.4373 0.20028 0.56994 0.14971 0.1322 0.37324 0.19844 0.67026 0.19844 0.15083 0 0.29394-0.01997 0.42923-0.05988 0.13633-0.03988 0.26534-0.10004 0.38695-0.18042l-0.01162 0.26836c-0.12577 0.06128-0.25855 0.1073-0.39829 0.138-0.13868 0.03073-0.28482 0.0461-0.43834 0.0461-0.39427 0-0.69943-0.08831-0.91482-0.2644-0.2145-0.17623-0.31127-0.41528-0.29107-0.71612 0.02013-0.29962 0.14732-0.53411 0.381-0.70452 0.23281-0.17057 0.54164-0.2556 0.92719-0.2556 0.15241 0 0.295 0.01471 0.42782 0.04413 0.1341 0.02863 0.25908 0.07202 0.37501 0.13021zm1.3069 1.1252c-0.04256 0-0.07724 0.01379-0.10406 0.04139-0.02678 0.02589-0.04076 0.05871-0.04193 0.09846-0.0026 0.09001 0.04347 0.13509 0.13835 0.13509h0.30242l-0.0085 0.34743h-0.48937l0.0066-0.22236c2e-3 -0.06779-0.06102-0.10165-0.18914-0.10165-0.0522 0-0.09762 0.01042-0.13629 0.03125-0.03869 0.02085-0.05848 0.04431-0.05938 0.0704l-0.0076 0.22236h-0.46794l0.01376-0.34743h0.30243c0.09251 0 0.14032-0.04508 0.14343-0.13509 0.0014-0.03975-0.01169-0.07257-0.03918-0.09846-0.02505-0.0276-0.05648-0.04139-0.09431-0.04139h-0.30148l0.01366-0.34511h0.4628l-0.0075 0.2186c-0.0011 0.03095 0.01696 0.05675 0.05407 0.07741 0.03718 0.01895 0.08179 0.02842 0.13379 0.02842 0.12765 0 0.19254-0.03531 0.19464-0.10583l0.0065-0.2186h0.48399l-0.0084 0.34511z" style="paint-order:fill markers stroke" aria-label="C𝄪"/>
    <path d="m46.281 25.769 0.03946 1.4h0.41638c0.35153 0 0.60634-0.05717 0.76412-0.17127 0.1585-0.1138 0.23211-0.29283 0.22119-0.53627-0.01078-0.24046-0.09947-0.41554-0.26579-0.52604-0.1648-0.111-0.41995-0.1664-0.76575-0.1664zm-0.34384-0.19646h0.69504c0.48457 0 0.84321 0.0713 1.0765 0.21425 0.23404 0.14264 0.35886 0.36708 0.37394 0.67462 0.01528 0.3114-0.08925 0.54155-0.31423 0.68912-0.22576 0.1481-0.58524 0.22234-1.0778 0.22234h-0.70986zm3.5086 1.2192c-0.04175 0-0.07454 0.01327-0.09838 0.03984-0.02395 0.02491-0.03473 0.05649-0.03231 0.09475 0.0055 0.08662 0.05475 0.13 0.14782 0.13h0.29667l0.02281 0.3343h-0.48001l-0.01341-0.21395c-0.0041-0.06523-0.06897-0.09781-0.19465-0.09781-0.0512 0-0.09483 0.01002-0.13089 0.03007-0.03608 0.02006-0.05339 0.04264-0.05193 0.06774l0.01247 0.21395h-0.459l-0.01771-0.3343h0.29667c0.09075 0 0.1336-0.04338 0.12858-0.13-0.0022-0.03826-0.01798-0.06984-0.04727-0.09475-0.02705-0.02656-0.05912-0.03984-0.09624-0.03984h-0.29575l-0.01759-0.33216h0.45404l0.01226 0.21039c0.0017 0.02979 0.02173 0.05462 0.05999 0.07451 0.03818 0.01823 0.08278 0.02735 0.1338 0.02735 0.12523 0 0.18572-0.03398 0.18146-0.10185l-0.01319-0.2104h0.47484l0.02266 0.33216z" style="paint-order:fill markers stroke" aria-label="D𝄪"/>
    <path d="m60.317 28.023h1.4787l0.04388 0.21306h-1.1333l0.10734 0.55632h1.0293l0.04439 0.21685h-1.0318l0.17777 0.92133h-0.35576zm3.1276 1.2915c-0.04298 0-0.0745 0.01407-0.09457 0.04221-0.02047 0.0264-0.02625 0.05987-0.01733 0.10042 0.0202 0.09181 0.07823 0.13779 0.17405 0.13779h0.30544l0.07977 0.35438h-0.49425l-0.04979-0.22681c-0.01518-0.06915-0.08746-0.10368-0.21685-0.10368-0.05272 0-0.09595 0.01062-0.12971 0.03188-0.03378 0.02126-0.04781 0.0452-0.04209 0.0718l0.0488 0.22681h-0.47261l-0.07436-0.35438h0.30544c0.09343 0 0.13026-0.04598 0.11054-0.13779-0.0087-0.04055-0.03024-0.07401-0.06458-0.10042-0.0323-0.02815-0.06755-0.04221-0.10576-0.04221h-0.30447l-0.07385-0.35196h0.46736l0.04796 0.22293c0.0068 0.03156 0.03154 0.05788 0.07427 0.07895 0.04236 0.01932 0.08982 0.02899 0.14234 0.02899 0.12892 0 0.18547-0.03601 0.16968-0.10793l-0.04894-0.22293h0.48876l0.07922 0.35196z" style="paint-order:fill markers stroke" aria-label="F𝄪"/>
    <path d="m17.887 27.918 0.14898-0.49727h-0.56478l0.06251-0.20419h0.90495l-0.23469 0.79387c-0.15498 0.06921-0.31901 0.12182-0.49202 0.15776-0.1729 0.03514-0.35153 0.05272-0.53578 0.05272-0.40304 0-0.6917-0.08532-0.86547-0.25546-0.17166-0.1703-0.20878-0.40595-0.11236-0.70588 0.09602-0.29868 0.28181-0.52982 0.55708-0.6945 0.2756-0.16486 0.61012-0.24705 1.0044-0.24705 0.16446 0 0.31609 0.01442 0.45498 0.04328 0.14011 0.02888 0.26441 0.07143 0.37293 0.12769l-0.07712 0.26019c-0.10391-0.07681-0.22123-0.13452-0.35199-0.17323-0.13065-0.03867-0.2744-0.05799-0.43133-0.05799-0.30936 0-0.56121 0.06162-0.75597 0.18512-0.1942 0.12386-0.33058 0.3091-0.40908 0.55652-0.07869 0.24802-0.05986 0.4358 0.05709 0.56255 0.11843 0.12712 0.33516 0.19082 0.64994 0.19082 0.12292 0 0.23491-0.0075 0.33594-0.02249 0.10124-0.01582 0.19519-0.03996 0.28182-0.0724zm1.8806-0.32571c-0.04214 0-0.07988 0.01352-0.11322 0.04058-0.03289 0.02538-0.0548 0.05755-0.06574 0.09653-0.02476 0.08825 0.0098 0.13245 0.10375 0.13245h0.29946l-0.09385 0.34061h-0.48454l0.06127-0.21799c0.01868-0.06646-0.03542-0.09966-0.16228-0.09966-0.05168 0-0.09922 0.01021-0.14264 0.03064-0.04343 0.02044-0.06881 0.04344-0.07611 0.06902l-0.06223 0.21799h-0.46332l0.09905-0.34061h0.29946c0.0916 0 0.15002-0.0442 0.17524-0.13245 0.01114-0.03898 0.0063-0.07115-0.01458-0.09653-0.01802-0.02706-0.04575-0.04058-0.08321-0.04058h-0.29853l0.0984-0.33838h0.45827l-0.06119 0.21433c-0.0087 0.03035 0.0028 0.05565 0.0345 0.0759 0.03216 0.01858 0.07399 0.02787 0.12549 0.02787 0.1264 0 0.19933-0.03462 0.21877-0.10376l0.06025-0.21433h0.47926l-0.09323 0.33838z" style="paint-order:fill markers stroke" aria-label="G𝄪"/>
    <g transform="translate(-3.5688,-47.794)">
     <path d="m35.371 96.733-0.04614 0.41144c-0.13203-0.12267-0.2773-0.21416-0.4359-0.27465-0.157-0.0604-0.32813-0.09057-0.51351-0.09057-0.36506 0-0.65741 0.10089-0.87765 0.30323-0.2209 0.20181-0.35703 0.49552-0.40805 0.8826-0.05121 0.38853 8e-3 0.68806 0.17829 0.89711 0.17114 0.20851 0.44354 0.31306 0.81671 0.31306 0.1895 0 0.37178-0.03151 0.5467-0.09448 0.17618-0.0629 0.34561-0.1578 0.50817-0.28455l-0.04748 0.42335c-0.16557 0.09677-0.33813 0.16945-0.51758 0.21796-0.17815 0.04855-0.36379 0.07285-0.55679 0.07285-0.49566 0-0.86796-0.13953-1.1159-0.41754-0.24659-0.27795-0.33703-0.65452-0.27267-1.1277 0.06399-0.47042 0.25347-0.83802 0.56771-1.1048 0.31286-0.26681 0.70969-0.39972 1.1917-0.39972 0.19052 0 0.36696 0.02298 0.5294 0.06897 0.16416 0.04473 0.31516 0.11257 0.45307 0.2036zm0.66143-0.22851h0.09602l0.0095 0.0115-0.19723 1.874h0.0065c0.27822-0.31257 0.52121-0.46818 0.73018-0.46818 0.32677 0.0038 0.48866 0.17456 0.48562 0.51383-0.09539 0.5655-0.579 0.90964-1.4515 1.0282l-6e-3 -0.0059 0.31287-2.9417zm-0.11414 2.0982-0.07489 0.71162c0.62335-0.133 0.95424-0.40338 0.99358-0.80913 0.0031-0.01725 0.0055-0.03382 7e-3 -0.04972 0.01896-0.19563-0.07867-0.29846-0.29281-0.30899-0.17185 0-0.38246 0.15164-0.63287 0.45618z" style="paint-order:fill markers stroke" aria-label="C♭"/>
     <path d="m43.176 94.321-0.08865 2.1795h0.52058c0.4395 0 0.76352-0.08934 0.97153-0.26758 0.20874-0.17764 0.31743-0.45688 0.32654-0.83612 9e-3 -0.37407-0.08522-0.64611-0.2821-0.81765-0.19481-0.17222-0.50728-0.25812-0.93787-0.25812zm-0.40863-0.30442h0.86496c0.60304 0 1.0427 0.11044 1.3198 0.33202 0.27828 0.22128 0.41316 0.56983 0.40369 1.0481-0.0096 0.4852-0.16144 0.84437-0.4564 1.0749-0.29623 0.23158-0.75294 0.34774-1.3692 0.34774h-0.88803zm3.2578-0.0073h0.09379l0.01028 0.01097-0.0227 1.7873h0.0064c0.24333-0.29802 0.46652-0.44641 0.67058-0.44641 0.31944 0.0036 0.49296 0.16645 0.52066 0.48993-0.04201 0.53905-0.48301 0.867-1.324 0.97996l-0.0063-0.0056 0.03873-2.805zm0.0788 2.0011-0.0086 0.67828c0.59648-0.12675 0.89506-0.38445 0.89676-0.77123 0.0015-0.01645 0.0023-0.03224 0.0024-0.0474 8.19e-4 -0.18652-0.10382-0.28455-0.31387-0.29459-0.1678 0-0.35971 0.14458-0.57662 0.43491z" style="paint-order:fill markers stroke" aria-label="D♭"/>
     <path d="m52.608 91.633h1.9229l0.02048 0.29778h-1.5158l0.04231 0.78239h1.4635l0.02073 0.30409h-1.4678l0.05298 0.97969h1.5838l0.02155 0.31167h-2.0106zm2.6068-7e-3h0.09166l0.01098 0.01048 0.13045 1.7065h0.0062c0.2123-0.28445 0.4177-0.4261 0.61707-0.4261 0.31243 0.0036 0.49582 0.159 0.55041 0.46763 0.0048 0.51441-0.398 0.82732-1.2098 0.93509l-0.0067-0.0053-0.20172-2.6776zm0.24789 1.9105 0.04948 0.64722c0.57182-0.12094 0.84152-0.36684 0.81025-0.73594 7.6e-5 -0.01568-4.99e-4 -0.03074-0.0017-0.0452-0.01509-0.17802-0.12566-0.27159-0.33174-0.28118-0.16394 0-0.3391 0.138-0.52623 0.4151z" style="paint-order:fill markers stroke" aria-label="E♭"/>
     <path d="m60.546 97.834h1.8532l0.04592 0.33488h-1.4213l0.10876 0.87638h1.2929l0.04651 0.34238h-1.2969l0.18111 1.4594h-0.44837zm2.5131-0.0076h0.0972l0.0125 0.01178 0.2769 1.9207h0.0066c0.20218-0.32042 0.40862-0.47993 0.62018-0.47993 0.33181 0.0039 0.53916 0.17894 0.62242 0.52674 0.04734 0.57975-0.35478 0.93258-1.2081 1.0541l-0.0075-6e-3 -0.43137-3.0154zm0.41802 2.1505 0.10518 0.72962c0.59736-0.13638 0.86361-0.4136 0.80019-0.82958-0.0012-0.01768-0.0031-0.03467-0.0055-0.05097-0.03058-0.20055-0.15559-0.30596-0.37508-0.31676-0.17399 0-0.34866 0.15545-0.52474 0.46765z" style="paint-order:fill markers stroke" aria-label="F♭"/>
     <path d="m72.388 97.73-0.17872-0.78034h-0.70699l-0.07114-0.31978h1.1321l0.29017 1.2454c-0.14335 0.10885-0.31034 0.19162-0.50092 0.2482-0.19107 0.05531-0.40227 0.08299-0.63345 0.08299-0.50571 0-0.93031-0.13429-1.2725-0.40188-0.33937-0.26758-0.55742-0.6374-0.65476-1.1074-0.09677-0.46719-0.03227-0.82818 0.19207-1.0851 0.2244-0.25693 0.58217-0.38493 1.0741-0.38493 0.2052 0 0.40494 0.02246 0.59932 0.0674 0.19595 0.04498 0.38219 0.11127 0.55882 0.19894l0.09424 0.40581c-0.18606-0.11986-0.37482-0.2099-0.56642-0.27026-0.19137-0.06029-0.38495-0.09041-0.5809-0.09041-0.38624 0-0.65588 0.09606-0.80934 0.28871-0.1526 0.19334-0.18842 0.48277-0.10662 0.86984 0.08213 0.38857 0.24261 0.68314 0.48167 0.88214 0.24137 0.19974 0.55975 0.29988 0.95446 0.29988 0.15414 0 0.28906-0.01179 0.40472-0.03537 0.11531-0.0249 0.21536-0.06284 0.30012-0.1138zm0.60716-2.4598h0.09491l0.01325 0.01124 0.44127 1.8308h0.0064c0.16887-0.30533 0.35622-0.45734 0.56276-0.45734 0.32426 0.0037 0.54221 0.17052 0.65433 0.50193 0.0976 0.55232-0.26357 0.88839-1.0856 1.0041l-0.0079-0.0057-0.68941-2.8736zm0.5995 2.0498 0.16751 0.69502c0.57088-0.12989 0.80614-0.39396 0.70734-0.79026-0.0027-0.01685-0.0061-0.03303-0.0099-0.04856-0.04764-0.19109-0.17903-0.29153-0.39425-0.30182-0.16984 0-0.32653 0.14812-0.47065 0.44559z" style="paint-order:fill markers stroke" aria-label="G♭"/>
     <path d="m17.865 93.133-0.95791 1.3532h1.1493zm-0.13355-0.35657h0.47166l0.43206 2.7363h-0.44393l-0.08908-0.7156h-1.4131l-0.49545 0.7156h-0.45027zm2.0657-0.0072h0.09268l0.0075 0.01071-0.46308 1.7451h0.0063c0.31389-0.29092 0.57099-0.43578 0.77261-0.43578 0.3147 0.0037 0.44598 0.16261 0.39361 0.47827-0.17444 0.52616-0.69097 0.84624-1.5496 0.95648l-0.0049-0.0055 0.72972-2.7384zm-0.41547 1.9537-0.17568 0.66203c0.62052-0.12371 0.97902-0.37523 1.0761-0.75276 0.0055-0.01605 0.01022-0.03147 0.01402-0.04626 0.0468-0.18207-0.0324-0.27777-0.23746-0.28758-0.16579 0-0.39105 0.14114-0.67692 0.42454z" style="paint-order:fill markers stroke" aria-label="A♭"/>
     <path d="m26.906 91.799-0.19329 0.9675h0.66726c0.2238 0 0.3968-0.03986 0.51886-0.11948 0.12347-0.08069 0.20053-0.20326 0.23123-0.36742 0.03082-0.16482-3.93e-4 -0.28574-0.09347-0.36307-0.09135-0.07839-0.24783-0.11754-0.46954-0.11754zm0.21273-1.0648-0.15547 0.77819h0.60835c0.20075 0 0.35603-0.03194 0.46575-0.09575 0.11116-0.06489 0.17908-0.16323 0.20383-0.29482 0.02447-0.13011-0.0065-0.22718-0.09274-0.29142-0.08479-0.06415-0.22676-0.0962-0.42599-0.0962zm-0.34997-0.2841h1.0389c0.31008 0 0.53874 0.05464 0.68621 0.1641 0.14779 0.1097 0.20314 0.26608 0.16569 0.46958-0.02909 0.15807-0.09564 0.28418-0.19973 0.3781-0.10428 0.09409-0.24284 0.15284-0.4156 0.17612 0.19538 0.03728 0.3378 0.11542 0.42729 0.23461 0.09129 0.11829 0.12069 0.26683 0.08796 0.44588-0.04324 0.23654-0.17011 0.42001-0.38087 0.54984-0.21128 0.13015-0.48993 0.19535-0.83553 0.19535h-1.1071zm2.8021-0.0069h0.09061l0.0083 0.01024-0.29211 1.6671h0.0061c0.27999-0.27784 0.51795-0.4162 0.715-0.4162 0.3079 0.0035 0.4508 0.15532 0.42857 0.45677-0.12218 0.50241-0.59748 0.80799-1.4263 0.91322l-0.0052-0.0054 0.46119-2.6155zm-0.22635 1.8664-0.11075 0.63209c0.59492-0.1181 0.92211-0.35824 0.98229-0.71873 0.0039-0.01531 0.0071-0.03003 0.0095-0.04415 0.02902-0.17388-0.05717-0.26528-0.25848-0.27464-0.16203 0-0.36919 0.13479-0.62248 0.40544z" style="paint-order:fill markers stroke" aria-label="B♭"/>
    </g>
    <path d="m25.847 25.002-0.64866 0.87446h0.92274zm-0.13939-0.23116h0.37989l0.58799 1.766h-0.35573l-0.13448-0.46011h-1.1339l-0.33241 0.46011h-0.36081zm2.2416 1.196c-0.04135 0-0.07712 0.01302-0.10732 0.03907-0.02991 0.02444-0.04843 0.05541-0.05554 0.09294-0.0161 0.08496 0.02192 0.1275 0.11409 0.1275h0.29381l-0.06048 0.32787h-0.47537l0.03987-0.20982c0.01216-0.06398-0.044-0.09593-0.16847-0.09593-0.05071 0-0.0964 0.0098-0.1371 0.0295-0.04071 0.01967-0.06347 0.04182-0.06826 0.06643l-0.04079 0.20982h-0.45453l0.06548-0.32787h0.2938c0.08987 0 0.14309-0.04254 0.15963-0.1275 0.0073-0.03752-4.6e-4 -0.0685-0.02328-0.09294-0.02019-0.02605-0.04866-0.03907-0.08542-0.03907h-0.2929l0.06507-0.3258h0.44969l-0.04012 0.20637c-0.0057 0.02922 0.0079 0.05358 0.0409 0.07308 0.03328 0.01788 0.07519 0.02682 0.12572 0.02682 0.12402 0 0.19237-0.03333 0.20502-0.0999l0.03921-0.20637h0.47029l-0.06009 0.3258z" style="paint-order:fill markers stroke" aria-label="A𝄪"/>
    <path d="m37.785 33.497-0.01996 0.30188c-0.11891-0.08996-0.24771-0.15709-0.38647-0.20147-0.13741-0.04434-0.28547-0.06649-0.4443-0.06649-0.31276 0-0.55824 0.07404-0.73686 0.22248-0.17911 0.14797-0.28098 0.36317-0.30529 0.64654-0.02437 0.28414 0.04116 0.50299 0.1971 0.65563 0.15653 0.15216 0.39433 0.22842 0.71302 0.22842 0.16184 0 0.31599-0.02299 0.46235-0.06894 0.14747-0.0459 0.28767-0.11516 0.42052-0.20767l-0.02043 0.3089c-0.13677 0.07056-0.28064 0.12354-0.43152 0.1589-0.14975 0.03539-0.30704 0.05309-0.4718 0.05309-0.42312 0-0.74786-0.1017-0.97349-0.30444-0.22461-0.20284-0.32089-0.47789-0.28975-0.82389 0.031-0.34442 0.1747-0.61386 0.43045-0.80959 0.25476-0.19586 0.58828-0.29349 1.0014-0.29349 0.1633 0 0.31563 0.01688 0.45707 0.05067 0.14283 0.03287 0.27547 0.08268 0.39797 0.1495zm1.3971-0.1678h0.08411l0.0088 7e-3 -0.02154 0.42994 0.2227-0.08517 0.0054 0.0028-0.0096 0.20042c-4e-3 0.0067-0.08036 0.03848-0.22922 0.09554l-0.02682 0.5355 0.22974-0.07935-0.0093 0.19501c-0.0014 0.0039-0.07852 0.03815-0.23139 0.10289l-0.02168 0.43286-0.0096 0.0059h-0.08579l-9e-3 -0.0059 0.02038-0.39803-0.54645 0.2037-0.02887 0.50724-0.0097 0.0059h-0.0786l-9e-3 -0.0059 0.02728-0.47077-0.24548 0.08763 0.01253-0.20714c3.52e-4 -0.0058 0.08221-0.03783 0.24544-0.09596l0.03171-0.5473h-0.0037l-0.23941 0.08047 0.01207-0.19947 0.24331-0.09299 0.02366-0.40835 0.0095-0.0057h0.07705l0.0088 0.0057-0.02121 0.37264 0.54024-0.19096 0.02412-0.47117zm-0.58616 0.88533-0.03096 0.54403 0.54511-0.20132 0.02737-0.53456z" style="paint-order:fill markers stroke" aria-label="C♯"/>
    <path d="m44.379 31.725 0.0086 1.6057h0.44618c0.37669 0 0.65107-0.06564 0.82277-0.19664 0.17242-0.13063 0.25536-0.33608 0.24922-0.61535-0.0061-0.27574-0.09703-0.47645-0.27254-0.60308-0.17385-0.12719-0.44566-0.19066-0.81579-0.19066zm-0.36325-0.22503h0.74381c0.51858 0 0.90074 0.08166 1.1472 0.24542 0.24729 0.16344 0.37586 0.42069 0.3851 0.77333 0.0094 0.35725-0.1078 0.62142-0.35222 0.79086-0.24533 0.17006-0.63231 0.25534-1.1603 0.25536h-0.76081zm3.6256-0.0054h0.08244l0.0092 0.0068 0.01753 0.41297 0.2106-0.0818 0.0055 0.0027 0.0086 0.19249c-0.0033 0.0064-0.07529 0.03695-0.21604 0.09175l0.02183 0.51421 0.21799-0.07619 0.0084 0.18723c-0.0011 0.0037-0.07351 0.03663-0.21748 0.09877l0.01764 0.41552-0.0089 0.0056h-0.08405l-0.0094-0.0056-0.0158-0.38208-0.51709 0.19554 0.01735 0.48686-9e-3 0.0057h-0.07699l-0.0094-0.0057-0.01564-0.45185-0.23262 0.08412-0.0064-0.19884c-1.79e-4 -0.0056 0.07715-0.03631 0.23184-0.09213l-0.01818-0.52547h-0.0036l-0.22735 0.07726-0.0061-0.19154 0.23006-0.0893-0.01357-0.39218 0.0088-0.0055h0.0755l0.0092 0.0055 0.01275 0.35789 0.51225-0.1834-0.01871-0.45256zm-0.49482 0.85029 0.01861 0.52234 0.51601-0.19328-0.02122-0.51329z" style="paint-order:fill markers stroke" aria-label="D♯"/>
    <path d="m52.412 29.733h1.6589l0.02544 0.22153h-1.3072l0.05818 0.58121h1.2607l0.02576 0.22557h-1.2639l0.07262 0.72547h1.362l0.02653 0.2304h-1.7283zm3.057-0.0052h0.08083l0.0096 0.0065 0.05224 0.39695 0.19952-0.07862 0.0056 0.0026 0.02479 0.185c-0.0027 0.0061-0.07068 0.03552-0.20401 0.08818l0.06503 0.49411 0.20721-0.0732 0.02411 0.17989c-7.27e-4 0.0036-0.06895 0.03519-0.20479 0.0949l0.05253 0.39916-0.0082 0.0054h-0.08238l-0.0097-0.0054-0.04789-0.36699-0.49022 0.18785 0.05836 0.46764-0.0083 0.0055h-0.07545l-0.0097-0.0055-0.05371-0.43401-0.22084 0.08081-0.02315-0.19101c-6.51e-4 -0.0054 0.07253-0.03489 0.2194-0.0885l-0.06248-0.50488h-0.0035l-0.21629 0.07425-0.02231-0.18406 0.21794-0.08581-0.04665-0.37692 0.0082-0.0053h0.07402l0.0095 0.0053 0.04292 0.34397 0.4866-0.17625-0.05677-0.435zm-0.41288 0.81723 0.06263 0.50188 0.48937-0.1857-0.06436-0.49322z" style="paint-order:fill markers stroke" aria-label="E♯"/>
    <path d="m59.377 34.312h1.5857l0.04487 0.24505h-1.2156l0.10892 0.64027h1.1045l0.04541 0.24973h-1.1074l0.18067 1.0621h-0.3821zm3.0002-0.0058h0.08501l0.01067 0.0072 0.08753 0.43913 0.20342-0.087 0.0061 0.0029 0.0413 0.20471c-0.0023 0.0068-0.07143 0.03931-0.20737 0.09759l0.10904 0.54704 0.21203-0.08106 0.04019 0.19922c-4.71e-4 4e-3 -0.06966 0.03897-0.20772 0.10511l0.08815 0.44225-0.0082 6e-3h-0.08672l-0.01062-6e-3 -0.08061-0.40666-0.50056 0.20811 0.09977 0.51828-0.0083 0.0061h-0.07945l-0.01061-0.0061-0.0921-0.48101-0.22586 0.08954-0.03998-0.21164c-0.0011-0.0059 0.07349-0.03865 0.22369-0.09805l-0.10704-0.55913h-0.0037l-0.22152 0.0822-0.03849-0.20376 0.22228-0.09499-0.07986-0.41711 0.0082-0.0058h0.07787l0.01039 0.0058 0.07327 0.38063 0.49746-0.19506-0.09539-0.48124zm-0.36738 0.90429 0.10699 0.55578 0.49979-0.20568-0.10824-0.54608z" style="paint-order:fill markers stroke" aria-label="F♯"/>
    <path d="m69.507 34.232-0.15732-0.572h-0.6056l-0.06302-0.23474h0.9702l0.25475 0.91309c-0.12209 0.07966-0.26451 0.14022-0.4272 0.18161-0.1631 0.04046-0.34356 0.0607-0.54126 0.0607-0.43246 0-0.79654-0.09823-1.0913-0.29406-0.29251-0.19596-0.4822-0.46703-0.5695-0.81188-0.08689-0.34325-0.03462-0.60876 0.15572-0.79786 0.19053-0.18926 0.49668-0.2836 0.91904-0.2836 0.17618 0 0.34781 0.01655 0.51497 0.04968 0.16849 0.03315 0.32875 0.08199 0.48086 0.14658l0.08312 0.29876c-0.16029-0.08821-0.32277-0.15449-0.48754-0.19893-0.16461-0.04439-0.33093-0.06658-0.49908-0.06658-0.33147 0-0.56215 0.07074-0.69234 0.21256-0.12938 0.14226-0.1578 0.35507-0.08462 0.63941 0.07339 0.28516 0.21307 0.50114 0.41918 0.64696 0.20799 0.14628 0.48107 0.21959 0.81877 0.21959 0.13187 0 0.24723-0.0086 0.34605-0.02589 0.09852-0.01821 0.18392-0.04599 0.25616-0.08332zm1.3409-1.8071h0.08329l0.01109 0.0069 0.12485 0.42154 0.19155-0.08351 0.0063 0.0028 0.05867 0.19649c-0.0017 0.0065-0.06648 0.03772-0.19448 0.09367l0.15548 0.52496 0.20049-0.07778 0.05708 0.19116c-1.1e-4 0.0038-0.06477 0.03739-0.19412 0.10085l0.12566 0.42427-0.0075 0.0058h-0.08494l-0.01093-0.0058-0.11511-0.39013-0.47177 0.19966 0.14385 0.49715-0.0076 0.0058h-0.0778l-0.01093-0.0058-0.13302-0.46138-0.21324 0.0859-0.05802-0.20303c-0.0016-0.0057 0.06854-0.03708 0.21036-0.09406l-0.15468-0.5365h-0.0036l-0.20968 0.07888-0.05588-0.19554 0.20929-0.09115-0.11543-0.40035 0.0075-0.0056h0.07628l0.01069 0.0056 0.10571 0.36534 0.46999-0.18722-0.1363-0.46196zm-0.27938 0.86798 0.15431 0.53329 0.47125-0.19734-0.15462-0.52403z" style="paint-order:fill markers stroke" aria-label="G♯"/>
    <path d="m22.541 30.848-0.73126 1.0013h0.98776zm-0.13933-0.26444h0.40628l0.5556 2.0229h-0.381l-0.12473-0.52761h-1.214l-0.37579 0.52761h-0.38644zm2.5949-0.0053h0.0816l0.0075 0.0066-0.08506 0.40462 0.22874-0.08015 0.0048 0.0026-0.03919 0.18859c-0.0049 0.0063-0.08369 0.0362-0.2366 0.08989l-0.10589 0.50374 0.23464-0.07463-0.03811 0.1834c-2e-3 0.0036-0.08184 0.03588-0.23974 0.09675l-0.08556 0.407-0.0102 0.0055h-0.08319l-0.0079-0.0055 0.07909-0.37424-0.56023 0.19154-0.10349 0.47685-0.01028 0.0056h-0.0762l-0.0079-0.0056 0.09651-0.44256-0.25107 0.08239 0.04297-0.19476c0.0012-0.0055 0.08535-0.03557 0.25228-0.09024l0.11225-0.51475h-0.0036l-0.24418 0.07569 0.0414-0.18764 0.24984-0.08748 0.08379-0.38423 0.01006-0.0054h0.07473l0.0077 0.0054-0.0761 0.35064 0.5525-0.17967 0.0937-0.44341zm-0.7006 0.83306-0.11105 0.51168 0.55862-0.18933 0.10626-0.50281z" style="paint-order:fill markers stroke" aria-label="A♯"/>
    <path d="m30.249 29.857-0.11052 0.7188h0.57478c0.19278 0 0.33953-0.02958 0.44018-0.08867 0.10182-0.0599 0.16129-0.15091 0.17848-0.27284 0.01727-0.12248-0.01647-0.21237-0.10111-0.26987-0.08323-0.0583-0.22041-0.08742-0.41164-0.08742zm0.12197-0.79324-0.08917 0.57995h0.5249c0.17321 0 0.30538-0.02378 0.39644-0.07129 0.09225-0.04833 0.14532-0.12158 0.15924-0.21963 0.01377-0.09698-0.01844-0.16936-0.09656-0.21727-0.07687-0.04785-0.20131-0.07176-0.37339-0.07176zm-0.31884-0.21202h0.89771c0.26793 0 0.46859 0.04079 0.60217 0.12249 0.13382 0.08185 0.19039 0.1985 0.16945 0.35021-0.01625 0.11779-0.06662 0.21173-0.15118 0.28167-0.08469 0.07005-0.20092 0.11378-0.34864 0.13111 0.17066 0.02774 0.2979 0.08588 0.38179 0.17455 0.08535 0.08797 0.11901 0.19839 0.10082 0.33144-0.02403 0.17566-0.12305 0.31184-0.29729 0.40816-0.17461 0.09653-0.41086 0.14488-0.70844 0.14488h-0.95323zm3.221-0.0051h0.08003l0.0079 0.0064-0.04671 0.38907 0.21703-0.07706 0.0049 0.0025-0.02133 0.18132c-0.0042 6e-3 -0.07878 0.03481-0.22384 0.08642l-0.05814 0.48425 0.22328-0.07174-0.02074 0.17629c-0.0016 0.0035-0.07698 0.03448-0.22626 0.093l-0.04696 0.39114-0.0095 0.0053h-0.08155l-0.0082-0.0053 0.04358-0.35965-0.53183 0.18408-0.05814 0.45821-0.0096 0.0053h-0.0747l-0.0082-0.0053 0.05439-0.42521-0.23863 0.07918 0.02442-0.18717c6.86e-4 -0.0053 0.08044-0.03419 0.23912-0.08673l0.06328-0.49477h-0.0035l-0.23252 0.07276 0.02353-0.18038 0.23702-0.0841 0.04725-0.36943 0.0094-0.0051h0.07329l0.0081 0.0051-0.04277 0.33713 0.52543-0.17275 0.05166-0.42637zm-0.61136 0.80098-0.0624 0.49183 0.53047-0.18197 0.05857-0.48337z" style="paint-order:fill markers stroke" aria-label="B♯"/>
    <path d="m36.187 55.881-0.17382 2.5882h0.56781c0.47938 0 0.83586-0.10628 1.0688-0.31827 0.23366-0.21122 0.36162-0.5431 0.38437-0.99359 0.02243-0.44407-0.07099-0.76683-0.27958-0.97029-0.20626-0.2042-0.54351-0.30603-1.0123-0.30603zm-0.43403-0.36076h0.94148c0.65638 0 1.1312 0.13086 1.4253 0.39347 0.29558 0.26236 0.43084 0.67579 0.40456 1.2436-0.02668 0.5764-0.20426 1.0034-0.53372 1.2776-0.331 0.27552-0.83326 0.41378-1.5056 0.41381h-0.96886zm4.123 2.2208c0.0069-0.19946-0.06686-0.29893-0.22118-0.29893-0.07559 0-0.15362 0.02294-0.23413 0.06885-0.07731 0.04288-0.13484 0.10266-0.17259 0.17939l-0.04299 1.0786c0.19924-0.21234 0.35916-0.40993 0.48001-0.59292 0.12375-0.18551 0.18729-0.33042 0.19089-0.43503zm1.0894 0c5e-3 -0.19946-0.06965-0.29893-0.22397-0.29893-0.07559 0-0.1534 0.02294-0.23348 0.06885-0.07691 0.04288-0.13388 0.10266-0.17092 0.17939l-0.03292 1.0786c0.19726-0.21234 0.35533-0.40993 0.47448-0.59292 0.12202-0.18551 0.1842-0.33042 0.18683-0.43503zm-0.03179-0.61002c0.16647 0 0.29096 0.05021 0.37356 0.15077 0.08275 0.10073 0.12229 0.2399 0.11852 0.41778-0.0029 0.13531-0.05303 0.26322-0.15063 0.38367-0.09464 0.12071-0.26871 0.30224-0.52286 0.54515-0.25201 0.24392-0.47608 0.481-0.67198 0.71113l0.03799-1.1774c-0.05273 0.06196-0.20702 0.21713-0.46365 0.46626-0.25772 0.25019-0.48402 0.48729-0.67862 0.71113l0.17252-4.1466 0.20255-0.08375-0.08769 2.2001c0.15872-0.11887 0.35418-0.17822 0.58662-0.17822 0.1225 0 0.22211 0.02738 0.29889 0.08218l0.06519-2.0203 0.20177-0.08375-0.06715 2.2001c0.15762-0.11887 0.35252-0.17822 0.58495-0.17822z" style="paint-order:fill markers stroke" aria-label="D𝄫"/>
    <path d="m46.529 52.705h2.0888l0.01487 0.35148h-1.6471l0.02551 0.92432h1.5912l0.01499 0.35958h-1.5963l0.03201 1.1597h1.7239l0.01576 0.36934h-2.189zm3.5854 2.1118c-0.01037-0.18959-0.09077-0.28414-0.24123-0.28414-0.0737 0-0.14781 0.02181-0.22237 0.06544-0.0717 0.04076-0.12267 0.09758-0.1529 0.17051l0.05052 1.025c0.17602-0.20174 0.31498-0.38949 0.41712-0.56338 0.10476-0.1763 0.1543-0.31402 0.14886-0.41344zm1.062 0c-0.01214-0.18959-0.09342-0.28414-0.24388-0.28414-0.0737 0-0.1476 0.02181-0.22176 0.06544-0.07132 0.04076-0.12176 0.09758-0.1513 0.17051l0.0601 1.025c0.17413-0.20174 0.31134-0.38949 0.41186-0.56338 0.10312-0.1763 0.15137-0.31402 0.145-0.41344zm-0.08307-0.57989c0.16232 0 0.28798 0.04774 0.3771 0.14333 0.08927 0.09575 0.13969 0.22804 0.15118 0.39713 0.0087 0.1286-0.02926 0.25017-0.11414 0.36465-0.08196 0.11471-0.23616 0.28721-0.46316 0.51802-0.22481 0.23174-0.42295 0.45696-0.59421 0.67555l-0.06363-1.1186c-0.04611 0.05888-0.18324 0.20633-0.41207 0.44304-0.22978 0.23769-0.43004 0.46293-0.60052 0.67555l-0.18742-3.9421 0.1904-0.07969 0.10314 2.0925c0.14457-0.11301 0.33007-0.16943 0.5567-0.16943 0.11944 0 0.21891 0.02603 0.29846 0.07813l-0.1093-1.9215 0.18965-0.07969 0.12268 2.0925c0.14352-0.11301 0.32849-0.16943 0.55512-0.16943z" style="paint-order:fill markers stroke" aria-label="E𝄫"/>
    <path d="m67.964 59.941-0.18833-0.92983h-0.77148l-0.07461-0.38067h1.2351l0.3064 1.4837c-0.15745 0.12983-0.34054 0.22857-0.54918 0.29607-0.20919 0.066-0.44015 0.09902-0.69268 0.09902-0.55242 0-1.0149-0.16023-1.3859-0.4794-0.36773-0.31902-0.60177-0.75968-0.70286-1.3193-0.10042-0.55586-0.02611-0.98506 0.22124-1.2903 0.24731-0.30519 0.6385-0.45718 1.1745-0.45718 0.2236 0 0.44102 0.02666 0.65242 0.08003 0.21312 0.05341 0.41548 0.13214 0.60722 0.23627l0.09921 0.48221c-0.2018-0.14246-0.40677-0.24945-0.61507-0.32117-0.20804-0.07162-0.41874-0.1074-0.6323-0.1074-0.42097 0-0.71584 0.11413-0.88512 0.34305-0.16841 0.22983-0.21054 0.57401-0.1254 1.0346 0.08553 0.46265 0.25764 0.81358 0.51658 1.0508 0.26155 0.23814 0.60825 0.35756 1.0393 0.35756 0.16833 0 0.31578-0.01406 0.4423-0.04218 0.12615-0.02966 0.23573-0.07491 0.32872-0.1357zm1.8468-0.6379c-0.04491-0.20483-0.1455-0.30698-0.30188-0.30698-0.0766 0-0.1497 0.02356-0.21935 0.0707-0.06719 0.04403-0.10995 0.10542-0.12826 0.18422l0.23692 1.1078c0.14671-0.21811 0.25739-0.42106 0.33227-0.60901 0.07716-0.19053 0.10386-0.33935 0.08031-0.44678zm1.1039 0c-0.04682-0.20483-0.14836-0.30698-0.30475-0.30698-0.0766 0-0.14948 0.02356-0.21869 0.0707-0.06678 0.04403-0.10897 0.10542-0.12654 0.18422l0.24727 1.1078c0.14467-0.21811 0.25346-0.42106 0.32658-0.60901 0.07538-0.19053 0.10069-0.33935 0.07613-0.44678zm-0.19094-0.62643c0.16869 0 0.3079 0.05156 0.41777 0.15481 0.11006 0.10344 0.18636 0.24634 0.22884 0.42902 0.03231 0.13896 0.01477 0.27032-0.05279 0.39403-0.06449 0.12397-0.19366 0.31042-0.38801 0.55993-0.19194 0.25056-0.35734 0.4941-0.49602 0.73052l-0.26782-1.2094c-0.03732 0.06363-0.15332 0.22301-0.3486 0.4789-0.19612 0.257-0.36382 0.50056-0.50284 0.73052l-0.90316-4.258 0.18344-0.08596 0.48302 2.2586c0.12994-0.12206 0.31257-0.183 0.5481-0.183 0.12413 0 0.23219 0.02812 0.32424 0.08439l-0.45929-2.074 0.18264-0.08596 0.50411 2.2586c0.1288-0.12206 0.31086-0.183 0.54639-0.183z" style="paint-order:fill markers stroke" aria-label="G𝄫"/>
    <path d="m76.454 54.556-0.16447 1.605h1.2524zm-0.37669-0.4223h0.51322l2.2512 3.2472h-0.48416l-0.56338-0.85067h-1.5403l-0.07506 0.85067h-0.49108zm3.5637 2.1668c-0.06038-0.19456-0.1667-0.2916-0.31912-0.2916-0.07466 0-0.144 0.02238-0.20806 0.06716-0.06192 0.04183-0.09861 0.10014-0.11005 0.17499l0.32078 1.052c0.12526-0.20708 0.21666-0.3998 0.2744-0.57827 0.05975-0.18095 0.07371-0.32229 0.04205-0.42433zm1.0759 0c-0.06219-0.19456-0.16942-0.2916-0.32184-0.2916-0.07466 0-0.14379 0.02238-0.20743 0.06716-0.06153 0.04183-0.09767 0.10014-0.10841 0.17499l0.33061 1.052c0.12333-0.20708 0.21293-0.3998 0.269-0.57827 0.05806-0.18095 0.0707-0.32229 0.03808-0.42433zm-0.23675-0.59508c0.16443 0 0.30428 0.04898 0.41972 0.14707 0.11563 0.09826 0.20153 0.23402 0.25768 0.40754 0.04271 0.13198 0.03621 0.25675-0.01964 0.37424-0.05284 0.11773-0.16366 0.29478-0.33288 0.5317-0.16678 0.23788-0.30825 0.46908-0.42424 0.69349l-0.35883-1.1482c-0.03122 0.06043-0.13135 0.21177-0.30091 0.45474-0.17027 0.24399-0.31391 0.47521-0.43071 0.69349l-1.2264-4.0452 0.17188-0.08174 0.65457 2.1467c0.11673-0.11596 0.2898-0.17386 0.51938-0.17386 0.121 0 0.2286 0.02671 0.32289 0.08018l-0.61604-1.9713 0.17112-0.08174 0.67462 2.1467c0.11565-0.11596 0.28818-0.17386 0.51776-0.17386z" style="paint-order:fill markers stroke" aria-label="A𝄫"/>
    <path d="m18.599 52.901-0.25861 1.143h0.72554c0.24334 0 0.43342-0.04712 0.57006-0.14125 0.1382-0.09537 0.22798-0.24022 0.26939-0.43418 0.04156-0.19468 0.01356-0.33747-0.08379-0.42878-0.09541-0.09254-0.2635-0.13875-0.50438-0.13875zm0.28414-1.2557-0.20761 0.91752h0.66078c0.21805 0 0.38829-0.03768 0.51059-0.11296 0.1239-0.07655 0.20247-0.19253 0.23576-0.3477 0.03291-0.15338 4e-3 -0.26781-0.08647-0.34351-0.08891-0.0756-0.24145-0.11336-0.45771-0.11336zm-0.36567-0.33466h1.1275c0.33651 0 0.582 0.06436 0.73674 0.19329 0.1551 0.12924 0.20762 0.31352 0.15713 0.5534-0.03924 0.18638-0.11762 0.33512-0.23523 0.44591-0.11784 0.11101-0.27122 0.18033-0.46003 0.2078 0.21042 0.04399 0.36133 0.13622 0.45277 0.27691 0.09344 0.13966 0.11819 0.31507 0.07392 0.52658-0.05849 0.27951-0.20537 0.49638-0.44088 0.64989-0.23615 0.15392-0.54242 0.23104-0.9183 0.23104h-1.2041zm3.2636 2.0589c0.0364-0.1848-0.01972-0.27697-0.16827-0.27697-0.07276 0-0.1513 0.02126-0.23565 0.0638-0.08081 0.03973-0.14511 0.09512-0.19289 0.16621l-0.20218 0.99899c0.22337-0.1966 0.40673-0.37958 0.55033-0.54905 0.14679-0.17183 0.22958-0.30607 0.24866-0.40297zm1.0485 0c0.03468-0.1848-0.0223-0.27697-0.17086-0.27697-0.07276 0-0.1511 0.02126-0.23505 0.0638-0.08044 0.03973-0.14422 0.09512-0.19134 0.16621l-0.19284 0.99899c0.22153-0.1966 0.40318-0.37958 0.5452-0.54905 0.14519-0.17183 0.22672-0.30607 0.2449-0.40297zm0.06071-0.56526c0.16026 0 0.27258 0.04654 0.33704 0.13972 0.06457 0.09334 0.08178 0.22229 0.05151 0.38711-0.02303 0.12535-0.09047 0.24384-0.20244 0.35542-0.10915 0.1118-0.30383 0.27992-0.58472 0.50486-0.27895 0.22584-0.52994 0.4453-0.75276 0.6583l0.21233-1.0901c-0.06 0.05738-0.23165 0.20109-0.51577 0.43178-0.28529 0.23164-0.53835 0.45112-0.75891 0.6583l0.78442-3.8428 0.20763-0.07772-0.41291 2.0403c0.17054-0.11016 0.36756-0.16516 0.59133-0.16516 0.11793 0 0.20974 0.02538 0.27546 0.07617l0.36494-1.8735 0.20691-0.07772-0.39385 2.0403c0.16951-0.11016 0.36602-0.16516 0.58979-0.16516z" style="paint-order:fill markers stroke" aria-label="B𝄫"/>
   </g>
  </g>
 </g>
</svg>
