<?xml version="1.0" encoding="UTF-8"?>
<svg width="100" height="100" version="1.1" viewBox="0 0 100 100" xmlns="http://www.w3.org/2000/svg">
 <text x="55.257389" y="14.249118" fill="#9ce7ab" fill-rule="evenodd" font-family="'IBM Plex Sans'" font-size="14.581px" font-weight="600" letter-spacing="0px" stroke-linecap="round" stroke-width=".68347" style="line-height:1.2;paint-order:fill markers stroke" xml:space="preserve"><tspan x="55.257389" y="14.249118" font-size="14.581px" stroke-width=".68347">7</tspan></text>
 <text x="3.7961469" y="28.342962" fill="#9ce7ab" fill-rule="evenodd" font-family="'IBM Plex Sans'" font-size="27.436px" font-weight="600" letter-spacing="0px" stroke-linecap="round" stroke-width="1.2861" style="line-height:1.2;paint-order:fill markers stroke" xml:space="preserve"><tspan x="3.7961469" y="28.342962" font-size="27.436px" stroke-width="1.2861">2</tspan></text>
 <g transform="matrix(.69447 0 0 .69447 55.999 -41.648)">
  <text x="11.374224" y="132.90623" fill="#9ce7ab" fill-rule="evenodd" font-family="'IBM Plex Sans'" font-size="32px" font-weight="600" letter-spacing="0px" stroke-linecap="round" stroke-width="1.5" style="line-height:1.2;paint-order:fill markers stroke" xml:space="preserve"><tspan x="11.374224" y="132.90623" font-size="32px">3</tspan></text>
 </g>
 <g fill="#9ce7ab" fill-rule="evenodd" font-family="'IBM Plex Sans'" font-weight="600" letter-spacing="0px" stroke-linecap="round">
  <text x="48.733616" y="89.699135" font-size="18.001px" stroke-width=".84378" style="line-height:1.2;paint-order:fill markers stroke" xml:space="preserve"><tspan x="48.733616" y="89.699135" stroke-width=".84378">5</tspan></text>
  <text x="9.6400261" y="58.63031" font-size="11.81px" stroke-width=".55361" style="line-height:1.2;paint-order:fill markers stroke" xml:space="preserve"><tspan x="9.6400261" y="58.63031" stroke-width=".55361">11</tspan></text>
  <text x="82.229538" y="92.462807" font-size="9.5664px" stroke-width=".44842" style="line-height:1.2;paint-order:fill markers stroke" xml:space="preserve"><tspan x="82.229538" y="92.462807" stroke-width=".44842">13</tspan></text>
 </g>
 <g fill="none" stroke="#9ce7ab">
  <g transform="matrix(.26171 0 0 .26171 73.218 6.29)" stroke-linecap="round" stroke-width="3.276">
   <path transform="translate(150.6 10.184)" d="m-66.729 49.234-67.744-1e-6 33.872-58.668z" style="paint-order:fill markers stroke"/>
   <g stroke-linejoin="round">
    <path d="m16.128 59.419 33.872-19.556" style="paint-order:fill markers stroke"/>
    <path d="m50 0.75096v39.112" style="paint-order:fill markers stroke"/>
    <path d="m83.872 59.419-33.872-19.556" style="paint-order:fill markers stroke"/>
   </g>
  </g>
  <g transform="matrix(.15499 0 0 .15499 18.376 86.703)" stroke-linejoin="round" stroke-width="5.5319">
   <path d="m146.33-235.15 32.705-5.8655 38.681 4.4422-2.8171 45.129-26.557 19.787-38.734-15.706z" style="paint-order:fill markers stroke"/>
   <path d="m146.33-235.15 42.693 7.2593" style="paint-order:fill markers stroke"/>
   <path d="m217.82-236.65-28.794 8.8224" style="paint-order:fill markers stroke"/>
   <path d="m188.34-171.66 0.80905-56.158" style="paint-order:fill markers stroke"/>
  </g>
  <g transform="matrix(.19235 0 0 .19235 17.805 49.121)" stroke-linejoin="round" stroke-width="4.4573">
   <path d="m73.164-142.27 38.398-41.493 36.269 37.475-35.345 37.363z" style="paint-order:fill markers stroke"/>
   <path d="m111.56-183.76 11.27 48.967-10.63 25.655" style="paint-order:fill markers stroke"/>
   <path d="m73.164-142.27 49.668 7.4745 24.775-11.311" style="paint-order:fill markers stroke"/>
  </g>
  <g transform="matrix(.21294 0 0 .21294 83.477 83.635)" stroke-linejoin="round" stroke-width="4.0264">
   <path d="m-8.078-94.471 9.7984-25.788 14.012-10.012 29.067-2.7615 20.53 20.756 3.8403 16.469-9.1809 26.265-12.348 7.6323-30.626 4.4055-20.339-23.056z" style="paint-order:fill markers stroke"/>
   <path d="m15.626-130.47-1.1706 26.161-17.705 23.788" style="paint-order:fill markers stroke"/>
   <path d="m65.139-112.32-15.342 20.834-2.1711 29.309" style="paint-order:fill markers stroke"/>
   <path d="m14.4-104.4 35.397 12.912" style="paint-order:fill markers stroke"/>
  </g>
  <g transform="matrix(.20935 0 0 .20935 -25.478 109.13)" stroke-linejoin="round" stroke-width="4.0955">
   <path d="m151.47-119.07 28.351-15.475 18.142 0.29346 20.611 13.013 8.2316 28.653-29.936 36.055-43.511-16.143z" style="paint-order:fill markers stroke"/>
   <path d="m151.35-118.98 46.231-15.238" style="paint-order:fill markers stroke"/>
   <path d="m151.35-118.98 28.253 30.816 17.978-46.054" style="paint-order:fill markers stroke"/>
   <path d="m153.36-72.679 26.245-15.481 17.143 31.454" style="paint-order:fill markers stroke"/>
   <path d="m198.02-134.22 28.748 41.217" style="paint-order:fill markers stroke"/>
   <path d="m179.61-88.16 47.202-4.4309" style="paint-order:fill markers stroke"/>
  </g>
 </g>
</svg>
