<?xml version="1.0" encoding="UTF-8"?>
<svg width="552.56" height="242.33" version="1.1" viewBox="0 0 146.2 64.116" xmlns="http://www.w3.org/2000/svg">
 <defs>
  <linearGradient id="c" x1="-52.824" x2="-26.841" y1="27.427" y2="27.427" gradientUnits="userSpaceOnUse">
   <stop stop-color="#6e738d" stop-opacity="0" offset="0"/>
   <stop stop-color="#6e738d" offset=".36297"/>
   <stop stop-color="#6e738d" offset="1"/>
  </linearGradient>
  <linearGradient id="b" x1="-23.333" x2="3.9212" y1="21.59" y2="21.59" gradientTransform="translate(24.594 2.2607)" gradientUnits="userSpaceOnUse">
   <stop stop-color="#cad3f5" stop-opacity="0" offset="0"/>
   <stop stop-color="#cad3f5" offset=".27817"/>
   <stop stop-color="#cad3f5" offset="1"/>
  </linearGradient>
  <linearGradient id="a" x1="-1.2617" x2="138.24" y1="26.2" y2="26.2" gradientTransform="translate(1.2617 1.1765)" gradientUnits="userSpaceOnUse">
   <stop stop-color="#0d6fab" stop-opacity="0" offset="0"/>
   <stop stop-color="#032742" stop-opacity=".2" offset=".074932"/>
   <stop stop-color="#0d6fab" stop-opacity=".2" offset="1"/>
  </linearGradient>
 </defs>
 <style>.themed {
      fill: #000000;
      stroke: #000000;
    }
    @media (prefers-color-scheme: dark) {
      .themed {
        fill: #ffffff;
        stroke: #ffffff;
      }
    }
    .arrow {
      stroke: #000000;
    }
    @media (prefers-color-scheme: dark) {
      .arrow {
        stroke: #ffffff;
      }
    }</style>
 <path d="m35.215 0.21948c-0.63482 0.65815-1.2695 1.3164-1.9043 1.9746-0.98562-0.24568-1.9718-0.4893-2.957-0.73633-1.2017 1.2456-2.4038 2.4908-3.6055 3.7363 0.3633 1.2479 0.72092 2.4975 1.082 3.7461-0.89978 0.17469-1.8804 0.68627-2.0684 1.6523-2.2769 0.73981-4.3204 2.1786-5.9327 3.9433-2.0156 2.1687-3.2013 4.9972-3.592 7.9138-0.52059 3.1293-0.3349 6.5044-1.903 9.3617-0.99333 1.3445-2.8088 1.2729-4.3025 1.2115-3.0629-0.1344-6.0393-0.93604-9.0315-1.5377-0.33463 1.5225-0.66805 3.0453-1 4.5684 4.6095 0.92065 9.3607 2.3329 14.078 1.3027 2.9024-0.72805 4.9213-3.3977 5.5833-6.2164 1.1251-3.7906 0.57901-7.9619 2.3039-11.588 1.0627-2.054 2.9544-3.6007 5.0776-4.4686 0.28328-0.07402 0.74118 0.39562 1.1738 0.33984 0.47973 0.0329 0.95559-0.07965 1.4082-0.22852 0.10982 0.58817 0.47896 1.2408 0.42657 1.7887-0.68469 0.70698-1.3677 1.4156-2.0535 2.1215 0.48087 1.6623 0.95877 3.3254 1.4375 4.9883 0.97636 0.24365 1.9532 0.48555 2.9297 0.72852 0.09968 0.40981 0.54974 0.90999-0.01439 1.186-0.60868 0.62858-1.2156 1.2588-1.8255 1.8863 0.48012 1.6621 0.95562 3.3256 1.4336 4.9883 0.97771 0.2441 1.9558 0.48688 2.9336 0.73047 0.09555 0.40705 0.55268 0.9059-0.0105 1.1801-0.61062 0.63054-1.2195 1.2627-1.8313 1.8922 0.28352 0.97609 0.56355 1.9532 0.8457 2.9297-0.70663 0.73088-1.411 1.4639-2.1191 2.1934 0.48049 1.6622 0.95719 3.3255 1.4355 4.9883 0.98615 0.24615 1.9727 0.49078 2.959 0.73633 0.28054 0.97658 0.56159 1.953 0.8418 2.9297 1.6761 0.41982 3.353 0.8368 5.0293 1.2559 0.69977-0.72536 1.3998-1.4505 2.0996-2.1758 0.46395 0.08898 1.0923 0.03185 1.0465 0.69534 0.23311 0.81056 0.467 1.6209 0.69958 2.4316 1.6761 0.41982 3.353 0.8368 5.0293 1.2559 0.70578-0.73172 1.4115-1.4635 2.1172-2.1953 0.98627 0.24569 1.9731 0.48921 2.959 0.73633 0.69913-0.7247 1.3985-1.4492 2.0977-2.1738 0.46395 0.08898 1.0923 0.03185 1.0465 0.69534 0.23311 0.81056 0.467 1.6209 0.69958 2.4316 1.6769 0.41875 3.3546 0.8344 5.0312 1.2539 0.70513-0.73107 1.4101-1.4622 2.1152-2.1934 0.98627 0.24569 1.9731 0.48921 2.959 0.73633 0.70578-0.73172 1.4115-1.4635 2.1172-2.1953 0.98562 0.24568 1.9718 0.4893 2.957 0.73633 0.69913-0.7247 1.3985-1.4492 2.0977-2.1738 0.46436 0.08876 1.0943 0.03114 1.0485 0.69533 0.23311 0.81056 0.467 1.6209 0.69958 2.4316 1.6768 0.41989 3.3543 0.83673 5.0312 1.2559 0.70578-0.73172 1.4115-1.4635 2.1172-2.1953 0.98562 0.24568 1.9718 0.4893 2.957 0.73633 0.69913-0.7247 1.3985-1.4492 2.0977-2.1738 0.46411 0.08878 1.0923 0.0317 1.0465 0.69533 0.23311 0.81056 0.467 1.6209 0.69958 2.4316 1.6769 0.41875 3.3546 0.8344 5.0312 1.2539 0.70556-0.73128 1.4115-1.4622 2.1172-2.1934 0.98562 0.24568 1.9718 0.4893 2.957 0.73633 0.70578-0.73172 1.4114-1.4635 2.1172-2.1953 0.98626 0.24569 1.9731 0.48921 2.959 0.73633 0.69913-0.7247 1.3984-1.4492 2.0977-2.1738 0.46395 0.08898 1.0923 0.03185 1.0465 0.69533 0.23311 0.81056 0.467 1.6209 0.69958 2.4316 1.6769 0.41875 3.3546 0.8344 5.0312 1.2539 0.70514-0.73107 1.4102-1.4622 2.1152-2.1934 0.98626 0.24569 1.9731 0.48921 2.959 0.73633 0.69977-0.72535 1.3998-1.4505 2.0996-2.1758 0.46394 0.08899 1.0924 0.03183 1.0464 0.69536 0.23316 0.8112 0.46696 1.6222 0.69968 2.4335 1.6763 0.41868 3.3532 0.83447 5.0293 1.2539 0.70556-0.73128 1.4115-1.4622 2.1172-2.1934 0.98625 0.2451 1.9732 0.48751 2.959 0.73438 1.2019-1.2441 2.402-2.4899 3.6055-3.7324-0.48041-1.6616-0.95727-3.3242-1.4356-4.9863-0.97708-0.244-1.9544-0.4869-2.9316-0.73047-0.0955-0.40705-0.55268-0.9059 0.0105-1.1801 0.61062-0.63054 1.2196-1.2627 1.8313-1.8922-0.28389-0.97682-0.5649-1.9545-0.84766-2.9316 0.70704-0.73307 1.414-1.4662 2.1211-2.1992-0.48129-1.6593-0.95726-3.3202-1.4356-4.9805-0.97709-0.244-1.9544-0.4869-2.9316-0.73047-0.0955-0.40705-0.55268-0.9059 0.0105-1.1801 0.61062-0.63054 1.2196-1.2627 1.8313-1.8922-0.4805-1.6622-0.9572-3.3255-1.4356-4.9883-0.97698-0.24375-1.9545-0.48553-2.9316-0.72852-0.0956-0.40705-0.55268-0.9059 0.0105-1.1801 0.61062-0.63054 1.2196-1.2627 1.8313-1.8922-0.28389-0.97682-0.5649-1.9545-0.84766-2.9316 0.70725-0.73091 1.4126-1.4637 2.1211-2.1934-0.48049-1.6622-0.95719-3.3255-1.4355-4.9883-0.98543-0.2458-1.9714-0.48943-2.957-0.73438-0.28116-0.97724-0.56317-1.9542-0.84375-2.9316-1.6763-0.41868-3.3532-0.83447-5.0293-1.2539-0.69913 0.7247-1.3984 1.4492-2.0977 2.1738-0.46436-0.088758-1.0943-0.031139-1.0485-0.69533-0.23311-0.81056-0.467-1.6209-0.69958-2.4316-1.6763-0.41868-3.3532-0.83447-5.0293-1.2539-0.70556 0.73128-1.4115 1.4622-2.1172 2.1934-0.98626-0.24569-1.9731-0.48921-2.959-0.73633-0.69935 0.72514-1.3984 1.4505-2.0977 2.1758-0.4641-0.088782-1.0924-0.03169-1.0464-0.69536-0.23316-0.8112-0.46695-1.6222-0.69968-2.4335-1.6769-0.41875-3.3546-0.8344-5.0312-1.2539-0.70514 0.73107-1.4102 1.4622-2.1152 2.1934-0.98625-0.2451-1.9732-0.48751-2.959-0.73438-0.70556 0.73128-1.4115 1.4622-2.1172 2.1934-0.98562-0.24568-1.9717-0.4893-2.957-0.73633-0.69977 0.72535-1.3998 1.4505-2.0996 2.1758-0.46394-0.088985-1.0923-0.031834-1.0464-0.69536-0.23316-0.8112-0.46695-1.6222-0.69968-2.4335-1.6763-0.41868-3.3532-0.83447-5.0293-1.2539-0.70556 0.73128-1.4115 1.4622-2.1172 2.1934-0.98627-0.24569-1.9731-0.48921-2.959-0.73633-0.69935 0.72514-1.3984 1.4505-2.0977 2.1758-0.46411-0.08878-1.0923-0.031703-1.0465-0.69533-0.23311-0.81056-0.467-1.6209-0.69958-2.4316-1.6768-0.41989-3.3543-0.83673-5.0312-1.2559-0.70535 0.73151-1.4101 1.4636-2.1152 2.1953-0.98627-0.24569-1.9731-0.48921-2.959-0.73633-0.70556 0.73128-1.4115 1.4622-2.1172 2.1934-0.98562-0.24568-1.9718-0.4893-2.957-0.73633-0.69977 0.72535-1.3998 1.4505-2.0996 2.1758-0.46395-0.088983-1.0923-0.031847-1.0465-0.69533-0.23311-0.81056-0.467-1.6209-0.69958-2.4316-1.6768-0.41989-3.3543-0.83673-5.0312-1.2559-0.70513 0.73107-1.4101 1.4622-2.1152 2.1934-0.98625-0.2451-1.9732-0.48751-2.959-0.73438-0.69913 0.7247-1.3985 1.4492-2.0977 2.1738-0.46411-0.08878-1.0923-0.031703-1.0465-0.69533-0.23311-0.81056-0.467-1.6209-0.69958-2.4316-1.6774-0.41996-3.3556-0.83666-5.0332-1.2559-0.07096 0.073568-0.14193 0.14714-0.21289 0.2207z" fill="url(#a)" fill-rule="evenodd" stroke-width=".26459" style="paint-order:fill markers stroke"/>
 <path d="m27.386 10.18c-0.78234 0.25941-0.64957 1.1922-0.37727 1.7848 0.33339 0.7571 0.24577 1.7805 0.94102 2.3235 0.81587 0.29995 1.6236-0.31118 2.4282-0.43049 0.97496-0.33876 2.0375-0.47628 2.962-0.93218 0.7-0.67353-0.01961-1.6244-0.13604-2.3941-0.18099-0.6616-0.32058-1.7314-1.2391-1.6589-1.5329 0.40512-3.0528 0.87353-4.5788 1.3074z" fill="#cad3f5" fill-rule="evenodd" stroke-width=".26459" style="paint-order:fill markers stroke"/>
 <g transform="translate(20.966 -90.131)" stroke-linecap="square">
  <path class="themed" d="m117.71 118.46q-0.458 0-0.687-0.24045t-0.229-0.5954v-0.2061q0-0.3664 0.229-0.60685t0.687-0.24045q0.4809 0 0.69845 0.24045t0.21755 0.60685v0.2061q0 0.35495-0.21755 0.5954t-0.69845 0.24045zm3.2835 0q-0.458 0-0.687-0.24045t-0.229-0.5954v-0.2061q0-0.3664 0.229-0.60685t0.687-0.24045q0.4809 0 0.69845 0.24045t0.21755 0.60685v0.2061q0 0.35495-0.21755 0.5954t-0.69845 0.24045zm3.2836 0q-0.458 0-0.687-0.24045t-0.229-0.5954v-0.2061q0-0.3664 0.229-0.60685t0.687-0.24045q0.4809 0 0.69845 0.24045t0.21755 0.60685v0.2061q0 0.35495-0.21755 0.5954t-0.69845 0.24045z" stroke="#000" stroke-width=".09" style="paint-order:markers stroke fill" aria-label="..."/>
  <path class="themed" d="m61.213 146.72q0-0.458 0.24045-0.687t0.5954-0.229h0.2061q0.3664 0 0.60685 0.229t0.24045 0.687q0 0.4809-0.24045 0.69845t-0.60685 0.21755h-0.2061q-0.35495 0-0.5954-0.21755t-0.24045-0.69845zm0 3.2836q0-0.458 0.24045-0.687t0.5954-0.229h0.2061q0.3664 0 0.60685 0.229t0.24045 0.687q0 0.4809-0.24045 0.69845t-0.60685 0.21755h-0.2061q-0.35495 0-0.5954-0.21755t-0.24045-0.69845zm0 3.2835q0-0.458 0.24045-0.687t0.5954-0.229h0.2061q0.3664 0 0.60685 0.229t0.24045 0.687q0 0.4809-0.24045 0.69845t-0.60685 0.21755h-0.2061q-0.35495 0-0.5954-0.21755t-0.24045-0.69845z" stroke="#000" stroke-width=".09" style="paint-order:markers stroke fill" aria-label="..."/>
  <g fill-rule="evenodd">
   <path d="m14.586 91.527c-0.63477 0.6582-1.2695 1.3164-1.9043 1.9746-0.98562-0.24568-1.9718-0.4893-2.957-0.73633-0.91875 0.95105-1.8355 1.904-2.7559 2.8535 0.3678 1.2703 0.732 2.5416 1.0977 3.8125 0.98543 0.2458 1.9714 0.48943 2.957 0.73438 0.19661 0.68294 0.39323 1.3659 0.58984 2.0488-0.70601 0.73085-1.4095 1.4641-2.1172 2.1934 0.28338 0.9766 0.56217 1.9545 0.84375 2.9316-0.70663 0.73088-1.411 1.4639-2.1191 2.1934 0.36752 1.2702 0.73032 2.5417 1.0957 3.8125 0.98605 0.2459 1.9727 0.48941 2.959 0.73438 0.19661 0.68294 0.39323 1.3659 0.58984 2.0488-0.70663 0.73087-1.411 1.4639-2.1191 2.1934 0.36752 1.2702 0.73032 2.5417 1.0957 3.8125 0.98615 0.24614 1.9727 0.49077 2.959 0.73632 0.19662 0.68295 0.39323 1.3659 0.58984 2.0488-0.70663 0.73088-1.411 1.4639-2.1191 2.1934 0.28327 0.97598 0.56219 1.9532 0.84375 2.9297-0.70601 0.73084-1.4095 1.4641-2.1172 2.1934 0.36752 1.2702 0.73032 2.5417 1.0957 3.8125 0.98615 0.24615 1.9727 0.49077 2.959 0.73633 0.28054 0.97658 0.56159 1.953 0.8418 2.9297 1.2816 0.32011 2.5643 0.63618 3.8457 0.95704 0.70556-0.73129 1.4115-1.4622 2.1172-2.1934 0.6901 0.17122 1.3802 0.34244 2.0703 0.51367 0.28054 0.97658 0.56159 1.953 0.8418 2.9297 1.2817 0.32037 2.5642 0.63785 3.8457 0.95898 0.70578-0.73173 1.4115-1.4636 2.1172-2.1953 0.98627 0.24569 1.9731 0.4892 2.959 0.73633 0.70513-0.73107 1.4101-1.4622 2.1152-2.1934 0.6901 0.17122 1.3802 0.34244 2.0703 0.51367 0.28054 0.97658 0.56159 1.953 0.8418 2.9297 1.2823 0.32019 2.5656 0.63607 3.8477 0.95703 0.70513-0.73107 1.4101-1.4622 2.1152-2.1934 0.98627 0.24569 1.9731 0.4892 2.959 0.73633 0.70578-0.73173 1.4115-1.4636 2.1172-2.1953 0.98562 0.24568 1.9718 0.48931 2.957 0.73633 0.70556-0.73128 1.4115-1.4622 2.1172-2.1934 0.6901 0.17123 1.3802 0.34245 2.0703 0.51367 0.28054 0.97658 0.56159 1.953 0.8418 2.9297 1.2824 0.32047 2.5655 0.63776 3.8477 0.95899 0.70578-0.73173 1.4115-1.4636 2.1172-2.1953 0.98562 0.24568 1.9718 0.48931 2.957 0.73633 0.70556-0.73128 1.4115-1.4622 2.1172-2.1934 0.68945 0.17123 1.3789 0.34245 2.0684 0.51367 0.28054 0.97658 0.56159 1.953 0.8418 2.9297 1.2823 0.3202 2.5656 0.63608 3.8477 0.95703 0.70556-0.73128 1.4115-1.4622 2.1172-2.1934 0.98562 0.24568 1.9718 0.48931 2.957 0.73633 0.70578-0.73172 1.4115-1.4636 2.1172-2.1953 0.98627 0.24569 1.9731 0.48921 2.959 0.73633 0.70513-0.73107 1.4101-1.4622 2.1152-2.1934 0.6901 0.17122 1.3802 0.34244 2.0703 0.51367 0.28054 0.97658 0.56159 1.953 0.8418 2.9297 1.2823 0.32019 2.5656 0.63607 3.8477 0.95703 0.70513-0.73107 1.4101-1.4622 2.1152-2.1934 0.98627 0.24569 1.9731 0.48921 2.959 0.73633 0.70578-0.73173 1.4115-1.4636 2.1172-2.1953 0.69011 0.17123 1.3802 0.34245 2.0703 0.51368 0.28056 0.97722 0.56148 1.9543 0.8418 2.9316 1.2816 0.3201 2.5643 0.63617 3.8457 0.95703 0.70557-0.73128 1.4115-1.4622 2.1172-2.1934 0.98625 0.2451 1.9732 0.48751 2.959 0.73437 0.9183-0.95084 1.834-1.9042 2.7539-2.8535-0.36741-1.2696-0.73043-2.5404-1.0957-3.8106-0.98615-0.24615-1.9727-0.49077-2.959-0.73633-0.19662-0.68294-0.39323-1.3659-0.58985-2.0488 0.70663-0.73087 1.411-1.4639 2.1191-2.1934-0.28326-0.97598-0.56218-1.9532-0.84375-2.9297 0.70577-0.73239 1.4112-1.4651 2.1172-2.1973-0.36845-1.2686-0.73026-2.5391-1.0957-3.8086-0.98616-0.24615-1.9727-0.49078-2.959-0.73633-0.19661-0.68294-0.39323-1.3659-0.58984-2.0488 0.70663-0.73087 1.411-1.4639 2.1191-2.1934-0.36752-1.2702-0.73032-2.5417-1.0957-3.8125-0.98606-0.2459-1.9727-0.48941-2.959-0.73437-0.19661-0.68295-0.39323-1.3659-0.58984-2.0488 0.70663-0.73088 1.411-1.4639 2.1191-2.1934-0.28338-0.9766-0.56217-1.9545-0.84375-2.9316 0.70601-0.73084 1.4095-1.4641 2.1172-2.1934-0.36753-1.2702-0.73033-2.5417-1.0957-3.8125-0.98542-0.2458-1.9714-0.48943-2.957-0.73438-0.28115-0.97724-0.56316-1.9542-0.84375-2.9316-1.2816-0.3201-2.5643-0.63617-3.8457-0.95703-0.70556 0.73128-1.4115 1.4622-2.1172 2.1934-0.6901-0.17122-1.3802-0.34245-2.0703-0.51367-0.28054-0.97658-0.56159-1.953-0.8418-2.9297-1.2816-0.3201-2.5643-0.63617-3.8457-0.95703-0.70556 0.73128-1.4115 1.4622-2.1172 2.1934-0.98627-0.24569-1.9731-0.48921-2.959-0.73633-0.70535 0.73151-1.4101 1.4636-2.1152 2.1953l-2.0703-0.51367c-0.28056-0.97722-0.56147-1.9543-0.8418-2.9316-1.2823-0.3202-2.5656-0.63608-3.8477-0.95703-0.70513 0.73107-1.4101 1.4622-2.1152 2.1934-0.98625-0.2451-1.9732-0.48751-2.959-0.73438-0.70556 0.73128-1.4115 1.4622-2.1172 2.1934-0.98562-0.24568-1.9718-0.4893-2.957-0.73633-0.70556 0.73128-1.4115 1.4622-2.1172 2.1934-0.6901-0.17057-1.3802-0.34115-2.0703-0.51172-0.28056-0.97722-0.56147-1.9543-0.8418-2.9316-1.2816-0.3201-2.5643-0.63617-3.8457-0.95703-0.70556 0.73128-1.4115 1.4622-2.1172 2.1934-0.98627-0.24569-1.9731-0.48921-2.959-0.73633-0.70535 0.73151-1.4101 1.4636-2.1152 2.1953l-2.0703-0.51367c-0.28054-0.97658-0.56159-1.953-0.8418-2.9297-1.2824-0.32047-2.5655-0.63776-3.8477-0.95898-0.70535 0.73151-1.4101 1.4636-2.1152 2.1953-0.98627-0.24569-1.9731-0.48921-2.959-0.73633-0.70556 0.73128-1.4115 1.4622-2.1172 2.1934-0.98562-0.24568-1.9717-0.4893-2.957-0.73633-0.70578 0.73172-1.4115 1.4635-2.1172 2.1953l-2.0703-0.51367c-0.28054-0.97658-0.56159-1.953-0.8418-2.9297-1.2824-0.32047-2.5655-0.63776-3.8477-0.95898-0.70513 0.73107-1.4101 1.4622-2.1152 2.1934-0.98625-0.2451-1.9732-0.48751-2.959-0.73438-0.70556 0.73128-1.4115 1.4622-2.1172 2.1934-0.68945-0.17122-1.3789-0.34245-2.0684-0.51367-0.28054-0.97658-0.56159-1.953-0.8418-2.9297-1.2824-0.32047-2.5655-0.63776-3.8477-0.95898-0.07096 0.07357-0.14193 0.14714-0.21289 0.2207z" fill="#cad3f5" stop-color="#000000" style="paint-order:fill markers stroke"/>
   <g transform="matrix(.5298 0 0 .5298 -70.238 74.669)" fill="#fff" stroke="#6e738d" stroke-linejoin="round">
    <path transform="matrix(1.1089 .27444 -.27444 1.1089 164.41 57.165)" d="m-8.0263-19.767-2.5253 4.3614-5.04-0.0058-2.5248 4.3613 2.5144 4.3678 5.04 0.00584 2.5148 4.3677-2.5253 4.3614 2.5148 4.3677-2.5252 4.3619 2.5147 4.3673 5.0396 0.0064 2.5148 4.3677 5.04 0.0058 2.5247-4.3618 5.0401 0.0063 2.5147 4.3673 5.0396 0.0064 2.5252-4.3619 5.0401 0.0063 2.5252-4.3619 5.0396 0.0064 2.5147 4.3673 5.0401 0.0063 2.5247-4.3618 5.04 0.0058 2.5253-4.3614-2.5148-4.3677-5.04-0.00584-2.5144-4.3678 2.5248-4.3613-2.5144-4.3678 2.5247-4.3618-2.5143-4.3674-5.0401-0.0063-2.5147-4.3673-5.0396-0.0064-2.5252 4.3619-5.0401-0.0063-2.5143-4.3674-5.0401-0.0063-2.5252 4.3619-5.0396-0.0064-2.5252 4.3619-5.04-0.0058-2.5148-4.3677z" stroke-width=".87538" style="paint-order:fill markers stroke"/>
    <path d="m223.21 33.119-3.9973 4.1435-5.5874-1.3896-3.9968 4.1435 1.5896 5.5337 5.5874 1.3896 1.5901 5.5337-3.9973 4.1435 1.5901 5.5337-3.9973 4.1441 1.5901 5.5332 5.5869 1.3902 1.5901 5.5337 5.5874 1.3896 3.9968-4.1441 5.5874 1.3902 1.5901 5.5332 5.5869 1.3902 3.9973-4.1441 5.5874 1.3902 3.9973-4.1441 5.5869 1.3902 1.5901 5.5332 5.5874 1.3902 3.9968-4.1441 5.5874 1.3896 3.9973-4.1435-1.5901-5.5337-5.5874-1.3896-1.5896-5.5337 3.9968-4.1435-1.5896-5.5337 3.9968-4.1441-1.5896-5.5332-5.5874-1.3902-1.5901-5.5332-5.5869-1.3902-3.9973 4.1441-5.5874-1.3902-1.5896-5.5332-5.5874-1.3902-3.9973 4.1441-5.5869-1.3902-3.9973 4.1441-5.5874-1.3896-1.5901-5.5337z" style="paint-order:fill markers stroke"/>
    <path d="m285.48 33.195-3.9973 4.1435-5.5874-1.3896-3.9968 4.1435 1.5896 5.5337 5.5874 1.3896 1.5901 5.5337-3.9973 4.1435 1.5901 5.5337-3.9973 4.1441 1.5901 5.5332 5.5869 1.3902 1.5901 5.5337 5.5874 1.3896 3.9968-4.1441 5.5874 1.3902 1.5901 5.5332 5.5869 1.3902 3.9973-4.1441 5.5874 1.3902 3.9973-4.1441 5.5869 1.3902 1.5901 5.5332 5.5874 1.3902 3.9968-4.1441 5.5874 1.3896 3.9973-4.1436-1.5901-5.5337-5.5874-1.3896-1.5896-5.5337 3.9968-4.1435-1.5896-5.5337 3.9968-4.1441-1.5896-5.5332-5.5874-1.3902-1.5901-5.5332-5.5869-1.3902-3.9973 4.1441-5.5874-1.3902-1.5896-5.5332-5.5874-1.3902-3.9973 4.1441-5.5869-1.3902-3.9973 4.1441-5.5874-1.3896-1.5901-5.5337z" style="paint-order:fill markers stroke"/>
    <path d="m168.06 75.921-3.9973 4.1436-5.5874-1.3896-3.9968 4.1435 1.5896 5.5337 5.5874 1.3896 1.5901 5.5337-3.9973 4.1435 1.5901 5.5337-3.9973 4.1441 1.5901 5.5332 5.5869 1.3902 1.5901 5.5337 5.5874 1.3896 3.9968-4.1441 5.5874 1.3902 1.5901 5.5332 5.5869 1.3902 3.9973-4.1441 5.5874 1.3902 3.9973-4.1441 5.5869 1.3902 1.5901 5.5332 5.5874 1.3902 3.9968-4.1441 5.5874 1.3896 3.9973-4.1436-1.5901-5.5337-5.5874-1.3896-1.5896-5.5337 3.9968-4.1436-1.5896-5.5337 3.9968-4.1441-1.5896-5.5332-5.5874-1.3902-1.5901-5.5332-5.5869-1.3902-3.9973 4.1441-5.5874-1.3902-1.5896-5.5332-5.5874-1.3902-3.9973 4.1441-5.5869-1.3902-3.9973 4.1441-5.5874-1.3896-1.5901-5.5337z" style="paint-order:fill markers stroke"/>
    <path d="m230.34 75.997-3.9973 4.1436-5.5874-1.3896-3.9968 4.1436 1.5896 5.5337 5.5874 1.3896 1.5901 5.5337-3.9973 4.1436 1.5901 5.5337-3.9973 4.1441 1.5901 5.5332 5.5869 1.3902 1.5901 5.5337 5.5874 1.3896 3.9968-4.1441 5.5874 1.3902 1.5901 5.5332 5.5869 1.3902 3.9973-4.1441 5.5874 1.3902 3.9973-4.1441 5.5869 1.3902 1.5901 5.5332 5.5874 1.3902 3.9968-4.1441 5.5874 1.3896 3.9973-4.1436-1.5901-5.5337-5.5874-1.3896-1.5896-5.5337 3.9968-4.1436-1.5896-5.5337 3.9968-4.1441-1.5896-5.5332-5.5874-1.3902-1.5901-5.5332-5.5869-1.3902-3.9973 4.1441-5.5874-1.3902-1.5896-5.5332-5.5874-1.3902-3.9973 4.1441-5.5869-1.3902-3.9973 4.1441-5.5874-1.3896-1.5901-5.5337z" style="paint-order:fill markers stroke"/>
    <path d="m292.62 76.074-3.9973 4.1436-5.5874-1.3896-3.9968 4.1436 1.5896 5.5337 5.5874 1.3896 1.5901 5.5337-3.9973 4.1436 1.5901 5.5337-3.9973 4.1441 1.5901 5.5332 5.5869 1.3902 1.5901 5.5337 5.5874 1.3896 3.9968-4.1441 5.5874 1.3902 1.5901 5.5332 5.5869 1.3902 3.9973-4.1441 5.5874 1.3902 3.9973-4.1441 5.5869 1.3902 1.5901 5.5332 5.5874 1.3902 3.9968-4.1441 5.5874 1.3896 3.9973-4.1436-1.5901-5.5337-5.5874-1.3896-1.5896-5.5337 3.9968-4.1436-1.5896-5.5337 3.9968-4.1441-1.5896-5.5332-5.5874-1.3902-1.5901-5.5332-5.5869-1.3902-3.9973 4.1441-5.5874-1.3902-1.5896-5.5332-5.5874-1.3902-3.9973 4.1441-5.5869-1.3902-3.9973 4.1441-5.5874-1.3896-1.5901-5.5337z" style="paint-order:fill markers stroke"/>
   </g>
   <g fill="#fff" stroke="#6e738d" stroke-linejoin="round" stroke-width=".52982">
    <path d="m15.024 92.174-2.1178 2.1953-2.9602-0.7362-2.1175 2.1953 0.84218 2.9318 2.9602 0.73623 0.84246 2.9318-2.1178 2.1953 0.84246 2.9318-2.1178 2.1955 0.84246 2.9315 2.96 0.7365 0.84246 2.9318 2.9602 0.7362 2.1175-2.1955 2.9602 0.73651 0.84246 2.9315 2.96 0.7365 2.1178-2.1955 2.9602 0.73651 2.1178-2.1955 2.96 0.7365 0.84246 2.9315 2.9602 0.73651 2.1175-2.1955 2.9602 0.7362 2.1178-2.1953-0.84246-2.9318-2.9602-0.73623-0.84218-2.9318 2.1175-2.1953-0.84218-2.9318 2.1175-2.1955-0.84218-2.9315-2.9602-0.73651-0.84246-2.9315-2.96-0.73651-2.1178 2.1955-2.9602-0.73651-0.84218-2.9315-2.9602-0.73651-2.1178 2.1955-2.96-0.73651-2.1178 2.1955-2.9602-0.7362-0.84246-2.9318z" style="paint-order:fill markers stroke"/>
    <path d="m48.018 92.215-2.1178 2.1953-2.9602-0.7362-2.1175 2.1953 0.84218 2.9318 2.9602 0.73623 0.84246 2.9318-2.1178 2.1953 0.84245 2.9318-2.1178 2.1955 0.84245 2.9315 2.96 0.73651 0.84246 2.9318 2.9602 0.7362 2.1175-2.1955 2.9602 0.73652 0.84246 2.9315 2.96 0.73651 2.1178-2.1955 2.9602 0.73651 2.1178-2.1955 2.96 0.73651 0.84246 2.9315 2.9602 0.73651 2.1175-2.1955 2.9602 0.7362 2.1178-2.1953-0.84246-2.9318-2.9602-0.73622-0.84218-2.9318 2.1175-2.1953-0.84218-2.9318 2.1175-2.1955-0.84218-2.9315-2.9602-0.73651-0.84246-2.9315-2.96-0.73651-2.1178 2.1955-2.9602-0.73651-0.84218-2.9315-2.9602-0.73651-2.1178 2.1955-2.96-0.73651-2.1178 2.1955-2.9602-0.7362-0.84246-2.9318z" style="paint-order:fill markers stroke"/>
    <path d="m81.012 92.256-2.1178 2.1953-2.9602-0.7362-2.1175 2.1953 0.84218 2.9318 2.9602 0.73622 0.84245 2.9318-2.1178 2.1953 0.84245 2.9318-2.1178 2.1955 0.84245 2.9315 2.96 0.73651 0.84246 2.9318 2.9602 0.7362 2.1175-2.1955 2.9602 0.73651 0.84246 2.9315 2.96 0.73651 2.1178-2.1955 2.9602 0.73651 2.1178-2.1955 2.96 0.73651 0.84246 2.9315 2.9602 0.73652 2.1175-2.1955 2.9602 0.7362 2.1178-2.1953-0.84246-2.9318-2.9602-0.73622-0.84218-2.9318 2.1175-2.1953-0.84218-2.9318 2.1175-2.1955-0.84218-2.9315-2.9602-0.73651-0.84246-2.9315-2.96-0.73651-2.1178 2.1955-2.9602-0.73651-0.84218-2.9315-2.9602-0.73651-2.1178 2.1955-2.96-0.73651-2.1178 2.1955-2.9602-0.7362-0.84246-2.9318z" style="paint-order:fill markers stroke"/>
    <path d="m18.803 114.89-2.1178 2.1953-2.9602-0.7362-2.1175 2.1953 0.84218 2.9318 2.9602 0.73623 0.84245 2.9318-2.1178 2.1953 0.84245 2.9318-2.1178 2.1955 0.84245 2.9315 2.96 0.7365 0.84246 2.9318 2.9602 0.7362 2.1175-2.1955 2.9602 0.73651 0.84246 2.9315 2.96 0.7365 2.1178-2.1955 2.9602 0.73651 2.1178-2.1955 2.96 0.7365 0.84246 2.9315 2.9602 0.73651 2.1175-2.1955 2.9602 0.73621 2.1178-2.1953-0.84245-2.9318-2.9602-0.73622-0.84218-2.9318 2.1175-2.1953-0.84218-2.9318 2.1175-2.1955-0.84218-2.9315-2.9602-0.73651-0.84246-2.9315-2.96-0.7365-2.1178 2.1955-2.9602-0.73651-0.84218-2.9315-2.9602-0.73651-2.1178 2.1955-2.96-0.73651-2.1178 2.1955-2.9602-0.7362-0.84246-2.9318z" style="paint-order:fill markers stroke"/>
    <path d="m51.797 114.93-2.1178 2.1953-2.9602-0.7362-2.1175 2.1953 0.84218 2.9318 2.9602 0.73623 0.84245 2.9318-2.1178 2.1953 0.84245 2.9318-2.1178 2.1955 0.84246 2.9315 2.96 0.73651 0.84246 2.9318 2.9602 0.7362 2.1175-2.1955 2.9602 0.73652 0.84246 2.9315 2.96 0.73651 2.1178-2.1955 2.9602 0.73651 2.1178-2.1955 2.96 0.73651 0.84246 2.9315 2.9602 0.73651 2.1175-2.1955 2.9602 0.7362 2.1178-2.1953-0.84245-2.9318-2.9602-0.73622-0.84218-2.9318 2.1175-2.1953-0.84218-2.9318 2.1175-2.1955-0.84218-2.9315-2.9602-0.73651-0.84246-2.9315-2.96-0.73651-2.1178 2.1955-2.9602-0.73651-0.84218-2.9315-2.9602-0.73651-2.1178 2.1955-2.96-0.73651-2.1178 2.1955-2.9602-0.7362-0.84246-2.9318z" style="paint-order:fill markers stroke"/>
    <path d="m84.791 114.97-2.1178 2.1953-2.9602-0.73621-2.1175 2.1953 0.84218 2.9318 2.9602 0.73622 0.84245 2.9318-2.1178 2.1953 0.84245 2.9318-2.1178 2.1955 0.84246 2.9315 2.96 0.73651 0.84246 2.9318 2.9602 0.7362 2.1175-2.1955 2.9602 0.73652 0.84246 2.9315 2.96 0.73651 2.1178-2.1955 2.9602 0.73651 2.1178-2.1955 2.96 0.7365 0.84245 2.9315 2.9602 0.73652 2.1175-2.1955 2.9602 0.73621 2.1178-2.1953-0.84245-2.9318-2.9602-0.73622-0.84219-2.9318 2.1175-2.1953-0.84219-2.9318 2.1175-2.1955-0.84218-2.9315-2.9602-0.73651-0.84246-2.9315-2.96-0.73651-2.1178 2.1955-2.9602-0.73651-0.84218-2.9315-2.9602-0.73651-2.1178 2.1955-2.96-0.7365-2.1178 2.1955-2.9602-0.7362-0.84246-2.9318z" style="paint-order:fill markers stroke"/>
   </g>
  </g>
 </g>
 <path d="m27.365 11.184c-4.5846 1.1343-8.5346 4.7956-9.66 9.4323-0.99947 3.6054-0.54838 7.525-2.0597 10.998-0.58898 1.4534-2.0561 2.3888-3.6085 2.437-3.4937 0.26458-6.8219-0.60793-10.228-1.3124-0.18377 0.83236-0.365 1.6653-0.54688 2.498 3.9413 0.8178 8.0018 1.8935 12.046 1.2097 2.0686-0.35899 3.8099-1.8369 4.6573-3.7352 1.8653-4.0043 1.1161-8.6376 2.6397-12.737 1.302-3.3341 4.4689-5.6915 7.9114-6.4563-0.20686-0.82752-0.41715-1.6542-0.62891-2.4805-0.17383 0.04883-0.34766 0.09766-0.52148 0.14648z" fill="url(#b)" fill-rule="evenodd" stop-color="#000000" style="paint-order:fill markers stroke"/>
 <rect transform="rotate(-16.1)" x="23.158" y="17.909" width="5.2918" height="3.3074" ry=".38309" fill="#6e738d" fill-rule="evenodd" style="paint-order:fill markers stroke"/>
 <path transform="translate(54.716 -3.5032)" d="m-27.025 15.933c-3.5098 0.88811-6.6473 3.3442-8.116 6.6881-1.1961 2.7231-1.2017 5.7533-1.6204 8.6509-0.29676 2.0535-0.70301 4.2369-2.0961 5.8652-0.89387 1.0448-2.2406 1.5639-3.5851 1.6897-2.7913 0.26123-5.5839-0.24425-8.3073-0.80632-0.63924-0.13193-1.2768-0.27184-1.9145-0.41086" fill="none" stroke="url(#c)" stroke-width="1.5" style="paint-order:fill markers stroke"/>
</svg>
