<?xml version="1.0" encoding="UTF-8"?>
<svg width="100" height="100" version="1.1" viewBox="0 0 100 100" xmlns="http://www.w3.org/2000/svg">
 <g fill="#74aaf1" fill-rule="evenodd">
  <path d="m25.856 79.722h-5.7882l-2.8942-5.013 2.8942-5.013h5.7882l2.8942 5.013z" stroke-width=".52683" style="paint-order:fill markers stroke"/>
  <path d="m75.855 36.874-8.5367-4.9287 1.36e-4 -9.8572 8.5365-4.9287 8.5367 4.9287-1.36e-4 9.8572z" stroke-width=".405" style="paint-order:fill markers stroke"/>
  <g transform="matrix(.8845 0 0 .8845 -34.588 26.063)">
   <path d="m131.94 39.604c-4.5892 0-8.3223 3.735-8.3223 8.3242v14.145c0 3.2474-2.5748 5.8242-5.8223 5.8242s-5.8223-2.5768-5.8223-5.8242v-14.145h-2.5v14.145c0 4.5892 3.7331 8.3242 8.3223 8.3242s8.3223-3.735 8.3223-8.3242v-14.145c0-3.2474 2.5748-5.8242 5.8223-5.8242s5.8223 2.5768 5.8223 5.8242v14.145h2.5v-14.145c0-4.5892-3.7331-8.3242-8.3223-8.3242z" stop-color="#000000" style="paint-order:fill markers stroke"/>
   <path d="m108.46 37.881h4.5285a0.73574 0.73574 45 0 1 0.73574 0.73574v7.9824a0.73574 0.73574 135 0 1-0.73574 0.73574h-4.5285a0.73574 0.73574 45 0 1-0.73574-0.73574v-7.9824a0.73574 0.73574 135 0 1 0.73574-0.73574z" stroke-width="1.0134" style="paint-order:fill markers stroke"/>
   <path transform="translate(28.289,24.784)" d="m108.46 37.881h4.5285a0.73574 0.73574 45 0 1 0.73574 0.73574v7.9824a0.73574 0.73574 135 0 1-0.73574 0.73574h-4.5285a0.73574 0.73574 45 0 1-0.73574-0.73574v-7.9824a0.73574 0.73574 135 0 1 0.73574-0.73574z" stroke-width="1.0134" style="paint-order:fill markers stroke"/>
   <rect x="108.97" y="33.408" width="3.5" height="3.8801" ry="0" style="paint-order:fill markers stroke"/>
   <rect transform="scale(1,-1)" x="137.26" y="-76.592" width="3.5" height="3.8801" ry="0" style="paint-order:fill markers stroke"/>
  </g>
 </g>
 <g transform="translate(0 -.0019025)" fill-rule="evenodd">
  <g fill="#74aaf1">
   <g stroke-width=".69907">
    <path d="m8.9808 19.205v14.659c0 7.6856 6.2962 13.981 13.981 13.981 7.6853 0 13.981-6.2962 13.981-13.981v-14.659m-6.9907 0v14.659c0 3.9334-3.0573 6.9921-6.9907 6.9921-3.9334 0-6.9907-3.0587-6.9907-6.9921v-14.659" stop-color="#000000" style="paint-order:fill markers stroke"/>
    <path d="m8.9808 13.273h6.9907v5.1624h-6.9907z" style="paint-order:fill markers stroke"/>
    <path d="m29.953 13.273h6.9907v5.1624h-6.9907z" style="paint-order:fill markers stroke"/>
   </g>
   <path d="m23.962 6.2452-5.6798 8.3729a0.30513 0.30513 0 0 0 0.25252 0.47642h3.7063a0.33595 0.33595 0 0 1 0.33084 0.39432l-0.83299 4.7218a0.12315 0.12315 0 0 0 0.22318 0.09053l5.6798-8.3719a0.30511 0.30511 0 0 0-0.25249-0.4764h-3.6979a0.34228 0.34228 0 0 1-0.33709-0.40168l0.83088-4.7154a0.12319 0.12319 0 0 0-0.22327-0.090533z" stroke-width=".50029" style="paint-order:fill markers stroke"/>
  </g>
  <g fill="#fff" stroke="#74aaf1" stroke-linecap="round" stroke-width="1.5">
   <path d="m10.729 11.559-1.7477-2.155" style="paint-order:fill markers stroke"/>
   <path d="m14.224 11.559 1.7477-2.2407" style="paint-order:fill markers stroke"/>
   <path d="m12.476 11.559v-2.155" style="paint-order:fill markers stroke"/>
   <path d="m31.701 11.059-1.7477-2.155" style="paint-order:fill markers stroke"/>
   <path d="m35.196 11.059 1.7477-2.2407" style="paint-order:fill markers stroke"/>
   <path d="m33.448 11.059v-2.155" style="paint-order:fill markers stroke"/>
  </g>
 </g>
</svg>
