<?xml version="1.0" encoding="UTF-8"?>
<svg width="100" height="100" version="1.1" viewBox="0 0 100 100" xmlns="http://www.w3.org/2000/svg">
 <g fill="#f38f9d" fill-rule="evenodd">
  <g transform="matrix(.72106 0 0 .72106 -14.18 37.667)">
   <path transform="rotate(24.267 120.36 -62.799)" d="m182.64 46.732-8.5337-1.1774-4.8352 7.1296-1.5173-8.4799-8.2748-2.3954 7.596-4.0635-0.27893-8.61 6.2119 5.9685 8.1024-2.9259-3.7568 7.7522z" fill="#f38f9d" fill-rule="evenodd" style="paint-order:fill markers stroke"/>
  </g>
  <g transform="matrix(.72106 0 0 .72106 -14.18 -10.025)">
   <path transform="rotate(24.267 120.36 -62.799)" d="m182.64 46.732-9.3509-0.88802-7.6541 5.4445 0.88803-9.3509-5.4445-7.6541 9.3509 0.88802 7.6541-5.4445-0.88803 9.3509z" fill="#f38f9d" fill-rule="evenodd" style="paint-order:fill markers stroke"/>
  </g>
  <g transform="matrix(.6196 0 0 .6196 -54.393 42.153)">
   <path transform="rotate(24.267 120.36 -62.799)" d="m182.64 46.732-8.0185-1.4399-2.7622 7.6642-2.7622-7.6642-8.0185 1.4399 5.2562-6.2243-5.2562-6.2243 8.0185 1.4399 2.7622-7.6642 2.7622 7.6642 8.0185-1.4399-5.2562 6.2243z" fill="#f38f9d" fill-rule="evenodd" style="paint-order:fill markers stroke"/>
  </g>
  <path d="m22.962 18.155-2.5577 4.43-5.1164 1.05e-4 2.5581 4.431-2.5583 4.4311 5.1164-1.05e-4 2.5581 4.431 2.5583-4.4311 5.1164-1.05e-4 -2.5581-4.431 2.5577-4.43-5.1164 1.05e-4z" style="paint-order:fill markers stroke"/>
 </g>
</svg>
