<?xml version="1.0" encoding="UTF-8"?>
<svg width="50.987mm" height="50.211mm" version="1.1" viewBox="0 0 50.987 50.211" xmlns="http://www.w3.org/2000/svg">
 <g transform="translate(-51.858 -102.39)" fill-rule="evenodd" stroke-linecap="square">
  <g transform="matrix(1 0 0 1 -320.15 92.269)" stroke-width=".93">
   <path d="m398.02 47.82c-1.19 0.08-2.3 1.08-2.3 2.3 0 0.4 0.03 0.7-0.44 0.72-0.3 0.03-0.67 0.49-0.82 0.01-0.67-0.73-1.48-1.47-2.52-1.56-1.27-0.17-2.77-0.15-3.78 0.76-0.19 0.26-0.32 0.43-0.58 0.14a4.6 4.6 0 0 0-3.91-0.26 3.6 3.6 0 0 0-3-1.52c-0.87-0.1-1.74-0.48-2.6-0.15-1.16 0.36-2.62 0.44-3.32 1.57-0.53 1.16-0.28 2.52-0.39 3.73-0.16 1.1 0.18 2.19 0.25 3.29 0 0.97 0.71 1.82 1.65 2.04 0.9 0.24 1.94 0.34 2.8-0.12 0.92 0.78 2.32 0.6 3.21-0.12 0.3-0.1 0.55-0.42 0.8-0.51 1.34 0.97 3.2 0.77 4.53-0.1 0.73 1 2.09 1.02 3.2 1.02 0.37 0.06 0.74-0.31 1.05-0.05 0.97 0.43 2.1 0.07 2.9-0.5 1.23 0.63 2.8 0.92 4.04 0.16 0.24-0.29 0.48-0.13 0.77 0 0.86 0.25 1.82 0.1 2.57-0.4 0.72 0.36 1.55 0.25 2.31 0.36 0.35-0.02 0.65-0.31 0.97-0.08 0.68 0.26 1.45 0.21 2.12 0.08 0.6 0.42 1.4 0.37 2.1 0.43 0.46 0.03 0.9-0.09 1.31-0.15 0.37 0.3 0.88 0.26 1.3 0.32a2 2 0 0 0 1.9 1.03c1.04 0.18 2.35 0.1 2.94-0.91 0.3-0.36 0.29-0.9 0.45-1.27a4.7 4.7 0 0 0 3.1-3.12 7 7 0 0 0-0.4-3.22c-0.75-1.06-1.85-2.05-3.22-2.05a4 4 0 0 0-3.46 1c-0.64-0.65-1.34-1.32-2.3-1.4a5.7 5.7 0 0 0-3.18 0.3q-0.65 0.34-1.03 0.97a4.2 4.2 0 0 0-2.94-0.22c-0.32 0.1-0.63-0.23-0.97-0.23a4.5 4.5 0 0 0-2.05 0.13c-0.05-1.09-0.77-2.23-1.92-2.37q-0.57-0.1-1.14-0.05m-12.46 6.18c0.37 0.34-0.65 0.4-0.35 0 0.11-0.08 0.23-0.05 0.34 0m5.3 0.76c0.43 0.22-0.34 0.68-0.29 0.18 0.02-0.13 0.15-0.24 0.29-0.18" fill="#a5adcb" paint-order="fill markers stroke"/>
   <path d="m398.23 48.2c-1.04 0-2.12 0.8-2.1 1.91-0.13 0.3 0.13 0.9-0.22 0.97-0.5 0.08-0.97 0.29-1.4 0.54a6 6 0 0 0-1.74-1.7 6 6 0 0 0-3.09-0.2c-0.7 0.13-1.45 0.57-1.65 1.31a3.7 3.7 0 0 0-2.97-1 3.4 3.4 0 0 0-1.53 0.4 3.2 3.2 0 0 0-2.74-1.6q-0.9-0.12-1.8-0.32c-0.69 0.01-1.33 0.32-2 0.42-0.82 0.24-1.85 0.54-2.06 1.5-0.15 0.74-0.15 1.53-0.15 2.3 0.01 0.84-0.17 1.68 0.02 2.53 0.19 0.72 0.1 1.49 0.33 2.2 0.29 0.84 1.2 1.13 2.01 1.2 0.67 0.07 1.42 0.04 1.96-0.39 0.7 0.82 2.03 0.8 2.82 0.12a3 3 0 0 0 1.08-0.82 3.2 3.2 0 0 0 2.9 0.75 5 5 0 0 0 1.83-0.83c0.36 0.88 1.39 1.15 2.27 1.15a2.7 2.7 0 0 0 1.66-0.2c0.84 0.67 2.11 0.32 2.88-0.3 0.28-0.17 0.64 0.21 0.96 0.27 0.94 0.37 2.05 0.52 2.96-0.02 0.33-0.09 0.59-0.55 0.9-0.22a2.7 2.7 0 0 0 2.76-0.36c0.62 0.45 1.43 0.28 2.14 0.42 0.35 0.08 0.68-0.27 0.95-0.16 0.64 0.28 1.42 0.38 2.1 0.18 0.28-0.23 0.54 0.27 0.89 0.26 0.75 0.14 1.53 0.22 2.3 0.09q0.42-0.23 0.77 0.05c0.37 0.21 0.86 0.14 1.21 0.16 0.23 0.63 0.84 1.11 1.53 1.03 0.9 0.15 2.06 0.25 2.66-0.6 0.34-0.41 0.39-1 0.47-1.46a4.5 4.5 0 0 0 3.08-2.77 8 8 0 0 0-0.27-2.97c-0.68-0.96-1.64-1.94-2.9-1.94a3.6 3.6 0 0 0-3.5 1.16 10 10 0 0 0-1.46-1.31 5.5 5.5 0 0 0-2.85-0.28c-0.88 0.05-1.85 0.67-2.01 1.5-0.7-0.63-1.73-0.65-2.61-0.56-0.33-0.01-0.65 0.33-0.94 0.08a4 4 0 0 0-2.99 0.08c0.06-0.98-0.33-2.22-1.42-2.46-0.33-0.11-0.7-0.1-1.04-0.1m-12.86 5.72c0.42 0.03 0 0.7-0.11 0.29q-0.02-0.17 0.1-0.29m5.39 0.86c0.5 0.17-0.03 0.6-0.16 0.2 0-0.09 0.05-0.23 0.16-0.2" fill="#cad3f5" paint-order="fill markers stroke"/>
   <path d="m398.24 49c-0.62 0-1.31 0.4-1.3 1.1q-0.12 0.86-0.1 1.72c-1.08-0.1-2.37 0.45-2.74 1.47-0.12-0.6-0.09-1.3-0.61-1.74-0.52-0.4-0.9-1.1-1.64-1.06-0.49-0.08-1-0.18-1.47-0.05a2 2 0 0 0-1.44 0.51c-0.33 0.37-0.09 0.82-0.01 1.22-0.06 0.3 0.26 0.68-0.16 0.77-0.3 0.41-0.33-0.14-0.54-0.36a3.3 3.3 0 0 0-1.7-1.56c-0.47-0.34-1.06-0.13-1.59-0.2-0.67 0.06-1.4 0.37-1.75 0.97-0.02-0.76-0.6-1.36-1.13-1.82-0.35-0.16-0.7-0.42-1.1-0.32-0.52-0.04-1-0.23-1.53-0.18-0.29-0.23-0.6-0.22-0.95-0.1-0.54 0.25-1.2 0.17-1.72 0.5-0.58 0.04-1.2 0.48-1.12 1.13 0.03 0.58-0.16 1.18-0.06 1.72 0.08 0.54-0.13 1.07-0.08 1.63 0.06 0.47 0.08 0.97 0.17 1.43 0.24 0.54-0.1 1.32 0.45 1.76 0.6 0.37 1.35 0.38 2.03 0.34 0.5-0.07 0.79-0.58 0.77-1.05 0.54 0.35 0.67 1.14 1.38 1.25 0.5 0.15 0.92-0.17 1.3-0.44 0.81-0.21 1.43-1.37 0.74-2.04-0.11-0.18-0.65-0.43-0.37-0.6 0.26-0.4 0.35-0.3 0.32 0.14a3.7 3.7 0 0 0 2.09 2.38 3.4 3.4 0 0 0 2.92-0.73c0.26-0.2 0.57-0.3 0.77-0.55 0.2 0.69 0.57 1.59 1.42 1.55 0.63 0.03 1.3 0.26 1.89-0.1 0.29-0.18 0.52-0.25 0.7 0.08 0.46 0.43 1.1 0.22 1.59 0 0.29-0.03 0.37-0.37 0.68-0.43 0.24-0.38 0.38-0.18 0.66 0.02 0.6 0.28 1.23 0.5 1.9 0.58 0.47 0.15 0.9-0.2 1.33-0.3 0.32-0.23 0.65-0.46 0.9-0.77a1.34 1.34 0 0 0 1.68 0.65 1.3 1.3 0 0 0 1.24-1.24c0.03 0.67 0.68 1.16 1.35 1.07 0.46-0.1 1.06 0.37 1.38-0.18 0.15-0.13 0.12-0.72 0.2-0.65 0.01 0.63 0.65 1.03 1.23 0.97a1.2 1.2 0 0 0 1.41-0.47c0.2 0.43 0.56 0.81 1.08 0.77 0.69 0.07 1.44 0.24 2.09-0.16 0.35-0.37 0.42 0.22 0.78 0.28 0.48 0.29 1 0 1.44-0.2 0.04 0.48 0.2 1.05 0.6 1.31 0.77-0.05 1.75 0.45 2.38-0.2 0.4-0.5 0.33-1.2 0.3-1.79 0.8 0.17 1.48-0.38 2.13-0.76 0.46-0.34 0.7-0.87 1-1.33 0.1-0.8 0-1.64-0.12-2.44-0.56-0.7-1.2-1.63-2.22-1.58a2.9 2.9 0 0 0-2.98 0.9c-0.26 0.46-0.6 0.9-0.75 1.4-0.16-0.57-0.09-1.27-0.62-1.67-0.52-0.4-0.9-1.12-1.63-1.06-0.49-0.08-1-0.18-1.47-0.05a2 2 0 0 0-1.44 0.51c-0.33 0.37-0.08 0.81-0.02 1.2-0.06 0.3 0.27 0.7-0.15 0.8-0.34 0.42-0.3 0-0.48-0.28a3 3 0 0 1-0.74-0.83c-0.48-0.49-1.22-0.47-1.85-0.5-0.36 0.12-0.78 0.1-1.05 0.4a2.5 2.5 0 0 0-2.24-0.42c-0.53 0.17-1.16 0.23-1.6 0.56-0.22 0.33-0.09-0.38-0.16-0.56-0.04-0.65 0.08-1.39-0.32-1.95-0.35-0.36-0.88-0.41-1.35-0.36" fill="#6e738d" paint-order="fill markers stroke"/>
   <path d="m382.43 52.08v0.51q-0.05 0.15-0.05 0.3t-0.03 0.28l-0.07 0.16-0.08 0.15-0.08 0.13-0.1 0.13q-0.02 0.02-0.02 0.08-0.1 0.13-0.23 0.24-0.1 0.1-0.24 0.17-0.08 0.13-0.16 0.21-0.02 0.03-0.08 0.05-0.15 0.07-0.32 0.1-0.23 0.06-0.31 0.23v0.2q0 0.05 0.07 0.06 0.06 0.01 0.1 0.06 0 0.02 0.03 0.03t0.02 0.03q0.04 0.19 0.23 0.24l0.1 0.18 0.14 0.15 0.1 0.08 0.1 0.05 0.06 0.1 0.07 0.12 0.15 0.12q0.03 0.15 0 0.19-0.14 0.15-0.19 0.29l-0.04 0.05-0.04 0.04q-0.08 0.04-0.17 0.05t-0.15 0.07q-0.05 0.04-0.12 0.04-0.06 0.01-0.12 0.05l-0.16 0.15q-0.08 0.09-0.18 0.15-0.05-0.02-0.11-0.02h-0.12l-0.23-0.15q-0.04-0.04-0.04-0.06l-0.05-0.11-0.04-0.08q0-0.05-0.05-0.08l-0.07-0.1v-0.08q0-0.09-0.07-0.09l-0.06-0.01h-0.05q-0.16-0.12-0.3-0.3-0.12-0.11-0.23-0.16-0.1-0.07-0.19-0.17l-0.17-0.2-0.1-0.13q-0.07-0.08-0.14-0.12-0.1-0.02-0.19 0t-0.18 0.05q-0.02 0-0.06 0.06l-0.01 0.15-0.03 0.15q0.04 0.2 0.01 0.43l-0.04 0.24-0.01 0.25v0.1l-0.02 0.09q-0.03 0.1-0.13 0.13h-0.04l-0.09-0.02h-0.09q-0.17 0.04-0.34 0l-0.36-0.05q-0.18-0.02-0.34-0.06h-0.04l-0.04-0.02q-0.04-0.05-0.04-0.08v-0.2l-0.05-0.22q-0.05-0.2 0.03-0.34l-0.03-0.2v-0.19q0.03-0.04 0-0.1 0-0.08-0.05-0.05l-0.03 0.01-0.03-0.02-0.02-0.05q0-0.03-0.02-0.04v-0.35q0-0.06-0.03-0.1-0.03-0.12-0.03-0.24t0-0.23l-0.02-0.07-0.04-0.06 0.04-0.15q0.02-0.08-0.04-0.15 0.02-0.1 0.01-0.18-0.01-0.1 0.05-0.2 0.02-0.05 0-0.1l-0.02-0.14 0.06-0.16 0.06-0.2-0.04-0.2-0.03-0.09-0.02-0.09q-0.01-0.06 0.01-0.1 0.03-0.06 0-0.1v-0.11l0.05-0.09-0.01-0.03v-0.03q-0.1-0.14-0.05-0.34l0.04-0.13 0.05-0.12-0.03-0.1-0.01-0.08 0.07-0.26-0.03-0.15-0.03-0.17q0-0.1 0.1-0.2 0.04-0.06 0.08-0.05 0.05 0.02 0.13 0l0.16-0.05q0.09-0.04 0.18-0.05 0.1-0.01 0.2-0.09l0.17-0.09 0.18-0.06 0.22 0.03q0.05-0.01 0.17-0.08h0.2l0.24-0.06 0.06-0.06 0.1-0.05 0.15-0.02 0.15-0.04 0.06 0.04 0.07 0.03 0.1 0.07q0.04 0.03 0.07 0.03l0.22 0.03 0.21-0.02h0.3q0.07 0 0.12 0.02 0.07 0 0.1 0.03 0.05 0.05 0.08 0.05 0.15 0.04 0.29 0.04t0.26 0l0.11 0.05 0.12 0.04 0.07-0.03 0.06-0.04q0.1-0.02 0.14 0.02l0.05 0.04 0.08 0.05 0.03 0.07 0.07 0.05h0.15q0.05 0 0.1 0.09l0.12 0.15 0.15 0.17q0.08 0.07 0.13 0.17l0.13 0.18q0.04 0.02 0.05 0.07l0.04 0.09v0.26q0 0.12 0.05 0.24m-5.44-1.37h-0.02zm3.81 1.98-0.02-0.03q0-0.1-0.03-0.19-0.04-0.1-0.13-0.16-0.04-0.02-0.06-0.06t-0.06-0.08q-0.07-0.1-0.18-0.16 0-0.02-0.03-0.02l-0.06-0.03-0.19 0.07q-0.09-0.06-0.19-0.06t-0.2 0.02h-0.24q-0.1 0-0.22 0.03h-0.25l-0.24 0.02-0.15 0.01q-0.07 0.04-0.14 0.04t-0.15 0.02q-0.05 0.04-0.06 0.1t-0.03 0.13q0.06 0.25-0.02 0.5l0.08 0.16q0.03 0.07 0 0.15v0.05q0.03 0.07 0.03 0.13t-0.03 0.13l-0.05 0.04-0.04 0.03q0.06 0.05 0.13 0.05l0.08-0.03 0.09-0.05q0.18 0.05 0.37 0.05 0.2-0.02 0.37 0.06h0.08l0.1-0.01 0.1-0.02 0.12-0.05q0.25-0.07 0.44-0.22 0.07-0.05 0.15-0.06l0.15-0.04h0.16q0.04-0.1 0.11-0.16 0.1-0.06 0.15-0.15-0.05-0.05 0-0.1t0.06-0.11m7.14 1.24q0.03 0.13-0.01 0.24l-0.04 0.12v0.1q0.02 0.01 0 0.04v0.03q-0.04 0.09-0.04 0.2l0.02 0.18-0.11 0.15v0.15l-0.06 0.05-0.08 0.07-0.07 0.16-0.05 0.17v0.11l-0.12 0.08q-0.06 0.03-0.1 0.1l-0.1 0.05-0.1 0.06-0.05 0.01h-0.03q-0.17 0-0.17 0.15l-0.24 0.17-0.23 0.17q-0.19 0.15-0.49 0.2-0.1 0.01-0.2 0.06-0.07 0.04-0.18 0.06l-0.05-0.02h-0.06q-0.13 0.02-0.28-0.02h-0.08l-0.07 0.02-0.17-0.02-0.16-0.02-0.19-0.1-0.16-0.1q-0.08-0.02-0.13-0.07t-0.08-0.12l-0.04-0.03-0.03-0.04-0.07-0.03-0.06-0.06q-0.18-0.12-0.32-0.27-0.14-0.14-0.2-0.35-0.06-0.15-0.13-0.26l-0.06-0.07-0.05-0.1 0.04-0.08-0.05-0.07q-0.02-0.03-0.02-0.07l-0.01-0.08 0.01-0.07q0.02-0.08 0.01-0.17v-0.15q0.01-0.07 0-0.14t0.01-0.15l0.03-0.15q0.01-0.07 0.04-0.12l0.05-0.12 0.03-0.13 0.05-0.13q0.02-0.07 0.07-0.14v-0.1q0.06-0.1 0.08-0.17t0-0.15l0.08-0.1q0.04-0.02 0.06-0.07l0.04-0.1 0.07-0.1q0.03-0.09 0.1-0.15l0.07-0.09 0.06-0.07q0.03-0.06 0.03-0.1l-0.02-0.1 0.04-0.06 0.05-0.03 0.08-0.04 0.17-0.11 0.2-0.08q0.1-0.08 0.2-0.1l0.23-0.07h0.17q0.1 0 0.17 0.02h0.1q0.12 0.04 0.24 0.04h0.37l0.12-0.02 0.08 0.07 0.1 0.08 0.06 0.03 0.08 0.03q0.15 0.01 0.27 0.1l0.25 0.17v0.14q0 0.06 0.08 0.1l0.08 0.01 0.08 0.02 0.06 0.1 0.07 0.11 0.1 0.1q0.04 0.04 0.06 0.09l0.03 0.06 0.04 0.05 0.06 0.07 0.05 0.08 0.06 0.16 0.07 0.17 0.03 0.06 0.07 0.08 0.03 0.2q0.02 0.12 0.07 0.22m-1.54 0.4q0-0.07-0.02-0.13-0.04-0.07-0.03-0.14 0-0.02-0.03-0.05l-0.01-0.09v-0.11l-0.14-0.23-0.14-0.2q0-0.03-0.02-0.03t-0.04-0.04q-0.2 0-0.41-0.1-0.14-0.07-0.33 0h-0.03l-0.03 0.04h-0.06q-0.17-0.04-0.23 0.13l-0.06 0.1-0.03 0.1-0.04 0.1-0.05 0.08q-0.05 0.06-0.08 0.13l-0.08 0.12q-0.01 0.11-0.06 0.22-0.03 0.1-0.04 0.21l0.06 0.12q0.04 0.05 0.06 0.11 0.07 0.15 0.05 0.28l0.02 0.04 0.02 0.05 0.19 0.04 0.19 0.06 0.14 0.03q0.09 0.01 0.17-0.03h0.03q0.09 0.03 0.16 0.02l0.19-0.05 0.16-0.12q0.09-0.07 0.18-0.1 0.07-0.16 0.18-0.28t0.15-0.28m7.54 2.08q0.03 0.07 0.01 0.14t-0.04 0.13l-0.05 0.04q-0.03 0-0.05 0.03l-0.07 0.01q-0.04 0-0.08 0.03-0.17 0.03-0.2 0.17l-0.05 0.06q-0.08 0-0.1 0.02l-0.14 0.07q-0.07 0-0.15 0.03t-0.15 0.09h-0.07q-0.04 0.03-0.1-0.02-0.05-0.03-0.05-0.08v-0.08h-0.11q-0.06 0.03-0.09-0.03v-0.17l-0.07-0.03q-0.02-0.03-0.05-0.03l-0.1-0.2-0.11-0.17q-0.05-0.04-0.08-0.02-0.03 0-0.06 0.03t-0.03 0.06l-0.03 0.04q-0.03 0.02-0.03 0.05l-0.04 0.06-0.28 0.12-0.28 0.08-0.15 0.1-0.15 0.08-0.13 0.04-0.12 0.03q-0.07-0.03-0.14-0.02l-0.15 0.04-0.2-0.05-0.23-0.04h-0.07l-0.06 0.02-0.07-0.05q-0.02-0.02-0.07-0.03-0.05-0.03-0.1 0l-0.1 0.04-0.12-0.03-0.13-0.01-0.1-0.1q-0.04-0.04-0.05-0.11l-0.04-0.03-0.03-0.04q-0.04-0.15-0.1-0.26-0.15-0.34-0.21-0.73l-0.05-0.05-0.05-0.06-0.02-0.19-0.04-0.2 0.02-0.13-0.04-0.2 0.09-0.27q0.06-0.13 0.03-0.27l0.06-0.08 0.06-0.07q0.1-0.12 0.14-0.27 0.03-0.11 0.11-0.2t0.19-0.15l0.22-0.1 0.24-0.12 0.05 0.02q0.05 0 0.08-0.02 0.19-0.03 0.33-0.02 0.08 0.01 0.14 0t0.12-0.01l0.23-0.04 0.13 0.03q0.06 0.03 0.14-0.01l0.03 0.01h0.03q0.06 0.02 0.1 0.06l0.1 0.02q0.12 0.02 0.15-0.05 0-0.18-0.03-0.24l-0.07-0.18-0.04-0.13-0.02-0.15-0.02-0.07q0-0.05-0.05-0.1-0.15-0.04-0.35-0.06h-0.07q-0.1 0.04-0.2 0.04t-0.24 0.03l-0.17 0.04q-0.07 0.04-0.16 0.06-0.1 0.05-0.18-0.04-0.03-0.1-0.03-0.2l0.02-0.23-0.05-0.17q-0.04-0.11-0.04-0.25l0.02-0.08-0.05-0.05-0.04-0.03q-0.04-0.03-0.02-0.07 0-0.03 0.04-0.03l0.16-0.04 0.15-0.02 0.14-0.13h0.06q0.25 0.04 0.36 0.02 0.12 0 0.37-0.08 0.12 0 0.22 0.03 0.13 0.02 0.25 0l0.07 0.08 0.09 0.05 0.2-0.06 0.15 0.09q0.06 0 0.09-0.03 0.04-0.03 0.09-0.03 0.1 0.01 0.15 0.1l0.15 0.13 0.12 0.1q0.06 0.08 0.13 0.14l0.04 0.06 0.04 0.07 0.1 0.07 0.07 0.07q0.06 0.05 0.11 0.06 0.08 0.02 0.1 0.08l0.05 0.12q0.02 0.06 0.07 0.1l0.07 0.23q0.03 0.11 0.01 0.24v0.1q0.02 0.05 0.02 0.12l0.04 0.12v0.06l-0.01 0.07 0.01 0.06q0.02 0.07 0.05 0.1 0 0.07-0.05 0.12l-0.06 0.02-0.05 0.04q-0.13 0.07-0.04 0.2l0.04 0.03 0.04 0.06 0.01 0.1 0.02 0.1q-0.05 0.22-0.17 0.4 0.03 0.15 0.1 0.3l0.13 0.3q0.06 0.03 0.09 0.07l0.07 0.05 0.02 0.04 0.01 0.04 0.02 0.22 0.08 0.2 0.09 0.2 0.1 0.17q0.06 0.05 0.1 0.13zm-2.43-1.5q-0.07-0.16-0.17-0.22-0.12-0.05-0.15-0.14-0.01-0.05-0.04-0.06t-0.08-0.02l-0.1 0.02h-0.11l-0.14-0.02-0.1-0.03q-0.1 0-0.2 0.05l-0.14 0.14-0.15 0.26 0.06 0.13q0.04 0.04 0 0.12l0.05 0.22 0.09 0.2 0.03 0.02 0.24 0.02h0.23q0.05 0 0.08-0.02 0.11-0.07 0.3-0.12 0.06-0.02 0.1-0.1l0.1-0.22q0.04-0.12 0.1-0.22m-2.35 1.81v0.03q0.02-0.03 0-0.03m10.03-4.71q-0.06 0.2-0.07 0.4l-0.02 0.4q-0.02 0.2-0.01 0.41v0.4l-0.02 0.33-0.04 0.34v0.2q0 0.17-0.05 0.3-0.03 0.15-0.03 0.3l-0.02 0.16q0 0.09-0.04 0.17l-0.01 0.17-0.05 0.17-0.04 0.16-0.05 0.15-0.08 0.15-0.08 0.13q-0.1 0.05-0.17 0.15l-0.22 0.18-0.2 0.2q-0.13 0.1-0.26 0.1l-0.04 0.01-0.03 0.01q-0.2 0.02-0.34 0.13l-0.04 0.02-0.03 0.03q-0.15 0.02-0.3-0.02t-0.26-0.12h-0.26l-0.1-0.02q-0.3-0.07-0.58-0.25l-0.07-0.05-0.1-0.02q-0.07 0-0.13-0.03l-0.14-0.04q-0.05-0.03-0.09-0.1l-0.06-0.1-0.1-0.2-0.1-0.22-0.1-0.17-0.1-0.18v-0.04l-0.02 0.02v0.02q-0.01-0.02-0.03-0.02l-0.02-0.02q-0.05-0.02-0.08-0.07l-0.04-0.1q0.03-0.06 0.03-0.17 0.03-0.15 0-0.26-0.05-0.16-0.05-0.33l0.02-0.34q0-0.06 0.05-0.15 0.07-0.19 0.09-0.33 0.1-0.15 0.17-0.33 0.07-0.17 0.16-0.33l0.09-0.05 0.08-0.03q0.03-0.02 0.03-0.06l0.05-0.05 0.07-0.04 0.1-0.03 0.04-0.06 0.04-0.07 0.05-0.03q0.25-0.09 0.53-0.13l0.09-0.01 0.1-0.02q0.14-0.05 0.29-0.04h0.29l0.06 0.01 0.07 0.03 0.1 0.02q0.06 0.02 0.07 0 0.1-0.02 0.14 0.02l0.06 0.04 0.1 0.01 0.08-0.01q0.1-0.02 0.1-0.08 0.03-0.08 0-0.08l-0.01-0.03q0.01-0.14-0.01-0.28t0-0.3v-0.32l0.02-0.11v-0.1l-0.01-0.09q-0.03-0.09-0.03-0.18l0.07-0.42q0.02-0.12 0-0.27v-0.05q0.04-0.11 0.04-0.22l0.03-0.2q0.05-0.08 0.13-0.1 0.1-0.03 0.14-0.07 0.17-0.02 0.32 0 0.15 0 0.32-0.04l0.14 0.06 0.13 0.02q0.12 0.09 0.12 0.22v0.13l-0.01 0.14 0.04 0.07 0.03 0.09-0.03 0.07v0.07l0.02 0.11 0.02 0.13v0.9zm-1.62 2.78-0.06-0.16q0-0.1-0.03-0.16-0.03-0.08-0.09-0.15l-0.07-0.13q-0.11-0.06-0.16-0.12l-0.12-0.03-0.1-0.03-0.16-0.06-0.16 0.07-0.13 0.06q-0.18 0.08-0.25 0.3v0.08l-0.02 0.1q0 0.03-0.04 0.07l-0.05 0.09v0.19q0.03 0.15 0.08 0.28 0.07 0.12 0.21 0.21l0.06 0.04 0.07 0.04q0.08 0.08 0.14 0.08l0.34-0.04q0.16-0.02 0.32-0.09 0.07-0.05 0.1-0.11l0.06-0.07 0.05-0.1v-0.28zm9.63 0.09-0.01 0.2-0.02 0.2v0.16q0 0.07-0.04 0.17-0.03 0.05-0.03 0.12v0.35l-0.03 0.2-0.04 0.17-0.03 0.1-0.05 0.08-0.07 0.07q-0.08 0.08-0.16 0.05l-0.1-0.03q-0.05-0.02-0.11 0.03-0.08-0.06-0.19-0.1h-0.16l-0.05-0.02-0.07 0.03-0.05 0.02h-0.09q-0.12-0.1-0.12-0.26l-0.04-0.22-0.08-0.25q0.03-0.08 0.02-0.19l0.01-0.2v-0.1q0-0.07 0.05-0.12 0-0.14 0.03-0.3v-0.1q-0.01-0.12-0.05-0.22-0.02-0.1-0.07-0.2-0.02-0.05-0.06-0.08-0.02-0.05-0.08-0.06l-0.2-0.1-0.12 0.05-0.06-0.02-0.06-0.03-0.03 0.01-0.03 0.02q-0.06 0.1-0.16 0.16-0.05 0.01-0.09 0.05l-0.09 0.08q-0.03 0.03-0.08 0.03l-0.1 0.04-0.03 0.07-0.02 0.06-0.03 0.06-0.02 0.05q-0.06 0.16-0.07 0.3v0.06q0.01 0.07-0.02 0.11l-0.05 0.07-0.02 0.38v0.37q0 0.08-0.02 0.11l-0.05 0.15-0.03 0.14-0.23-0.04h-0.63q-0.08 0-0.15-0.02-0.13 0-0.18-0.1l-0.08-0.25q-0.03-0.15-0.03-0.3v-0.08q0-0.05 0.03-0.08l0.02-0.15 0.01-0.15v-0.32l0.01-0.32v-0.15l-0.04-0.1q-0.03-0.04-0.01-0.08v-0.22l-0.05-0.08-0.08-0.07h-0.07l-0.08-0.03-0.32-0.16-0.07-0.03q-0.1 0.03-0.2 0.1l-0.07 0.01-0.08 0.01-0.12 0.11-0.12 0.12-0.05 0.1-0.04 0.1q-0.07 0.15-0.11 0.33-0.03 0.14-0.03 0.34v0.36q0 0.2-0.03 0.38l-0.05 0.37q-0.01 0.08-0.04 0.14l-0.05 0.15-0.12 0.15q-0.06 0.05-0.15 0.08-0.16-0.02-0.21 0-0.05 0-0.2 0.05l-0.1 0.02-0.08 0.02q-0.06 0.02-0.1 0l-0.15-0.04-0.12-0.14-0.11-0.15 0.01-0.08 0.03-0.05q0.02-0.15 0-0.28l-0.06-0.26-0.06-0.24q0-0.1 0.03-0.15 0.05-0.05 0.06-0.14 0.03-0.08 0.03-0.18l0.02-0.21v-0.21q0-0.11 0.02-0.2l-0.01-0.1q-0.03-0.22 0.02-0.43l0.04-0.16q0.04-0.06 0.1-0.08t0.09-0.08q0.06-0.09 0.02-0.19l-0.03-0.2 0.05-0.12 0.03-0.14q0.09-0.08 0.15-0.18l0.15-0.19q0.02-0.02 0.02-0.07t0.04-0.08l0.05-0.01 0.04-0.03 0.38-0.1q0.19-0.06 0.37-0.14 0.2-0.1 0.4-0.1h0.09q0.15-0.05 0.29-0.07h0.44l0.11 0.03q0.06 0.01 0.12 0.05l0.17 0.09q0.09 0.04 0.19 0.04l0.07 0.05 0.06 0.04 0.09 0.1 0.09 0.11 0.03 0.1 0.04 0.1 0.09 0.1q0.03 0.04 0.11 0.02l0.12-0.1 0.1-0.1h0.1l0.27-0.19 0.04-0.08 0.04-0.07q0.05-0.02 0.11-0.02l0.1-0.02 0.15-0.07q0.07-0.03 0.13-0.08 0.06 0 0.11 0.02h0.21q0.06 0 0.1 0.02 0.15 0.04 0.29 0.05l0.3 0.02q0.01 0.03 0.08 0.03l0.24 0.23 0.02 0.04q0.1 0.3 0.34 0.41v0.07l0.03 0.05q0.07 0.08 0.15 0.08 0.12 0.01 0.12 0.12t0.03 0.26l0.09 0.25 0.07 0.28v0.18l0.02 0.18v0.1l0.02 0.07q0.03 0.15 0 0.31m6 1.52q0.02 0.08 0.01 0.15t-0.04 0.13l-0.05 0.04q-0.03 0-0.06 0.03l-0.07 0.01-0.08 0.02q-0.17 0.03-0.2 0.17l-0.04 0.06-0.11 0.03-0.14 0.07-0.15 0.02q-0.08 0.02-0.15 0.1h-0.06q-0.04 0.02-0.1-0.02-0.05-0.03-0.05-0.08v-0.08h-0.11q-0.06 0.03-0.1-0.04v-0.16l-0.06-0.04-0.05-0.03-0.1-0.18-0.11-0.18q-0.05-0.04-0.08-0.02l-0.06 0.02-0.03 0.06-0.03 0.05q-0.03 0.02-0.03 0.05l-0.04 0.05-0.29 0.13-0.27 0.08-0.16 0.1-0.15 0.08-0.12 0.04-0.13 0.03q-0.06-0.03-0.13-0.02l-0.15 0.04-0.2-0.05-0.23-0.05-0.07 0.01-0.06 0.02-0.07-0.05-0.08-0.04q-0.05-0.02-0.1 0l-0.09 0.05-0.12-0.03q-0.07 0-0.13-0.02l-0.1-0.1q-0.04-0.04-0.05-0.1l-0.04-0.03-0.04-0.04q-0.04-0.15-0.1-0.26-0.14-0.34-0.2-0.73l-0.05-0.05-0.06-0.07-0.02-0.18-0.03-0.21 0.02-0.12-0.04-0.2 0.09-0.27q0.05-0.13 0.03-0.28 0.02-0.04 0.06-0.07l0.05-0.08q0.1-0.1 0.15-0.26 0.03-0.12 0.1-0.2 0.1-0.1 0.19-0.15 0.13-0.05 0.23-0.11l0.24-0.11 0.05 0.01 0.07-0.01q0.2-0.03 0.34-0.02 0.07 0.01 0.14 0t0.12-0.01l0.23-0.05 0.13 0.03q0.07 0.02 0.14 0h0.06l0.1 0.06q0.04 0.03 0.1 0.03 0.12 0.02 0.15-0.05 0-0.19-0.03-0.25l-0.06-0.17q-0.04-0.07-0.05-0.13l-0.02-0.15-0.02-0.08q0-0.04-0.05-0.09-0.15-0.04-0.36-0.06h-0.06q-0.1 0.04-0.21 0.04t-0.23 0.02l-0.17 0.05q-0.07 0.04-0.16 0.06-0.1 0.04-0.18-0.05-0.03-0.1-0.03-0.2l0.02-0.22-0.06-0.17q-0.03-0.11-0.03-0.26v-0.07q0-0.03-0.04-0.05l-0.04-0.03q-0.03-0.03 0-0.07 0-0.03 0.02-0.03l0.17-0.04 0.15-0.02 0.14-0.13 0.05-0.01q0.26 0.04 0.37 0.03t0.36-0.08q0.13 0 0.23 0.03 0.13 0.02 0.25 0l0.07 0.08q0.04 0.01 0.09 0.05l0.1-0.04 0.1-0.03 0.15 0.1q0.06 0 0.09-0.03 0.04-0.04 0.09-0.04 0.1 0.02 0.14 0.1l0.15 0.13q0.07 0.05 0.12 0.12l0.14 0.12 0.04 0.06 0.03 0.08 0.1 0.07q0.05 0.02 0.08 0.07 0.05 0.04 0.11 0.06 0.07 0.02 0.1 0.07l0.04 0.13q0.03 0.06 0.08 0.1l0.07 0.24q0.03 0.1 0 0.22v0.1l0.03 0.12 0.03 0.13v0.19l0.06 0.1q0 0.07-0.06 0.11l-0.05 0.03-0.06 0.03q-0.12 0.08-0.03 0.2l0.03 0.04q0.04 0.02 0.05 0.06l0.01 0.1v0.1q-0.04 0.21-0.16 0.4 0.03 0.15 0.1 0.3l0.14 0.3 0.09 0.06 0.07 0.06 0.02 0.04v0.04q0 0.1 0.03 0.22l0.07 0.2 0.1 0.2q0.03 0.08 0.1 0.17 0.06 0.04 0.1 0.13zm-2.43-1.49q-0.07-0.16-0.17-0.22-0.12-0.06-0.15-0.15-0.01-0.04-0.05-0.05l-0.07-0.02-0.1 0.01-0.11 0.01q-0.08 0-0.14-0.02t-0.11-0.03q-0.1 0-0.19 0.05l-0.07 0.07q-0.04 0.02-0.08 0.07l-0.14 0.26q0.02 0.07 0.06 0.12t0 0.13l0.05 0.22q0.03 0.1 0.09 0.2l0.03 0.01q0.12 0.03 0.24 0.03l0.23-0.01q0.05 0 0.07-0.02 0.12-0.06 0.3-0.12 0.07-0.01 0.12-0.1l0.09-0.2zm-2.35 1.81v0.03q0.02-0.03 0-0.03m10.26-2.24v0.06l-0.07 0.16-0.05 0.15q-0.06 0.15-0.16 0.26l-0.15 0.23-0.14 0.19-0.23 0.16q-0.11 0.08-0.24 0.13-0.08 0.02-0.1 0.05-0.06 0.08-0.14 0.1l-0.1 0.04-0.12 0.08-0.22 0.1q-0.1 0.06-0.22 0.07l-0.06 0.02h-0.08l-0.1-0.03-0.1-0.06-0.2 0.04-0.21 0.03-0.09-0.04q-0.03-0.03-0.07-0.03l-0.08-0.04q-0.04-0.02-0.1 0l-0.07 0.1-0.07 0.12v0.17l0.04 0.18q0 0.08-0.02 0.13-0.05 0.12-0.02 0.25 0.05 0.15 0.04 0.3v0.3q-0.05 0.12-0.05 0.24t-0.02 0.25l-0.01 0.05q-0.1 0.13-0.23 0.13h-0.25q-0.12 0-0.24-0.06l-0.07-0.01h-0.3q-0.1 0-0.2-0.05-0.04-0.02-0.1-0.02h-0.11l-0.03-0.04h-0.01l-0.05-0.18-0.04-0.17-0.02-0.1-0.03-0.12q0-0.1 0.03-0.17l0.04-0.16-0.02-0.15 0.01-0.14q0-0.07-0.02-0.13l-0.03-0.15 0.04-0.09q0.04-0.05 0.04-0.1 0.03-0.07 0-0.14t-0.03-0.17l0.03-0.1 0.05-0.1q-0.02-0.13-0.03-0.42l-0.02-0.58v-0.36q-0.02-0.15 0-0.29 0.03-0.15 0.08-0.29l0.01-0.09 0.05-0.09 0.04-0.2q0.03-0.15 0.05-0.16l0.05-0.24 0.05-0.14 0.15-0.2q0.11-0.15 0.2-0.36l0.01-0.03 0.04-0.1 0.03-0.02 0.02-0.03 0.08-0.14q0.1-0.22 0.32-0.3 0.07-0.03 0.13-0.08l0.18-0.11 0.3-0.08 0.33-0.1q0.07-0.03 0.15-0.03h0.15l0.1 0.02h0.13l0.2 0.02q0.09 0 0.18 0.07l0.09 0.02h0.26q0.09 0 0.16 0.03l0.15 0.07 0.14 0.06 0.05 0.05 0.04 0.05 0.06 0.06q0.15 0.1 0.26 0.25l0.24 0.29q0.05 0.1 0.11 0.15 0.04 0.03 0.06 0.07l0.07 0.08v0.27l0.02 0.1 0.03 0.11-0.01 0.2 0.01 0.19q0.06 0.15 0 0.27-0.02 0.08 0.03 0.14v0.16zm-1.43-0.42q-0.01-0.19-0.07-0.33-0.06-0.16-0.18-0.29-0.1-0.11-0.2-0.17l-0.21-0.15q-0.2-0.03-0.36 0.01-0.05 0.05-0.17 0.06-0.1 0.01-0.15 0.06-0.03 0.08-0.12 0.19l-0.1 0.11q-0.07 0.15-0.09 0.32t0.02 0.3l0.05 0.22 0.04 0.2q0 0.02 0.03 0.04t0.03 0.1 0.04 0.09q0.02 0.07 0.07 0.09t0.14 0.07h0.15l0.16 0.02q0.08 0 0.15 0.02 0.11 0.06 0.27 0 0.02-0.03 0.07-0.04l0.07-0.06q0.08-0.01 0.08-0.07t0.03-0.08q0.14-0.18 0.18-0.35 0.06-0.2 0.07-0.36" fill="#cad3f5" aria-label="Roadmap" paint-order="fill markers stroke"/>
  </g>
  <g transform="matrix(.6631 0 0 .6631 48.242 91.872)">
   <path d="m20.067 16.089-3.784 3.92q-2.793-0.693-5.585-1.389l-5.245 5.44 2.084 7.264 5.587 1.39 1.094 3.803-4 4.141q0.798 2.767 1.593 5.534-1.998 2.072-4 4.142 1.046 3.63 2.088 7.263l5.589 1.393 1.588 5.532c2.444 0.61 4.89 1.215 7.334 1.825l3.995-4.144 3.842 0.956 1.59 5.532c2.444 0.61 4.888 1.216 7.332 1.827l3.995-4.146 5.587 1.391 3.999-4.145 3.84 0.955 1.59 5.532c2.444 0.61 4.888 1.216 7.332 1.827l3.997-4.144 5.585 1.391q2.624-2.72 5.25-5.438-1.046-3.632-2.09-7.265l-5.584-1.39-1.095-3.8 4-4.15c-0.535-1.842-1.063-3.685-1.595-5.527l4.003-4.149q-1.048-3.63-2.09-7.26l-5.587-1.388-1.59-5.534-7.33-1.827-3.999 4.145-3.84-0.953-1.59-5.532-7.332-1.829-3.997 4.144q-2.793-0.694-5.585-1.39l-3.997 4.144-3.844-0.953-1.589-5.535c-2.444-0.609-4.89-1.214-7.333-1.824z" fill="#cad3f5" stroke-width="1.142" paint-order="fill markers stroke"/>
   <g stroke="#5b6078" stroke-width=".999">
    <g fill="#8aadf4">
     <path d="m14.374 31.418-5.587-1.39-1.59-5.533 3.997-4.143 5.587 1.39 1.59 5.532z" paint-order="fill markers stroke"/>
     <path d="m23.957 28.664-5.587-1.39-1.59-5.533 3.997-4.143 5.587 1.39 1.59 5.533z" paint-order="fill markers stroke"/>
     <path d="m31.133 35.587-5.586-1.39-1.59-5.532 3.997-4.144 5.586 1.39 1.59 5.533zm9.584-2.753-5.586-1.39-1.59-5.533 3.997-4.143 5.586 1.39 1.59 5.532zm9.583-2.754-5.586-1.39-1.59-5.533 3.997-4.143 5.587 1.39 1.59 5.532z" paint-order="fill markers stroke"/>
     <path d="m57.477 37.002-5.586-1.39-1.59-5.532 3.997-4.144 5.586 1.39 1.59 5.533zm9.584-2.754-5.586-1.39-1.59-5.532 3.997-4.143 5.586 1.39 1.59 5.532z" paint-order="fill markers stroke"/>
    </g>
    <g fill="#eed49f">
     <path d="m19.143 48.017-5.586-1.39-1.59-5.532 3.997-4.144 5.586 1.39 1.59 5.533z" paint-order="fill markers stroke"/>
     <path d="m28.726 45.264-5.586-1.39-1.59-5.533 3.997-4.143 5.586 1.39 1.59 5.532z" paint-order="fill markers stroke"/>
     <path d="m35.903 52.186-5.587-1.39-1.59-5.533 3.997-4.143 5.587 1.39 1.59 5.533zm9.584-2.754-5.586-1.39-1.59-5.532 3.997-4.144 5.586 1.39 1.59 5.533zm9.583-2.754-5.586-1.39-1.59-5.532 3.997-4.143 5.586 1.39 1.59 5.532zm7.178 6.924-5.587-1.39-1.59-5.533 3.997-4.143 5.587 1.39 1.59 5.533z" paint-order="fill markers stroke"/>
     <path d="m71.827 50.848-5.587-1.39-1.59-5.533 3.997-4.143 5.587 1.39 1.59 5.533z" paint-order="fill markers stroke"/>
    </g>
    <g fill="#ed8796">
     <path d="m23.913 64.617-5.587-1.39-1.59-5.533 3.997-4.143 5.587 1.39 1.59 5.533z" paint-order="fill markers stroke"/>
     <path d="m33.496 61.863-5.587-1.39-1.59-5.532 3.997-4.144 5.587 1.39 1.59 5.533zm7.177 6.923-5.586-1.39-1.59-5.533 3.997-4.143 5.586 1.39 1.59 5.532zm9.584-2.754-5.587-1.39-1.59-5.533 3.997-4.143 5.587 1.39 1.59 5.533z" paint-order="fill markers stroke"/>
     <path d="m59.84 63.278-5.587-1.39-1.59-5.533 3.997-4.143 5.587 1.39 1.59 5.533zm7.177 6.922-5.586-1.39-1.59-5.532 3.997-4.143 5.586 1.39 1.59 5.532z" paint-order="fill markers stroke"/>
     <path d="m76.597 67.447-5.587-1.39-1.59-5.533 3.997-4.143 5.587 1.39 1.59 5.532z" paint-order="fill markers stroke"/>
    </g>
    <g fill="#a6da95">
     <path d="m21.55 38.341-5.587-1.39-1.59-5.533 3.997-4.143 5.587 1.39 1.59 5.533zm16.76 4.169-5.586-1.39-1.59-5.533 3.997-4.143 5.587 1.39 1.59 5.532z" paint-order="fill markers stroke"/>
     <path d="m47.894 39.756-5.587-1.39-1.59-5.533 3.997-4.143 5.587 1.39 1.59 5.533zm16.761 4.169-5.587-1.39-1.59-5.533 3.997-4.143 5.587 1.39 1.59 5.532z" paint-order="fill markers stroke"/>
     <path d="m74.237 41.17-5.587-1.389-1.59-5.533 3.997-4.143 5.587 1.39 1.59 5.533z" paint-order="fill markers stroke"/>
    </g>
    <path d="m66.243 49.457 5.587 1.39 1.59 5.533-3.997 4.143-5.587-1.39-1.59-5.532zm-16.76-4.168 5.586 1.39 1.59 5.532-3.997 4.144-5.586-1.39-1.59-5.533zm-9.583 2.753 5.586 1.39 1.59 5.533-3.997 4.143-5.587-1.39-1.59-5.532zm-16.761-4.169 5.586 1.39 1.59 5.532-3.997 4.144-5.586-1.39-1.59-5.533zm-9.584 2.754 5.587 1.39 1.59 5.532-3.997 4.143-5.586-1.39-1.59-5.532z" fill="#f5a97f" paint-order="fill markers stroke"/>
   </g>
   <g stroke-width=".6">
    <path d="m42.604 26.35q-1.6 0-3 1c-2-0.5-4.2-0.7-5.9 0.4-0.4 0.1-0.7 0.8-1 0.6a5 5 0 0 0-4.9-0.6c-1.7 0.3-3.7 0.5-4.8 2-1.4 1.9-1 4.3-1.4 6.4q-0.3 4 0.1 8c0.5 2 2.3 3.9 4.5 4q2.6 0.3 4.8-1.2-0.4 1.6 0 3.2a7.5 7.5 0 0 0 2.5 9.8 7 7 0 0 0 7.9-0.5q2.2 0.2 4-0.8c1.9 2.3 5.2 3.5 8 2.4 2-1 3-3.5 3.2-5.8 1.6-2 1.4-5 0.1-7.1q-0.3-0.7 0.5-0.5c2.6-0.1 5-1.5 6.9-3.2a9 9 0 0 0 2.1-7.4 10 10 0 0 0-7.5-7.7q-2.8-0.3-5.3 0.7a8 8 0 0 0-5.8-1.3 6 6 0 0 0-5-2.4" fill="#a5adcb" paint-order="markers stroke fill"/>
    <path d="m42.704 27.45q-1.5 0-3 1c-1.5-0.3-3.1-0.8-4.6-0.2q-1.4 0.6-2.2 1.6a4 4 0 0 0-4.4-1.1c-1.6 0.3-3.5 0.2-4.5 1.6-1 1-1 2.5-1.2 3.9q-0.4 4-0.3 8.1c0 2 1 4 3 4.6a6 6 0 0 0 5.6-1.3l1.9 0.1c-1 1-1.5 2.6-1 4q0.3 0.5 0 1c-1.8 3.1-0.4 7.6 3 8.8 2 0.7 4.4 0.2 6-1.2q2.2 0.4 4-0.7c0.3 0 0.6-0.8 0.8-0.3 1.1 1.9 3.3 3 5.5 3q2.3 0 3.4-2.1 1-1.6 0.8-3.3c1.7-1.7 1.5-4.5 0.3-6.5q-0.3-1.2-1-2.2 3.6 1 6.7-1.2c1.3-0.7 2.6-1.8 3-3.3 1.2-2.3 1-5.2-0.4-7.4a8 8 0 0 0-6-4 8 8 0 0 0-4.8 1c-1.6-1.5-4-2-6.1-1.4a5 5 0 0 0-4.5-2.5" fill="#cad3f5" paint-order="markers stroke fill"/>
    <path d="m42.104 28.45q-1.2 0.4-2.3 1.1-1.3-0.3-2.7-0.6a4 4 0 0 0-4 2.4c-0.2 0.7-0.4 0-0.6-0.3-0.7-1-2-2-3.4-1.4l-2.9 0.5c-1.4 0.2-2.2 1.6-2.2 3q-0.2 1.5-0.3 3.2-0.2 2-0.1 3.7c0 1.7-0.3 3.6 0.8 5 1 1.3 3 1.3 4.5 0.8q1.1-0.5 1.8-1.4 1.2 0.3 2.4 0.3 1 0 1.7-0.6 0.2 0.7 0.7 1.2-0.9 0.4-1.7 1-1.4 1.3-0.7 3c-0.1 0.6 0.4 1.2 0 1.6-1.7 2.4-0.8 6.2 1.9 7.5 1.5 0.8 3.5 0.4 4.9-0.5l0.8-0.7a7 7 0 0 0 3.2 0q0.9-0.6 1.4-1.3 0.6-0.2 1 0a6 6 0 0 0 3 3c1.2 0.4 2.7 0.8 3.7-0.2a6 6 0 0 0 1.5-3c0.2-0.5-0.3-1 0.2-1.3 1.4-1.5 1.2-4 0-5.5a4 4 0 0 0-1-2.5q-0.8-0.7-1.8-1.2 0.4-0.8 1-1.3a6 6 0 0 0 4.5 1.6q2.5-0.3 4.6-2 1.2-0.8 1.6-2.2 0.9-1.8 0.6-3.8a9 9 0 0 0-2.9-4.9 6 6 0 0 0-3.7-1.3q-2.5-0.2-4.4 1.3a5.5 5.5 0 0 0-6.5-1.4c-0.6-1.7-2.4-3-4.2-2.8zm-1.8 17a5 5 0 0 0 4 0.7l-0.9 0.9c-0.5-0.2-1.1 0-1.5-0.3a4 4 0 0 0-2-1.3z" fill="#cad3f5" paint-order="markers stroke fill"/>
    <path d="m42.004 29.05q-1.2 0.3-2 1.1c-0.8-0.5-1.8-0.3-2.6-0.6-1.5-0.3-3 0.5-3.7 1.8q-0.3 0.8-1 1.4c-0.4-1.2-1.3-2.7-2.7-2.8l-2.6 0.6c-0.8 0-1.8 0-2.4 0.9-0.7 0.8-0.4 2-0.7 3q0 1.4-0.2 2.8v2.4q-0.2 2.1 0.2 4.2 0.6 1.6 2.2 1.8 2.4 0.2 4-1.6c0-0.3 0.6 0.2 0.9 0 1 0.1 2.2 0.4 3-0.4 0.4-0.1 0.7-1 0.7-0.2 0.2 1 1 2 2.1 2q1.5 0 3-0.6 1.6 1.1 3.4 1 1.2-0.2 1.9-1l0.9 0.5q-1.4 0.6-2.3 1.6c-0.2 0.3-0.2 0.8-0.7 0.6q-0.8-0.3-1.8-0.2c-0.6-1.2-2-1.6-3.2-1.5-0.7-0.3-1.4 0-2 0-0.7-0.3-1.3 0.2-1.7 0.6-1 0.4-1.7 1.7-1.1 2.7q0 0.8 0.2 1.5a5 5 0 0 0-0.8 4.8 4 4 0 0 0 3 2.8q1.6 0.4 3.2-0.5 0.8-0.3 1.3-1.1c1 0.5 2 0.2 3 0.1a2 2 0 0 0 1.4-1.4q0.8 0.2 1.7 0c0.2 1.4 1.4 2.4 2.6 3.1a8 8 0 0 0 2.5 0.4c1.2-0.2 1.8-1.4 2.1-2.5q0.4-1 0-2c1.5-0.8 1.6-2.8 1.1-4.2-0.2-0.6-0.8-1-0.7-1.6-0.3-1.7-1.8-2.7-3.3-3.1-0.7-0.2 0.7 0 0.6-0.7q0.7-0.8 1.3-1.6c1 1 2.4 2 3.9 2q2.5-0.1 4.4-1.7 1.5-0.7 2-2.1c0.7-1 0.6-2.3 0.7-3.5a8 8 0 0 0-2.7-4.7q-1.4-1.2-3.3-1.3-2.4-0.3-4.3 1.2c-0.3 0.5-0.5 0-0.8-0.3a5 5 0 0 0-3.9-1.5q-1.3 0-2.4 0.7c-0.4-1.7-2-3.1-3.7-3zm7.5 16.7c-0.2 0.3-0.3 0.7-0.6 0.2-0.7-0.4-0.3-0.3 0.2-0.3 0.1 0 0.6-0.2 0.4 0" fill="#6e738d" paint-order="markers stroke fill"/>
    <path d="m39.804 41.05v1.6l-0.1 0.2-0.2 0.2h-0.6l-0.2 0.2h-0.3l-0.6 0.2h-0.6l-0.1-0.3v-0.2l-0.1-0.6v-0.5l-0.1-0.3v-0.9l-0.1-0.5v-0.5l-0.1-0.2-0.1-0.3v-0.7l-0.1-0.6v-0.8h-0.3l-0.2-0.2h-0.1l-0.4 0.4-0.2 0.4-0.1 0.3-0.1 0.2-0.3 0.4-0.2 0.4v0.2l-0.1 0.4-0.2 0.4-0.1 0.4-0.4 0.8-0.3 0.4-0.2 0.5-0.1 0.2h-0.7l-0.5-0.1h-0.5q-0.2 0-0.2-0.2l-0.3-0.8q-0.2-0.3-0.2-0.7l-0.3-0.2-0.1-0.2-0.1-0.6-0.1-0.5-0.2-0.2-0.1-0.2v-0.3l-0.1-0.3-0.3-0.5-0.2 0.1v0.2l-0.1 0.2-0.1 0.1-0.1 1.2-0.2 1.2v1.8l-0.2 0.8-0.2 0.2h-0.3l-0.6 0.4h-1l-0.1-0.2v-0.2q0-0.4-0.2-0.7l-0.1-0.5v-0.8l0.1-0.5v-2.4l0.1-0.1v-0.5l-0.1-0.3v-0.2l0.1-0.4v-0.5q0.1 0 0-0.1v-1.1l0.2-0.3-0.1-0.4v-0.1l0.1-0.2v-0.1l0.1-0.3v-0.9l0.1-0.2 0.3-0.1h0.7l0.2-0.1h0.6l0.1-0.1 0.2-0.1h0.4l0.3-0.1h0.4l0.2-0.1h0.1l0.6 1q0.3 0.4 0.4 1l0.1 0.4 0.3 0.4q0 0.2 0.3 0.4v0.7l0.3 0.3 0.1 0.3 0.2 0.3h0.2l0.1-0.4 0.3-0.6q0.1-0.2 0.3-0.2t0.2-0.3l0.2-0.5 0.4-0.4 0.2-0.4 0.3-0.5 0.3-0.3q0.3-0.2 0.4-0.5v-0.2l0.4-0.5 0.3-0.4 0.5-0.1h0.6l0.4 0.1q0.3 0 0.5 0.2h0.3q0.2-0.1 0.4 0 0.2 0 0.3 0.2l0.2 0.4v0.6l0.2 0.2v2.4l0.1 0.2v1.4l-0.1 0.3v1.2l0.1 0.5v0.6l0.1 0.8 0.1 0.2zm4.7-8.2v0.6l-0.2 0.4-0.6 0.6-0.4 0.2h-1.1l-0.1-0.1h-0.1l-0.2-0.1h-0.3l-0.4-0.2-0.1-0.4v-2.1l0.1-0.1 0.3-0.1q0.1-0.2 0.3-0.2l0.6-0.4h0.8q0.3 0 0.4 0.3l0.2 0.1h0.1l0.3 0.5v0.3l0.1 0.2 0.1 0.3zm-0.2 4.5v1.1l-0.1 0.2v1.4l-0.1 0.3v1.9l-0.3 0.7v0.3l0.1 0.3v0.1l-0.2 0.2h-1.3l-0.2-0.1h-0.3l-0.4-0.5-0.1-0.1h-0.2v-0.9q0.1-0.2 0-0.4v-4.6l0.1-0.2v-0.3l0.3-0.1h0.6l0.3-0.1h0.2l0.1 0.1h0.5l0.2 0.2 0.2 0.1h0.2l0.2-0.1h0.2zm7.6-2q0 0.3-0.2 0.5l-0.2 0.1v0.1l-0.2 0.2v0.1q-0.2 0.2-0.4 0h-0.2l-0.4-0.2-0.1-0.2-0.6-0.2h-0.6l-0.3 0.4-0.1 0.4v0.3l0.1 0.2 0.3 0.3h0.3l0.2 0.2q0.2 0 0.3 0.2l0.3 0.2 0.3 0.1 0.2 0.2h0.2l0.2 0.2 0.1 0.3 0.2 0.2 0.1 0.5v0.5l0.1 0.3v1.1l-0.2 0.3q0 0.3-0.2 0.5l-0.1 0.2-1 1h-0.2l-0.3 0.1h-0.3l-0.2 0.2h-1.5l-0.3-0.2h-0.3l-0.8-0.8v-0.8l0.2-0.6 0.3-0.5h0.2l0.2 0.1 0.2 0.2h0.3l0.3 0.2h0.3q0.2 0.1 0.4 0l0.4-0.4v-0.6l-0.1-0.2-0.3-0.2-0.1-0.2-0.2-0.2-0.4-0.1-0.2-0.1-0.2-0.2h-0.1l-0.2-0.1h-0.2q0-0.2-0.3-0.3l-0.1-0.2q0-0.2-0.2-0.3l-0.1-0.2-0.2-0.2-0.1-0.5-0.1-0.4v-1l0.5-1 0.5-0.6 0.6-0.5h0.2l0.2-0.1 0.3-0.2h0.7q0.3-0.2 0.6-0.1l0.5 0.1h0.2l0.3 0.3q0.2 0 0.3 0.2l0.3 0.1 0.2 0.1 0.6 0.8v0.2zm9.9 2.6v0.6q-0.1 0.1 0 0.2v0.1l-0.2 0.4v0.3l-0.1 0.3v0.3h-0.1l-0.2 0.2v0.3l-0.2 0.3v0.2h-0.2l-0.2 0.3h-0.1l-0.2 0.2h-0.1q-0.4 0-0.4 0.3l-0.8 0.6-1.2 0.4-0.4 0.1h-1.5l-0.3-0.3-0.3-0.1q-0.2 0-0.3-0.2l-0.1-0.2-0.1-0.1h-0.1l-0.2-0.2-0.5-0.4q-0.3-0.3-0.4-0.7l-0.3-0.6-0.1-0.1v-2l0.1-0.2v-0.3l0.2-0.2v-0.2l0.1-0.3v-0.1l0.2-0.3v-0.3l0.1-0.2 0.1-0.1 0.2-0.4 0.4-0.4v-0.1q0.1-0.1 0-0.2v-0.2h0.1l0.2-0.2 0.4-0.2 0.3-0.2 0.8-0.2h2.1l0.1 0.2h0.2v0.1l0.2 0.1q0.3 0 0.5 0.2l0.5 0.3v0.4h0.4v0.2l0.4 0.4v0.2h0.2v0.2h0.1l0.1 0.2 0.2 0.6 0.1 0.1 0.1 0.2v0.3zm-2.8 0.7v-0.4l-0.1-0.2v-0.2l-0.2-0.4-0.3-0.4h-0.1q-0.4 0-0.7-0.3h-0.8q-0.3 0-0.4 0.3l-0.2 0.4v0.2l-0.2 0.1-0.2 0.4-0.2 0.8v0.2l0.2 0.2v0.5l0.1 0.1 0.4 0.2h0.3l0.3 0.1h1q0-0.2 0.2-0.3l0.3-0.2 0.4-0.5q0.2-0.2 0.2-0.5" fill="#cad3f5" aria-label="Miso" paint-order="markers stroke fill"/>
    <path d="m44.504 51.95v0.3l-0.1 0.2v0.6h-0.2q0 0.1-0.2 0h-0.1q0 0.1-0.1 0h-0.8v1.8h-1.7v-0.1l-0.1-0.1v-1.4l-0.2-0.2h-0.3l-0.3 0.1h-0.2l-0.2 0.1q-0.2 0-0.3 0.2l-0.1 0.2v0.6l-0.2 0.4-0.3 0.3-0.3 0.6-0.2 0.1-0.2 0.2h-0.1l-0.2 0.2h-0.2l-0.2 0.1h-0.6l-0.3 0.1h-0.5l-0.2-0.1-0.2-0.2q-0.2 0-0.2-0.2h-0.2l-0.1-0.1-0.1-0.2-0.2-0.2v-0.2l-0.2-0.1v-0.6l-0.2-0.3v-1l0.2-0.4q0.2-0.7 0.7-1l0.6-0.2q0.2-0.2 0.5-0.2h0.4l0.4-0.1 0.3-0.1h0.1v-0.8l-0.1-0.1h-0.5l-0.4-0.2h-0.4l-0.4-0.1h-0.4v-0.4l-0.2-0.2v-1l0.1-0.1h0.2q0.3 0.1 0.4-0.2h0.5l0.3-0.3h1l0.3 0.1h1l0.4 0.2 0.1 0.2 0.1 0.1v0.2l0.1 0.2v0.1l-0.1 0.2v0.2l0.1 0.2v1.1l-0.2 0.3v0.1h0.5l0.2 0.1h0.4l0.2-0.1v-0.1h0.2v-1.4h0.6q0-0.1 0 0h1.3v0.1h0.2v0.3l-0.1 0.1v0.9l0.2 0.2h0.7q0.3 0.1 0.3 0.4v0.5m-6.6 1.7-0.1-0.5-0.2-0.2h-0.1l-0.2 0.1h-0.2q-0.3 0-0.5 0.3v0.2l-0.1 0.1v0.3l0.2 0.3h0.1l0.2 0.1h0.5l0.4-0.4zm10.6-4.6-0.2 0.2-0.1 0.2-0.3 0.2-0.4 0.4h-0.3l-1.1-1.1-0.4-0.2v-0.4h0.3l0.3-0.3 0.1-0.2 0.3-0.3h0.2l0.3-0.2h0.3v0.2l0.2 0.2h0.1l0.1 0.2h0.1q0 0.2 0.2 0.3l0.2 0.3v0.5m4.7 3.3v0.3l-0.2 0.1h-1.2l-0.1 0.1h-0.3l-0.3 0.2-0.2 0.3v0.7l0.1 0.3v0.2q0.2 0 0.3 0.2 0.2 0 0.3 0.2l0.4 0.2 0.2 0.3v0.1l-0.1 0.1-0.2 0.4v0.4l-0.2 0.2v0.2h-0.1l-0.2 0.2-0.2-0.1h-0.6l-0.2-0.2h-0.5l-0.2-0.2h-0.1v-0.2l-0.8-0.8v-0.2h-0.2v-0.7l0.1-0.2 0.2-0.2v-0.9q-0.1-0.1-0.2 0h-0.5l-0.3 0.1h-0.1l-0.1-0.2h-0.5l-0.1 0.1h-0.5l-0.3 0.1h-0.2v0.1h-0.6v-0.2l-0.2-0.3v-0.3l0.1-0.2v-0.6l0.1-0.3h0.1q0.1 0 0 0 0.2 0 0.2-0.2l0.2-0.1h0.7l0.3-0.2h0.5l0.2-0.1 0.1-0.2h0.4l0.1-0.1 0.2-0.1h0.2l0.2-0.1h0.2q0.2 0 0.3-0.2h0.2v-0.2l0.1-0.3v-0.5l0.1-0.1v-0.2l0.1-0.3 0.4-0.6 0.1-0.2 0.2-0.2 0.2-0.3 0.2 0.1h0.1l0.2 0.1 0.1 0.2h0.2l0.3 0.3 0.1 0.2 0.2 0.2 0.1 0.2v0.2l-0.1 0.3-0.2 0.3v0.3l-0.2 0.3 0.1 0.2h0.4l0.3-0.1 0.2 0.2 0.2 0.3h0.1v0.3l0.2 0.7z" fill="#a5adcb" aria-label="みそ" paint-order="markers stroke fill"/>
   </g>
  </g>
 </g>
</svg>
