<?xml version="1.0" encoding="UTF-8"?>
<svg version="1.1" viewBox="0 0 210 210" xmlns="http://www.w3.org/2000/svg">
 <g fill-rule="evenodd" stroke-width="3.3" paint-order="fill markers stroke">
  <g fill="#a875c0">
   <path d="m116.8 129.5.8-.1q.9-.3 1.5-1c4.2-4.3 5.9-9.6 6-15.4v-1.2l1-.5a20 20 0 0 0 12-16.9q.2-4.8-5.7-6.2l-3-.3q-3.8 0-7.2 2l-.6.4-1.3-4.9v-.7s5-9 5.8-13.7a22 22 0 0 0 .1-7.1c-.5-3.6-1.8-7-2.7-10.5-.3-1-.6-2.3-1.8-2.3-1 0-1.6.9-2.1 1.6a22 22 0 0 0-4 12l-.1 2q.1 6.2 1.2 12.2l.1.8-6.9 9.5q-2.4 3.5-4.2 7.4-.8 2-.8 4.3c0 3 1 6.2 2.9 8 1 1 2.7 2 4.3 2.7a20 20 0 0 0 9.3 1.2h.6v.6c-.6 3-1.3 6-3.1 8.5-1 1.3-1.9 2.7-3.8 2.9q-.8.1-.8.8l.1.6 1 2.3q.5 1 1.4 1m2-52.8q-.6-3.6-.6-7.1-.2-6.6 3.4-12.7a18 18 0 0 1 .7 8.6c-.7 3.9-1.6 7.7-3.5 11.2m-5.1 29.6q-1-.1-2-.5-2.1-.7-2.7-1.8l-.2-1.3.2-1.8.4-1.3q3-5 6.8-9.7l2-2.8.4 1.1.8 3.3s-1.4 1.8-2.3 2.7a12 12 0 0 0-3.7 8.8l.2 2.6zm10.8-1.6c-.4-3.2-1.2-5.8-1.9-9l.1-.8a20 20 0 0 1 7.6 0c1.5.3 3 .6 4.1 1.8l.3.2q-3 6-9.1 8.9l-1 .3zm-5.3 2.4c-1.8 0-3.5-.4-3.5-.4l-.1-1.7.2-2.3c.5-2.4 2.2-4 4-5.7l.4-.2q.3 0 .3.5 1 4.5 1.4 8.8v.8s-1.3.3-2.7.2" aria-label=""/>
   <path d="M175 192.9c6.7-1 11-4.9 14-10.5a25 25 0 0 0 2.3-15.2c-.8-6.4-5-9.6-10.7-9.6h-1.3q-8 .7-13.6 6.1a14 14 0 0 0-4 5.7l-.3 2q0 3.5 3.6 5.2l.4.2q1.2.6 2.2.6 1.5 0 2.8-1.1 3-2.4 3-5.9 0-1.2-.4-2.4v-.9q0-2.1 2.3-2.4h1.1q3.7 0 6.4 2.4a16 16 0 0 1 4.3 9.3 6 6 0 0 1-1 3.2q-1.5 2.4-3.9 4.2a17 17 0 0 1-10.4 3.4h-3.3q-3 .1-6-.7c-.8-.3-1.4.3-1.4 1v.5l.6 1.6c.6 1.3 1.2 2.5 3 2.9a32 32 0 0 0 10.4.4m21.5-27.7q1.3.1 2.1-1 1.2-1.4 1.3-3.4l-.1-1.2c-.4-1.5-1.6-.8-2.4-1.2-.6-.3-.7.5-1 .9-1 1.4-.7 3.2-1.1 4.8q-.4 1 .8 1.1zm-1.6 13c1.8-.1 3.4-2.5 3.4-4.7 0-1.5-.9-1.2-1.6-1.5s-1 .3-1.2.8c-1 1.3-1 2.8-1.4 4.2q-.3 1 .7 1.1z" aria-label=""/>
   <path d="M97.4 39.6q.3 0 .6-.3l2.1-1.6a15 15 0 0 0 6.8-12.9l-.1-2q-.5-3.8-3.8-3.9l-1.5.3-2 .8h-.1v-1.2l.2-5.7.1-3.3q0-1.5-.4-3.2c0-.3 0-1-.6-1q-1 0-1 1.2l-.1 4.3v1.5q0 4.5-.3 8.9c-.1 4.2-.8 8.4-.8 12.6q0 2.6.5 5 .1.5.4.5m1.4-6.7q0-2 .3-4l.1-3.4h.2q1.5-.9 3-1l1.1.3q1.2.4 1.2 1.2 0 .4-.3 1a17 17 0 0 1-5.6 5.9" aria-label=""/>
   <path d="M87.6 103.9c.5 0 .7-.7.9-1.2l.1-.8.3-10.4-.1-4.8q0-5 .3-10l.2-1.5v-2s.2-.7 0-1.1 0-1.6-1.1-1.4a39 39 0 0 1-7.3 1.1q.3-4.2.3-8.6v-2.8a6 6 0 0 0-.5-2.4c-1.7.5-1.4 2-1.4 3q-.1 7.5-.5 15v9.7l.2 3q0 1.1 1 1h.4l6-.9h.3v4.7l-.2 5.5q-.1 1.8.4 3.6c.2.5 0 1.3.7 1.3m-6.9-20.6v-5.7h1l5-.3h.4l-.2 1.5-.1 4q-3 .7-6 1z" aria-label=""/>
   <path d="M179.8 139.3q.5-.3.6-1l.3-1.9v-2.8l.2-3 2.2-.4q.1 3.1 1.2 6.1 0 .5.6.6.4 0 .5-.6.5-.8.4-1.8v-4.9l2.8-.6c2.8-.5 3.1-.9 3.3-3.6v-1.6q0-1-.8-1h-.7l-3.6.7-.8.2v-2.2l.2-4.8 4-1.2q1.3-.4 1.7-1.5l.4-2.6-.2-1.6q-.3-.7-.7-.7l-.6.1-4.7 1.6-.2-2.7q0-3.3-.6-6.5 0-.6-.4-.7h-.2q-.7 0-1 .8v1l.2 8.7-2.6.6-.2-4.5q.1-1.2-.4-2.2c-1.1.5-1 1.5-1 2.3l-.2 4.7-4.2.7c-2 .4-2.3.7-2.3 3-.2.5.2 1.1.2 1.7q-.2 1.4.8 1.3h.5l4.8-.9-.1 4.5q0 1.3-.3 2.5l-5.5 1.1q-1.6.3-1.7 1.9c0 1.6.5 2.3.5 3.4q0 .8.6.9l.4-.1 5.4-1.2v2q0 2.7.8 5.2c0 .3 0 1 .4 1m1.4-14.7v-3.3l.1-3.5 2.5-.5q-.4 3.5-.5 6.9z" aria-label=""/>
   <path d="M8.6 20.2q.4 0 .8-.5l3.3-3.1 1.1-1.1 4.8 3.7q.4 0 .9-.8c.5-.8.3-1.8.5-2.6q0-1.7-1.2-2.6L17 11.7q1.3-1.5 2.7-2.6.4-.3.4-1.3-.3-1.2-1.1-2.5-.6-1-1.1-1t-1.3.6l-1.4 1.3-2.1 2.4-4.7-3.1-.3.1-.7.4q-.3.6-.3 1.5c0 1.5.6 3.6 1.4 4.2l1 .6-3.3 3.2q-.5.5-.5 1t.4 1L8 19.8q.3.5.7.5" aria-label=""/>
   <path d="M132.7 41.4q.6 0 1-.6 1.9-1.8 3-4l2.7-4.4V35l.1 3.1q-.2.7.7.9c.9.2 1.1-.3 1.5-.6q3.3-3.5 5.7-7.7 1.8-2.8 1.8-6.3c0-1.9-.4-3.8-2.3-4.6l-1.5-.3q-1.4 0-2.7 1-.3.3-.7.4V10.7q0-1-.2-1.9 0-.6-.4-.8-.8 0-1 .7l-.4 1.7-.2 5.4V24q-1.4-2-2.9-1.8a7 7 0 0 0-2.7.8v-3.5L134 12q0-1-.3-1.9-.1-.6-.5-.7h-.1q-.9 0-1 .8l-.2 2.3q.3 2 .2 4.3l-.4 11.2c0 2.7-.5 5.5-.5 8.2q0 2 .4 3.9c.2.5.1 1 .7 1.2zm9-8.6v-5.5q.1-1.8 1.7-2.5l1.1-.2q1 0 1.8.8.3.2.4.5 0 .3-.2.5-2.2 3.3-4.8 6.5m-7.9 2.7v-6.2q0-1.6 1.5-1.8h.5q1.2 0 2 1l.1.4v.3q-1.6 3.4-4 6.3" aria-label=""/>
   <path d="M25 121.2q.3 0 .4-.5.6-2.6.5-5c0-4.3-.7-8.5-.8-12.7l-.3-8.9v-1.5l-.1-4.3q0-1-1-1.2c-.5 0-.5.7-.6 1l-.4 3.2.1 3.3.2 5.7v1.3l-2.1-.9-1.5-.3q-3.2 0-3.8 3.9v2a15 15 0 0 0 6.7 12.9zm-1.4-6.8a17 17 0 0 1-5.6-5.9l-.3-1q0-.8 1.2-1.2l1.1-.3q1.5.1 3 1h.2l.1 3.3z" aria-label=""/>
   <path d="M22.3 196.8q.3 0 .4-.5.7-2.5.6-5c0-4.3-.7-8.4-.9-12.7l-.2-8.8v-1.6L22 164q0-1.1-1-1.2-.6.2-.6 1l-.3 3.2v3.2l.3 5.7v1.3l-2.2-.9-1.5-.2c-2 0-3.5 1.4-3.7 3.8l-.1 2a15 15 0 0 0 6.7 13zm2.2 0q.3 0 .6-.4l2.1-1.6A15 15 0 0 0 34 182l-.1-2q-.6-3.9-3.8-4l-1.5.3-2 .9h-.1V176q0-2.9.2-5.7V167q0-1.6-.3-3.2c0-.4 0-1-.6-1q-1 0-1 1.2l-.1 4.2v1.6q0 4.5-.3 8.8c-.1 4.3-.8 8.4-.8 12.7q-.1 2.5.5 5 .1.5.4.5M21 190a17 17 0 0 1-5.7-5.8l-.2-1q0-.9 1.1-1.3l1.2-.2q1.5.2 3 .9h.1q0 1.8.2 3.4zm4.9 0 .3-4 .1-3.3.2-.1q1.5-.8 3-1l1.1.3q1.2.4 1.2 1.3 0 .4-.3 1A17 17 0 0 1 26 190" aria-label=""/>
   <path d="M55.6 121.4q1-.8 1-2 .4-3.4.5-6.9l4.9-1.1a2 2 0 0 0 1.4-1.2q.5-1.4.5-2.7 0-1.6-.7-1.6l-.8.2-5.4 1.3v-6.6l2.7-.5c2.7-.5 3-.9 3.3-3.7q.1-2-1.2-2l-1 .1-3.9.8v-1.7q.2-3.4-.7-6.9-1.1.3-1 1.2V96q-2.2.6-4.7.9c-1.4.2-1.6.4-1.6 1.8l.2 2.9q0 .7.7.7h.3c1.7 0 3.5-.6 5.2-1v3.3l.2 3.3-2.7.6c-3 .7-2.7.7-2.7 3.5v1.4q-.1.8.5.8h.4l4.3-1.1v.4q-.3 2.3-.2 4.5-.1 1.7.5 3.5" aria-label=""/>
   <path d="M58.5 52.2q1-1 .9-2.1 0-3.3.3-6.4l2.2-.5q.2 3 1.1 5.8.2.5.6.8.6-.1.7-.7.4-1.5.4-3.5l-.1-3 3-.5v2.3q0 2.4.5 5 1-1 1-2l.2-3.9v-1.8l1-.2c2.5-.5 3.3-1 3.3-4.5v-.3q0-1.4-1-1.4h-.8l-2.7.6.2-4.1v-3l2.5-.8q1.5-.5 2-2 0-1.2.2-2.1 0-2.3-1-2.2-.5 0-1.4.4l-2 .7.7-9.6-.2-1.2q0-.6-.4-.7t-.6.5q-.3.4-.3.9-.7 5.2-.8 10.6l-3.1.8-.2-4.5-.6-5.1q-.2-.7-.5-.7-.4 0-.7.4-.4.2-.3.7v5.9q.3 1.8.2 3.7l-2.8.6v-5.3l-.2-.7c-.2-.2 0-.7-.4-.7q-.7 0-.7.8l-.2 2-.1 4.1-2.1.4q-1.7.3-1.6 2.2l.1 2.5q0 1.2.8 1h.3l2.3-.4-.1 3-.3 4.2-2.9.6q-1.5.2-1.5 1.9c0 1.2.5 2.4.5 3.6q0 .5.5.5h.4l2.6-.6v2.4q0 3 1.1 5.6m6.3-15.4v-2q.3-1.5.2-3v-2l2.7-.6-.1 7zm-4.9 1 .1-5v-2l2.6-.5-.2 3.3-.3 3.7z" aria-label=""/>
  </g>
  <g fill="#a879c1">
   <path d="M27.5 62.8q6.8-1.7 9.9-8.2.6-1.3.6-2.8V32.7l.2-16.8q0-1.4-1-2l-.7-.3q-.5 0-.6.9v.6L35.8 26l-.3 20.4-.1.9h-.5a7 7 0 0 0-4.8.3 15 15 0 0 0-7.8 7.3 6 6 0 0 0-.5 3.6c.2 2.6 2.1 4.5 4.5 4.5z" aria-label=""/>
   <path d="M125 203.5q1.1-.5 1.2-1.8l-.1-9.8-.1-8.7V169a6 6 0 0 0 2.4.5q2.2 0 4-1.3 4-2 6-5.9a9 9 0 0 0 1.2-4.3q.1-1.9-1.5-3.1-1.4-1-3.3-1.1-3 0-5.4 1.8c-3.5 2.6-6 5.6-6 10l.1 1.2q.3 3 .2 6v2.5l.4 27v.8q0 .6.4.6z" aria-label=""/>
   <path d="M179.1 56.2c4.7-1 7.7-4 9.8-8.1q.6-1.1.7-2.6V20.3l.2-3.4.6.4q5.9 6 7.8 14.2.8 2.6 1 5.2 0 1.5-.8 3.2a9 9 0 0 0-.8 3.8q0 1.5.4 3 1.4-1.8 1.9-3.6.9-3.3.8-6.6v-1.7a43 43 0 0 0-1.3-9 29 29 0 0 0-7.7-13.8c-1-1-2-1.9-2-3.5q-.1-1.1-1.3-1.2-.8 0-.7.6v.8l-.2 15.4-.2 16q.1.9-.4.9l-.6-.2q-.7-.3-1.6-.3l-1.4.2q-6.7 1.9-9.3 8.2-.6 1.2-.5 2.5c0 2.8 1.8 4.9 4.5 4.9z" aria-label=""/>
   <path d="M51.7 187.5c.5.3 1-.2 1.3-.5q2.9-2.1 5-5c2.7-3.5 4.9-7.2 5.7-11.6a24 24 0 0 0 0-9c-.4-2.2-1-4.4-3-5.8l-.5-.2q-.4 0-.4.3l-.1 2.6q0 1.2.6 2.2.9 1.5.9 3.1v1c-.7 5.7-4 10-7.7 14.4l-.2-26.4 2.4.4h.5c4.6-.6 9.9-5.6 10.7-10.2l.1-1c0-2.6-2-4.5-5-4.5a9 9 0 0 0-5.3 1.9c-3.5 2.4-5.9 5.4-5.9 9.8v1.2q.3 1.2.2 2.5v1.6l.4 32.2q0 .7.3 1" aria-label=""/>
   <path d="M95 196.7q.4-.4.4-1.1l-.1-.6-1.3-5.2v-.6c0-1.7 1.2-3.7 2.6-4.3h1c1.6.5 2.5 1.9 3.4 3.1q.3.7 1 .8h.2q.7-.4.7-1.1v-.4q-.3-1.7-1.2-3.2c-1.5-1.8-2.3-4-3.3-6l-.3-.8q0-.6.6-1 1.4-1.3 2.4-3 1-1.3 1-2.8 0-1-.7-2-2.3-3.7-4.3-7.6a15 15 0 0 0-3.4-4.8q-.5-.7-1.3-.8l-.6.2q-.7.5-.7 1t.5 1.2c1.5 2 2.5 4.4 4 6.4q.6.8.6 1.3t-1.2 1.3q-1.5.8-3.1 2-.8.5-.8 1l.2.8 1.9 3.3a31 31 0 0 1 2.9 5q-.6.3-1 .2c-3.4.5-5.6 3-5.4 6a29 29 0 0 0 3.4 10.4q.2.7 1 1c.2 0 .4.4.7.4z" aria-label=""/>
   <path d="M159.3 94q1.3-.3 1.6-1.3a37 37 0 0 0 2.3-5.2c2-5.3 2.8-11 4.6-16.5l.2-1v-.2q0-1.1-.8-1.2h-.4a6 6 0 0 0-3 1.5 24 24 0 0 1-4.2 3l-.6.2q-.3 0-.6-.3l-.3-.6.2-.6q.3-.5.4-1.2c0-.9.2-2-.7-2.4l-1.2-.3q-.8 0-1.6 1.4c-1 1.6-1.2 3.5-1.5 5.3l-.1 1.1c0 2.3 1.2 4.4 3.8 4.4q.9 0 2.1-.4 2.1-1 4.1-2.3c-1.1 5.7-3.3 11-4.3 16.5" aria-label=""/>
  </g>
 </g>
</svg>
